<?xml version="1.0" encoding="UTF-8"?>
<svg width="1440px" height="730px" viewBox="0 0 1440 730" version="1.1" xmlns="http://www.w3.org/2000/svg" xmlns:xlink="http://www.w3.org/1999/xlink">
    <!-- Generator: Sketch 41.2 (35397) - http://www.bohemiancoding.com/sketch -->
    <title>Group 28 Copy</title>
    <desc>Created with Sketch.</desc>
    <defs></defs>
    <g id="Page-1" stroke="none" stroke-width="1" fill="none" fill-rule="evenodd">
        <g id="Group-28-Copy">
            <rect id="Rectangle-14-Copy" fill="#FFBEBE" x="0" y="0" width="1440" height="730"></rect>
            <path d="M506.696,450.503998 L506.696,464.831998 L518.144,464.831998 L518.144,450.503998 L506.696,450.503998 Z M516.392,463.199998 L508.4,463.199998 L508.4,458.495998 L516.392,458.495998 L516.392,463.199998 Z M508.4,456.887998 L508.4,452.111998 L516.392,452.111998 L516.392,456.887998 L508.4,456.887998 Z M504.824,468.479998 L504.824,470.183998 L519.944,470.183998 L519.944,468.479998 L504.824,468.479998 Z M503.528,448.823998 C502.328,452.567998 500.432,455.855998 497.792,458.735998 L498.368,460.583998 C499.328,459.599998 500.192,458.591998 500.984,457.535998 L500.984,471.047998 L502.712,471.047998 L502.712,454.919998 C503.696,453.239998 504.512,451.463998 505.136,449.591998 L503.528,448.823998 Z M522.32,450.431998 L522.32,452.111998 L538.832,452.111998 L538.832,467.999998 C538.832,468.815998 538.424,469.247998 537.656,469.247998 C536.456,469.247998 535.184,469.199998 533.864,469.151998 L534.248,470.831998 L538.256,470.831998 C539.792,470.831998 540.56,470.015998 540.56,468.431998 L540.56,452.111998 L543.728,452.111998 L543.728,450.431998 L522.32,450.431998 Z M534.44,455.783998 L525.104,455.783998 L525.104,466.703998 L526.784,466.703998 L526.784,464.591998 L534.44,464.591998 L534.44,455.783998 Z M526.784,463.007998 L526.784,457.343998 L532.784,457.343998 L532.784,463.007998 L526.784,463.007998 Z M558.8,449.255998 L558.8,457.439998 C558.8,458.807998 559.496,459.503998 560.936,459.503998 L567.296,459.503998 L567.296,457.919998 L561.392,457.919998 C560.792,457.919998 560.504,457.607998 560.504,457.031998 L560.504,453.791998 L566.864,453.359998 L566.864,451.775998 L560.504,452.207998 L560.504,449.255998 L558.8,449.255998 Z M554.816,450.791998 L553.472,451.631998 C554.048,452.399998 554.576,453.191998 555.056,453.959998 C552.8,454.247998 550.664,454.463998 548.696,454.583998 C550.04,453.335998 551.24,451.655998 552.344,449.495998 L550.688,448.991998 C549.728,450.935998 548.504,452.687998 547.016,454.223998 C546.8,454.415998 546.536,454.583998 546.224,454.679998 L546.704,456.119998 C550.256,455.927998 553.28,455.615998 555.824,455.231998 C556.136,455.759998 556.424,456.263998 556.688,456.791998 L558.056,455.831998 C557.312,454.391998 556.232,452.711998 554.816,450.791998 Z M564.992,470.639998 C565.856,470.639998 566.48,470.447998 566.864,470.087998 C567.32,469.655998 567.632,468.479998 567.776,466.535998 L566.216,466.055998 C566.12,467.519998 565.952,468.407998 565.688,468.743998 C565.496,468.959998 565.16,469.079998 564.68,469.079998 L561.344,469.079998 C560.768,469.079998 560.48,468.815998 560.48,468.311998 L560.48,464.639998 L566.984,464.207998 L566.984,462.599998 L560.48,463.031998 L560.48,460.487998 L558.776,460.487998 L558.776,468.671998 C558.776,469.967998 559.472,470.639998 560.864,470.639998 L564.992,470.639998 Z M554.096,461.831998 C553.136,461.639998 552.368,461.519998 551.792,461.423998 C551.168,461.303998 550.328,461.183998 549.296,461.087998 L549.296,459.047998 L554.816,459.047998 L554.816,464.519998 C553.064,464.879998 551.24,465.143998 549.344,465.335998 L549.728,466.823998 C551.504,466.583998 553.208,466.271998 554.816,465.935998 L554.816,468.671998 C554.816,469.151998 554.576,469.391998 554.096,469.391998 C553.448,469.391998 552.752,469.343998 551.984,469.295998 L552.416,470.903998 L554.6,470.903998 C555.848,470.903998 556.472,470.351998 556.472,469.247998 L556.472,457.535998 L547.64,457.535998 L547.64,463.655998 C547.592,466.151998 547.064,468.215998 546.008,469.847998 L547.328,471.047998 C548.6,469.127998 549.248,466.607998 549.296,463.511998 L549.296,462.407998 C549.872,462.455998 550.472,462.551998 551.048,462.647998 C551.864,462.791998 552.704,462.935998 553.544,463.127998 L554.096,461.831998 Z M587.504,457.343998 L581.888,457.343998 L581.888,448.967998 L580.112,448.967998 L580.112,457.343998 L574.496,457.343998 L574.496,450.791998 L572.768,450.791998 L572.768,459.023998 L580.112,459.023998 L580.112,467.831998 L573.344,467.831998 L573.344,461.279998 L571.592,461.279998 L571.592,470.831998 L573.344,470.831998 L573.344,469.487998 L588.656,469.487998 L588.656,470.831998 L590.408,470.831998 L590.408,461.279998 L588.656,461.279998 L588.656,467.831998 L581.888,467.831998 L581.888,459.023998 L589.232,459.023998 L589.232,450.791998 L587.504,450.791998 L587.504,457.343998 Z M594.512,458.111998 L594.512,459.791998 L597.272,459.791998 L597.272,466.247998 C596.24,466.583998 595.184,466.847998 594.128,467.087998 L594.536,468.743998 C597.224,467.975998 599.768,467.039998 602.12,465.935998 L602.12,464.255998 C601.112,464.759998 600.104,465.215998 599.048,465.623998 L599.048,459.791998 L601.664,459.791998 L601.664,458.111998 L599.048,458.111998 L599.048,452.135998 L602.072,452.135998 L602.072,450.479998 L594.2,450.479998 L594.2,452.135998 L597.272,452.135998 L597.272,458.111998 L594.512,458.111998 Z M603.272,449.879998 L603.272,463.127998 L606.008,463.127998 C605.768,466.031998 604.28,468.119998 601.496,469.391998 L602.408,470.831998 C605.672,469.223998 607.4,466.655998 607.64,463.127998 L609.8,463.127998 L609.8,468.551998 C609.8,469.871998 610.52,470.543998 611.96,470.543998 L613.304,470.543998 C614.336,470.495998 615.008,470.207998 615.32,469.703998 C615.632,469.175998 615.8,467.759998 615.8,465.479998 L614.288,464.903998 C614.288,466.343998 614.216,467.399998 614.12,468.071998 C614.024,468.623998 613.712,468.911998 613.208,468.959998 L611.984,468.959998 C611.6,468.911998 611.432,468.647998 611.432,468.215998 L611.432,463.127998 L614.168,463.127998 L614.168,449.879998 L603.272,449.879998 Z M612.512,461.663998 L604.952,461.663998 L604.952,459.071998 L612.512,459.071998 L612.512,461.663998 Z M604.952,457.679998 L604.952,455.183998 L612.512,455.183998 L612.512,457.679998 L604.952,457.679998 Z M604.952,453.791998 L604.952,451.367998 L612.512,451.367998 L612.512,453.791998 L604.952,453.791998 Z M628.16,449.903998 L628.16,451.535998 L631.616,451.535998 C631.952,460.535998 634.376,466.943998 638.912,470.759998 L639.992,469.295998 C635.48,465.359998 633.224,458.879998 633.224,449.903998 L628.16,449.903998 Z M624.728,451.679998 C623.816,460.871998 621.608,466.751998 618.08,469.319998 L619.04,470.879998 C622.88,468.047998 625.328,461.687998 626.384,451.847998 L624.728,451.679998 Z M656.096,449.039998 L656.096,471.023998 L657.824,471.023998 L657.824,458.759998 C659.264,459.863998 660.992,461.375998 663.008,463.319998 L664.064,461.735998 C661.952,459.911998 659.888,458.303998 657.824,456.887998 L657.824,449.039998 L656.096,449.039998 Z M642.8,452.207998 L642.8,453.839998 L647.408,453.839998 L647.408,456.983998 L642.344,456.983998 L642.344,458.663998 L654.296,458.663998 L654.296,456.983998 L649.112,456.983998 L649.112,453.839998 L653.768,453.839998 L653.768,452.207998 L649.112,452.207998 L649.112,449.231998 L647.408,449.231998 L647.408,452.207998 L642.8,452.207998 Z M642.704,462.359998 L642.704,463.991998 L647.408,463.991998 L647.408,467.951998 C645.68,468.119998 643.832,468.287998 641.912,468.431998 L642.152,470.183998 C646.904,469.799998 651.128,469.271998 654.824,468.647998 L654.824,466.967998 C653.072,467.255998 651.176,467.519998 649.112,467.759998 L649.112,463.991998 L653.912,463.991998 L653.912,462.359998 L649.112,462.359998 L649.112,459.575998 L647.408,459.575998 L647.408,462.359998 L642.704,462.359998 Z M687.416,449.975998 L676.28,449.975998 L676.28,459.623998 C676.208,463.943998 675.488,467.327998 674.144,469.775998 L675.44,470.927998 C676.976,468.095998 677.792,464.327998 677.864,459.623998 L677.864,457.655998 L678.824,457.655998 C679.16,460.487998 680.144,463.151998 681.8,465.623998 C680.528,467.159998 678.92,468.455998 676.976,469.487998 L677.816,471.023998 C679.784,469.991998 681.44,468.647998 682.832,467.015998 C683.96,468.407998 685.352,469.751998 686.984,471.047998 L688.112,469.727998 C686.408,468.527998 684.968,467.183998 683.816,465.743998 C685.352,463.487998 686.384,460.751998 686.936,457.511998 L686.936,456.023998 L677.864,456.023998 L677.864,451.559998 L687.416,451.559998 L687.416,449.975998 Z M680.36,457.655998 L685.256,457.655998 C684.824,460.175998 683.984,462.383998 682.76,464.303998 C681.464,462.287998 680.672,460.079998 680.36,457.655998 Z M669.32,462.359998 L672.248,462.359998 L672.248,470.903998 L673.928,470.903998 L673.928,460.727998 L669.392,460.727998 L669.392,457.295998 L673.856,457.295998 L673.856,449.231998 L672.176,449.231998 L672.176,455.663998 L669.392,455.663998 L669.392,449.687998 L667.688,449.687998 L667.688,460.343998 C667.664,464.519998 667.112,467.567998 666.008,469.463998 L667.28,470.615998 C668.432,468.767998 669.128,466.007998 669.32,462.359998 Z M710.816,452.783998 L701.84,452.783998 L701.84,448.919998 L700.16,448.919998 L700.16,452.783998 L691.184,452.783998 L691.184,457.343998 L692.864,457.343998 L692.864,454.295998 L709.136,454.295998 L709.136,457.343998 L710.816,457.343998 L710.816,452.783998 Z M695.024,455.855998 L695.024,460.655998 L706.976,460.655998 L706.976,455.855998 L695.024,455.855998 Z M705.368,459.383998 L696.632,459.383998 L696.632,457.199998 L705.368,457.199998 L705.368,459.383998 Z M695.048,449.039998 L693.68,449.711998 C694.352,450.575998 695,451.583998 695.6,452.687998 L696.968,451.991998 C696.368,450.935998 695.72,449.951998 695.048,449.039998 Z M706.88,449.087998 C706.4,450.023998 705.752,450.959998 704.936,451.919998 L706.28,452.639998 C707.096,451.703998 707.768,450.743998 708.296,449.735998 L706.88,449.087998 Z M709.256,462.023998 L692.768,462.023998 L692.768,471.071998 L694.448,471.071998 L694.448,470.039998 L707.6,470.039998 L707.6,471.071998 L709.256,471.071998 L709.256,462.023998 Z M694.448,468.623998 L694.448,466.631998 L700.208,466.631998 L700.208,468.623998 L694.448,468.623998 Z M701.888,468.623998 L701.888,466.631998 L707.6,466.631998 L707.6,468.623998 L701.888,468.623998 Z M694.448,465.383998 L694.448,463.415998 L700.208,463.415998 L700.208,465.383998 L694.448,465.383998 Z M701.888,463.415998 L707.6,463.415998 L707.6,465.383998 L701.888,465.383998 L701.888,463.415998 Z M728.48,449.087998 L728.48,451.583998 L722.696,451.583998 L722.696,453.143998 L728.48,453.143998 L728.48,455.927998 L723.632,455.927998 L723.632,457.511998 L734.96,457.511998 L734.96,455.927998 L730.16,455.927998 L730.16,453.143998 L735.872,453.143998 L735.872,451.583998 L730.16,451.583998 L730.16,449.087998 L728.48,449.087998 Z M723.176,460.511998 L723.176,462.119998 L731.216,462.119998 L731.216,468.119998 C731.216,468.911998 730.856,469.319998 730.16,469.319998 C729.296,469.319998 728.408,469.271998 727.448,469.199998 L727.808,470.831998 L730.736,470.831998 C732.176,470.831998 732.896,470.063998 732.896,468.551998 L732.896,462.119998 L735.872,462.119998 L735.872,460.511998 L732.896,460.511998 L732.896,458.639998 L731.216,458.639998 L731.216,460.511998 L723.176,460.511998 Z M724.928,463.103998 L723.584,463.919998 C724.88,465.335998 725.912,466.631998 726.68,467.783998 L728.024,466.823998 C727.304,465.767998 726.272,464.519998 724.928,463.103998 Z M721.688,450.791998 L714.968,450.791998 L714.968,469.055998 L716.648,469.055998 L716.648,466.871998 L720.056,466.871998 L720.056,468.479998 L721.688,468.479998 L721.688,450.791998 Z M716.648,465.263998 L716.648,459.479998 L720.056,459.479998 L720.056,465.263998 L716.648,465.263998 Z M716.648,457.919998 L716.648,452.375998 L720.056,452.375998 L720.056,457.919998 L716.648,457.919998 Z M738.728,453.407998 L738.728,455.063998 L746.576,455.063998 C744.8,459.311998 741.92,462.791998 737.888,465.479998 L738.872,467.087998 C743.144,463.943998 746.168,459.935998 747.944,455.063998 L748.112,455.063998 L748.112,464.423998 L743.168,464.423998 L743.168,466.079998 L748.112,466.079998 L748.112,470.999998 L749.888,470.999998 L749.888,466.079998 L755.024,466.079998 L755.024,464.423998 L749.888,464.423998 L749.888,455.063998 L750.08,455.063998 C751.712,459.407998 754.64,463.319998 758.864,466.775998 L760.04,465.287998 C755.912,462.287998 753.032,458.879998 751.424,455.063998 L759.248,455.063998 L759.248,453.407998 L749.888,453.407998 L749.888,449.063998 L748.112,449.063998 L748.112,453.407998 L738.728,453.407998 Z M766.712,459.167998 C767.72,459.767998 768.728,460.535998 769.736,461.495998 L770.648,460.055998 C769.688,459.215998 768.632,458.471998 767.48,457.823998 C767.984,456.791998 768.392,455.663998 768.728,454.415998 L767.12,454.127998 C766.4,456.983998 764.984,459.239998 762.92,460.919998 L764,462.239998 C765.056,461.375998 765.944,460.367998 766.712,459.167998 Z M778.712,458.999998 C779.864,459.719998 781.016,460.655998 782.144,461.783998 L783.104,460.319998 C782,459.311998 780.8,458.399998 779.48,457.631998 C779.936,456.671998 780.32,455.615998 780.608,454.463998 L778.976,454.175998 C778.352,456.719998 777.176,458.735998 775.448,460.223998 L776.504,461.567998 C777.344,460.847998 778.088,459.983998 778.712,458.999998 Z M772.112,460.055998 C769.76,463.463998 766.448,466.247998 762.152,468.407998 L763.04,469.943998 C766.784,467.975998 769.808,465.527998 772.112,462.551998 L772.112,470.927998 L773.888,470.927998 L773.888,462.479998 C776.432,465.599998 779.48,468.071998 783.032,469.871998 L783.968,468.263998 C779.792,466.271998 776.432,463.487998 773.888,459.935998 L773.888,453.263998 L782.72,453.263998 L782.72,451.607998 L773.888,451.607998 L773.888,449.063998 L772.112,449.063998 L772.112,451.607998 L763.304,451.607998 L763.304,453.263998 L772.112,453.263998 L772.112,460.055998 Z M786.392,451.439998 L786.392,453.023998 L797.312,453.023998 L797.312,451.439998 L792.896,451.439998 C792.56,450.527998 792.2,449.687998 791.84,448.967998 L790.016,449.255998 C790.448,449.903998 790.832,450.623998 791.168,451.439998 L786.392,451.439998 Z M787.424,454.991998 L787.424,460.991998 L791,460.991998 L791,468.503998 C791,469.055998 790.736,469.343998 790.256,469.343998 C789.728,469.343998 789.2,469.295998 788.624,469.223998 L788.96,470.783998 L790.808,470.783998 C792.008,470.783998 792.632,470.159998 792.632,468.911998 L792.632,460.991998 L796.088,460.991998 L796.088,454.991998 L787.424,454.991998 Z M794.504,459.503998 L789.008,459.503998 L789.008,456.455998 L794.504,456.455998 L794.504,459.503998 Z M787.952,462.311998 C787.376,464.543998 786.728,466.391998 785.984,467.855998 L787.4,468.383998 C788.216,466.751998 788.864,464.855998 789.392,462.695998 L787.952,462.311998 Z M795.224,462.263998 L793.808,462.647998 C794.456,464.135998 794.984,465.647998 795.416,467.183998 L796.808,466.655998 C796.424,465.311998 795.896,463.847998 795.224,462.263998 Z M804.056,449.399998 L802.76,450.191998 C803.864,451.463998 804.728,452.615998 805.352,453.671998 L806.624,452.783998 C806.024,451.823998 805.16,450.695998 804.056,449.399998 Z M799.64,449.015998 L799.64,454.631998 L797.144,454.631998 L797.144,456.239998 L799.616,456.239998 C799.472,462.335998 798.128,466.823998 795.584,469.655998 L796.808,470.735998 C799.592,467.639998 801.08,462.815998 801.224,456.239998 L807.296,456.239998 L807.296,454.631998 L801.248,454.631998 L801.248,449.015998 L799.64,449.015998 Z M805.736,470.615998 C806.456,470.615998 806.96,470.375998 807.296,469.919998 C807.68,469.391998 807.92,467.903998 808.064,465.455998 L806.552,464.975998 C806.48,466.967998 806.36,468.167998 806.168,468.551998 C806.024,468.887998 805.784,469.055998 805.448,469.055998 L804.368,469.055998 C803.984,469.055998 803.816,468.839998 803.816,468.431998 L803.816,457.751998 L802.208,457.751998 L802.208,468.767998 C802.208,469.991998 802.76,470.615998 803.888,470.615998 L805.736,470.615998 Z M812.384,455.687998 L814.64,455.687998 L814.64,462.023998 C813.152,462.503998 811.64,462.911998 810.08,463.247998 L810.488,464.903998 C811.904,464.519998 813.296,464.111998 814.64,463.655998 L814.64,470.999998 L816.296,470.999998 L816.296,463.055998 C817.04,462.767998 817.784,462.455998 818.552,462.119998 L818.552,460.487998 C817.808,460.823998 817.064,461.135998 816.296,461.447998 L816.296,455.687998 L818.48,455.687998 L818.48,454.007998 L816.296,454.007998 L816.296,449.015998 L814.64,449.015998 L814.64,454.007998 L812.624,454.007998 C812.744,453.023998 812.816,452.015998 812.864,451.007998 L811.28,450.887998 C811.184,453.647998 810.776,456.263998 810.032,458.759998 L811.544,459.191998 C811.88,458.063998 812.144,456.887998 812.384,455.687998 Z M824.36,448.991998 L824.36,451.583998 L818.672,451.583998 L818.672,453.191998 L824.36,453.191998 L824.36,456.023998 L819.632,456.023998 L819.632,457.655998 L831.056,457.655998 L831.056,456.023998 L826.04,456.023998 L826.04,453.191998 L831.8,453.191998 L831.8,451.583998 L826.04,451.583998 L826.04,448.991998 L824.36,448.991998 Z M819.272,460.391998 L819.272,462.023998 L827.216,462.023998 L827.216,468.431998 C827.216,469.007998 826.904,469.319998 826.28,469.319998 C825.416,469.319998 824.528,469.271998 823.568,469.199998 L823.928,470.831998 L826.856,470.831998 C828.2,470.831998 828.896,470.159998 828.896,468.839998 L828.896,462.023998 L831.8,462.023998 L831.8,460.391998 L828.896,460.391998 L828.896,458.783998 L827.216,458.783998 L827.216,460.391998 L819.272,460.391998 Z M821.216,463.151998 L819.896,463.967998 C821.072,465.359998 822.008,466.607998 822.704,467.735998 L824.048,466.775998 C823.376,465.743998 822.44,464.543998 821.216,463.151998 Z M835.496,449.951998 L835.496,457.679998 L837.608,457.679998 C837.512,461.039998 837.224,463.487998 836.744,465.047998 C836.216,466.727998 835.304,468.191998 834.056,469.415998 L835.16,470.831998 C836.624,469.415998 837.656,467.735998 838.28,465.791998 C838.568,464.831998 838.808,463.607998 839,462.071998 L844.04,462.071998 C843.992,465.119998 843.92,466.943998 843.776,467.567998 C843.536,468.623998 842.72,469.151998 841.28,469.151998 C840.656,469.151998 839.936,469.127998 839.12,469.079998 L839.504,470.567998 C840.44,470.615998 841.112,470.663998 841.496,470.663998 C843.824,470.663998 845.12,469.847998 845.384,468.215998 C845.624,467.207998 845.744,464.615998 845.744,460.439998 L839.144,460.439998 C839.192,459.599998 839.24,458.687998 839.288,457.679998 L845.12,457.679998 L845.12,449.951998 L835.496,449.951998 Z M843.44,456.047998 L837.176,456.047998 L837.176,451.583998 L843.44,451.583998 L843.44,456.047998 Z M848.264,451.103998 L848.264,466.055998 L849.944,466.055998 L849.944,451.103998 L848.264,451.103998 Z M852.848,470.783998 C854.288,470.783998 855.032,469.967998 855.032,468.383998 L855.032,449.063998 L853.328,449.063998 L853.328,467.951998 C853.328,468.815998 852.968,469.247998 852.248,469.247998 C851.24,469.247998 850.16,469.199998 849.008,469.127998 L849.392,470.783998 L852.848,470.783998 Z M868.904,448.919998 C866.792,451.223998 863.6,452.759998 859.328,453.575998 L860.336,455.159998 C862.904,454.583998 865.112,453.743998 866.984,452.639998 L873.992,452.639998 C872.648,454.607998 870.704,456.119998 868.208,457.127998 C867.44,456.167998 866.624,455.303998 865.76,454.487998 L864.248,455.207998 C865.064,455.951998 865.856,456.791998 866.6,457.703998 C864.872,458.207998 862.952,458.519998 860.792,458.663998 L861.536,460.223998 C868.544,459.671998 873.368,457.079998 875.96,452.471998 L875.96,451.103998 L869.072,451.103998 C869.552,450.671998 870.008,450.215998 870.44,449.735998 L868.904,448.919998 Z M867.992,463.919998 L866.456,464.639998 C867.344,465.503998 868.184,466.487998 869,467.567998 C866.288,468.479998 863.048,468.935998 859.304,468.959998 L860,470.615998 C869.312,470.399998 875.648,467.471998 879.056,461.807998 L879.056,460.439998 L872.48,460.439998 C873.152,459.935998 873.752,459.383998 874.328,458.807998 L872.84,457.991998 C870.344,460.631998 866.48,462.239998 861.248,462.767998 L862.28,464.303998 C865.184,463.799998 867.68,463.031998 869.792,462.023998 L876.896,462.023998 C875.36,464.135998 873.272,465.791998 870.608,466.943998 C869.792,465.863998 868.904,464.855998 867.992,463.919998 Z M893.864,449.039998 L892.112,449.039998 C892.112,449.951998 892.088,451.223998 892.064,452.855998 C891.848,459.767998 888.44,465.263998 881.84,469.319998 L882.896,470.855998 C888.224,467.423998 891.632,463.103998 893.072,457.871998 C894.776,463.295998 898.088,467.615998 902.984,470.831998 L904.112,469.319998 C898.52,465.887998 895.04,460.895998 893.696,454.367998 C893.792,452.879998 893.864,451.103998 893.864,449.039998 Z M914.696,453.143998 L910.832,453.143998 C911.312,451.943998 911.672,450.623998 911.96,449.207998 L910.232,448.967998 C910.016,450.407998 909.68,451.799998 909.2,453.143998 L906.968,453.143998 L906.968,470.207998 L908.648,470.207998 L908.648,468.143998 L913.016,468.143998 L913.016,469.511998 L914.696,469.511998 L914.696,453.143998 Z M908.648,466.535998 L908.648,461.279998 L913.016,461.279998 L913.016,466.535998 L908.648,466.535998 Z M908.648,459.719998 L908.648,454.775998 L913.016,454.775998 L913.016,459.719998 L908.648,459.719998 Z M918.872,458.711998 L917.48,459.575998 C919.136,461.543998 920.456,463.319998 921.44,464.903998 L922.808,463.943998 C921.896,462.455998 920.6,460.703998 918.872,458.711998 Z M927.104,453.167998 L919.448,453.167998 C919.88,451.919998 920.216,450.575998 920.504,449.159998 L918.8,448.943998 C918.176,452.351998 917.048,455.231998 915.368,457.583998 L916.4,458.951998 C917.336,457.727998 918.128,456.359998 918.8,454.847998 L925.4,454.847998 C925.352,461.759998 925.256,465.911998 925.112,467.255998 C924.92,468.479998 924.272,469.103998 923.144,469.103998 C922.4,469.103998 921.536,469.079998 920.528,469.031998 L920.936,470.615998 C922.088,470.663998 922.904,470.711998 923.384,470.711998 C925.4,470.711998 926.504,469.775998 926.744,467.951998 C926.984,466.079998 927.104,461.135998 927.104,453.167998 Z M944.024,448.895998 L944.024,450.527998 L938.384,450.527998 L938.384,451.943998 L944.024,451.943998 L944.024,453.599998 L939.2,453.599998 L939.2,454.991998 L944.024,454.991998 L944.024,456.599998 L937.736,456.599998 L937.736,457.031998 C937.304,455.567998 936.848,454.247998 936.344,453.095998 L935.096,453.503998 C935.696,454.895998 936.2,456.335998 936.584,457.847998 L937.736,457.559998 L937.736,458.039998 L952.016,458.039998 L952.016,456.599998 L945.752,456.599998 L945.752,454.991998 L950.528,454.991998 L950.528,453.599998 L945.752,453.599998 L945.752,451.943998 L951.32,451.943998 L951.32,450.527998 L945.752,450.527998 L945.752,448.895998 L944.024,448.895998 Z M941.192,464.063998 L948.464,464.063998 L948.464,465.743998 L941.096,465.743998 C941.144,465.263998 941.192,464.783998 941.192,464.279998 L941.192,464.063998 Z M948.464,462.719998 L941.192,462.719998 L941.192,460.919998 L948.464,460.919998 L948.464,462.719998 Z M940.88,467.111998 L948.464,467.111998 L948.464,468.455998 C948.464,469.103998 948.224,469.439998 947.744,469.439998 C946.88,469.439998 945.944,469.415998 944.912,469.391998 L945.32,470.879998 L948.248,470.879998 C949.496,470.879998 950.12,470.255998 950.12,469.055998 L950.12,459.503998 L939.584,459.503998 L939.584,464.375998 C939.536,466.583998 938.936,468.431998 937.784,469.871998 L939.056,470.999998 C939.92,469.895998 940.544,468.599998 940.88,467.111998 Z M930.68,453.623998 C930.632,455.927998 930.368,458.135998 929.912,460.199998 L931.232,460.583998 C931.712,458.423998 931.976,456.119998 932.024,453.719998 L930.68,453.623998 Z M933.128,449.063998 L933.128,470.903998 L934.808,470.903998 L934.808,449.063998 L933.128,449.063998 Z M955.736,449.351998 L954.536,450.479998 C956.288,451.703998 957.68,452.855998 958.688,453.935998 L959.864,452.759998 C958.76,451.631998 957.368,450.503998 955.736,449.351998 Z M955.16,455.423998 L953.96,456.551998 C955.688,457.799998 957.032,458.951998 957.992,460.055998 L959.168,458.879998 C958.064,457.727998 956.744,456.575998 955.16,455.423998 Z M957.776,462.023998 C956.792,464.783998 955.64,467.471998 954.296,470.111998 L955.928,470.831998 C957.152,468.263998 958.256,465.527998 959.24,462.599998 L957.776,462.023998 Z M961.64,450.119998 L961.64,459.911998 L964.808,459.911998 C964.568,464.375998 962.6,467.567998 958.952,469.487998 L959.888,470.999998 C963.968,468.695998 966.176,464.999998 966.464,459.911998 L968.768,459.911998 L968.768,468.503998 C968.768,469.823998 969.416,470.495998 970.736,470.495998 L973.256,470.495998 C974.072,470.495998 974.696,470.255998 975.08,469.775998 C975.512,469.247998 975.824,467.711998 975.992,465.191998 L974.432,464.711998 C974.336,466.751998 974.168,467.975998 973.928,468.407998 C973.736,468.743998 973.424,468.935998 972.944,468.935998 L971.24,468.935998 C970.688,468.935998 970.424,468.671998 970.424,468.167998 L970.424,459.911998 L973.712,459.911998 L973.712,450.119998 L961.64,450.119998 Z M972.032,458.303998 L963.32,458.303998 L963.32,451.775998 L972.032,451.775998 L972.032,458.303998 Z M988.976,458.303998 C988.496,458.303998 988.112,458.423998 987.848,458.711998 C987.56,458.975998 987.416,459.335998 987.416,459.791998 C987.416,460.199998 987.536,460.559998 987.824,460.847998 C988.112,461.135998 988.448,461.279998 988.856,461.279998 C989.096,461.279998 989.288,461.231998 989.384,461.183998 C989.384,461.759998 989.216,462.287998 988.88,462.791998 C988.472,463.271998 987.968,463.631998 987.344,463.847998 L987.344,465.023998 C988.352,464.759998 989.192,464.231998 989.816,463.463998 C990.44,462.647998 990.752,461.711998 990.752,460.655998 C990.752,459.959998 990.584,459.407998 990.272,458.975998 C989.936,458.519998 989.504,458.303998 988.976,458.303998 Z M501.656,490.503997 L518.6,490.503997 L518.6,488.871997 L502.712,488.871997 C503.072,488.199997 503.384,487.503997 503.624,486.759997 L501.944,486.543997 C501.296,488.487997 500.048,490.143997 498.2,491.487997 L499.256,492.879997 C500.168,492.159997 500.984,491.367997 501.656,490.503997 Z M501.728,491.727997 L501.728,494.727997 L498.92,494.727997 L498.92,496.311997 L501.728,496.311997 L501.728,500.319997 L498.584,500.319997 L498.584,501.927997 L519.416,501.927997 L519.416,500.319997 L516.728,500.319997 L516.728,496.311997 L519.104,496.311997 L519.104,494.727997 L516.728,494.727997 L516.728,491.727997 L515.048,491.727997 L515.048,494.727997 L512.288,494.727997 L512.288,491.727997 L510.632,491.727997 L510.632,494.727997 L507.824,494.727997 L507.824,491.727997 L506.144,491.727997 L506.144,494.727997 L503.384,494.727997 L503.384,491.727997 L501.728,491.727997 Z M503.384,500.319997 L503.384,496.311997 L506.144,496.311997 L506.144,500.319997 L503.384,500.319997 Z M507.824,500.319997 L507.824,496.311997 L510.632,496.311997 L510.632,500.319997 L507.824,500.319997 Z M512.288,500.319997 L512.288,496.311997 L515.048,496.311997 L515.048,500.319997 L512.288,500.319997 Z M501.608,502.959997 C500.792,504.783997 499.808,506.343997 498.704,507.663997 L500.096,508.695997 C501.248,507.279997 502.232,505.599997 503.048,503.655997 L501.608,502.959997 Z M506.84,503.415997 L505.256,503.775997 C505.688,505.167997 506.072,506.751997 506.384,508.551997 L508.112,508.167997 C507.728,506.463997 507.32,504.879997 506.84,503.415997 Z M512.048,503.271997 L510.464,503.631997 C511.04,505.023997 511.544,506.607997 511.952,508.407997 L513.704,508.023997 C513.224,506.319997 512.672,504.735997 512.048,503.271997 Z M516.392,502.815997 L515.072,503.631997 C516.416,505.455997 517.472,507.087997 518.24,508.575997 L519.68,507.567997 C518.912,506.223997 517.832,504.639997 516.392,502.815997 Z M534.968,486.591997 L534.968,490.455997 L529.28,490.455997 L529.28,492.135997 L534.968,492.135997 L534.968,496.623997 L528.128,496.623997 L528.128,498.303997 L533.816,498.303997 C531.992,502.599997 530.504,505.239997 529.376,506.223997 C529.28,506.271997 529.16,506.343997 529.016,506.391997 L529.424,507.903997 C533.672,507.495997 537.608,506.943997 541.232,506.271997 C541.568,507.039997 541.88,507.831997 542.216,508.671997 L543.848,507.951997 C542.768,505.215997 541.496,502.623997 540.056,500.223997 L538.4,500.775997 C539.12,501.975997 539.84,503.295997 540.536,504.735997 C537.56,505.311997 534.608,505.767997 531.656,506.079997 C532.808,504.567997 534.152,501.975997 535.688,498.303997 L543.56,498.303997 L543.56,496.623997 L536.744,496.623997 L536.744,492.135997 L542.912,492.135997 L542.912,490.455997 L536.744,490.455997 L536.744,486.591997 L534.968,486.591997 Z M524.072,486.975997 L522.848,488.151997 C524.528,489.423997 525.824,490.623997 526.784,491.775997 L528.008,490.527997 C526.952,489.327997 525.632,488.151997 524.072,486.975997 Z M523.496,492.591997 L522.272,493.767997 C523.808,495.063997 525.008,496.263997 525.872,497.391997 L527.12,496.167997 C526.136,494.967997 524.936,493.767997 523.496,492.591997 Z M526.256,499.239997 C525.248,502.119997 524.024,504.927997 522.632,507.663997 L524.36,508.407997 C525.632,505.743997 526.784,502.887997 527.816,499.863997 L526.256,499.239997 Z M548.432,507.111997 L551.72,507.111997 L551.72,508.215997 L553.376,508.215997 L553.376,500.151997 L546.776,500.151997 L546.776,508.527997 L548.432,508.527997 L548.432,507.111997 Z M551.72,505.503997 L548.432,505.503997 L548.432,501.711997 L551.72,501.711997 L551.72,505.503997 Z M550.016,486.495997 L548.36,486.951997 C548.792,487.815997 549.152,488.727997 549.464,489.663997 L546.224,489.663997 L546.224,491.271997 L554.048,491.271997 L554.048,489.663997 L550.088,489.663997 L550.976,489.303997 C550.736,488.463997 550.424,487.527997 550.016,486.495997 Z M546.92,493.191997 L546.92,494.727997 L553.232,494.727997 L553.232,493.191997 L546.92,493.191997 Z M546.92,496.551997 L546.92,498.087997 L553.232,498.087997 L553.232,496.551997 L546.92,496.551997 Z M555.872,497.223997 L555.872,502.935997 L566.072,502.935997 L566.072,497.223997 L555.872,497.223997 Z M564.44,501.495997 L557.504,501.495997 L557.504,498.687997 L564.44,498.687997 L564.44,501.495997 Z M554.504,506.463997 L554.504,508.047997 L567.68,508.047997 L567.68,506.463997 L564.2,506.463997 C564.68,505.767997 565.112,504.975997 565.496,504.063997 L563.936,503.535997 C563.504,504.567997 563.024,505.551997 562.496,506.463997 L559.664,506.463997 C559.208,505.335997 558.704,504.375997 558.152,503.559997 L556.592,504.135997 C557.144,504.855997 557.624,505.647997 558.032,506.463997 L554.504,506.463997 Z M558.032,493.695997 L558.032,495.135997 L564.296,495.135997 L564.296,493.623997 L558.08,493.623997 C559.16,492.255997 559.952,490.623997 560.48,488.727997 L560.48,487.503997 L555.2,487.503997 L555.2,488.967997 L558.992,488.967997 C558.656,489.951997 558.176,490.887997 557.6,491.775997 C557.024,491.175997 556.352,490.575997 555.584,489.999997 L554.528,491.007997 C555.392,491.655997 556.136,492.279997 556.76,492.903997 C555.944,493.863997 554.936,494.679997 553.76,495.399997 L554.744,496.695997 C556.016,495.879997 557.12,494.871997 558.032,493.695997 Z M562.64,486.735997 L561.416,487.431997 C562.472,491.151997 564.368,494.175997 567.056,496.503997 L568.112,495.279997 C567.2,494.559997 566.408,493.743997 565.688,492.807997 C566.6,492.087997 567.392,491.247997 568.064,490.311997 L566.936,489.303997 C566.36,490.167997 565.664,490.935997 564.848,491.655997 C564.512,491.127997 564.224,490.599997 563.936,490.047997 C564.872,489.351997 565.664,488.559997 566.336,487.647997 L565.232,486.663997 C564.68,487.431997 564.056,488.127997 563.336,488.751997 C563.072,488.103997 562.832,487.431997 562.64,486.735997 Z M578.192,487.959997 L571.064,487.959997 L571.064,506.415997 L572.792,506.415997 L572.792,504.519997 L578.192,504.519997 L578.192,487.959997 Z M572.792,502.815997 L572.792,496.935997 L576.536,496.935997 L576.536,502.815997 L572.792,502.815997 Z M572.792,495.279997 L572.792,489.663997 L576.536,489.663997 L576.536,495.279997 L572.792,495.279997 Z M582.536,494.871997 L588.896,494.871997 L588.896,499.023997 L582.536,499.023997 L582.536,494.871997 Z M588.896,493.263997 L582.536,493.263997 L582.536,489.039997 L588.896,489.039997 L588.896,493.263997 Z M582.44,500.631997 L588.896,500.631997 L588.896,505.575997 C588.896,506.367997 588.56,506.775997 587.888,506.775997 C586.952,506.775997 585.944,506.727997 584.84,506.679997 L585.296,508.383997 L588.44,508.383997 C589.904,508.383997 590.648,507.639997 590.648,506.199997 L590.648,487.383997 L580.808,487.383997 L580.808,498.711997 C580.76,502.239997 579.92,505.143997 578.24,507.447997 L579.608,508.695997 C581.192,506.583997 582.128,503.895997 582.44,500.631997 Z M608.6,486.351997 L608.6,501.063997 L610.352,501.063997 L610.352,487.959997 L616.28,487.959997 L616.28,486.351997 L608.6,486.351997 Z M620.072,504.471997 L634.568,504.471997 C634.52,504.783997 634.472,504.999997 634.448,505.119997 C634.16,505.839997 633.776,506.319997 633.248,506.535997 C632.72,506.679997 632.12,506.775997 631.424,506.775997 C630.632,506.775997 629.744,506.751997 628.736,506.703997 L629.312,508.359997 L631.664,508.359997 C633.008,508.359997 634.016,508.143997 634.712,507.735997 C635.384,507.255997 635.864,506.511997 636.128,505.551997 C636.176,505.359997 636.224,504.999997 636.272,504.471997 L639.152,504.471997 L639.152,502.839997 L636.392,502.839997 C636.488,501.351997 636.584,499.287997 636.68,496.623997 L639.776,496.623997 L639.776,494.943997 L636.752,494.943997 L636.968,487.503997 L621.848,487.503997 C621.8,489.999997 621.656,492.495997 621.416,494.943997 L618.272,494.943997 L618.272,496.623997 L621.248,496.623997 C620.96,499.263997 620.552,501.879997 620.072,504.471997 Z M634.712,502.839997 L622.112,502.839997 C622.472,500.967997 622.76,498.879997 623,496.623997 L635,496.623997 C634.904,499.311997 634.808,501.399997 634.712,502.839997 Z M623.168,494.943997 C623.312,493.119997 623.408,491.199997 623.504,489.135997 L635.216,489.135997 L635.048,494.943997 L623.168,494.943997 Z M627.704,490.095997 L626.552,491.127997 C627.992,492.087997 629.336,493.215997 630.608,494.511997 L631.64,493.335997 C630.44,492.087997 629.12,491.007997 627.704,490.095997 Z M627.152,497.391997 L626.12,498.591997 C627.512,499.575997 628.856,500.751997 630.176,502.095997 L631.256,500.895997 C630.032,499.647997 628.664,498.471997 627.152,497.391997 Z M647.216,498.495997 C645.896,500.655997 644.312,502.335997 642.464,503.535997 L643.472,505.023997 C644.96,503.967997 646.28,502.527997 647.48,500.655997 C647.528,501.231997 647.552,501.831997 647.552,502.503997 C647.552,504.471997 647.36,505.695997 647.024,506.175997 C646.712,506.583997 646.256,506.799997 645.632,506.799997 L644.072,506.799997 L644.624,508.479997 C645.032,508.479997 645.416,508.455997 645.776,508.455997 C646.88,508.383997 647.696,508.095997 648.224,507.567997 C648.8,506.943997 649.112,505.263997 649.112,502.503997 C649.112,501.159997 649.016,499.911997 648.848,498.759997 C649.376,499.047997 650.024,499.407997 650.744,499.863997 L651.656,498.471997 C650.576,497.847997 649.496,497.319997 648.44,496.839997 L648.344,496.479997 C649.376,495.903997 650.336,495.039997 651.2,493.839997 L650.072,492.735997 C649.352,493.695997 648.608,494.463997 647.816,495.015997 C647.384,494.007997 646.832,493.143997 646.184,492.399997 C646.856,491.607997 647.504,490.647997 648.128,489.519997 L651.104,489.519997 L651.104,487.935997 L642.656,487.935997 L642.656,489.519997 L646.424,489.519997 C645.32,491.319997 643.928,492.591997 642.248,493.311997 L643.208,494.607997 C643.856,494.319997 644.48,493.935997 645.08,493.455997 C645.44,493.887997 645.776,494.415997 646.088,495.015997 C645.152,496.359997 643.904,497.511997 642.32,498.519997 L643.256,499.863997 C644.552,498.927997 645.704,497.775997 646.664,496.383997 C646.88,497.007997 647.072,497.727997 647.216,498.495997 Z M661.856,487.743997 C661.472,488.703997 661.04,489.615997 660.584,490.479997 L660.584,489.399997 L657.32,489.399997 L657.32,486.735997 L655.664,486.735997 L655.664,489.399997 L652.328,489.399997 L652.328,490.911997 L655.664,490.911997 L655.664,494.079997 L651.416,494.079997 L651.416,495.639997 L657.008,495.639997 C655.136,497.679997 652.928,499.239997 650.432,500.319997 L651.344,501.687997 C651.992,501.399997 652.64,501.063997 653.288,500.679997 L653.288,508.575997 L654.92,508.575997 L654.92,507.471997 L660.776,507.471997 L660.776,508.575997 L662.408,508.575997 L662.408,498.063997 L656.84,498.063997 C657.608,497.343997 658.352,496.551997 659.096,495.639997 L663.584,495.639997 L663.584,494.079997 L660.272,494.079997 C661.376,492.447997 662.384,490.599997 663.272,488.487997 L661.856,487.743997 Z M654.92,499.623997 L654.992,499.575997 L660.776,499.575997 L660.776,501.975997 L654.92,501.975997 L654.92,499.623997 Z M657.32,494.079997 L657.32,490.911997 L660.368,490.911997 C659.744,492.015997 659.072,493.071997 658.304,494.079997 L657.32,494.079997 Z M654.92,503.415997 L660.776,503.415997 L660.776,505.935997 L654.92,505.935997 L654.92,503.415997 Z M671.648,494.055997 L671.648,507.159997 L665.72,507.159997 L665.72,508.767997 L673.4,508.767997 L673.4,494.055997 L671.648,494.055997 Z M705.968,491.967997 L705.248,494.679997 L698.864,494.679997 C699.248,493.815997 699.632,492.927997 699.992,491.967997 L705.968,491.967997 Z M698.072,496.215997 L708.032,496.215997 L707.336,499.167997 L696.08,499.167997 C696.8,498.255997 697.448,497.271997 698.072,496.215997 Z M709.04,499.167997 L709.928,494.679997 L706.952,494.679997 L707.912,490.431997 L700.496,490.431997 C700.832,489.255997 701.144,488.031997 701.384,486.735997 L699.68,486.519997 C699.44,487.863997 699.104,489.183997 698.72,490.431997 L695.888,490.431997 L697.16,489.543997 C696.68,488.751997 695.984,487.839997 695.12,486.807997 L693.752,487.671997 C694.568,488.679997 695.24,489.591997 695.744,490.431997 L691.712,490.431997 L691.712,491.967997 L698.192,491.967997 C696.536,496.383997 693.848,499.815997 690.104,502.311997 L690.944,503.823997 C692.312,502.935997 693.56,501.903997 694.712,500.727997 L709.592,500.727997 C709.52,503.535997 709.352,505.263997 709.088,505.935997 C708.8,506.607997 708.128,506.943997 707.072,506.991997 C706.448,506.967997 705.632,506.919997 704.672,506.871997 L705.104,508.503997 C706.016,508.551997 706.808,508.575997 707.48,508.575997 C708.872,508.575997 709.856,508.119997 710.432,507.231997 C710.984,506.367997 711.272,503.679997 711.32,499.167997 L709.04,499.167997 Z M694.688,502.431997 C694.112,504.063997 693.248,505.575997 692.048,506.943997 L693.56,507.903997 C694.712,506.463997 695.624,504.735997 696.248,502.767997 L694.688,502.431997 Z M699.128,502.719997 L697.64,502.887997 C698.072,503.919997 698.36,505.383997 698.48,507.279997 L700.136,507.087997 C699.968,505.239997 699.632,503.775997 699.128,502.719997 Z M702.512,502.263997 L701.12,502.647997 C701.696,503.943997 702.176,505.263997 702.56,506.607997 L704.12,506.031997 C703.736,504.879997 703.208,503.631997 702.512,502.263997 Z M706.16,501.639997 L704.768,502.095997 C705.344,503.199997 705.8,504.327997 706.184,505.527997 L707.768,505.119997 C707.288,503.799997 706.736,502.647997 706.16,501.639997 Z M721.808,500.151997 L715.064,500.151997 L715.064,508.239997 L716.696,508.239997 L716.696,507.063997 L721.808,507.063997 L721.808,500.151997 Z M716.696,505.503997 L716.696,501.687997 L720.176,501.687997 L720.176,505.503997 L716.696,505.503997 Z M714.176,489.759997 L714.176,491.343997 L722.624,491.343997 L722.624,489.759997 L718.664,489.759997 L719.552,489.447997 C719.264,488.559997 718.856,487.599997 718.328,486.543997 L716.672,486.999997 C717.176,487.887997 717.608,488.799997 717.968,489.759997 L714.176,489.759997 Z M715.256,493.263997 L715.256,494.775997 L721.592,494.775997 L721.592,493.263997 L715.256,493.263997 Z M715.256,496.575997 L715.256,498.087997 L721.592,498.087997 L721.592,496.575997 L715.256,496.575997 Z M730.712,504.231997 C732.272,505.719997 733.544,507.135997 734.504,508.479997 L735.704,507.279997 C734.624,505.911997 733.304,504.543997 731.768,503.175997 C733.16,501.639997 734.408,499.815997 735.488,497.703997 L734.048,496.959997 C731.528,501.951997 727.76,505.311997 722.72,507.063997 L723.704,508.551997 C726.344,507.567997 728.696,506.127997 730.712,504.231997 Z M732.08,492.567997 C731.6,493.623997 731.024,494.607997 730.4,495.519997 C729.008,495.639997 727.616,495.735997 726.224,495.807997 C727.16,494.799997 728.264,493.143997 729.536,490.791997 L735.536,490.791997 L735.536,489.231997 L730.592,489.231997 C730.256,488.223997 729.92,487.311997 729.584,486.519997 L727.832,486.807997 C728.216,487.527997 728.576,488.343997 728.912,489.231997 L723.272,489.231997 L723.272,490.791997 L727.76,490.791997 C726.32,493.431997 725.168,495.063997 724.256,495.687997 C724.16,495.735997 724.064,495.783997 723.92,495.831997 L724.28,497.247997 C726.032,497.175997 727.712,497.079997 729.296,496.983997 C727.568,499.023997 725.432,500.535997 722.888,501.495997 L723.8,502.911997 C728.072,501.207997 731.312,498.015997 733.52,493.311997 L732.08,492.567997 Z M752.48,486.687997 L752.48,489.183997 L746.696,489.183997 L746.696,490.743997 L752.48,490.743997 L752.48,493.527997 L747.632,493.527997 L747.632,495.111997 L758.96,495.111997 L758.96,493.527997 L754.16,493.527997 L754.16,490.743997 L759.872,490.743997 L759.872,489.183997 L754.16,489.183997 L754.16,486.687997 L752.48,486.687997 Z M747.176,498.111997 L747.176,499.719997 L755.216,499.719997 L755.216,505.719997 C755.216,506.511997 754.856,506.919997 754.16,506.919997 C753.296,506.919997 752.408,506.871997 751.448,506.799997 L751.808,508.431997 L754.736,508.431997 C756.176,508.431997 756.896,507.663997 756.896,506.151997 L756.896,499.719997 L759.872,499.719997 L759.872,498.111997 L756.896,498.111997 L756.896,496.239997 L755.216,496.239997 L755.216,498.111997 L747.176,498.111997 Z M748.928,500.703997 L747.584,501.519997 C748.88,502.935997 749.912,504.231997 750.68,505.383997 L752.024,504.423997 C751.304,503.367997 750.272,502.119997 748.928,500.703997 Z M745.688,488.391997 L738.968,488.391997 L738.968,506.655997 L740.648,506.655997 L740.648,504.471997 L744.056,504.471997 L744.056,506.079997 L745.688,506.079997 L745.688,488.391997 Z M740.648,502.863997 L740.648,497.079997 L744.056,497.079997 L744.056,502.863997 L740.648,502.863997 Z M740.648,495.519997 L740.648,489.975997 L744.056,489.975997 L744.056,495.519997 L740.648,495.519997 Z M765.632,494.175997 L770.984,494.175997 L770.984,492.591997 L765.632,492.591997 L765.632,489.855997 C767.984,489.471997 770.12,488.895997 771.992,488.151997 L771.128,486.687997 C769.256,487.527997 766.88,488.151997 763.952,488.583997 L763.952,502.599997 C763.328,502.647997 762.704,502.671997 762.056,502.719997 L762.32,504.447997 L763.952,504.303997 L763.952,508.455997 L765.632,508.455997 L765.632,504.111997 C768.224,503.799997 770.288,503.463997 771.824,503.079997 L771.824,501.471997 C770.12,501.903997 768.056,502.215997 765.632,502.455997 L765.632,498.711997 L770.984,498.711997 L770.984,497.151997 L765.632,497.151997 L765.632,494.175997 Z M772.328,496.911997 L772.328,498.495997 L773.696,498.495997 C774.224,500.559997 775.208,502.407997 776.696,504.039997 C775.16,505.335997 773.216,506.415997 770.864,507.231997 L771.824,508.695997 C774.248,507.855997 776.288,506.727997 777.968,505.287997 C779.36,506.535997 781.088,507.663997 783.2,508.647997 L784.136,507.159997 C782.12,506.295997 780.44,505.311997 779.096,504.183997 C780.584,502.599997 781.64,500.679997 782.312,498.423997 L782.312,496.911997 L772.328,496.911997 Z M775.28,498.495997 L780.584,498.495997 C779.96,500.175997 779.048,501.663997 777.824,502.959997 C776.6,501.639997 775.76,500.151997 775.28,498.495997 Z M774.152,487.503997 L774.152,490.743997 C774.152,492.423997 773.312,493.719997 771.68,494.631997 L772.832,495.927997 C774.848,494.679997 775.856,492.879997 775.856,490.575997 L775.856,489.111997 L779.216,489.111997 L779.216,492.975997 C779.216,494.415997 779.936,495.159997 781.4,495.159997 L783.824,495.159997 L783.824,493.599997 L781.832,493.599997 C781.208,493.599997 780.896,493.263997 780.896,492.615997 L780.896,487.503997 L774.152,487.503997 Z M794.696,490.743997 L790.832,490.743997 C791.312,489.543997 791.672,488.223997 791.96,486.807997 L790.232,486.567997 C790.016,488.007997 789.68,489.399997 789.2,490.743997 L786.968,490.743997 L786.968,507.807997 L788.648,507.807997 L788.648,505.743997 L793.016,505.743997 L793.016,507.111997 L794.696,507.111997 L794.696,490.743997 Z M788.648,504.135997 L788.648,498.879997 L793.016,498.879997 L793.016,504.135997 L788.648,504.135997 Z M788.648,497.319997 L788.648,492.375997 L793.016,492.375997 L793.016,497.319997 L788.648,497.319997 Z M798.872,496.311997 L797.48,497.175997 C799.136,499.143997 800.456,500.919997 801.44,502.503997 L802.808,501.543997 C801.896,500.055997 800.6,498.303997 798.872,496.311997 Z M807.104,490.767997 L799.448,490.767997 C799.88,489.519997 800.216,488.175997 800.504,486.759997 L798.8,486.543997 C798.176,489.951997 797.048,492.831997 795.368,495.183997 L796.4,496.551997 C797.336,495.327997 798.128,493.959997 798.8,492.447997 L805.4,492.447997 C805.352,499.359997 805.256,503.511997 805.112,504.855997 C804.92,506.079997 804.272,506.703997 803.144,506.703997 C802.4,506.703997 801.536,506.679997 800.528,506.631997 L800.936,508.215997 C802.088,508.263997 802.904,508.311997 803.384,508.311997 C805.4,508.311997 806.504,507.375997 806.744,505.551997 C806.984,503.679997 807.104,498.735997 807.104,490.767997 Z M830.072,502.455997 C830.504,502.407997 830.864,502.167997 831.152,501.687997 C831.512,501.063997 831.8,499.839997 832.016,498.015997 L830.672,497.391997 C830.6,498.447997 830.504,499.215997 830.408,499.719997 C830.288,500.271997 830.12,500.583997 829.928,500.631997 C829.616,500.583997 829.352,500.127997 829.16,499.215997 C829.016,498.303997 828.944,497.079997 828.944,495.495997 C828.944,493.527997 829.016,491.391997 829.16,489.087997 L825.224,489.087997 L825.224,486.639997 L823.712,486.639997 L823.712,489.087997 L821.312,489.087997 L821.312,490.623997 L823.712,490.623997 L823.712,491.007997 C823.688,492.447997 823.592,493.815997 823.4,495.063997 C822.872,494.655997 822.32,494.271997 821.744,493.911997 L820.784,495.063997 C821.6,495.591997 822.368,496.143997 823.088,496.719997 C822.56,498.783997 821.72,500.463997 820.568,501.711997 L821.768,502.767997 C822.92,501.495997 823.784,499.839997 824.36,497.823997 C824.936,498.351997 825.488,498.903997 826.016,499.527997 L827.072,498.279997 C826.376,497.559997 825.608,496.839997 824.768,496.143997 C825.056,494.607997 825.2,492.903997 825.224,491.007997 L825.224,490.623997 L827.528,490.623997 C827.432,492.447997 827.408,494.055997 827.408,495.471997 C827.408,497.055997 827.504,498.399997 827.744,499.527997 C827.96,500.559997 828.272,501.303997 828.704,501.735997 C829.112,502.215997 829.568,502.455997 830.072,502.455997 Z M813.272,503.391997 C812.456,505.023997 811.472,506.415997 810.344,507.567997 L811.736,508.551997 C812.864,507.303997 813.848,505.815997 814.712,504.087997 L813.272,503.391997 Z M818.48,503.703997 L816.872,504.039997 C817.304,505.335997 817.664,506.847997 817.952,508.575997 L819.632,508.215997 C819.296,506.583997 818.912,505.095997 818.48,503.703997 Z M823.592,503.439997 L821.984,503.799997 C822.56,505.143997 823.064,506.679997 823.448,508.431997 L825.128,508.071997 C824.672,506.391997 824.168,504.855997 823.592,503.439997 Z M828.056,502.887997 L826.664,503.751997 C828.08,505.479997 829.184,507.063997 829.976,508.503997 L831.368,507.543997 C830.6,506.199997 829.496,504.663997 828.056,502.887997 Z M814.712,486.639997 L814.712,488.079997 L811.04,488.079997 L811.04,489.471997 L814.712,489.471997 L814.712,491.295997 L810.32,491.295997 L810.32,492.711997 L813.008,492.711997 C812.696,493.959997 811.736,494.919997 810.152,495.591997 L811.256,496.575997 C813.08,495.687997 814.16,494.391997 814.472,492.711997 L816.896,492.711997 L816.896,494.007997 C816.896,495.063997 817.424,495.615997 818.504,495.615997 L820.448,495.615997 L820.448,494.391997 L819.08,494.391997 C818.624,494.391997 818.408,494.223997 818.408,493.887997 L818.408,492.711997 L820.76,492.711997 L820.76,491.295997 L816.368,491.295997 L816.368,489.471997 L819.992,489.471997 L819.992,488.079997 L816.368,488.079997 L816.368,486.639997 L814.712,486.639997 Z M814.808,495.303997 L814.808,497.127997 L811.136,497.127997 L811.136,498.591997 L814.808,498.591997 L814.808,500.847997 C813.464,500.943997 812.024,501.063997 810.536,501.159997 L810.728,502.671997 C814.376,502.431997 817.616,502.095997 820.448,501.687997 L820.448,500.247997 C819.224,500.391997 817.904,500.559997 816.464,500.703997 L816.464,498.591997 L819.824,498.591997 L819.824,497.127997 L816.464,497.127997 L816.464,495.303997 L814.808,495.303997 Z M836.96,492.423997 L842.24,492.423997 L842.24,494.679997 L836.96,494.679997 L836.96,492.423997 Z M842.24,491.031997 L836.96,491.031997 L836.96,488.799997 L842.24,488.799997 L842.24,491.031997 Z M847.736,492.423997 L852.992,492.423997 L852.992,494.703997 L847.736,494.703997 L847.736,492.423997 Z M852.992,491.031997 L847.736,491.031997 L847.736,488.823997 L852.992,488.823997 L852.992,491.031997 Z M852.992,496.143997 L852.992,505.575997 C852.992,506.439997 852.656,506.871997 852.008,506.871997 C851.216,506.871997 850.376,506.847997 849.464,506.799997 L849.872,508.407997 C850.784,508.431997 851.72,508.455997 852.632,508.455997 C854,508.455997 854.696,507.663997 854.696,506.127997 L854.696,487.383997 L846.008,487.383997 L846.008,496.143997 L852.992,496.143997 Z M843.968,487.383997 L835.232,487.383997 L835.232,508.503997 L836.96,508.503997 L836.96,496.119997 L843.968,496.119997 L843.968,487.383997 Z M860.408,507.063997 L863.312,507.063997 L863.312,508.215997 L864.872,508.215997 L864.872,500.079997 L858.824,500.079997 L858.824,508.575997 L860.408,508.575997 L860.408,507.063997 Z M863.312,505.479997 L860.408,505.479997 L860.408,501.615997 L863.312,501.615997 L863.312,505.479997 Z M861.776,486.495997 L860.144,486.975997 C860.624,487.815997 861.032,488.703997 861.368,489.663997 L858.248,489.663997 L858.248,491.247997 L865.328,491.247997 L865.328,489.663997 L861.992,489.663997 L862.88,489.327997 C862.616,488.487997 862.256,487.551997 861.776,486.495997 Z M859.016,493.143997 L859.016,494.655997 L864.68,494.655997 L864.68,493.143997 L859.016,493.143997 Z M859.016,496.527997 L859.016,498.063997 L864.68,498.063997 L864.68,496.527997 L859.016,496.527997 Z M866.024,488.679997 L866.024,490.023997 L871.856,490.023997 L871.856,491.415997 L866.96,491.415997 L866.96,492.735997 L871.856,492.735997 L871.856,494.199997 L866.048,494.199997 L866.048,495.543997 L879.584,495.543997 L879.584,494.199997 L873.416,494.199997 L873.416,492.735997 L878.384,492.735997 L878.384,491.415997 L873.416,491.415997 L873.416,490.023997 L879.368,490.023997 L879.368,488.679997 L875.816,488.679997 C876.224,488.151997 876.584,487.575997 876.92,486.951997 L875.384,486.423997 C875,487.215997 874.568,487.959997 874.088,488.679997 L871.04,488.679997 C870.656,487.863997 870.248,487.143997 869.792,486.543997 L868.28,487.071997 C868.712,487.575997 869.072,488.103997 869.384,488.679997 L866.024,488.679997 Z M865.808,499.695997 L865.808,501.039997 L868.76,501.039997 L868.76,503.247997 C867.848,503.343997 866.816,503.439997 865.712,503.511997 L865.928,504.999997 C866.936,504.879997 867.872,504.759997 868.76,504.639997 L868.76,506.151997 C868.76,506.775997 868.424,507.087997 867.752,507.087997 C867.176,507.087997 866.6,507.039997 866.024,506.991997 L866.336,508.383997 L868.256,508.383997 C869.6,508.383997 870.272,507.759997 870.272,506.511997 L870.272,504.375997 C871.232,504.183997 872.048,503.967997 872.744,503.751997 L872.744,502.407997 C872.024,502.623997 871.184,502.815997 870.272,503.007997 L870.272,501.039997 L873.728,501.039997 C873.872,502.719997 874.088,504.087997 874.424,505.143997 C873.512,505.719997 872.504,506.223997 871.352,506.631997 L871.952,507.999997 C873.056,507.591997 874.064,507.087997 875.024,506.487997 C875.792,507.831997 876.704,508.527997 877.784,508.527997 C878.24,508.527997 878.648,508.311997 879.008,507.879997 C879.344,507.423997 879.68,506.583997 880.04,505.359997 L878.864,504.543997 C878.552,506.199997 878.192,507.039997 877.784,507.039997 C877.208,506.991997 876.68,506.535997 876.224,505.623997 C877.28,504.759997 878.168,503.703997 878.936,502.479997 L877.856,501.663997 C877.28,502.575997 876.536,503.439997 875.672,504.207997 C875.48,503.391997 875.312,502.335997 875.216,501.039997 L879.344,501.039997 L879.344,499.695997 L875.12,499.695997 C875.072,498.735997 875.048,497.631997 875.048,496.431997 L873.56,496.431997 C873.56,497.583997 873.584,498.687997 873.632,499.695997 L870.272,499.695997 L870.272,498.039997 C871.112,497.895997 871.88,497.679997 872.552,497.391997 L871.928,496.287997 C870.32,496.863997 868.304,497.151997 865.904,497.175997 L866.336,498.375997 C867.176,498.375997 867.992,498.327997 868.76,498.255997 L868.76,499.695997 L865.808,499.695997 Z M876.56,496.359997 L875.816,497.439997 C876.824,497.799997 877.832,498.303997 878.792,498.975997 L879.512,497.895997 C878.624,497.295997 877.64,496.791997 876.56,496.359997 Z M898.232,506.583997 C893.456,506.583997 890.384,506.367997 889.04,505.935997 C888.944,505.887997 888.872,505.863997 888.776,505.839997 L888.776,503.151997 L892.016,503.151997 L892.016,501.591997 L888.776,501.591997 L888.776,498.927997 L892.472,498.927997 L892.472,497.391997 L882.584,497.391997 L882.584,498.927997 L887.24,498.927997 L887.24,504.951997 C886.496,504.375997 885.824,503.607997 885.224,502.623997 C885.32,501.903997 885.392,501.159997 885.44,500.391997 L883.952,500.199997 C883.832,502.887997 883.136,505.287997 881.888,507.447997 L883.088,508.527997 C883.856,507.279997 884.456,505.887997 884.84,504.399997 C885.8,505.791997 886.88,506.751997 888.128,507.279997 C889.52,507.903997 893.024,508.215997 898.616,508.215997 L903.608,508.215997 L903.896,506.487997 C902.648,506.535997 900.776,506.583997 898.232,506.583997 Z M883.76,487.527997 L883.76,495.807997 L891.632,495.807997 L891.632,487.527997 L883.76,487.527997 Z M890,494.391997 L885.392,494.391997 L885.392,492.327997 L890,492.327997 L890,494.391997 Z M885.392,490.983997 L885.392,488.967997 L890,488.967997 L890,490.983997 L885.392,490.983997 Z M893.792,490.863997 L893.792,501.831997 L902.6,501.831997 L902.6,490.863997 L898.376,490.863997 C898.568,490.263997 898.712,489.663997 898.808,489.039997 L903.536,489.039997 L903.536,487.551997 L892.976,487.551997 L892.976,489.039997 L897.152,489.039997 C897.056,489.663997 896.912,490.287997 896.72,490.863997 L893.792,490.863997 Z M901.04,500.463997 L895.376,500.463997 L895.376,498.543997 L901.04,498.543997 L901.04,500.463997 Z M895.376,497.223997 L895.376,495.471997 L901.04,495.471997 L901.04,497.223997 L895.376,497.223997 Z M895.376,494.151997 L895.376,492.255997 L901.04,492.255997 L901.04,494.151997 L895.376,494.151997 Z M896.24,501.951997 C895.232,502.911997 894.008,503.775997 892.568,504.519997 L893.456,505.719997 C894.992,504.903997 896.288,503.991997 897.344,502.935997 L896.24,501.951997 Z M899.816,501.855997 L898.808,502.815997 C900.344,503.799997 901.52,504.735997 902.384,505.647997 L903.464,504.543997 C902.48,503.655997 901.256,502.767997 899.816,501.855997 Z" id="" fill="#000000"></path>
            <path d="M489.588,196.08 L493.54,196.08 L493.54,166.388 L501.288,166.388 L501.288,162.696 L489.588,162.696 L489.588,196.08 Z M561.036,185.056 L561.036,182.716 L554.588,182.716 C555.004,176.788 555.42,170.704 555.68,166.076 L522.92,166.336 C522.296,172.42 521.776,177.672 521.152,182.716 L514.964,182.716 L514.964,185.056 L520.892,185.056 C520.06,191.816 519.176,198.316 517.98,205.856 L523.024,206.168 C523.232,204.868 523.44,203.516 523.596,202.216 L547.776,202.216 C546.944,207 545.332,207.52 536.96,205.024 L536.284,206.792 C545.644,213.864 551.312,211.94 552.716,203.204 L552.872,202.216 L559.944,202.216 L559.944,199.876 L553.132,199.876 C553.548,196.184 554.016,190.776 554.432,185.056 L561.036,185.056 Z M527.756,168.676 L550.48,168.676 C550.272,172.264 549.908,177.464 549.492,182.716 L526.248,182.716 C526.768,178.088 527.288,173.408 527.756,168.676 Z M533.424,170.184 L532.332,171.744 C535.14,174.552 538.416,178.296 540.964,181.416 L544.604,177.36 C541.484,174.448 537.064,171.744 533.424,170.184 Z M548.036,199.876 L523.96,199.876 C524.688,194.884 525.312,189.996 525.936,185.056 L549.284,185.056 C548.816,191.14 548.348,196.964 548.036,199.876 Z M540.184,198.368 L543.668,194.312 C540.6,191.452 535.556,188.54 532.124,186.98 L531.084,188.488 C534.048,191.4 537.532,195.196 540.184,198.368 Z M602.064,182.3 L612.724,182.3 L612.724,179.96 L603.988,179.96 C606.588,176.736 609.032,172.94 611.216,168.624 L606.38,166.336 C605.704,168.052 604.924,169.768 604.092,171.432 L604.092,170.132 L598.268,170.132 L598.268,163.164 L593.796,163.164 L593.796,170.132 L587.14,170.132 L587.14,172.472 L593.796,172.472 L593.796,179.96 L584.904,179.96 L584.904,182.3 L596.968,182.3 C593.172,186.98 588.7,190.932 584.02,193.844 C583.864,191.296 583.552,188.644 582.98,186.044 C584.384,187.656 585.684,189.216 586.672,190.672 L589.688,187.188 C587.14,185.108 584.436,183.6 582.044,182.508 C581.992,182.352 581.94,182.144 581.836,181.936 C583.708,180.324 585.632,178.088 587.504,175.176 L583.448,173.356 C582.72,175.904 581.94,177.88 581.004,179.596 C580.172,177.62 579.132,175.748 577.936,174.188 C579.756,172.004 581.212,169.716 582.252,167.636 L589.324,167.636 L589.324,165.296 L568.732,165.296 L568.732,167.636 L577.364,167.636 C575.7,171.952 572.632,176.684 567.796,180.428 L568.732,181.988 C571.436,180.584 574.088,178.348 576.428,175.904 C576.74,176.476 577,177.152 577.26,177.828 C575.076,183.08 572.216,187.916 567.484,191.868 L568.42,193.376 C572.216,191.244 575.908,187.812 578.664,183.34 C578.872,184.432 579.028,185.576 579.132,186.772 C575.856,193.948 572.476,197.9 567.588,201.748 L568.524,203.256 C571.852,201.54 576.324,198.368 579.496,193.948 C579.496,197.12 579.288,199.98 578.976,201.956 C578.196,206.688 577.884,207.936 570.812,205.492 L570.084,207.208 C577,213.24 581.784,211.888 583.448,205.18 C584.02,202.892 584.332,198.992 584.072,194.624 L584.644,195.612 C585.996,194.988 587.504,194.208 589.064,193.22 L589.064,211.316 L593.64,211.316 L593.64,207.572 L604.508,207.572 L604.508,211.108 L609.084,211.108 L609.084,187.812 L596.5,187.812 C598.32,186.2 600.192,184.38 602.064,182.3 Z M598.268,179.96 L598.268,172.472 L603.572,172.472 C602.168,175.072 600.556,177.62 598.84,179.96 L598.268,179.96 Z M604.508,196.08 L593.64,196.08 L593.64,190.152 L604.508,190.152 L604.508,196.08 Z M604.508,205.232 L593.64,205.232 L593.64,198.316 L604.508,198.316 L604.508,205.232 Z M626.764,211.784 L638.464,211.784 L638.464,178.4 L634.512,178.4 L634.512,208.092 L626.764,208.092 L626.764,211.784 Z M708.508,189.424 L708.508,204.244 L696.496,204.244 L696.496,185.316 L710.848,185.316 L710.848,167.688 L706.272,167.688 L706.272,182.82 L696.496,182.82 L696.496,163.424 L691.608,163.424 L691.608,182.82 L681.936,182.82 L681.936,167.688 L677.36,167.688 L677.36,185.316 L691.608,185.316 L691.608,204.244 L679.752,204.244 L679.752,189.424 L675.072,189.424 L675.072,211.368 L679.752,211.368 L679.752,206.74 L708.508,206.74 L708.508,211.264 L713.188,211.264 L713.188,189.424 L708.508,189.424 Z M767.84,197.016 L766.02,197.016 C766.176,203.88 766.124,205.7 764.252,205.908 C763.004,206.064 761.912,206.064 760.716,205.908 C759.208,205.7 758.948,204.972 758.948,203.62 L758.948,192.7 L764.616,192.7 L764.616,165.192 L742.516,165.192 L742.516,192.7 L747.716,192.7 C747.456,201.124 743.816,207.104 734.144,210.016 L734.82,211.784 C746.052,209.652 751.928,202.892 752.292,192.7 L754.476,192.7 L754.476,205.076 C754.476,207.884 755.412,209.6 758.428,209.964 C761.288,210.328 763.628,210.328 766.176,209.964 C769.296,209.496 771.012,207.572 767.84,197.016 Z M741.112,194.156 C739.032,194.988 736.796,195.768 734.456,196.444 L734.456,183.288 L740.28,183.288 L740.28,180.948 L734.456,180.948 L734.456,168.78 L741.112,168.78 L741.112,166.44 L723.172,166.44 L723.172,168.78 L729.984,168.78 L729.984,180.948 L723.796,180.948 L723.796,183.288 L729.984,183.288 L729.984,197.692 C727.384,198.368 724.784,198.94 722.132,199.356 L724.212,204.66 C729.308,202.996 737.524,199.148 741.892,195.872 L741.112,194.156 Z M746.884,167.532 L760.248,167.532 L760.248,173.2 L746.884,173.2 L746.884,167.532 Z M746.884,175.436 L760.248,175.436 L760.248,181.676 L746.884,181.676 L746.884,175.436 Z M746.884,183.912 L760.248,183.912 L760.248,190.36 L746.884,190.36 L746.884,183.912 Z M789.68,186.148 C793.008,183.288 795.504,179.804 797.48,175.436 L813.6,175.436 C812.56,179.024 811.572,181.52 809.076,185.576 L810.428,186.616 C814.224,183.6 818.332,178.504 820.204,175.176 L815.16,172.108 L813.548,173.096 L798.468,173.096 C799.56,170.184 800.444,166.96 801.224,163.32 L795.556,162.436 C794.464,173.096 792.488,179.284 788.276,184.848 L789.68,186.148 Z M788.432,177.516 C785.728,174.656 780.84,171.016 776.888,168.832 L775.692,170.288 C778.708,173.72 782.14,177.776 784.584,181.312 L788.432,177.516 Z M804.864,184.588 C804.968,182.456 804.916,180.324 804.968,178.244 L799.872,178.244 L799.872,182.56 C799.872,191.868 796.7,203.412 781.776,209.808 L782.556,211.472 C796.492,207 802.42,198.16 804.292,188.748 C806.268,200.344 811.832,207.624 818.696,211.108 L822.076,205.752 C814.12,202.268 808.192,197.588 804.864,184.588 Z M792.54,189.164 L791.24,187.812 C786.404,192.284 779.852,197.016 774.704,199.928 L778.292,204.556 C783.284,200.396 789.16,194.26 792.54,189.164 Z M863.728,197.9 C866.9,191.348 868.044,184.068 868.304,176.684 L871.892,176.684 L871.892,174.344 L859.62,174.344 C860.868,170.496 861.7,166.752 862.168,163.684 L857.176,162.904 C856.812,170.288 854.94,179.804 851.924,186.2 L851.924,182.82 L843.188,182.82 L843.188,180.116 L851.04,180.116 L851.04,174.864 L854.68,174.864 L854.68,172.524 L851.04,172.524 L851.04,167.324 L843.188,167.324 L843.188,163.372 L838.716,163.372 L838.716,167.324 L831.02,167.324 L831.02,172.524 L827.484,172.524 L827.484,174.864 L831.02,174.864 L831.02,180.116 L838.716,180.116 L838.716,182.82 L829.98,182.82 L829.98,191.036 L838.092,191.036 C837.728,192.024 837.104,193.376 836.376,194.78 L828.212,194.78 L828.16,197.12 L835.128,197.12 C833.36,200.292 831.488,203.412 830.656,204.504 L834.244,206.428 C834.764,205.648 835.44,204.608 836.168,203.36 C837.676,203.932 839.132,204.556 840.536,205.284 C837.468,207.884 833.152,209.444 828.004,210.016 L828.524,211.628 C834.504,211.368 839.912,209.86 843.812,207.052 C845.58,208.092 847.4,209.34 849.272,210.796 L851.924,206.792 C850.364,205.908 848.596,205.076 846.724,204.348 C848.388,202.372 849.532,199.98 850,197.12 L855.304,197.12 L855.304,194.78 L840.9,194.78 C841.472,193.688 841.94,192.7 842.252,192.024 L839.34,191.036 L851.924,191.036 L851.924,186.72 L853.276,187.552 C854.524,185.784 855.668,183.808 856.656,181.728 C857.072,188.592 858.216,193.896 859.828,198.108 C857.904,202.372 855.148,206.272 851.248,209.912 L852.392,211.212 C856.292,208.352 859.256,205.18 861.492,201.748 C863.884,206.22 866.9,209.184 869.968,211.68 L873.608,206.948 C869.448,204.66 866.12,201.644 863.728,197.9 Z M835.284,169.664 L838.716,169.664 L838.716,172.524 L835.284,172.524 L835.284,169.664 Z M843.188,169.664 L846.776,169.664 L846.776,172.524 L843.188,172.524 L843.188,169.664 Z M835.284,177.776 L835.284,174.864 L838.716,174.864 L838.716,177.776 L835.284,177.776 Z M843.188,174.864 L846.776,174.864 L846.776,177.776 L843.188,177.776 L843.188,174.864 Z M858.372,177.88 C858.476,177.464 858.632,177.1 858.788,176.684 L863.936,176.684 C863.78,182.976 863.104,188.644 861.492,193.74 C859.568,189.268 858.528,184.016 858.372,177.88 Z M834.348,185.16 L838.716,185.16 L838.716,188.696 L834.348,188.696 L834.348,185.16 Z M847.556,188.696 L843.188,188.696 L843.188,185.16 L847.556,185.16 L847.556,188.696 Z M845.424,197.12 C844.904,199.408 844.02,201.332 842.772,202.996 C840.9,202.424 839.028,201.956 837.208,201.54 C838.04,200.084 838.872,198.576 839.652,197.12 L845.424,197.12 Z M913.752,177.204 C913.908,171.536 909.904,167.116 902.728,167.116 C897.632,167.116 893.836,170.6 892.224,172.108 L893.368,176.632 C895.448,173.72 898.828,170.964 902.208,170.964 C906.42,170.964 908.188,174.344 908.084,177.828 C908.032,180.012 907.772,181.936 905.796,184.12 L903.144,187.084 C900.128,190.412 900.076,192.648 900.076,194.728 C900.076,196.08 900.18,197.744 900.232,198.836 L903.768,198.836 L903.768,195.248 C903.768,193.272 904.392,191.4 906.42,189.216 L908.916,186.512 C911.256,183.964 913.648,180.948 913.752,177.204 Z M905.692,205.804 C905.64,203.724 904.028,202.164 902.052,202.216 C900.024,202.268 898.36,203.724 898.36,205.804 C898.36,207.728 900.024,209.34 902.052,209.392 C904.028,209.444 905.744,207.728 905.692,205.804 Z M965.752,177.204 C965.908,171.536 961.904,167.116 954.728,167.116 C949.632,167.116 945.836,170.6 944.224,172.108 L945.368,176.632 C947.448,173.72 950.828,170.964 954.208,170.964 C958.42,170.964 960.188,174.344 960.084,177.828 C960.032,180.012 959.772,181.936 957.796,184.12 L955.144,187.084 C952.128,190.412 952.076,192.648 952.076,194.728 C952.076,196.08 952.18,197.744 952.232,198.836 L955.768,198.836 L955.768,195.248 C955.768,193.272 956.392,191.4 958.42,189.216 L960.916,186.512 C963.256,183.964 965.648,180.948 965.752,177.204 Z M957.692,205.804 C957.64,203.724 956.028,202.164 954.052,202.216 C952.024,202.268 950.36,203.724 950.36,205.804 C950.36,207.728 952.024,209.34 954.052,209.392 C956.028,209.444 957.744,207.728 957.692,205.804 Z M526.508,235.008 C523.596,248.476 518.968,256.796 515.224,261.476 L516.524,262.88 C518.5,261.268 520.684,258.928 522.816,255.86 L522.816,283.264 L527.392,283.264 L527.392,247.852 C528.952,244.524 530.408,240.676 531.552,236.412 L526.508,235.008 Z M560.828,249.308 L560.828,247.02 L546.58,247.02 L546.58,235.216 L541.692,235.216 L541.692,260.384 L531.656,260.384 L531.656,283.056 L536.232,283.056 L536.232,279.156 L552.976,279.156 L552.976,282.588 L557.656,282.588 L557.656,260.384 L546.58,260.384 L546.58,249.308 L560.828,249.308 Z M552.976,262.724 L552.976,276.816 L536.232,276.816 L536.232,262.724 L552.976,262.724 Z M594.888,263.764 C596.812,265.896 599.256,268.808 601.336,272.032 L604.716,268.756 C602.428,266.416 599.724,264.336 597.28,262.932 L611.216,262.932 L611.216,240.832 L597.072,240.832 C598.268,239.428 599.568,237.504 600.816,235.528 L596.032,234.488 C595.616,236.984 595.304,238.96 594.784,240.832 L585.632,240.832 L585.632,262.932 L595.668,262.932 L594.888,263.764 Z M566.6,261.216 L567.952,266 C571.072,265.324 575.804,263.92 580.172,262.152 C580.64,263.4 581.056,264.648 581.42,265.74 L585.112,263.972 C583.864,261.216 581.68,258.148 579.496,255.756 L577.936,256.64 C578.456,257.784 578.976,259.032 579.496,260.332 C577.208,260.644 575.128,260.852 573.048,261.008 C577.208,256.588 581.472,250.296 584.176,244.94 L579.704,242.964 C578.976,245.044 578.196,247.02 577.364,248.892 C575.596,248.996 573.776,249.152 571.956,249.204 C574.244,245.876 577.052,240.78 579.184,236.152 L574.452,234.748 C573.204,240.468 571.644,245.356 569.928,249.256 C568.888,249.256 567.848,249.256 566.808,249.204 L567.952,253.468 C570.5,252.896 573.516,252.116 576.376,251.128 C574.608,254.924 572.684,258.2 570.656,261.112 C569.304,261.216 567.952,261.216 566.6,261.216 Z M590.052,243.172 L595.252,243.172 C594.628,245.148 593.952,246.916 593.172,248.632 L591.04,247.748 L590.364,249.204 L592.236,250.4 C591.612,251.544 590.936,252.636 590.104,253.728 L591.404,254.872 C592.392,253.936 593.38,253 594.316,251.856 C595.408,252.584 596.448,253.364 597.488,254.144 C595.616,256.432 593.484,258.096 591.196,259.604 L591.716,260.592 L590.052,260.592 L590.052,243.172 Z M606.848,260.592 L593.172,260.592 C595.408,259.552 597.696,258.252 599.932,256.12 C601.232,257.212 602.532,258.356 603.832,259.552 L606.536,256.432 C605.08,255.34 603.624,254.352 602.272,253.468 C603.52,251.752 604.768,249.672 605.86,247.072 L602.376,245.304 L601.128,246.188 L598.164,246.188 C598.528,245.46 598.892,244.732 599.256,243.9 L596.916,243.172 L606.848,243.172 L606.848,260.592 Z M597.124,248.008 L601.128,248.008 C600.556,249.36 599.932,250.556 599.256,251.648 C598.164,251.024 597.02,250.452 595.876,249.88 C596.292,249.308 596.708,248.684 597.124,248.008 Z M604.3,272.032 C604.456,277.336 604.04,277.388 602.012,277.648 C600.244,277.856 598.424,277.752 596.968,277.648 C595.2,277.544 594.472,276.972 594.472,275.048 L594.472,265.168 L590,265.168 L590,275.672 C590,279.832 590.936,281.34 595.928,281.704 C598.06,281.86 600.452,281.86 603.104,281.704 C607.056,281.496 608.252,279 606.172,272.032 L604.3,272.032 Z M579.86,265.636 L578.196,266.312 C579.132,269.484 579.808,272.084 580.484,275.36 L584.28,273.852 C582.98,270.732 581.784,268.444 579.86,265.636 Z M574.296,267.456 C574.608,271.668 574.764,277.284 574.816,280.56 L579.392,279.676 C578.82,276.556 577.468,271.148 576.012,267.144 L574.296,267.456 Z M607.576,267.248 L606.172,268.132 C607.732,271.46 608.928,274.996 610.02,278.532 L613.92,276.556 C612.36,273.072 610.02,269.9 607.576,267.248 Z M586.776,267.716 C585.892,272.24 584.644,274.736 582.356,277.96 L586.62,280.3 C588.284,276.296 588.7,272.552 588.596,268.028 L586.776,267.716 Z M570.5,267.872 C569.616,273.436 567.9,277.648 565.976,280.768 L570.708,282.796 C571.852,279.416 572.372,274.216 572.216,268.08 L570.5,267.872 Z M645.432,268.704 C650.424,262.932 653.596,255.808 655.572,247.592 L664.412,247.592 L664.412,244.992 L644.028,244.992 L647.2,242.444 C643.872,239.116 639.816,235.944 636.644,234.228 L635.448,235.632 C637.424,238.024 640.18,241.924 642.104,244.992 L619.848,244.992 L619.848,247.592 L630.924,247.592 C632.484,256.328 635.5,263.4 639.816,268.964 C634.824,274.58 628.116,278.896 619.224,281.548 L619.796,283.316 C629.468,280.924 636.8,277.076 642.364,271.928 C647.512,277.284 654.168,280.976 662.176,283.264 L665.14,276.972 C657.08,275.152 650.58,272.812 645.432,268.704 Z M632.9,247.592 L650.112,247.592 C648.604,254.456 646.108,260.644 642.312,265.844 C638.256,261.528 635.188,255.704 632.9,247.592 Z M715.944,250.556 L701.02,250.556 C702.84,248.684 704.192,246.968 705.7,244.472 L702.58,243.276 L713.344,243.276 L713.344,240.936 L696.288,240.936 L698.004,238.128 C695.144,236.568 690.568,235.008 687.968,234.384 L687.136,236.1 C689.008,237.504 691.556,239.324 693.636,240.936 L674.76,240.936 L674.76,243.276 L682.248,243.276 L681.468,243.9 C683.08,246.396 684.276,248.164 685.68,250.556 L672.108,250.556 L672.108,252.896 L715.944,252.896 L715.944,250.556 Z M683.912,243.276 L700.5,243.276 C699.928,245.928 699.148,248.372 698.212,250.556 L687.344,250.556 L689.944,248.476 C687.968,246.396 686.148,244.784 683.912,243.276 Z M696.392,273.228 L696.392,269.796 L709.444,269.796 L709.444,255.808 L678.452,255.808 L678.452,269.796 L691.504,269.796 L691.504,273.228 L671.068,273.228 L671.068,275.568 L691.504,275.568 L691.504,283.68 L696.392,283.68 L696.392,275.568 L716.984,275.568 L716.984,273.228 L696.392,273.228 Z M683.132,258.148 L704.764,258.148 L704.764,261.528 L683.132,261.528 L683.132,258.148 Z M683.132,267.456 L683.132,263.764 L704.764,263.764 L704.764,267.456 L683.132,267.456 Z M767.112,266.676 L765.24,266.676 C765.24,274.268 765.5,277.128 762.432,277.492 C760.144,277.752 757.544,277.752 756.036,277.492 C753.8,277.128 753.124,276.66 753.124,274.008 L753.124,258.928 C758.324,256.952 762.64,254.3 767.06,251.128 L762.692,246.708 C760.56,249.412 756.972,253.468 753.124,256.328 L753.124,235.892 L748.236,235.892 L748.236,274.372 C748.236,280.404 750.264,281.392 755.828,281.86 C758.376,282.068 760.196,282.068 763.628,281.86 C769.244,281.496 770.284,278.064 767.112,266.676 Z M734.612,274.528 L734.612,256.224 L745.896,256.224 L745.896,253.364 L734.612,253.364 L734.612,236.464 L729.724,236.464 L729.724,275.672 C727.124,276.244 724.732,276.66 723.016,276.868 L724.888,282.588 C729.464,281.236 740.228,276.816 746.78,272.708 L746.052,270.94 C742.88,272.24 738.668,273.488 734.612,274.528 Z M788.224,236.1 L783.388,234.904 C781.724,245.824 777.98,256.12 774.6,261.58 L776.004,262.828 C777.46,261.32 779.02,259.084 780.58,256.328 L780.58,283.524 L785.052,283.524 L785.052,246.604 C786.352,243.224 787.444,239.636 788.224,236.1 Z M814.016,235.32 L813.912,276.4 C813.912,279.208 812.976,279.624 805.956,277.7 L805.332,279.468 C813.548,285.24 818.384,283.42 818.384,278.116 L818.488,235.32 L814.016,235.32 Z M799.04,249.256 L795.816,249.256 C796.44,246.916 796.96,244.316 797.376,241.456 L805.8,241.456 L805.8,239.116 L788.536,239.116 L788.536,241.456 L792.696,241.456 C791.916,250.816 788.848,260.748 785.884,264.7 L787.288,265.948 C788.692,264.492 789.94,262.828 791.136,260.904 C791.916,262.776 792.852,265.168 793.632,267.144 L796.908,264.96 C795.192,270.888 792.072,277.024 785.988,282.328 L787.184,283.784 C800.132,275.464 802.94,261.164 804.396,249.516 L800.184,248.216 L799.04,249.256 Z M810.48,242.288 L806.216,242.288 L806.216,271.46 L810.48,271.46 L810.48,242.288 Z M797.012,264.648 C795.972,262.776 794.204,260.644 792.28,258.876 C793.372,256.744 794.308,254.352 795.14,251.596 L799.352,251.596 C798.884,255.496 798.364,260.02 797.012,264.648 Z M861.752,249.204 C861.908,243.536 857.904,239.116 850.728,239.116 C845.632,239.116 841.836,242.6 840.224,244.108 L841.368,248.632 C843.448,245.72 846.828,242.964 850.208,242.964 C854.42,242.964 856.188,246.344 856.084,249.828 C856.032,252.012 855.772,253.936 853.796,256.12 L851.144,259.084 C848.128,262.412 848.076,264.648 848.076,266.728 C848.076,268.08 848.18,269.744 848.232,270.836 L851.768,270.836 L851.768,267.248 C851.768,265.272 852.392,263.4 854.42,261.216 L856.916,258.512 C859.256,255.964 861.648,252.948 861.752,249.204 Z M853.692,277.804 C853.64,275.724 852.028,274.164 850.052,274.216 C848.024,274.268 846.36,275.724 846.36,277.804 C846.36,279.728 848.024,281.34 850.052,281.392 C852.028,281.444 853.744,279.728 853.692,277.804 Z M913.752,249.204 C913.908,243.536 909.904,239.116 902.728,239.116 C897.632,239.116 893.836,242.6 892.224,244.108 L893.368,248.632 C895.448,245.72 898.828,242.964 902.208,242.964 C906.42,242.964 908.188,246.344 908.084,249.828 C908.032,252.012 907.772,253.936 905.796,256.12 L903.144,259.084 C900.128,262.412 900.076,264.648 900.076,266.728 C900.076,268.08 900.18,269.744 900.232,270.836 L903.768,270.836 L903.768,267.248 C903.768,265.272 904.392,263.4 906.42,261.216 L908.916,258.512 C911.256,255.964 913.648,252.948 913.752,249.204 Z M905.692,277.804 C905.64,275.724 904.028,274.164 902.052,274.216 C900.024,274.268 898.36,275.724 898.36,277.804 C898.36,279.728 900.024,281.34 902.052,281.392 C904.028,281.444 905.744,279.728 905.692,277.804 Z" id="-" fill="#000000"></path>
        </g>
    </g>
</svg>