<?xml version="1.0" encoding="UTF-8"?>
<svg width="1440px" height="800px" viewBox="0 0 1440 800" version="1.1" xmlns="http://www.w3.org/2000/svg" xmlns:xlink="http://www.w3.org/1999/xlink">
    <!-- Generator: Sketch 41.2 (35397) - http://www.bohemiancoding.com/sketch -->
    <title>Group 31 Copy</title>
    <desc>Created with Sketch.</desc>
    <defs></defs>
    <g id="Page-1" stroke="none" stroke-width="1" fill="none" fill-rule="evenodd">
        <g id="Group-31-Copy">
            <rect id="Rectangle-14-Copy-7" fill="#000000" x="0" y="0" width="1440" height="800"></rect>
            <path d="M675.186,187.12 L673.674,187.12 C673.842,191.698 673.674,192.412 671.826,192.496 C670.44,192.538 670.188,192.496 670.188,190.69 L670.188,182.29 L673.506,182.29 L673.506,160.072 L659.982,160.072 L659.982,160.912 L654.48,160.912 L654.48,157.72 L651.288,157.72 L651.288,160.912 L647.046,160.87 L647.046,157.72 L643.854,157.72 L643.854,160.87 L638.436,160.87 L638.436,162.76 L643.854,162.76 L643.854,165.364 L647.046,165.364 L647.046,162.76 L651.288,162.802 L651.288,165.364 L654.48,165.364 L654.48,162.802 L659.982,162.802 L659.982,182.29 L662.46,182.29 C662.334,186.112 661.662,189.136 659.394,191.614 L652.716,191.614 L652.716,188.338 L657.882,188.338 L657.882,186.658 L652.716,186.658 L652.716,183.634 L657.672,183.634 L657.672,181.954 L652.716,181.954 L652.716,179.182 L658.89,179.182 L658.89,177.544 L651.918,177.544 L653.304,176.116 C651.75,174.688 650.238,173.68 648.558,172.84 L648.558,166.288 L640.284,166.288 L640.284,173.05 L643.434,173.092 C642.384,177.46 640.2,181.66 638.1,184.138 L638.898,185.146 C639.78,184.474 640.704,183.466 641.628,182.374 L641.628,196.108 L644.82,196.108 L644.82,193.504 L657.21,193.504 C656.16,194.218 654.9,194.932 653.43,195.562 L654.144,196.864 C662.292,194.008 665.4,190.774 665.694,182.29 L666.996,182.29 L666.996,191.278 C666.996,194.554 667.542,195.646 671.994,195.562 C676.614,195.478 676.698,193.252 675.186,187.12 Z M663.174,161.962 L670.23,161.962 L670.23,166.75 L663.174,166.75 L663.174,161.962 Z M658.596,166.288 L650.364,166.288 L650.364,173.05 L658.596,173.05 L658.596,166.288 Z M642.804,167.968 L646.038,167.968 L646.038,171.328 L642.804,171.328 L642.804,167.968 Z M656.076,171.286 L652.884,171.286 L652.884,167.968 L656.076,167.968 L656.076,171.286 Z M663.174,168.514 L670.23,168.514 L670.23,173.344 L663.174,173.344 L663.174,168.514 Z M644.106,173.092 L648.348,173.134 L647.928,173.764 C648.768,174.856 649.776,176.2 650.658,177.544 L644.904,177.544 C645.576,176.326 646.164,175.15 646.584,174.1 L644.106,173.092 Z M663.174,175.108 L670.23,175.108 L670.23,180.4 L663.174,180.4 L663.174,175.108 Z M649.524,181.954 L644.82,181.954 L644.82,179.182 L649.524,179.182 L649.524,181.954 Z M649.524,186.658 L644.82,186.658 L644.82,183.634 L649.524,183.634 L649.524,186.658 Z M649.524,191.614 L644.82,191.614 L644.82,188.338 L649.524,188.338 L649.524,191.614 Z M685.602,163.516 L712.734,163.516 L712.734,167.002 L711.138,166.12 L710.172,166.708 L703.62,166.708 L703.62,168.388 L710.13,168.388 C709.5,170.068 708.576,171.664 707.568,173.05 C704.838,170.95 702.57,168.136 701.016,164.524 L699.714,164.986 C702.444,173.638 708.996,179.224 716.052,181.744 L718.152,177.754 C714.834,177.04 711.642,175.822 708.87,173.974 C710.508,172.672 712.02,171.202 713.7,168.85 L716.43,168.85 L716.43,161.626 L701.982,161.626 L703.116,159.106 C700.134,158.098 695.934,157.468 693.498,157.3 L693.162,158.77 C695.178,159.61 697.824,160.744 699.882,161.626 L681.906,161.626 L681.906,169.312 L685.602,169.312 L685.602,163.516 Z M692.582565,178.334802 C692.965471,178.052664 693.340789,177.761196 693.708,177.46 L693.708,178.468 L693.897,178.468 L692.582565,178.334802 Z M693.897,178.468 L706.98,178.468 L706.98,176.578 L694.716,176.578 C697.068,174.394 699.084,171.748 700.512,168.472 L697.32,166.792 L696.354,167.38 L691.818,167.38 C692.448,166.582 692.994,165.784 693.498,164.986 L689.802,163.726 C687.996,167.968 684.468,172.252 680.31,175.402 L681.192,176.662 C682.41,175.99 683.67,175.15 684.846,174.268 C685.476,175.36 686.106,176.704 686.736,178.174 L689.214,176.41 C688.164,175.108 687.156,174.1 686.106,173.26 C686.778,172.672 687.45,172.084 688.122,171.454 C689.172,172.42 690.18,173.554 691.23,174.856 L693.288,172.63 C692.28,171.832 690.684,170.95 689.214,170.362 C689.634,169.942 690.012,169.522 690.39,169.102 L696.144,169.06 C693.708,175.024 687.618,179.77 680.016,182.668 L680.52,184.054 C684.913388,182.728409 689.067702,180.92467 692.582565,178.334802 L693.897,178.468 Z M713.868,184.348 L713.868,182.458 L686.274,182.458 L686.274,184.348 L698.328,184.348 L698.328,191.824 C698.328,193.714 697.698,194.302 691.944,192.874 L691.44,194.302 C697.95,198.628 701.94,197.074 701.94,193.504 L701.94,184.348 L713.868,184.348 Z M690.474,185.02 C687.912,187.918 683.796,191.152 679.932,193.168 L680.562,194.554 C684.804,193.168 690.558,190.228 693.96,187.288 L690.474,185.02 Z M704.67,186.784 C708.492,189.346 712.692,192.79 715.17,195.184 L717.732,191.74 C714.834,189.682 709.584,186.91 705.426,185.398 L704.67,186.784 Z M747.804,159.106 L738.732,159.106 L738.732,161.416 L746.208,161.416 C747.132,166.876 749.148,171.16 752.172,174.31 L729.282,174.31 C733.608,170.11 735.624,165.448 737.052,161.332 L732.894,159.82 C730.962,167.044 728.316,172.588 721.974,177.796 L722.814,179.056 C724.914,177.88 726.678,176.62 728.19,175.276 L728.19,176.62 L735.414,176.62 C734.7,182.122 732.936,190.564 723.15,195.562 L723.822,196.99 C736.044,192.916 738.648,183.046 739.446,176.62 L748.014,176.62 C747.72,184.054 747.342,187.876 746.88,190.018 C746.334,192.58 745.074,193.126 738.06,191.152 L737.556,192.58 C745.452,197.662 749.568,195.814 750.492,192.244 C751.164,189.64 751.626,185.146 752.256,174.394 C753.768,175.99 755.574,177.292 757.632,178.342 L760.488,173.596 C752.046,170.362 748.938,165.364 747.804,159.106 Z M785.814,171.37 L785.814,163.768 C789.678,163.516 795.39,162.676 799.884,161.038 L796.104,157.678 C793.458,159.778 789.93,161.374 785.814,162.172 L785.814,162.13 L781.95,161.206 L781.95,174.058 C781.74,186.154 779.346,191.908 776.49,195.73 L777.624,196.738 C783.168,191.614 785.814,183.718 785.814,173.47 L785.814,173.26 L791.484,173.26 L791.484,196.612 L795.18,196.612 L795.18,173.26 L801.522,173.26 L801.522,171.37 L785.814,171.37 Z M778.338,179.392 L781.11,176.998 C779.43,174.646 777.12,172.882 775.104,171.496 L775.104,168.43 L780.564,168.43 L780.564,166.498 L775.104,166.498 L775.104,157.762 L771.492,157.762 L771.492,166.498 L765.234,166.498 L765.234,168.388 L770.82,168.388 C769.602,175.234 766.83,181.534 764.058,185.776 L765.15,186.742 C767.628,183.97 770.19,179.644 771.492,176.2 L771.492,196.57 L775.104,196.57 L775.104,173.932 C776.238,175.612 777.456,177.586 778.338,179.392 Z" id="觀察分析" fill="#FFFFFF"></path>
            <path d="M651.048,383.34 C652.816,381.832 654.792,379.96 656.248,378.244 L651.62,376.164 C650.996,378.244 649.488,381.364 648.292,383.34 L644.184,383.34 L644.184,375.852 L639.504,375.852 L639.504,383.34 L633.732,383.34 L636.176,380.844 C634.044,378.816 631.392,377.048 628.532,375.748 L627.336,377.204 C629,379.18 630.872,381.416 632.224,383.34 L620.732,383.34 L620.732,391.816 L625.1,391.816 L625.1,385.68 L659.004,385.68 L659.004,391.764 L663.372,391.764 L663.372,383.34 L651.048,383.34 Z M655.26,387.864 L628.844,387.864 L628.844,395.092 L655.26,395.092 L655.26,387.864 Z M650.996,392.908 L633.108,392.908 L633.108,390.048 L650.996,390.048 L650.996,392.908 Z M651.1,403.464 C644.86,403.724 639.14,403.724 632.692,403.464 C630.196,403.36 629.364,402.684 629.468,401.176 L629.468,400.916 C635.968,401.02 651.88,400.812 658.588,399.564 L654.896,395.976 C647.2,397.952 637.528,398.68 629.468,399.044 L629.468,396.236 L624.996,396.236 L624.996,401.228 C624.996,405.648 626.296,406.792 632.068,406.948 C638.828,407.156 645.38,407.156 651.932,406.948 C656.82,406.792 660.512,406.428 661.968,405.024 L660.252,401.748 C658.588,403.36 655.728,403.256 651.1,403.464 Z M626.504,424.576 L631.08,424.576 L631.08,422.028 L653.128,422.028 L653.128,424.576 L657.704,424.576 L657.704,409.34 L626.504,409.34 L626.504,424.576 Z M631.08,411.68 L653.128,411.68 L653.128,414.488 L631.08,414.488 L631.08,411.68 Z M631.08,416.672 L653.128,416.672 L653.128,419.688 L631.08,419.688 L631.08,416.672 Z M689.372,385.42 L681.26,385.42 L684.484,382.664 C682.248,380.168 678.816,377.464 676.268,375.904 L674.968,377.256 C676.32,379.076 678.556,382.404 680.324,385.42 L670.912,385.42 L670.912,387.76 L689.32,387.76 L689.372,385.42 Z M716.62,409.964 L714.748,409.808 C714.488,416.62 714.332,421.196 712.2,417.036 C708.924,410.64 708.04,401.072 707.832,390.776 L717.192,390.776 L717.192,388.436 L707.78,388.436 C707.728,384.38 707.78,380.22 707.78,376.164 L703.308,376.164 C703.256,379.596 703.204,383.86 703.256,388.436 L688.696,388.436 L688.696,390.776 L703.308,390.776 C703.516,402.112 704.712,414.8 709.392,421.404 C714.228,428.32 720,424.628 716.62,409.964 Z M716.516,385.94 C715.476,383.236 713.344,378.972 711.368,376.684 L709.6,377.412 C710.432,380.376 711.472,384.692 712.148,387.604 L716.516,385.94 Z M687.344,394.832 L687.344,392.648 L672.68,392.648 L672.68,394.832 L687.344,394.832 Z M697.952,411.472 L697.952,400.24 L702.944,400.24 L702.944,397.9 L688.696,397.9 L688.696,400.24 L693.584,400.24 L693.584,412.824 C691.504,413.396 689.476,413.916 687.552,414.28 L687.552,407.312 L672.836,407.312 L672.836,423.692 L676.996,423.692 L676.996,420.26 L683.392,420.26 L683.392,423.328 L687.552,423.328 L687.552,414.488 L689.58,419.012 C695.248,416.88 700.604,414.176 704.712,410.9 L703.88,409.288 C702.112,410.016 700.084,410.744 697.952,411.472 Z M687.344,400.188 L672.68,400.188 L672.68,402.372 L687.344,402.372 L687.344,400.188 Z M683.34,417.972 L676.996,417.972 L676.996,409.6 L683.34,409.6 L683.34,417.972 Z M742.88,382.612 L738.408,380.22 L737.42,381 L733.312,381 C733.884,379.7 734.404,378.348 734.924,376.944 L730.036,375.748 C728.892,381.884 726.24,388.748 722.444,392.96 L723.692,394.312 C724.524,393.636 725.356,392.908 726.136,392.128 L726.136,403.1 C726.136,413.552 725.512,419.116 722.548,423.484 L724.056,424.68 C728.58,420.26 729.88,415.008 730.244,409.184 L740.592,409.184 L740.592,417.504 C740.592,420.156 739.812,420.884 733.208,418.96 L732.584,420.728 C741.372,426.968 744.856,423.38 744.856,419.324 L744.856,388.956 L737.628,388.956 C739.396,387.24 741.32,384.952 742.88,382.612 Z M745.116,394.728 L746,396.288 C751.72,393.896 755.984,389.736 756.296,382.196 L762.224,382.196 C762.172,384.38 761.912,387.188 761.652,388.54 C761.34,390.152 760.144,390.36 755.88,389.164 L755.256,390.724 C760.248,394.364 764.668,394.676 765.656,390.88 C766.228,388.592 766.592,384.38 766.696,379.856 L745.948,379.856 L745.948,382.196 L751.876,382.196 C751.72,386.304 750.576,391.296 745.116,394.728 Z M732.22,383.34 L737.316,383.34 C736.744,385.108 736.016,387.084 735.08,388.956 L728.84,388.956 C730.088,387.24 731.18,385.368 732.22,383.34 Z M733.364,397.64 L730.4,397.64 L730.4,391.296 L733.364,391.296 L733.364,397.64 Z M740.592,397.64 L737.524,397.64 L737.524,391.296 L740.592,391.296 L740.592,397.64 Z M759.572,410.432 L759.572,404.088 L767.372,404.088 L767.372,401.748 L759.572,401.748 L759.572,394 L755.1,394 L755.1,401.748 L751.252,401.748 C752.032,399.772 752.604,397.9 752.916,396.496 L748.652,395.612 C748.236,399.772 746.78,405.388 744.96,408.716 L746.416,409.652 C747.872,408.248 749.172,406.22 750.212,404.088 L755.1,404.088 L755.1,410.432 L745.532,410.432 L745.532,412.772 L755.1,412.772 L755.1,424.368 L759.572,424.368 L759.572,412.772 L768.776,412.772 L768.776,410.432 L759.572,410.432 Z M733.364,406.844 L730.348,406.844 C730.4,405.648 730.4,404.452 730.4,403.256 L730.4,399.876 L733.364,399.876 L733.364,406.844 Z M737.524,406.844 L737.524,399.876 L740.592,399.876 L740.592,406.844 L737.524,406.844 Z M788.848,382.04 C786.092,379.856 781.412,377.308 778.396,376.008 L777.408,377.568 C779.54,379.7 783.284,383.6 785.572,386.2 L788.848,382.04 Z M804.708,402.892 L820.048,402.892 L820.048,400.552 L815.108,400.552 L815.108,385.732 L803.044,385.732 L803.044,376.06 L798.052,376.06 L798.052,385.732 L789.368,385.732 L789.368,388.072 L798.052,388.072 L798.052,391.972 C798.052,395.144 797.896,398.004 797.584,400.552 L787.184,400.552 L787.184,402.892 L797.22,402.892 C795.036,416.152 788.744,420.676 783.544,423.432 L784.324,425.148 C793.996,421.612 800.184,415.268 802.264,402.892 L802.732,402.892 C805.28,416.36 812.768,422.444 818.28,425.044 L821.556,419.272 C814.38,416.36 808.4,412.772 804.708,402.892 Z M786.196,394.104 C783.232,391.504 778.812,388.592 776.004,387.084 L774.964,388.644 C777.044,391.036 780.476,395.196 782.66,398.056 L786.196,394.104 Z M803.044,392.492 L803.044,388.072 L810.324,388.072 L810.324,400.552 L802.576,400.552 C802.888,398.108 803.044,395.404 803.044,392.492 Z M783.856,399.824 C781.828,405.752 778.188,414.748 775.484,419.948 L780.788,422.392 C782.4,417.66 784.428,407.78 785.624,400.344 L783.856,399.824 Z" id="嘗試解決" fill="#FFBEBE"></path>
            <path d="M607.78,608.684 C616.584,608.684 630.968,607.196 640.33,605.026 C641.57,606.576 642.748,608.126 643.678,609.676 L647.956,605.832 C644.546,602.298 640.02,599.198 635.742,597.276 L634.564,598.95 C635.928,600.128 637.292,601.554 638.594,602.98 C633.076,603.476 626.07,603.786 618.816,603.724 C622.35,601.492 625.698,598.826 627.806,596.532 L621.544,594.052 C619.746,597.462 617.266,600.934 614.6,603.662 C611.934,603.6 609.268,603.476 606.664,603.29 L607.78,608.684 Z M634.564,621.456 C638.284,620.836 642.19,619.782 646.406,618.17 C646.964,619.472 647.522,620.836 647.956,622.2 L652.73,619.658 C650.746,616.372 647.46,613.024 644.794,610.792 L643.12,612.094 C643.864,613.334 644.67,614.636 645.352,616.062 C642.066,616.744 638.78,617.24 635.37,617.488 C637.292,614.946 638.966,612.28 640.33,609.366 L635.06,607.754 C634.502,611.598 633.572,615.07 632.58,617.674 C631.96,617.674 631.34,617.736 630.72,617.736 C630.162,617.116 629.666,616.372 629.232,615.628 C629.852,614.636 630.41,613.52 630.968,612.404 L625.698,610.234 C624.768,612.404 623.714,614.388 622.474,616.248 C621.234,614.698 619.932,613.272 618.444,612.032 L616.832,613.272 C617.452,614.326 618.072,615.504 618.568,616.744 C616.212,617.116 613.36,617.55 610.508,617.86 C612.492,615.69 614.538,613.148 615.716,610.916 L610.322,609.366 C609.578,612.776 608.648,615.566 607.284,618.17 C605.362,618.294 603.564,618.356 601.952,618.294 L603.068,623.378 C607.47,623.006 614.414,620.836 619.436,618.852 L619.808,619.844 C614.6,625.982 607.47,630.26 598.852,633.298 L599.658,635.406 C611.748,632.058 621.668,626.478 627.868,617.674 C633.51,628.152 643.554,633.546 652.482,636.15 L655.458,629.826 C651.738,629.144 641.818,627.098 634.564,621.456 Z M627.372,624.308 C623.342,629.454 616.15,633.856 607.532,636.46 L608.152,638.506 C617.018,636.956 626.504,632.802 631.96,627.408 L627.372,624.308 Z M607.904,645.76 C620.118,644.024 632.642,639.498 639.338,633.174 L634.874,629.888 C627.868,636.894 618.754,640.862 607.222,643.59 L607.904,645.76 Z M605.734,650.534 L606.292,652.704 C622.66,651.774 638.842,647.062 647.708,639.498 L642.872,635.902 C635.432,642.908 621.606,648.55 605.734,650.534 Z M716.528,633.67 L710.266,633.67 L712.436,598.516 L698.92,598.516 L698.92,601.306 L707.104,601.306 L706.546,610.358 L699.044,610.358 L699.044,612.962 L706.36,612.962 L705.802,621.332 L698.796,621.332 L698.796,623.936 L705.678,623.936 L705.058,633.67 L695.634,633.67 C696.254,627.594 696.874,617.984 697.246,611.722 L686.768,611.722 C687.078,609.614 687.388,607.444 687.636,605.336 L697.99,605.336 L697.99,602.546 L688.008,602.546 C688.318,600.004 688.628,597.524 688.814,595.292 L683.606,594.672 C682.924,601.492 681.87,609.428 680.816,616.248 L685.9,616.93 C686.024,616.124 686.21,615.318 686.334,614.45 L691.728,614.45 C691.356,620.278 690.86,628.276 690.364,633.67 L685.342,633.67 C686.148,628.462 686.644,624.742 687.202,619.286 L681.994,618.356 C681.436,624.06 680.94,628.152 680.134,633.67 L672.198,633.67 C672.074,630.26 672.012,626.788 671.888,623.378 L679.638,623.378 L679.638,620.774 L671.826,620.774 C671.702,617.984 671.64,615.132 671.578,612.342 L679.514,612.342 L679.514,609.738 L671.454,609.738 L671.268,602.856 C674.616,601.802 679.142,600.004 682.18,598.206 L677.654,594.114 C675.484,596.408 673.376,598.392 670.648,600.252 L665.626,599.57 C666.246,611.598 666.68,621.766 666.99,633.67 L661.72,633.67 L661.72,636.46 L716.528,636.46 L716.528,633.67 Z M660.976,650.844 L661.844,652.952 C669.842,650.844 680.444,646.07 686.52,640.428 L680.258,637.08 C675.608,642.598 669.532,646.814 660.976,650.844 Z M694.208,637.638 L693.34,639.746 C700.656,643.652 707.538,648.054 713.304,653.014 L717.396,646.938 C709.46,642.226 701.958,639.622 694.208,637.638 Z M765.012,636.15 C770.158,628.152 771.77,619.1 772.08,611.102 L777.784,611.102 L777.784,608.312 L758.564,608.312 C759.866,603.972 760.796,599.694 761.292,595.974 L754.906,594.796 C753.914,606.018 751.93,618.046 746.97,626.478 L748.768,627.904 C750.752,625.734 752.55,623.006 754.1,619.968 C754.968,625.92 756.704,631.376 759.246,636.212 C755.65,641.73 750.38,646.566 742.754,650.472 L743.932,652.456 C751.868,649.48 757.634,645.264 761.85,640.428 C765.26,645.264 769.724,649.232 775.18,651.96 L779.21,645.45 C773.01,642.97 768.422,639.808 765.012,636.15 Z M750.38,634.228 C746.04,636.336 739.84,638.692 734.012,640.552 L734.012,620.216 L742.506,620.216 L742.506,623.874 L747.962,623.874 L747.962,600.376 L725.394,600.376 L725.394,603.166 L742.506,603.166 L742.506,617.426 L728.432,617.426 L728.432,642.288 C726.82,642.722 725.27,643.156 723.906,643.466 L726.758,649.852 C733.826,646.938 744.8,640.986 751.434,636.088 L750.38,634.228 Z M756.146,615.442 C756.704,614.016 757.262,612.59 757.696,611.102 L766.004,611.102 C765.818,618.542 764.578,625.548 761.664,631.81 C758.502,626.912 756.952,621.332 756.146,615.442 Z M822.672,600.128 L815.604,600.128 L817.464,598.082 C815.356,596.284 811.946,594.672 809.032,593.618 L807.978,595.23 C809.59,596.78 810.954,598.206 812.504,600.128 L803.948,600.128 L803.948,602.918 L822.672,602.918 L822.672,600.128 Z M822.176,604.716 L823.354,608.994 C825.462,608.622 828.19,607.878 830.794,606.948 C829.306,609.428 827.57,611.722 825.276,614.326 C824.036,614.326 822.858,614.264 821.742,614.14 L822.672,618.914 C826.33,618.542 831.662,617.178 835.816,615.628 C836.312,616.868 836.746,618.108 837.056,619.162 L840.59,617.364 C839.35,614.76 837.676,612.59 835.072,610.048 L833.708,610.978 C834.142,611.846 834.576,612.714 834.948,613.644 C832.964,613.954 830.732,614.14 828.438,614.264 C832.654,610.668 836.436,606.514 838.854,602.608 L834.266,600.128 C833.584,601.616 832.964,602.98 832.344,604.22 C830.67,604.406 828.872,604.592 827.012,604.716 C828.748,602.546 830.608,600.004 832.654,596.222 L828.004,594.548 C826.702,598.95 825.834,601.988 824.532,604.778 C823.726,604.778 822.982,604.778 822.176,604.716 Z M786.774,614.388 L787.766,619.1 C791.548,618.48 796.322,617.24 800.662,615.628 C801.034,616.744 801.344,617.86 801.592,618.914 L805.064,617.364 C804.072,614.698 802.46,612.28 800.042,609.552 L798.678,610.482 L799.98,613.582 C797.81,613.954 795.516,614.202 793.16,614.326 C797.438,610.73 801.22,606.7 803.576,602.732 L799.236,600.314 C798.616,601.74 797.996,602.98 797.376,604.158 C795.764,604.406 794.09,604.53 792.416,604.53 C794.276,602.484 796.012,600.066 798.12,596.346 L793.47,594.796 C792.23,599.136 791.114,601.926 789.812,604.592 C788.82,604.53 787.828,604.53 786.836,604.468 L788.138,608.87 C790.37,608.56 793.222,607.692 795.888,606.824 C794.276,609.428 792.54,611.722 790.06,614.45 C788.944,614.45 787.828,614.45 786.774,614.388 Z M820.254,605.584 L805.994,605.584 L805.994,608.188 L820.254,608.188 L820.254,605.584 Z M805.994,613.148 L820.254,613.148 L820.254,610.544 L805.994,610.544 L805.994,613.148 Z M805.808,627.346 L820.44,627.346 L820.44,615.628 L805.808,615.628 L805.808,627.346 Z M804.196,625.424 C803.018,622.758 801.158,620.216 799.112,617.86 L797.624,618.666 C798.802,621.456 799.794,624.308 800.662,627.222 L804.196,625.424 Z M839.722,625.734 C838.42,623.068 836.25,620.216 834.39,617.922 L832.84,618.728 C834.08,621.518 835.134,624.618 835.816,627.532 L839.722,625.734 Z M810.148,618.294 L816.1,618.294 L816.1,624.68 L810.148,624.68 L810.148,618.294 Z M828.624,619.472 C828.996,623.006 829.43,626.602 829.492,629.392 L833.646,628.462 C833.088,625.858 831.786,622.448 830.36,619.038 L828.624,619.472 Z M793.284,619.596 C793.656,623.13 794.028,626.912 794.152,629.702 L798.368,628.648 C797.81,626.044 796.384,622.572 795.02,619.162 L793.284,619.596 Z M825.648,630.198 C826.268,627.408 826.702,624.37 827.074,619.782 L825.152,619.41 C823.664,623.936 822.486,626.54 821.432,629.02 L825.648,630.198 Z M791.548,620.03 L789.75,619.658 C788.448,624.184 787.022,627.408 785.968,629.888 L790.184,631.066 C790.742,628.276 791.362,624.618 791.548,620.03 Z M841.086,646.38 C832.22,646.132 825.338,645.45 819.882,644.148 C823.664,641.42 826.082,638.258 827.632,634.724 L836.87,634.724 L836.87,631.934 L806.552,631.934 C807.234,631.066 807.916,630.198 808.536,629.33 L803.08,626.85 C799.794,632.554 794.586,638.258 788.014,641.544 L789.006,643.528 C793.656,642.04 798.244,639.498 802.088,636.274 C803.948,639.436 806.676,642.102 809.962,644.334 C804.196,647.124 796.136,649.232 785.162,650.348 L785.72,652.766 C798.864,652.146 808.164,650.1 814.736,647.062 C821.618,650.348 829.988,652.146 838.358,652.394 L841.086,646.38 Z M803.824,634.724 L820.75,634.724 C819.324,637.452 817.092,639.932 813.806,642.164 C809.714,640.366 806.552,638.01 803.824,634.724 Z" id="參與改變" fill="#FF6666"></path>
            <path d="M721,246 L721,252 L724,252 L724,246 L721,246 Z M721,258 L721,264 L724,264 L724,258 L721,258 Z M721,270 L721,276 L724,276 L724,270 L721,270 Z M721,282 L721,288 L724,288 L724,282 L721,282 Z M721,294 L721,300 L724,300 L724,294 L721,294 Z M721,306 L721,312 L724,312 L724,306 L721,306 Z M721,318 L721,324 L724,324 L724,318 L721,318 Z M721,330 L721,336 L724,336 L724,330 L721,330 Z" id="Path-5" fill="#FFBEBE"></path>
            <path d="M721,469 L721,475 L724,475 L724,469 L721,469 Z M721,481 L721,487 L724,487 L724,481 L721,481 Z M721,493 L721,499 L724,499 L724,493 L721,493 Z M721,505 L721,511 L724,511 L724,505 L721,505 Z M721,517 L721,523 L724,523 L724,517 L721,517 Z M721,529 L721,535 L724,535 L724,529 L721,529 Z M721,541 L721,547 L724,547 L724,541 L721,541 Z M721,553 L721,559 L724,559 L724,553 L721,553 Z" id="Path-5-Copy" fill="#FFBEBE"></path>
        </g>
    </g>
</svg>