<?xml version="1.0" encoding="UTF-8"?>
<svg width="1440px" height="457px" viewBox="0 0 1440 457" version="1.1" xmlns="http://www.w3.org/2000/svg" xmlns:xlink="http://www.w3.org/1999/xlink">
    <!-- Generator: Sketch 41.2 (35397) - http://www.bohemiancoding.com/sketch -->
    <title>Group 7</title>
    <desc>Created with Sketch.</desc>
    <defs>
        <polygon id="path-1" points="0 75.5806 491.192 75.5806 491.192 -0.0004 0 -0.0004"></polygon>
    </defs>
    <g id="Page-1" stroke="none" stroke-width="1" fill="none" fill-rule="evenodd">
        <g id="設計稿" transform="translate(0.000000, -638.000000)">
            <g id="Group-7" transform="translate(0.000000, 638.000000)">
                <rect id="Rectangle-10" fill="#000000" x="0" y="0" width="1440" height="457"></rect>
                <g id="Page-1" transform="translate(474.000000, 186.000000)">
                    <path d="M8.5664,74.2959 L8.5664,33.6639 C6.6604,37.2449 4.5924,40.5999 2.4084,43.6579 L2.0584,44.1479 L0.0004,41.2639 L0.1284,41.0269 C5.8374,30.5289 10.5704,15.3919 12.7894,0.5329 L12.8684,-0.0001 L19.4814,2.5819 L19.4074,2.9379 C18.1554,8.9239 16.4784,14.8019 14.4204,20.4079 L14.4204,74.2959 L8.5664,74.2959 Z M30.3214,74.2959 L30.3214,32.1059 L15.8924,32.1059 L15.8924,27.5159 L30.3214,27.5159 L30.3214,1.6429 L36.3964,1.6429 L36.3964,27.5159 L50.5484,27.5159 L50.5484,32.1059 L36.3964,32.1059 L36.3964,74.2959 L30.3214,74.2959 Z" id="Fill-1" fill="#FFFFFF"></path>
                    <mask id="mask-2" fill="white">
                        <use xlink:href="#path-1"></use>
                    </mask>
                    <g id="Clip-4"></g>
                    <path d="M79.102,41.3516 L83.291,41.3516 L83.291,26.5836 L79.102,26.5836 L79.102,41.3516 Z M101.73,42.6726 C100.175,42.6726 99.183,42.3706 98.514,41.6926 C97.672,40.8406 97.327,39.3766 97.361,36.7986 L97.476,26.5836 L101.549,26.5836 L101.549,35.1726 C101.549,37.5776 102.109,37.7726 102.785,37.7726 C103.615,37.7726 103.959,37.7726 104.719,36.7756 L105.172,36.1806 L106.998,40.6026 L106.84,40.8006 C105.516,42.4596 103.414,42.6726 101.73,42.6726 L101.73,42.6726 Z M84.068,42.3706 L84.202,42.1186 C85.794,39.1236 85.771,36.2226 85.725,30.4406 C85.716,29.3936 85.707,28.2576 85.707,27.0146 L85.707,26.5836 L90.003,26.5836 L90.006,27.0116 C90.062,35.4196 89.514,40.1396 86.25,44.2206 L85.917,44.6356 L84.068,42.3706 Z M91.201,45.0806 L91.201,24.9576 L84.873,24.9576 L84.873,20.7556 L91.201,20.7556 L91.201,14.6966 L96.277,14.6966 L96.277,20.7556 L104.047,20.7556 L104.047,24.9576 L96.277,24.9576 L96.277,45.0806 L91.201,45.0806 Z M73.053,46.0136 L73.053,24.9576 L66.394,24.9576 L66.394,20.7556 L73.053,20.7556 L73.053,14.6966 L78.131,14.6966 L78.131,20.7556 L84.234,20.7556 L84.234,24.9576 L78.131,24.9576 L78.131,46.0136 L73.053,46.0136 Z M101.607,73.9446 C100.729,71.7036 99.588,69.2036 98.297,66.6936 C91.051,68.9856 80.327,70.7316 66.414,71.8856 L66.021,71.9176 L64.699,64.0786 L65.241,64.1126 C67.639,64.2646 70.342,64.2666 73.205,64.2666 C76.873,62.2186 80.418,59.7536 83.547,57.0826 C80.036,57.8386 74.752,58.8946 70.262,59.4516 L69.833,59.5046 L68.941,52.0156 L69.476,52.0706 C70.827,52.2106 72.398,52.3666 74.048,52.4496 C77.206,49.5626 79.936,46.2126 82.16,42.4876 L82.419,42.0556 L87.439,46.2546 L87.106,46.5866 C84.959,48.7336 82.312,50.8496 79.545,52.6396 C80.555,52.6556 81.56,52.6636 82.545,52.6636 C84.66,52.6636 86.528,52.6236 88.102,52.5436 C89.843,50.6216 91.392,48.4936 92.589,46.3816 L92.819,45.9746 L98.713,50.0106 L98.391,50.3756 C92.914,56.5596 87.671,60.7506 81.154,64.1046 C86.097,63.8786 91.413,63.4976 96.391,63.0116 C95.771,61.8406 95.157,60.7266 94.583,59.6846 C94.273,59.1226 93.573,57.8426 93.573,57.8426 L95.316,55.0996 L95.694,55.4446 C99.771,59.1706 103.849,64.2926 106.599,69.1466 L106.756,69.4246 L101.854,74.5736 L101.607,73.9446 Z M55.893,72.8606 L55.992,72.6166 C59.937,62.8926 60.287,53.5816 60.233,31.3656 L60.177,9.2556 L84.039,9.3306 C81.349,7.3766 78.662,5.5456 75.86,3.7556 L75.604,3.5926 L76.373,0.2626 L76.771,0.3276 C81.482,1.0976 85.572,2.3816 89.272,4.2526 L89.61,4.4246 L87.856,9.3346 L106.156,9.3346 L106.156,13.6916 L65.921,13.6916 L65.921,29.1116 C65.921,34.6406 65.851,39.6106 65.647,44.1096 C67.709,39.9366 67.697,36.4076 67.675,29.4786 L67.67,26.6616 L71.971,26.6616 L71.971,27.0916 C71.971,35.3986 71.671,41.2396 67.665,46.5416 L67.327,46.9906 L65.616,44.7856 C64.964,58.2456 63.083,67.4406 58.304,74.7996 L57.993,75.2776 L55.893,72.8606 Z" id="Fill-3" fill="#FFFFFF" mask="url(#mask-2)"></path>
                    <path d="M128.799,15.4726 L148.805,15.4726 L148.805,9.1846 L128.799,9.1846 L128.799,15.4726 Z M128.799,26.1956 L148.805,26.1956 L148.805,19.8306 L128.799,19.8306 L128.799,26.1956 Z M122.943,30.5526 L154.66,30.5526 L154.66,4.8286 L122.943,4.8286 L122.943,30.5526 Z M113.094,72.3846 L113.292,72.1726 C120.651,64.3346 121.916,57.0156 122.89,43.3006 L122.923,42.8296 L129.446,43.9046 L129.406,44.3056 C129.152,46.8646 128.785,49.5506 128.314,52.2896 C130.414,57.0976 132.903,60.0526 136.318,61.7646 L136.318,40.0316 L114.564,40.0316 L114.564,35.2866 L163.039,35.2866 L163.039,40.0316 L142.506,40.0316 L142.506,47.9506 L158.822,47.9506 L158.822,52.3076 L142.506,52.3076 L142.506,63.5416 C144.229,63.7536 146.182,63.9016 148.045,64.0356 C148.916,64.0816 149.868,64.1056 150.865,64.1056 C155.411,64.1056 160.103,63.6306 163.734,62.8016 L164.403,62.6496 L162.294,71.7706 L161.994,71.8066 C160.017,72.0396 157.295,72.1686 154.332,72.1686 C151.718,72.1686 149.126,72.0686 147.033,71.8846 C137.239,71.0846 130.558,66.2026 127.155,57.3656 C124.94,65.3056 121.042,71.0056 114.962,75.2286 L114.541,75.5206 L113.094,72.3846 Z" id="Fill-5" fill="#FFFFFF" mask="url(#mask-2)"></path>
                    <polygon id="Fill-6" fill="#FFFFFF" mask="url(#mask-2)" points="198.5859 51.375 198.5859 0.633 211.9319 0.633 211.9319 7.009 203.6619 7.009 203.6619 51.375"></polygon>
                    <path d="M254.584,29.2505 C251.491,23.9495 248.056,18.5595 245.393,14.8325 L245.242,14.6215 L246.731,11.6445 L247.13,11.8825 C251.422,14.4585 256.04,18.6075 259.182,22.7115 L259.364,22.9515 L254.938,29.8575 L254.584,29.2505 Z M253.754,54.5835 C250.865,49.7465 247.152,44.1025 244.063,39.8545 L243.91,39.6445 L245.346,36.7275 L245.75,36.9845 C249.596,39.4315 254.931,43.7985 258.182,48.0415 L258.36,48.2765 L254.118,55.1945 L253.754,54.5835 Z M263.65,30.5455 C264.063,23.2115 264.438,15.7645 264.663,10.4285 L241.26,10.4285 C240.774,17.2595 240.232,24.0995 239.716,30.5455 L263.65,30.5455 Z M262.104,56.1865 C262.452,51.5035 262.963,42.4625 263.38,34.9035 L239.309,34.9035 C238.637,42.3455 238.017,49.1205 237.283,56.1865 L262.104,56.1865 Z M260.294,73.8245 C257.356,73.8245 253.774,71.6115 249.648,67.2465 L249.482,67.0705 L250.396,63.7235 L250.848,63.9125 C254.481,65.4295 256.661,66.0765 258.137,66.0765 C260.262,66.0765 261.165,64.7185 261.735,60.5425 L236.813,60.5425 C236.639,62.4935 236.415,64.5045 236.235,66.0665 L236.188,66.4825 L229.949,65.9425 L229.998,65.5035 C231.14,55.4195 232.088,45.9625 233.063,34.9035 L226.777,34.9035 L226.777,30.5455 L233.417,30.5455 C233.979,24.1435 234.456,17.5975 235.008,10.0415 L235.297,6.0755 L271.108,5.6785 L271.09,6.1305 C270.802,13.3125 270.331,22.8875 269.946,30.5455 L276.807,30.5455 L276.807,34.9035 L269.736,34.9035 C269.294,43.3815 268.824,50.8995 268.407,56.1865 L275.641,56.1865 L275.641,60.5425 L268.048,60.5425 L267.923,61.6385 C266.768,71.7095 263.137,73.8245 260.294,73.8245 L260.294,73.8245 Z" id="Fill-7" fill="#FFFFFF" mask="url(#mask-2)"></path>
                    <path d="M317.6523,26.2725 C319.3263,23.0435 320.8723,19.6255 322.2543,16.0995 L317.6523,16.0995 L317.6523,26.2725 Z M301.6293,37.9465 C301.9873,40.6685 302.2473,43.5955 302.4033,46.6855 C307.0153,42.5195 311.3783,37.0505 315.0843,30.7855 L302.5293,30.7855 L302.5293,26.5995 C301.7533,27.8215 300.9653,28.9235 300.1663,29.9035 C300.2163,30.0785 300.2553,30.2475 300.2873,30.3995 C303.3343,32.3665 306.0583,34.7125 308.3873,37.3755 L308.5973,37.6145 L304.7993,43.7555 L304.4593,43.0515 C303.6423,41.3695 302.6283,39.6005 301.6293,37.9465 L301.6293,37.9465 Z M312.7133,50.5145 L323.4513,50.5145 L323.4513,42.5175 L312.7133,42.5175 L312.7133,50.5145 Z M312.7133,64.1895 L323.4513,64.1895 L323.4513,54.7155 L312.7133,54.7155 L312.7133,64.1895 Z M306.9683,74.1405 L306.9683,47.6125 C305.6973,48.6855 304.3643,49.6705 302.9153,50.6065 L302.5703,50.8295 C302.6933,56.1445 302.4233,61.2885 301.8293,64.6175 C300.4913,72.1655 297.5873,73.7505 295.3863,73.7505 C292.9043,73.7505 290.0193,71.7635 286.8093,67.8445 L286.6643,67.6665 L287.6543,64.4025 L288.1073,64.6215 C290.6533,65.8535 292.2723,66.4025 293.3563,66.4025 C295.2453,66.4025 295.6193,64.6585 296.2063,59.6735 C296.5103,56.9605 296.7033,53.3165 296.7473,49.4805 C292.7993,56.4425 287.7963,60.5245 285.7303,62.0165 L285.3003,62.3265 L283.9713,59.3325 L284.1603,59.1245 C288.9523,53.8435 292.6683,48.2925 296.3643,36.9815 C296.2883,35.7805 296.1863,34.6035 296.0593,33.4675 C293.3103,39.2345 289.6423,44.0895 285.6323,47.2425 L285.1983,47.5845 L283.8643,44.5775 L284.0403,44.3715 C288.4343,39.2345 291.6173,32.8455 294.3533,23.6675 C294.1733,23.0125 293.9893,22.3465 293.7893,21.7335 C291.1093,25.5445 288.4753,28.4025 285.9523,30.2355 L285.5153,30.5525 L284.1963,27.4715 L284.3843,27.2665 C289.9583,21.2245 292.8663,14.0295 294.3443,8.8745 L285.2693,8.8745 L285.2693,4.5175 L308.1053,4.5175 L308.1053,8.8745 L300.4303,8.8745 C299.2663,12.0795 297.7463,15.3075 296.0173,18.2435 C297.0503,20.1705 298.0133,22.4785 298.8323,24.9865 C299.6413,22.6975 300.3343,20.0925 300.9853,16.9045 L301.1093,16.2965 L306.2823,19.5465 L306.1253,19.8905 C305.0003,22.3395 303.8343,24.5255 302.6363,26.4285 L312.0193,26.4285 L312.0193,16.0995 L304.9163,16.0995 L304.9163,11.7435 L312.0193,11.7435 L312.0193,1.3325 L317.6523,1.3325 L317.6523,11.7435 L323.8053,11.7435 C324.4233,9.9095 324.9783,8.1155 325.4643,6.3855 L325.6253,5.8175 L331.5603,9.7485 L331.4453,10.0665 C329.2503,16.1375 326.7693,21.6385 324.0663,26.4285 L333.0803,26.4285 L333.0803,30.7855 L321.5073,30.7855 C319.8413,33.3625 318.1083,35.7845 316.2293,38.1605 L329.1953,38.1605 L329.1953,73.8295 L323.4513,73.8295 L323.4513,68.5455 L312.7133,68.5455 L312.7133,74.1405 L306.9683,74.1405 Z" id="Fill-8" fill="#FFFFFF" mask="url(#mask-2)"></path>
                    <path d="M357.0703,23.0869 C358.0213,21.0229 359.1993,18.3649 360.2333,15.4789 L355.5003,15.4789 L355.5003,23.0869 L357.0703,23.0869 Z M374.4183,22.8359 C374.2903,23.2999 374.1693,23.7389 374.0833,24.2149 C374.4443,32.3699 375.5303,39.3879 377.4023,45.5349 C379.0753,39.0659 379.9793,31.5989 380.1593,22.7819 L374.4333,22.7819 L374.4183,22.8359 Z M386.1483,75.0709 C382.9523,71.1739 379.6443,66.6429 377.0133,59.9209 C373.0063,66.3679 367.7493,71.0369 360.9663,74.1779 L360.5253,74.3809 L359.4393,71.0349 L359.7283,70.8579 C366.5683,66.6679 371.5043,60.8799 374.8153,53.1669 C373.2143,47.2839 372.1723,40.4259 371.6443,32.2649 C370.3353,36.1419 368.9613,39.4539 367.5483,42.1329 L367.2933,42.6179 L364.9933,40.5779 L365.1043,40.2969 C366.4193,36.9719 367.6283,32.5599 368.6643,27.4439 L360.6513,27.4439 C359.4313,29.6539 358.1133,31.6879 356.5533,33.9649 L359.4213,33.9649 L361.0343,32.7489 L365.8833,37.1889 L365.7063,37.4889 C364.0303,40.3209 360.7393,44.3169 357.9963,46.8599 L357.9963,49.8399 C362.0083,48.7529 365.2063,47.7359 367.5083,46.8159 L367.9703,46.6309 L368.7643,49.9699 L368.5163,50.1359 C366.1803,51.7029 362.6423,53.4829 357.9963,55.4269 L357.9963,67.2609 C357.9963,71.4789 355.9723,73.9959 352.5833,73.9959 C350.1633,73.9959 347.2183,72.7629 343.8313,70.3299 L343.6083,70.1699 L344.2423,66.8109 L344.6843,66.9219 C346.8683,67.4719 348.4923,67.7389 349.6503,67.7389 C352.0053,67.7389 352.4203,66.6829 352.4203,64.4639 L352.4203,57.6229 C348.4533,59.0819 344.6663,60.2479 341.9533,60.8429 L341.5193,60.9389 L340.0793,53.2119 L340.5373,53.1589 C343.6853,52.7979 347.8933,52.0819 352.4203,51.1399 L352.4203,43.6239 L355.8083,44.5389 C356.8293,42.7699 357.8863,40.5489 358.7693,38.3209 L353.3913,38.3209 C349.4713,43.2659 345.2523,47.5309 341.1793,50.6639 L340.7633,50.9829 L339.2843,47.9779 L339.5103,47.7599 C342.6913,44.7029 345.4393,41.6079 347.8913,38.3209 L342.8753,38.3209 L342.8753,33.9649 L350.9553,33.9649 C352.3643,31.8319 353.6743,29.6429 354.8533,27.4439 L339.9333,27.4439 L339.9333,23.0869 L349.8673,23.0869 L349.8673,15.4789 L341.9313,15.4789 L341.9313,11.1219 L349.8673,11.1219 L349.8673,1.7199 L355.5003,1.7199 L355.5003,11.1219 L361.7043,11.1219 C362.4993,8.6059 363.2173,5.9879 363.8073,3.4519 L363.9363,2.8979 L369.5023,5.9779 L369.4153,6.3019 C367.8783,12.0369 365.7163,17.6799 362.9853,23.0869 L368.7073,23.0869 L368.7073,27.2299 C370.2083,19.7599 371.3413,10.8159 371.8983,1.5809 L371.9313,1.0449 L378.1893,2.8509 L378.1383,3.2189 C377.4373,8.3499 376.5163,13.5959 375.4713,18.4259 L389.1853,18.4259 L389.1853,22.7819 L386.0073,22.7819 C385.5673,35.2409 383.7333,45.2179 380.4043,53.2599 C383.0403,58.5569 386.4103,62.9559 390.7033,66.7039 L390.9553,66.9239 L386.5663,75.5809 L386.1483,75.0709 Z" id="Fill-9" fill="#FFFFFF" mask="url(#mask-2)"></path>
                    <polygon id="Fill-10" fill="#FFFFFF" mask="url(#mask-2)" points="404.9199 74.8399 404.9199 68.4629 413.1899 68.4629 413.1899 24.0979 418.2659 24.0979 418.2659 74.8399"></polygon>
                    <path d="M475.9121,55.4932 L475.8571,53.9432 C475.8021,52.4212 475.7321,50.5262 475.7321,48.9242 C475.7321,45.8822 475.7321,42.4332 479.0741,37.2692 L481.9051,32.8422 C484.0101,29.5842 484.2251,26.7582 484.2791,23.6652 C484.3571,20.0002 483.4621,16.9392 481.8231,15.2642 C480.9021,14.3242 479.7631,13.8472 478.4371,13.8472 C474.8561,13.8472 471.3241,18.2832 469.3871,22.0812 L468.8081,23.2182 L467.3241,15.0162 L467.4391,14.8662 C469.0321,12.7792 473.2641,7.2372 478.9921,7.2372 C482.1831,7.2372 484.9821,8.3712 487.0871,10.5172 C489.8311,13.3162 491.2871,17.6602 491.1871,22.7492 C491.0761,28.3332 488.6071,32.8432 485.9551,36.8842 L483.2911,40.9262 C481.3561,43.8422 480.5311,46.4662 480.5311,49.7012 L480.5311,55.4932 L475.9121,55.4932 Z M478.2561,71.2652 C475.8541,71.1792 473.9001,68.5802 473.9001,65.4742 C473.9001,62.2622 475.7721,59.7732 478.2561,59.6832 L478.3731,59.6812 C480.7151,59.6812 482.5261,62.1682 482.5861,65.4662 C482.6201,67.2462 481.9781,68.9832 480.8701,70.1132 C480.1291,70.8682 479.2631,71.2672 478.3641,71.2672 L478.2561,71.2652 Z" id="Fill-11" fill="#FFFFFF" mask="url(#mask-2)"></path>
                </g>
                <polygon id="Page-1" fill="#FFFFFF" points="743.849296 45.3996148 718.444531 78.250306 695.209596 45.3996148 682.54885 45.3996148 712.827484 87.210871 724.000301 87.210871 756.549321 45.3996148"></polygon>
            </g>
        </g>
    </g>
</svg>