<?xml version="1.0" encoding="UTF-8"?>
<svg width="1440px" height="457px" viewBox="0 0 1440 457" version="1.1" xmlns="http://www.w3.org/2000/svg" xmlns:xlink="http://www.w3.org/1999/xlink">
    <!-- Generator: Sketch 41.2 (35397) - http://www.bohemiancoding.com/sketch -->
    <title>Group 9</title>
    <desc>Created with Sketch.</desc>
    <defs>
        <polygon id="path-1" points="0 75.7012 1013.99 75.7012 1013.99 0.0002 0 0.0002"></polygon>
    </defs>
    <g id="Page-1" stroke="none" stroke-width="1" fill="none" fill-rule="evenodd">
        <g id="設計稿" transform="translate(0.000000, -1695.000000)">
            <g id="Group-9" transform="translate(0.000000, 1695.000000)">
                <rect id="Rectangle-10-Copy" fill="#000000" x="0" y="0" width="1440" height="457"></rect>
                <g id="Page-1" transform="translate(213.000000, 186.000000)">
                    <path d="M17.543,47.6416 C17.323,46.3466 17.032,44.9046 16.729,43.3936 L16.605,42.7776 C11.721,45.3086 5.735,47.4356 2.843,47.9916 L2.415,48.0736 L0.965,39.9556 L1.513,39.9916 C2.59,40.0626 3.739,40.0676 4.859,40.0676 C7.469,36.0806 9.806,31.5746 11.813,26.6576 C8.886,27.7826 5.572,28.8096 3.131,29.3416 L2.681,29.4396 L1.53,21.6566 L2.1,21.7366 C3.084,21.8736 4.09,21.9506 5.069,22.0206 C7.191,15.7586 8.804,8.9926 9.995,1.3496 L10.084,0.7766 L15.764,3.5186 L15.66,3.8686 C13.892,9.8946 11.199,16.6886 8.406,22.1946 C10.252,22.1766 11.96,22.0846 13.602,21.9176 C14.615,19.0576 15.59,15.9396 16.499,12.6456 L16.652,12.0886 L22.262,15.6086 L22.147,15.9336 C19.232,24.1716 13.776,34.0046 8.938,39.8176 C11.088,39.6056 13.402,39.2956 15.715,38.9096 C15.276,37.2006 14.726,35.1066 14.17,33.2396 L14.086,32.9576 L16.174,31.3346 L16.433,31.7056 C18.635,34.8616 21.075,39.9676 22.648,44.7146 L22.754,45.0326 L17.651,48.2796 L17.543,47.6416 Z M10.046,69.6246 C10.159,64.5896 9.791,56.2286 9.547,50.6956 L9.531,50.3466 L12.115,49.6886 L12.223,50.1026 C13.883,56.4916 15.328,64.2276 15.897,68.5696 L15.949,68.9666 L10.033,70.1626 L10.046,69.6246 Z M0,70.1856 L0.147,69.8496 C2.754,63.9326 4.314,57.9496 5.053,51.0196 L5.101,50.5696 L7.848,51.0086 L7.854,51.3686 C8.008,59.8756 7.336,67.9016 6.01,73.3886 L5.867,73.9766 L0,70.1856 Z M28.553,31.0556 L35.241,31.0556 L35.241,21.0376 L28.553,21.0376 L28.553,31.0556 Z M28.553,46.4396 L35.241,46.4396 L35.241,35.4116 L28.553,35.4116 L28.553,46.4396 Z M28.553,63.4556 L35.241,63.4556 L35.241,50.7966 L28.553,50.7966 L28.553,63.4556 Z M22.921,74.1056 L22.921,63.8866 L17.636,66.9006 L17.542,66.2816 C16.731,60.9226 15.364,53.6756 14.439,49.2106 L14.376,48.9086 L16.758,47.5096 L16.964,47.9186 C19.267,52.4796 21.699,58.9056 22.88,63.5466 L22.921,63.7076 L22.921,29.9776 C22.033,31.6126 21.089,33.1386 20.148,34.4546 L19.827,34.9056 L17.853,32.5666 L17.963,32.3196 C21.921,23.4536 24.503,13.4936 26.087,0.9736 L26.156,0.4296 L32.446,2.8556 L32.375,3.2116 C31.504,7.5076 30.209,12.1516 28.62,16.6816 L36.771,16.6816 C36.045,12.5046 34.672,6.1916 33.757,2.8506 L33.68,2.5676 L35.948,0.8756 L36.198,1.2596 C38.541,4.8606 41.103,10.3036 42.573,14.8016 L42.681,15.1316 L40.031,16.6816 L50.308,16.6816 L50.308,21.0376 L40.762,21.0376 L40.762,31.0556 L48.865,31.0556 L48.865,35.4116 L40.762,35.4116 L40.762,46.4396 L48.865,46.4396 L48.865,50.7966 L40.762,50.7966 L40.762,63.4556 L50.862,63.4556 L50.862,67.8116 L28.553,67.8116 L28.553,74.1056 L22.921,74.1056 Z" id="Fill-1" fill="#FFFFFF"></path>
                    <mask id="mask-2" fill="white">
                        <use xlink:href="#path-1"></use>
                    </mask>
                    <g id="Clip-4"></g>
                    <path d="M75.281,18.7782 L88.906,18.7782 L88.906,14.5892 L75.281,14.5892 L75.281,18.7782 Z M75.281,27.7912 L88.906,27.7912 L88.906,23.1362 L75.281,23.1362 L75.281,27.7912 Z M75.281,36.9612 L88.906,36.9612 L88.906,32.1492 L75.281,32.1492 L75.281,36.9612 Z M59.659,71.6192 L59.659,67.2622 L79.359,67.2622 L79.359,58.0222 L69.537,58.0222 L69.537,54.4532 C64.933,58.9242 60.25,61.7522 58.243,62.8632 L57.796,63.1112 L56.64,59.7702 L56.886,59.5812 C63.647,54.4072 68.795,48.1032 71.81,41.3172 L57.494,41.3172 L57.494,36.9602 L69.648,36.9602 L69.648,14.5892 L60.104,14.5892 L60.104,10.2322 L69.648,10.2322 L69.648,1.4522 L75.281,1.4522 L75.281,10.2322 L88.906,10.2322 L88.906,1.4522 L94.537,1.4522 L94.537,10.2322 L104.639,10.2322 L104.639,14.5892 L94.537,14.5892 L94.537,36.9602 L107.08,36.9602 L107.08,41.3172 L91.558,41.3172 C94.418,44.8352 98.721,48.7142 107.892,51.6662 L108.352,51.8142 L104.415,60.4292 L104.016,60.2292 C101.341,58.8852 94.438,54.3592 87.904,41.3172 L78.748,41.3172 C76.714,46.2382 73.582,50.3632 70.33,53.6652 L79.359,53.6652 L79.359,44.4962 L85.104,44.4962 L85.104,53.6652 L94.982,53.6652 L94.982,58.0222 L85.104,58.0222 L85.104,67.2622 L105.359,67.2622 L105.359,71.6192 L59.659,71.6192 Z" id="Fill-3" fill="#FFFFFF" mask="url(#mask-2)"></path>
                    <path d="M127.113,42.1662 L151.006,42.1662 L151.006,27.9522 L127.113,27.9522 L127.113,42.1662 Z M127.113,63.0672 L151.006,63.0672 L151.006,46.5232 L127.113,46.5232 L127.113,63.0672 Z M151.006,74.2612 L151.006,67.5012 L127.113,67.5012 L127.113,74.2612 L121.037,74.2612 L121.037,23.5962 L134.294,23.5962 C134.711,20.0392 135.121,14.8152 135.383,10.8592 L114.211,10.8592 L114.211,6.1142 L163.631,6.1142 L163.631,10.8592 L142.388,10.8592 C141.312,14.8852 139.85,19.2692 138.14,23.5962 L157.082,23.5962 L157.082,74.2612 L151.006,74.2612 Z" id="Fill-5" fill="#FFFFFF" mask="url(#mask-2)"></path>
                    <path d="M201.332,24.8433 C198.851,19.9653 196.679,16.1843 193.583,11.3613 L193.441,11.1393 L195.037,8.3963 L195.424,8.6873 C199.882,12.0333 202.899,15.0763 205.838,19.1923 L206.018,19.4443 L201.65,25.4703 L201.332,24.8433 Z M200.041,45.2453 C197.947,40.0973 195.796,36.1883 193.305,31.6603 L192.555,30.2953 L194.357,27.6683 L194.72,27.9683 C199.019,31.5303 202.003,34.9143 205.019,39.6463 L205.186,39.9063 L200.315,45.9193 L200.041,45.2453 Z M207.502,73.8723 L207.502,50.7963 C201.927,52.5453 196.019,54.3823 190.18,56.0623 L189.746,56.1873 L188.715,51.8533 L189.109,51.7403 C195.722,49.8393 201.741,48.0393 207.502,46.2423 L207.502,1.6083 L213.244,1.6083 L213.244,44.4053 C214.205,44.0833 215.173,43.7733 216.142,43.4633 C217.284,43.0963 218.427,42.7303 219.557,42.3453 L220.023,42.1853 L220.855,46.4553 L220.501,46.5763 C217.629,47.5613 215.311,48.3263 213.244,48.9723 L213.244,73.8723 L207.502,73.8723 Z M180.086,74.6503 L180.086,43.1523 C177.933,49.5023 175.273,55.0363 171.996,60.0043 L171.665,60.5053 L169.743,58.0313 L169.862,57.7893 C173.749,49.9473 177.011,38.9813 179.064,26.8653 L170.818,26.8653 L170.818,22.5083 L180.086,22.5083 L180.086,12.2233 C177.358,12.8953 174.563,13.4143 171.966,13.7303 L171.55,13.7813 L171.047,10.3653 L171.393,10.2533 C176.653,8.5443 182.853,6.0633 188.942,0.6293 L189.316,0.2963 L193.784,7.1693 L193.37,7.3903 C191.247,8.5233 188.675,9.5963 185.719,10.5843 L185.719,22.5083 L193.598,22.5083 L193.598,26.8653 L185.719,26.8653 L185.719,30.8423 C188.48,33.6333 192.367,38.1613 194.256,41.2043 L194.413,41.4563 L189.814,47.4403 L189.546,46.7063 C188.734,44.4923 187.478,41.4793 185.719,37.5333 L185.719,74.6503 L180.086,74.6503 Z" id="Fill-6" fill="#FFFFFF" mask="url(#mask-2)"></path>
                    <path d="M272.418,54.44 C268.917,47.28 263.395,36.841 256.972,27.771 L256.814,27.548 L258.48,24.604 L258.877,24.943 C267.224,32.084 275.187,42.712 278.175,47.978 L278.321,48.235 L272.712,55.04 L272.418,54.44 Z M249.789,74.106 L249.789,32.441 C243.981,41.563 236.461,49.696 228.494,55.454 L228.039,55.783 L226.74,52.351 L226.943,52.155 C239.397,40.128 246.887,28.1 251.911,12.025 L229.199,12.025 L229.199,6.891 L277.397,6.891 L277.397,12.025 L259.147,12.025 C258.327,14.949 257.262,17.917 255.977,20.853 L255.977,74.106 L249.789,74.106 Z" id="Fill-7" fill="#FFFFFF" mask="url(#mask-2)"></path>
                    <path d="M314.025,49.1592 L317.605,49.1592 L317.605,32.1492 L314.025,32.1492 L314.025,49.1592 Z M309.004,59.0322 L309.004,28.0252 L322.682,28.0252 L322.682,57.5562 L317.605,57.5562 L317.605,53.2832 L314.021,53.2832 L313.965,59.0322 L309.004,59.0322 Z M323.694,74.0802 C320.923,74.0802 317.317,72.1442 312.978,68.3262 L312.78,68.1522 L313.627,64.7972 L314.073,64.9562 C317.756,66.2762 319.83,66.8152 321.233,66.8152 C323.571,66.8152 324.163,65.2212 324.656,60.7302 C325.414,53.8262 325.812,40.2562 325.873,19.2502 L312.071,19.2502 C310.281,24.4742 308.156,29.0362 305.58,33.1882 L305.292,33.6532 L303.097,31.4272 L303.21,31.1612 C306.556,23.3072 308.778,13.5642 310.004,1.3732 L310.059,0.8282 L316.2,3.0002 L316.127,3.3672 C315.425,6.8372 314.636,10.7372 313.445,14.8942 L331.675,14.8942 L331.672,15.3272 C331.519,36.7612 331.374,57.0062 330.058,65.8132 C329.242,71.2992 327.102,74.0802 323.694,74.0802 L323.694,74.0802 Z M283.568,71.4412 L283.865,71.2782 C293.332,66.0922 300.078,55.7282 302.427,42.7932 L297.69,42.7932 C296.55,44.7182 295.592,46.2182 294.633,47.5822 C295.828,48.6672 297.475,50.3592 299.021,52.6092 L299.196,52.8652 L295.552,57.6842 L295.271,56.9742 C294.185,54.2352 293.289,52.1642 292.412,50.3682 C290.446,52.6732 288.345,54.6682 286.16,56.3042 L285.703,56.6462 L284.459,53.3682 L284.653,53.1712 C290.632,47.1352 293.311,41.0532 295.92,33.4552 C292.672,37.4962 288.952,40.6922 284.835,42.9722 L284.366,43.2332 L283.354,39.7902 L283.591,39.6112 C292.069,33.2072 297.228,25.1222 299.792,14.2012 L294.042,14.2012 C293.503,15.2052 292.889,16.2102 292.284,17.1892 C293.502,18.3172 295.146,20.0472 296.533,22.2432 L296.698,22.5042 L292.853,27.2272 L292.6,26.4982 C291.763,24.0852 290.93,22.0522 290.188,20.3082 C288.653,22.3782 286.995,24.2122 285.137,25.8982 L284.695,26.2992 L283.353,23.2662 L283.51,23.0632 C289.228,15.6942 291.545,8.2562 293.199,1.3172 L293.327,0.7782 L298.587,3.5402 L298.462,3.8922 C297.661,6.1322 296.922,8.0412 296.156,9.8442 L300.245,9.8442 L301.344,8.5612 L306.375,11.3792 L306.299,11.6952 C304.673,18.4502 301.949,24.7942 298.411,30.0762 L302.348,32.0402 L302.241,32.3882 C301.626,34.3992 300.841,36.4302 299.903,38.4372 L302.677,38.4372 L303.885,36.9132 L308.913,39.7302 L308.856,40.0332 C305.482,58.0242 296.988,70.3362 284.939,74.7012 L284.501,74.8602 L283.568,71.4412 Z" id="Fill-8" fill="#FFFFFF" mask="url(#mask-2)"></path>
                    <path d="M346.8408,34.3994 C345.2368,31.2324 343.2078,27.9424 341.4178,25.0404 C340.8058,24.0464 340.2228,23.1024 339.6978,22.2284 L339.5788,22.0304 L341.0078,19.0274 L341.4258,19.3254 C342.8548,20.3454 347.7708,24.0084 351.0108,28.3534 L351.1858,28.5874 L347.1888,35.0854 L346.8408,34.3994 Z M339.1588,68.8674 L339.2748,68.5544 C341.8878,61.4714 345.7088,48.8974 347.9738,39.9264 L348.1048,39.4114 L350.7428,40.7154 L350.7038,41.0204 C349.3578,51.4284 346.8628,65.7894 345.2578,72.3784 L345.1098,72.9854 L339.1588,68.8674 Z M357.4218,31.1334 L365.7208,31.1334 L365.7208,25.1554 L357.4218,25.1554 L357.4218,31.1334 Z M357.4218,41.8544 L365.7208,41.8544 L365.7208,35.4114 L357.4218,35.4114 L357.4218,41.8544 Z M358.7828,74.3384 L358.7828,56.7784 L350.4028,56.7784 L350.4028,52.4224 L358.7828,52.4224 L358.7828,46.2124 L352.2348,46.2124 L352.2348,20.7994 L358.7828,20.7994 L358.7828,15.3654 L350.7368,15.3654 L350.7368,11.8134 L347.5358,16.8614 L347.1838,16.2344 C345.1358,12.5904 341.9468,7.6644 340.0488,5.0074 L339.9098,4.8134 L341.1858,1.7404 L341.6058,1.9714 C344.3418,3.4744 348.7008,6.8824 351.3908,10.2374 L351.5818,10.4774 L351.2948,10.9314 L358.7828,10.9314 L358.7828,1.2964 L364.3048,1.2964 L364.3048,10.9314 L371.7398,10.9314 L371.7398,15.3654 L364.3048,15.3654 L364.3048,20.7994 L370.9078,20.7994 L370.9078,46.2124 L364.3048,46.2124 L364.3048,52.4224 L371.0738,52.4224 L371.0738,56.8614 L364.3048,56.7834 L364.3048,74.3384 L358.7828,74.3384 Z M377.9008,22.6634 L383.0898,22.6634 L383.0898,10.6264 L377.9008,10.6264 L377.9008,22.6634 Z M383.0898,41.0784 L383.0898,26.8654 L377.9008,26.8654 L377.9008,36.0694 C377.9008,37.7494 377.9008,39.4814 377.8588,41.0784 L383.0898,41.0784 Z M366.4198,73.1974 L366.5368,72.9484 C371.4328,62.5514 372.4898,56.0034 372.4898,36.0694 L372.4898,6.2694 L388.6118,6.2694 L388.6118,66.9164 C388.6118,71.3874 386.7498,74.0564 383.6308,74.0564 C381.3768,74.0564 378.5728,72.6394 375.5228,69.9574 L375.3338,69.7924 L376.0398,66.4294 L376.4998,66.5864 C378.7878,67.3664 380.3178,67.7304 381.3118,67.7304 C382.7068,67.7304 383.0898,67.0874 383.0898,64.7404 L383.0898,45.2794 L377.6578,45.2794 C377.0148,58.1134 374.5138,66.5184 368.7838,75.1564 L368.4658,75.6354 L366.4198,73.1974 Z" id="Fill-9" fill="#FFFFFF" mask="url(#mask-2)"></path>
                    <path d="M416.46,50.8946 L416.831,50.6886 C420.472,48.6776 422.966,44.4496 423.588,39.2926 C422.94,39.4466 422.212,39.4526 422.201,39.4526 C419.289,39.4526 417.332,36.7816 417.332,32.8066 C417.332,28.8316 419.311,26.1606 422.256,26.1606 C426.092,26.1606 428.291,29.4896 428.291,35.2926 C428.291,44.2836 424.099,52.0056 418.323,53.6546 L417.99,53.7496 L416.46,50.8946 Z" id="Fill-10" fill="#FFFFFF" mask="url(#mask-2)"></path>
                    <path d="M475.4902,74.5718 L475.4902,47.6438 C470.4532,56.7108 463.0542,64.8418 455.4492,69.6118 L454.9912,69.8988 L453.8252,66.5328 L454.0672,66.3438 C460.4042,61.3998 467.8332,51.4908 472.3042,42.1598 L470.3732,44.0298 L470.1792,43.3328 C469.2392,39.9408 468.1572,36.7178 467.3062,34.2938 C465.2892,41.0298 462.2702,46.4788 457.8702,51.3538 L457.4912,51.7738 L455.7132,48.9728 L455.8502,48.7448 C460.7392,40.6778 463.0212,32.2498 463.7262,19.6518 L463.7572,19.1248 L469.9002,20.7548 L469.8542,21.1268 C469.4972,24.0348 469.1192,26.4598 468.6672,28.7368 C471.2582,32.1058 473.1342,34.9288 474.3722,37.3278 C474.8132,36.1398 475.1882,34.9948 475.4902,33.9128 L475.4902,17.9298 L455.9002,17.9298 L455.9002,12.7968 L475.4902,12.7968 L475.4902,1.3748 L481.4552,1.3748 L481.4552,12.7968 L501.2672,12.7968 L501.2672,17.9298 L481.4552,17.9298 L481.4552,36.8208 C482.0842,38.0328 482.6312,39.0318 483.1422,39.8988 C485.8792,33.9438 487.2352,28.3058 488.0902,19.4788 L488.1422,18.9298 L494.2332,21.1068 L494.1552,21.4738 C493.5252,24.4438 492.8762,26.9718 492.1712,29.1918 C495.6762,32.7218 498.6112,36.6938 500.2052,39.2618 L500.3622,39.5148 L495.8352,45.4008 L495.5552,44.6978 C494.0342,40.8778 492.2812,37.0078 490.5742,33.6928 C489.0902,37.4278 487.3312,40.5878 485.2162,43.3208 C490.1182,50.9708 495.3022,55.8648 503.0452,60.1678 L503.3842,60.3568 L499.3452,69.7818 L498.9042,69.4258 C491.3102,63.3058 485.7292,55.6218 481.4552,45.3638 L481.4552,74.5718 L475.4902,74.5718 Z" id="Fill-11" fill="#FFFFFF" mask="url(#mask-2)"></path>
                    <path d="M527.629,44.8852 L547.691,44.8852 L547.691,39.4522 L527.629,39.4522 L527.629,44.8852 Z M527.629,54.6752 L547.691,54.6752 L547.691,49.0862 L527.629,49.0862 L527.629,54.6752 Z M527.629,64.6202 L547.691,64.6202 L547.691,58.8762 L527.629,58.8762 L527.629,64.6202 Z M521.775,74.3382 L521.775,45.3842 C518.611,49.2972 515.087,52.7352 511.527,55.3732 L511.084,55.7022 L509.707,52.3532 L509.922,52.1512 C515.996,46.4312 521.505,38.4652 525.481,29.6622 L511.619,29.6622 L511.619,25.3052 L527.297,25.3052 C527.836,23.9442 528.351,22.4462 528.896,20.6502 L514.506,20.6502 L514.506,16.2922 L530.142,16.2922 C530.541,14.7372 530.846,13.4262 531.104,12.1532 C526.011,12.6102 521.381,12.8422 517.337,12.8422 C516.382,12.8422 515.446,12.8292 514.534,12.8022 L514.156,12.7902 L513.798,9.1732 L514.243,9.1452 C528.084,8.2912 539.282,5.5402 549.485,0.4872 L549.787,0.3372 L555.497,7.1162 L554.937,7.3332 C550.766,8.9602 544.701,10.3862 537.835,11.3562 C537.565,12.8392 537.229,14.5402 536.755,16.2922 L556.432,16.2922 L556.432,20.6502 L535.446,20.6502 C534.853,22.4462 534.301,23.9482 533.733,25.3052 L559.762,25.3052 L559.762,29.6622 L531.741,29.6622 C530.766,31.6622 529.813,33.4492 528.845,35.0952 L553.547,35.0952 L553.547,73.9502 L547.691,73.9502 L547.691,68.9772 L527.629,68.9772 L527.629,74.3382 L521.775,74.3382 Z" id="Fill-12" fill="#FFFFFF" mask="url(#mask-2)"></path>
                    <path d="M566.3721,71.2681 L566.5571,71.0601 C572.3121,64.5581 575.2701,57.4111 576.6531,46.5691 C573.7251,48.7111 570.8731,50.4071 568.5451,51.3841 L568.0751,51.5811 L566.2351,43.6721 L566.7441,43.6431 C567.9701,43.5721 569.1121,43.4331 570.1821,43.2901 C571.7581,39.3801 573.4581,33.8941 574.9051,28.0541 C572.6011,29.5951 569.9771,30.9911 568.2381,31.5821 L567.7771,31.7381 L566.1851,24.0631 L566.7131,24.0631 C567.5381,24.0631 568.3901,24.0631 569.2671,24.0071 C570.9901,17.7711 572.2131,10.7161 573.1111,1.8391 L573.1681,1.2761 L579.2101,3.6401 L579.1181,4.0071 C577.2631,11.4591 575.1241,17.8901 572.5901,23.6361 C573.7411,23.4571 574.9201,23.2691 576.0641,23.0401 C576.6181,20.4511 577.0811,17.8631 577.4411,15.3411 L577.5241,14.7591 L583.1881,17.4941 L583.1151,17.8271 C581.4021,25.5481 577.6751,35.5671 573.9321,42.5801 C574.9061,42.3341 575.9061,42.0321 576.9511,41.7181 L577.1851,41.6471 C577.3401,39.7171 577.4451,37.6761 577.5491,35.5821 L577.5731,35.0931 L583.1421,36.1021 L583.1251,36.4771 C582.3301,53.9941 577.0271,67.3271 568.1931,74.0181 L567.7641,74.3441 L566.3721,71.2681 Z M589.0651,25.6931 L593.9201,25.6931 L593.9201,17.5411 L589.0651,17.5411 L589.0651,25.6931 Z M589.0651,38.6691 L593.9201,38.6691 L593.9201,30.0511 L589.0651,30.0511 L589.0651,38.6691 Z M606.2681,59.0621 L606.6721,56.8651 L607.1451,57.0311 C608.3591,57.4551 609.1011,57.6371 609.6281,57.6371 C609.9811,57.6371 610.2181,57.5561 610.3931,57.3741 C611.0931,56.6491 611.0421,54.1851 610.9021,50.2261 C610.7221,45.1751 609.4931,38.9841 607.1471,31.3001 L607.1181,31.2061 L607.1341,31.1091 C608.3741,23.1381 609.1811,16.4311 609.5961,10.6261 L606.2681,10.6261 L606.2681,59.0621 Z M600.7461,74.4941 L600.7461,66.1391 L596.5411,68.7811 L596.4251,68.1601 C595.9251,65.4891 595.3191,62.7981 594.5331,59.7531 C590.2331,64.8201 584.6921,69.0731 581.2361,70.9451 L580.7861,71.1891 L578.0401,62.9751 L578.4711,62.8511 C579.9991,62.4081 581.7091,61.7591 583.4321,60.9691 L583.4321,13.1851 L589.7151,13.1851 C588.7381,10.0501 587.3731,5.9271 586.1741,2.4901 L586.0901,2.2481 L588.1361,0.0001 L588.4531,0.3511 C590.5551,2.6721 593.3621,7.1961 595.1301,11.1071 L595.2671,11.4101 L593.0701,13.1851 L599.4411,13.1851 L599.4411,42.9491 L589.0641,42.9491 L589.0641,58.1121 C590.5701,57.2701 592.0181,56.2881 593.2991,55.3931 C592.4621,52.4181 591.5861,49.7361 590.7371,47.1401 L590.5841,46.6691 L592.7771,44.5521 L593.0551,45.0181 C596.4141,50.6481 599.0421,56.2261 600.7461,61.3241 L600.7461,4.3751 L605.9141,6.2691 L609.3611,6.2691 L610.6871,4.7501 L615.7461,7.7231 L615.6951,8.0161 C614.1031,17.2821 612.4721,23.9781 610.0741,31.0701 C614.0241,39.4661 615.4021,43.7681 616.1981,50.1581 C616.9891,56.4191 616.5011,60.6031 614.7471,62.5931 C614.0301,63.4061 613.1311,63.8171 612.0741,63.8171 C610.3101,63.8171 608.2521,62.6521 606.2681,60.5341 L606.2681,74.4941 L600.7461,74.4941 Z" id="Fill-13" fill="#FFFFFF" mask="url(#mask-2)"></path>
                    <path d="M635.291,22.0422 L661.682,22.0422 L661.682,9.5382 L635.291,9.5382 L635.291,22.0422 Z M647.406,37.7372 C646.826,33.7852 646.403,30.0672 646.117,26.3992 L635.291,26.3992 L635.291,37.7372 L647.406,37.7372 Z M623.577,64.5192 L624.05,64.4682 C625.479,64.3142 627.488,63.9192 629.326,63.5362 L629.326,5.1822 L667.535,5.1822 L667.535,26.3992 L651.974,26.3992 C652.277,30.3272 652.729,34.1382 653.318,37.7372 L671.531,37.7372 L671.531,42.0942 L654.152,42.0942 C656.109,50.9782 659.018,57.4052 663.036,61.7272 C664.666,63.4732 665.818,64.3582 666.462,64.3582 C666.612,64.3582 666.729,64.3072 666.841,64.1932 C667.867,63.1362 667.717,57.9802 667.508,50.8452 L667.495,50.4022 L670.271,50.4022 L670.353,50.7262 C673.13,61.6782 673.351,69.3912 670.974,72.4472 C670.221,73.4152 669.227,73.9062 668.021,73.9062 C666.202,73.9062 663.933,72.7622 661.276,70.5062 C657.092,66.9492 651.434,59.1342 648.158,42.0942 L635.291,42.0942 L635.291,62.1662 C641.108,60.6722 646.1,59.0252 649.389,57.5122 L649.85,57.3002 L650.777,60.7012 L650.56,60.8782 C644.577,65.7312 630.904,72.3882 626.064,74.0052 L625.606,74.1582 L623.577,64.5192 Z" id="Fill-14" fill="#FFFFFF" mask="url(#mask-2)"></path>
                    <path d="M693.173,42.1662 L717.066,42.1662 L717.066,27.9522 L693.173,27.9522 L693.173,42.1662 Z M693.173,63.0672 L717.066,63.0672 L717.066,46.5232 L693.173,46.5232 L693.173,63.0672 Z M717.066,74.2612 L717.066,67.5012 L693.174,67.5012 L693.174,74.2612 L687.098,74.2612 L687.098,23.5962 L700.354,23.5962 C700.771,20.0392 701.182,14.8152 701.443,10.8592 L680.271,10.8592 L680.271,6.1142 L729.691,6.1142 L729.691,10.8592 L708.448,10.8592 C707.373,14.8852 705.91,19.2692 704.2,23.5962 L723.143,23.5962 L723.143,74.2612 L717.066,74.2612 Z" id="Fill-15" fill="#FFFFFF" mask="url(#mask-2)"></path>
                    <path d="M767.3926,24.8433 C764.9026,19.9503 762.7306,16.1703 759.6436,11.3613 L759.5016,11.1393 L761.0976,8.3963 L761.4846,8.6873 C765.9416,12.0343 768.9586,15.0773 771.8986,19.1923 L772.0786,19.4443 L767.7106,25.4703 L767.3926,24.8433 Z M766.0996,45.2453 C763.9976,40.0783 761.8376,36.1543 759.3356,31.6093 L758.6136,30.2953 L760.4156,27.6683 L760.7786,27.9683 C765.0796,31.5303 768.0636,34.9123 771.0796,39.6463 L771.2466,39.9073 L766.3736,45.9193 L766.0996,45.2453 Z M773.5606,73.8723 L773.5606,50.7963 C768.0076,52.5393 762.1186,54.3703 756.2406,56.0623 L755.8066,56.1873 L754.7756,51.8533 L755.1696,51.7403 C761.7886,49.8373 767.8076,48.0373 773.5606,46.2423 L773.5606,1.6083 L779.3046,1.6083 L779.3046,44.4053 C780.2656,44.0833 781.2336,43.7733 782.2026,43.4633 C783.3446,43.0963 784.4876,42.7303 785.6176,42.3453 L786.0836,42.1853 L786.9156,46.4553 L786.5616,46.5763 C783.6396,47.5773 781.3846,48.3223 779.3046,48.9723 L779.3046,73.8723 L773.5606,73.8723 Z M746.1466,74.6503 L746.1466,43.1503 C743.9896,49.5073 741.3306,55.0423 738.0536,60.0043 L737.7236,60.5053 L735.8036,58.0313 L735.9226,57.7893 C739.8066,49.9533 743.0676,38.9883 745.1236,26.8653 L736.8766,26.8653 L736.8766,22.5083 L746.1466,22.5083 L746.1466,12.2233 C743.4196,12.8953 740.6236,13.4143 738.0246,13.7303 L737.6086,13.7813 L737.1056,10.3653 L737.4516,10.2533 C742.7106,8.5453 748.9096,6.0653 755.0026,0.6293 L755.3766,0.2963 L759.8446,7.1693 L759.4306,7.3903 C757.3106,8.5213 754.7366,9.5953 751.7776,10.5843 L751.7776,22.5083 L759.6586,22.5083 L759.6586,26.8653 L751.7776,26.8653 L751.7776,30.8423 C754.5426,33.6363 758.4316,38.1663 760.3146,41.2043 L760.4716,41.4573 L755.8746,47.4403 L755.6066,46.7063 C754.7996,44.5043 753.5426,41.4913 751.7776,37.5323 L751.7776,74.6503 L746.1466,74.6503 Z" id="Fill-16" fill="#FFFFFF" mask="url(#mask-2)"></path>
                    <path d="M795.482,30.2832 L812.935,30.2832 L812.935,26.1602 L795.482,26.1602 L795.482,30.2832 Z M795.482,40.4602 L795.482,36.3382 L812.936,36.3382 L812.936,40.5422 L795.482,40.4602 Z M800.892,64.1552 L807.746,64.1552 L807.746,51.1852 L800.892,51.1852 L800.892,64.1552 Z M795.482,73.9502 L795.482,47.0612 L813.045,47.0612 L813.045,68.2782 L800.893,68.2782 L800.893,73.9502 L795.482,73.9502 Z M819.762,37.9702 L832.887,37.9702 L832.887,24.0682 L819.762,24.0682 L819.762,37.9702 Z M809.048,72.5252 L809.298,72.3272 C815.122,67.7212 819.062,60.8392 819.34,42.3272 L814.352,42.3272 L814.352,19.7942 L793.373,19.7942 L793.373,15.4382 L802.589,15.4382 C800.873,11.3722 798.521,6.1092 797.144,3.5632 L797.021,3.3372 L798.765,0.6922 L799.136,1.0142 C801.932,3.4432 805.763,8.0962 808.045,11.8372 L808.206,12.1022 L805.386,15.4382 L814.877,15.4382 L814.877,19.7112 L819.858,19.7112 L819.852,19.6702 C818.85,13.8412 817.491,8.1382 815.924,3.1772 L815.84,2.9112 L818.083,0.9242 L818.357,1.3322 C820.887,5.1042 823.783,11.4132 825.403,16.6742 L825.503,16.9982 L820.927,19.7112 L828.045,19.7112 C829.433,14.3602 830.938,6.3842 831.502,1.3682 L831.569,0.7742 L837.77,3.6682 L837.669,4.0212 C836.208,9.1412 833.548,15.5822 831.562,19.7112 L838.408,19.7112 L838.408,42.3272 L832.691,42.3272 L832.691,62.4092 C832.691,64.4332 833.489,64.8702 834.089,65.0232 C834.519,65.1362 835.38,65.2142 836.187,65.2142 C836.936,65.2142 837.546,65.1492 837.819,65.0402 C839.151,64.5252 839.483,63.9182 839.102,52.4782 L839.087,52.0342 L841.881,52.0342 L841.951,52.3782 C843.813,61.5662 844.802,67.3482 842.824,70.1832 C842.098,71.2252 841.005,71.8462 839.485,72.0802 C838.326,72.2562 837.073,72.3482 835.861,72.3482 C834.652,72.3482 833.545,72.2572 832.572,72.0782 C827.87,71.2782 826.949,68.4392 826.949,63.8072 L826.949,42.3272 L825.08,42.3272 C824.638,63.8822 817.03,72.2422 810.702,75.4572 L810.28,75.6722 L809.048,72.5252 Z" id="Fill-17" fill="#FFFFFF" mask="url(#mask-2)"></path>
                    <path d="M877.6191,29.3711 C874.5261,24.0701 871.0911,18.6801 868.4281,14.9531 L868.2771,14.7421 L869.7661,11.7651 L870.1651,12.0031 C874.4571,14.5791 879.0751,18.7281 882.2171,22.8321 L882.3991,23.0721 L877.9731,29.9781 L877.6191,29.3711 Z M876.7891,54.7041 C873.9001,49.8671 870.1871,44.2231 867.0981,39.9751 L866.9451,39.7651 L868.3811,36.8481 L868.7851,37.1051 C872.6311,39.5521 877.9661,43.9191 881.2171,48.1621 L881.3951,48.3971 L877.1531,55.3151 L876.7891,54.7041 Z M886.6851,30.6661 C887.0981,23.3321 887.4731,15.8851 887.6981,10.5491 L864.2951,10.5491 C863.8091,17.3801 863.2671,24.2201 862.7511,30.6661 L886.6851,30.6661 Z M885.1391,56.3071 C885.4871,51.6241 885.9981,42.5831 886.4151,35.0241 L862.3441,35.0241 C861.6721,42.4651 861.0521,49.2411 860.3181,56.3071 L885.1391,56.3071 Z M883.3291,73.9451 C880.3911,73.9451 876.8091,71.7321 872.6831,67.3671 L872.5171,67.1911 L873.4311,63.8441 L873.8831,64.0331 C877.5161,65.5501 879.6961,66.1971 881.1721,66.1971 C883.2971,66.1971 884.2001,64.8391 884.7701,60.6631 L859.8481,60.6631 C859.6741,62.6141 859.4501,64.6251 859.2701,66.1871 L859.2231,66.6031 L852.9841,66.0631 L853.0331,65.6241 C854.1751,55.5401 855.1231,46.0831 856.0981,35.0241 L849.8121,35.0241 L849.8121,30.6661 L856.4521,30.6661 C857.0141,24.2641 857.4911,17.7181 858.0431,10.1621 L858.3321,6.1961 L894.1431,5.7991 L894.1251,6.2511 C893.8371,13.4331 893.3661,23.0081 892.9811,30.6661 L899.8421,30.6661 L899.8421,35.0241 L892.7711,35.0241 C892.3291,43.5021 891.8591,51.0201 891.4421,56.3071 L898.6761,56.3071 L898.6761,60.6631 L891.0831,60.6631 L890.9581,61.7591 C889.8031,71.8301 886.1721,73.9451 883.3291,73.9451 L883.3291,73.9451 Z" id="Fill-18" fill="#FFFFFF" mask="url(#mask-2)"></path>
                    <path d="M940.6875,26.3931 C942.3615,23.1641 943.9075,19.7461 945.2895,16.2201 L940.6875,16.2201 L940.6875,26.3931 Z M924.6645,38.0671 C925.0225,40.7891 925.2825,43.7161 925.4385,46.8061 C930.0505,42.6401 934.4135,37.1711 938.1195,30.9061 L925.5645,30.9061 L925.5645,26.7201 C924.7885,27.9421 924.0005,29.0441 923.2015,30.0241 C923.2515,30.1991 923.2905,30.3681 923.3225,30.5201 C926.3695,32.4871 929.0935,34.8331 931.4225,37.4961 L931.6325,37.7351 L927.8345,43.8761 L927.4945,43.1721 C926.6775,41.4901 925.6635,39.7211 924.6645,38.0671 L924.6645,38.0671 Z M935.7485,50.6351 L946.4865,50.6351 L946.4865,42.6381 L935.7485,42.6381 L935.7485,50.6351 Z M935.7485,64.3101 L946.4865,64.3101 L946.4865,54.8361 L935.7485,54.8361 L935.7485,64.3101 Z M930.0035,74.2611 L930.0035,47.7331 C928.7325,48.8061 927.3995,49.7911 925.9505,50.7271 L925.6055,50.9501 C925.7285,56.2651 925.4585,61.4091 924.8645,64.7381 C923.5265,72.2861 920.6225,73.8711 918.4215,73.8711 C915.9395,73.8711 913.0545,71.8841 909.8445,67.9651 L909.6995,67.7871 L910.6895,64.5231 L911.1425,64.7421 C913.6885,65.9741 915.3075,66.5231 916.3915,66.5231 C918.2805,66.5231 918.6545,64.7791 919.2415,59.7941 C919.5455,57.0811 919.7385,53.4371 919.7825,49.6011 C915.8345,56.5631 910.8315,60.6451 908.7655,62.1371 L908.3355,62.4471 L907.0065,59.4531 L907.1955,59.2451 C911.9875,53.9641 915.7035,48.4131 919.3995,37.1021 C919.3235,35.9011 919.2215,34.7241 919.0945,33.5881 C916.3455,39.3551 912.6775,44.2101 908.6675,47.3631 L908.2335,47.7051 L906.8995,44.6981 L907.0755,44.4921 C911.4695,39.3551 914.6525,32.9661 917.3885,23.7881 C917.2085,23.1331 917.0245,22.4671 916.8245,21.8541 C914.1445,25.6651 911.5105,28.5231 908.9875,30.3561 L908.5505,30.6731 L907.2315,27.5921 L907.4195,27.3871 C912.9935,21.3451 915.9015,14.1501 917.3795,8.9951 L908.3045,8.9951 L908.3045,4.6381 L931.1405,4.6381 L931.1405,8.9951 L923.4655,8.9951 C922.3015,12.2001 920.7815,15.4281 919.0525,18.3641 C920.0855,20.2911 921.0485,22.5991 921.8675,25.1071 C922.6765,22.8181 923.3695,20.2131 924.0205,17.0251 L924.1445,16.4171 L929.3175,19.6671 L929.1605,20.0111 C928.0355,22.4601 926.8695,24.6461 925.6715,26.5491 L935.0545,26.5491 L935.0545,16.2201 L927.9515,16.2201 L927.9515,11.8641 L935.0545,11.8641 L935.0545,1.4531 L940.6875,1.4531 L940.6875,11.8641 L946.8405,11.8641 C947.4585,10.0301 948.0135,8.2361 948.4995,6.5061 L948.6605,5.9381 L954.5955,9.8691 L954.4805,10.1871 C952.2855,16.2581 949.8045,21.7591 947.1015,26.5491 L956.1155,26.5491 L956.1155,30.9061 L944.5425,30.9061 C942.8765,33.4831 941.1435,35.9051 939.2645,38.2811 L952.2305,38.2811 L952.2305,73.9501 L946.4865,73.9501 L946.4865,68.6661 L935.7485,68.6661 L935.7485,74.2611 L930.0035,74.2611 Z" id="Fill-19" fill="#FFFFFF" mask="url(#mask-2)"></path>
                    <path d="M980.1055,23.2075 C981.0565,21.1435 982.2345,18.4855 983.2685,15.5995 L978.5355,15.5995 L978.5355,23.2075 L980.1055,23.2075 Z M997.4535,22.9565 C997.3255,23.4205 997.2045,23.8595 997.1185,24.3355 C997.4795,32.4905 998.5655,39.5085 1000.4375,45.6555 C1002.1105,39.1865 1003.0145,31.7195 1003.1945,22.9025 L997.4685,22.9025 L997.4535,22.9565 Z M1009.1835,75.1915 C1005.9875,71.2945 1002.6795,66.7635 1000.0485,60.0415 C996.0415,66.4885 990.7845,71.1575 984.0015,74.2985 L983.5605,74.5015 L982.4745,71.1555 L982.7635,70.9785 C989.6035,66.7885 994.5395,61.0005 997.8505,53.2875 C996.2495,47.4045 995.2075,40.5465 994.6795,32.3855 C993.3705,36.2625 991.9965,39.5745 990.5835,42.2535 L990.3285,42.7385 L988.0285,40.6985 L988.1395,40.4175 C989.4545,37.0925 990.6635,32.6805 991.6995,27.5645 L983.6865,27.5645 C982.4665,29.7745 981.1485,31.8085 979.5885,34.0855 L982.4565,34.0855 L984.0695,32.8695 L988.9185,37.3095 L988.7415,37.6095 C987.0655,40.4415 983.7745,44.4375 981.0315,46.9805 L981.0315,49.9605 C985.0435,48.8735 988.2415,47.8565 990.5435,46.9365 L991.0055,46.7515 L991.7995,50.0905 L991.5515,50.2565 C989.2155,51.8235 985.6775,53.6035 981.0315,55.5475 L981.0315,67.3815 C981.0315,71.5995 979.0075,74.1165 975.6185,74.1165 C973.1985,74.1165 970.2535,72.8835 966.8665,70.4505 L966.6435,70.2905 L967.2775,66.9315 L967.7195,67.0425 C969.9035,67.5925 971.5275,67.8595 972.6855,67.8595 C975.0405,67.8595 975.4555,66.8035 975.4555,64.5845 L975.4555,57.7435 C971.4885,59.2025 967.7015,60.3685 964.9885,60.9635 L964.5545,61.0595 L963.1145,53.3325 L963.5725,53.2795 C966.7205,52.9185 970.9285,52.2025 975.4555,51.2605 L975.4555,43.7445 L978.8435,44.6595 C979.8645,42.8905 980.9215,40.6695 981.8045,38.4415 L976.4265,38.4415 C972.5065,43.3865 968.2875,47.6515 964.2145,50.7845 L963.7985,51.1035 L962.3195,48.0985 L962.5455,47.8805 C965.7265,44.8235 968.4745,41.7285 970.9265,38.4415 L965.9105,38.4415 L965.9105,34.0855 L973.9905,34.0855 C975.3995,31.9525 976.7095,29.7635 977.8885,27.5645 L962.9685,27.5645 L962.9685,23.2075 L972.9025,23.2075 L972.9025,15.5995 L964.9665,15.5995 L964.9665,11.2425 L972.9025,11.2425 L972.9025,1.8405 L978.5355,1.8405 L978.5355,11.2425 L984.7395,11.2425 C985.5345,8.7265 986.2525,6.1085 986.8425,3.5725 L986.9715,3.0185 L992.5375,6.0985 L992.4505,6.4225 C990.9135,12.1575 988.7515,17.8005 986.0205,23.2075 L991.7425,23.2075 L991.7425,27.3505 C993.2435,19.8805 994.3765,10.9365 994.9335,1.7015 L994.9665,1.1655 L1001.2245,2.9715 L1001.1735,3.3395 C1000.4725,8.4705 999.5515,13.7165 998.5065,18.5465 L1012.2205,18.5465 L1012.2205,22.9025 L1009.0425,22.9025 C1008.6025,35.3615 1006.7685,45.3385 1003.4395,53.3805 C1006.0755,58.6775 1009.4455,63.0765 1013.7385,66.8245 L1013.9905,67.0445 L1009.6015,75.7015 L1009.1835,75.1915 Z" id="Fill-20" fill="#FFFFFF" mask="url(#mask-2)"></path>
                </g>
            </g>
        </g>
    </g>
</svg>