<?xml version="1.0" encoding="UTF-8"?>
<svg width="1440px" height="730px" viewBox="0 0 1440 730" version="1.1" xmlns="http://www.w3.org/2000/svg" xmlns:xlink="http://www.w3.org/1999/xlink">
    <!-- Generator: Sketch 41.2 (35397) - http://www.bohemiancoding.com/sketch -->
    <title>Group 9 Copy</title>
    <desc>Created with Sketch.</desc>
    <defs>
        <polygon id="path-1" points="0 178.001 560.164 178.001 560.164 0 0 0"></polygon>
    </defs>
    <g id="Page-1" stroke="none" stroke-width="1" fill="none" fill-rule="evenodd">
        <g id="Group-9-Copy">
            <rect id="Rectangle-10-Copy" fill="#000000" x="0" y="0" width="1440" height="730"></rect>
            <g id="Page-1" transform="translate(440.000000, 276.000000)">
                <path d="M73.1709,47.3457 C72.9509,46.0507 72.6599,44.6087 72.3569,43.0967 L72.2329,42.4817 C67.3479,45.0127 61.3619,47.1397 58.4699,47.6957 L58.0419,47.7777 L56.5929,39.6597 L57.1409,39.6957 C58.2179,39.7667 59.3669,39.7717 60.4869,39.7717 C63.0979,35.7847 65.4339,31.2787 67.4409,26.3617 C64.5119,27.4867 61.1989,28.5147 58.7589,29.0457 L58.3089,29.1437 L57.1579,21.3607 L57.7279,21.4407 C58.7119,21.5777 59.7169,21.6547 60.6969,21.7247 C62.8199,15.4567 64.4329,8.6907 65.6229,1.0537 L65.7119,0.4807 L71.3919,3.2227 L71.2879,3.5727 C69.5169,9.6047 66.8249,16.3987 64.0329,21.8987 C65.8789,21.8807 67.5879,21.7887 69.2299,21.6217 C70.2429,18.7617 71.2179,15.6437 72.1269,12.3497 L72.2799,11.7927 L77.8899,15.3127 L77.7749,15.6377 C74.8609,23.8747 69.4049,33.7067 64.5659,39.5217 C66.7159,39.3097 69.0299,38.9997 71.3429,38.6137 C70.9039,36.9047 70.3539,34.8107 69.7979,32.9437 L69.7139,32.6617 L71.8019,31.0387 L72.0609,31.4097 C74.2639,34.5677 76.7039,39.6737 78.2759,44.4187 L78.3819,44.7367 L73.2789,47.9837 L73.1709,47.3457 Z M65.6739,69.3287 C65.7869,64.3077 65.4329,56.2697 65.1739,50.3997 L65.1579,50.0507 L67.7429,49.3927 L67.8509,49.8067 C69.5119,56.1997 70.9559,63.9357 71.5249,68.2737 L71.5759,68.6707 L65.6609,69.8667 L65.6739,69.3287 Z M55.6279,69.8897 L55.7749,69.5537 C58.3819,63.6367 59.9419,57.6537 60.6809,50.7237 L60.7289,50.2737 L63.4749,50.7127 L63.4809,51.0727 C63.6359,59.5787 62.9639,67.6047 61.6379,73.0927 L61.4949,73.6807 L55.6279,69.8897 Z M84.1809,30.7597 L90.8689,30.7597 L90.8689,20.7417 L84.1809,20.7417 L84.1809,30.7597 Z M84.1809,46.1437 L90.8689,46.1437 L90.8689,35.1157 L84.1809,35.1157 L84.1809,46.1437 Z M84.1809,63.1597 L90.8689,63.1597 L90.8689,50.5007 L84.1809,50.5007 L84.1809,63.1597 Z M78.5489,73.8097 L78.5489,63.5897 L73.2639,66.6047 L73.1699,65.9857 C72.3589,60.6267 70.9919,53.3797 70.0669,48.9147 L70.0039,48.6127 L72.3859,47.2137 L72.5919,47.6227 C74.8959,52.1847 77.3269,58.6117 78.5069,63.2507 L78.5489,63.4157 L78.5489,29.6807 C77.6599,31.3167 76.7169,32.8427 75.7759,34.1587 L75.4549,34.6097 L73.4809,32.2707 L73.5909,32.0237 C77.5489,23.1577 80.1309,13.1977 81.7149,0.6777 L81.7839,0.1337 L88.0729,2.5597 L88.0019,2.9157 C87.1329,7.2097 85.8379,11.8537 84.2479,16.3857 L92.3989,16.3857 C91.6739,12.2167 90.3009,5.9037 89.3849,2.5547 L89.3079,2.2717 L91.5749,0.5787 L91.8249,0.9637 C94.1669,4.5617 96.7289,10.0047 98.1999,14.5057 L98.3079,14.8357 L95.6589,16.3857 L105.9359,16.3857 L105.9359,20.7417 L96.3899,20.7417 L96.3899,30.7597 L104.4919,30.7597 L104.4919,35.1157 L96.3899,35.1157 L96.3899,46.1437 L104.4919,46.1437 L104.4919,50.5007 L96.3899,50.5007 L96.3899,63.1597 L106.4899,63.1597 L106.4899,67.5157 L84.1809,67.5157 L84.1809,73.8097 L78.5489,73.8097 Z" id="Fill-1" fill="#FFFFFF"></path>
                <mask id="mask-2" fill="white">
                    <use xlink:href="#path-1"></use>
                </mask>
                <g id="Clip-4"></g>
                <path d="M130.908,18.482 L144.533,18.482 L144.533,14.293 L130.908,14.293 L130.908,18.482 Z M130.908,27.495 L144.533,27.495 L144.533,22.84 L130.908,22.84 L130.908,27.495 Z M130.908,36.665 L144.533,36.665 L144.533,31.853 L130.908,31.853 L130.908,36.665 Z M115.287,71.324 L115.287,66.966 L134.988,66.966 L134.988,57.726 L125.165,57.726 L125.165,54.156 C120.561,58.627 115.878,61.457 113.871,62.567 L113.424,62.815 L112.268,59.474 L112.514,59.286 C119.275,54.111 124.423,47.807 127.437,41.021 L113.122,41.021 L113.122,36.665 L125.276,36.665 L125.276,14.293 L115.73,14.293 L115.73,9.937 L125.276,9.937 L125.276,1.157 L130.908,1.157 L130.908,9.937 L144.533,9.937 L144.533,1.157 L150.165,1.157 L150.165,9.937 L160.266,9.937 L160.266,14.293 L150.165,14.293 L150.165,36.665 L162.708,36.665 L162.708,41.021 L147.185,41.021 C150.046,44.54 154.35,48.419 163.52,51.37 L163.979,51.518 L160.042,60.133 L159.643,59.933 C156.968,58.589 150.066,54.064 143.532,41.021 L134.375,41.021 C132.342,45.941 129.208,50.067 125.957,53.37 L134.988,53.37 L134.988,44.201 L140.731,44.201 L140.731,53.37 L150.609,53.37 L150.609,57.726 L140.731,57.726 L140.731,66.966 L160.987,66.966 L160.987,71.324 L115.287,71.324 Z" id="Fill-3" fill="#FFFFFF" mask="url(#mask-2)"></path>
                <path d="M182.741,41.871 L206.634,41.871 L206.634,27.657 L182.741,27.657 L182.741,41.871 Z M182.741,62.771 L206.634,62.771 L206.634,46.227 L182.741,46.227 L182.741,62.771 Z M206.634,73.965 L206.634,67.206 L182.741,67.206 L182.741,73.965 L176.665,73.965 L176.665,23.3 L189.922,23.3 C190.337,19.754 190.747,14.526 191.01,10.564 L169.84,10.564 L169.84,5.818 L219.258,5.818 L219.258,10.564 L198.016,10.564 C196.94,14.589 195.478,18.973 193.768,23.3 L212.709,23.3 L212.709,73.965 L206.634,73.965 Z" id="Fill-5" fill="#FFFFFF" mask="url(#mask-2)"></path>
                <path d="M256.96,24.5474 C254.475,19.6614 252.302,15.8814 249.211,11.0654 L249.069,10.8434 L250.665,8.1004 L251.052,8.3914 C255.51,11.7374 258.526,14.7814 261.466,18.8964 L261.646,19.1484 L257.278,25.1744 L256.96,24.5474 Z M255.668,44.9494 C253.57,39.7924 251.415,35.8754 248.918,31.3394 L248.182,29.9994 L249.984,27.3724 L250.347,27.6724 C254.647,31.2344 257.631,34.6174 260.647,39.3504 L260.814,39.6114 L255.942,45.6234 L255.668,44.9494 Z M263.128,73.5764 L263.128,50.5004 C257.575,52.2434 251.686,54.0744 245.808,55.7664 L245.375,55.8914 L244.342,51.5574 L244.736,51.4444 C251.351,49.5424 257.37,47.7434 263.128,45.9464 L263.128,1.3124 L268.871,1.3124 L268.871,44.1094 C269.832,43.7874 270.8,43.4774 271.769,43.1674 C272.912,42.8004 274.055,42.4344 275.185,42.0494 L275.651,41.8894 L276.483,46.1594 L276.129,46.2804 C274.297,46.9084 271.582,47.8294 268.871,48.6764 L268.871,73.5764 L263.128,73.5764 Z M235.713,74.3544 L235.713,42.8564 C233.56,49.2064 230.9,54.7404 227.623,59.7084 L227.292,60.2094 L225.371,57.7354 L225.49,57.4934 C229.376,49.6524 232.637,38.6874 234.691,26.5694 L226.445,26.5694 L226.445,22.2124 L235.713,22.2124 L235.713,11.9274 C232.987,12.5994 230.191,13.1184 227.593,13.4344 L227.177,13.4854 L226.674,10.0694 L227.02,9.9574 C232.279,8.2484 238.479,5.7684 244.569,0.3334 L244.943,0.0004 L249.412,6.8734 L248.998,7.0944 C246.874,8.2274 244.301,9.3014 241.346,10.2884 L241.346,22.2124 L249.226,22.2124 L249.226,26.5694 L241.346,26.5694 L241.346,30.5464 C244.111,33.3414 247.999,37.8704 249.883,40.9084 L250.04,41.1614 L245.442,47.1444 L245.174,46.4104 C244.369,44.2144 243.112,41.2014 241.346,37.2374 L241.346,74.3544 L235.713,74.3544 Z" id="Fill-6" fill="#FFFFFF" mask="url(#mask-2)"></path>
                <path d="M328.0459,54.1441 C324.5459,46.9861 319.0249,36.5491 312.5989,27.4751 L312.4409,27.2521 L314.1079,24.3081 L314.5049,24.6471 C322.8499,31.7871 330.8129,42.4151 333.8019,47.6821 L333.9479,47.9391 L328.3399,54.7441 L328.0459,54.1441 Z M305.4159,73.8101 L305.4159,32.1451 C299.6089,41.2671 292.0889,49.4001 284.1209,55.1581 L283.6659,55.4871 L282.3679,52.0551 L282.5709,51.8591 C295.0269,39.8301 302.5169,27.8011 307.5379,11.7291 L284.8269,11.7291 L284.8269,6.5951 L333.0249,6.5951 L333.0249,11.7291 L314.7749,11.7291 C313.9509,14.6651 312.8849,17.6331 311.6039,20.5571 L311.6039,73.8101 L305.4159,73.8101 Z" id="Fill-7" fill="#FFFFFF" mask="url(#mask-2)"></path>
                <path d="M369.652,48.863 L373.232,48.863 L373.232,31.853 L369.652,31.853 L369.652,48.863 Z M364.63,58.736 L364.63,27.729 L378.31,27.729 L378.31,57.26 L373.232,57.26 L373.232,52.987 L369.648,52.987 L369.593,58.736 L364.63,58.736 Z M379.322,73.785 C376.551,73.785 372.945,71.849 368.605,68.03 L368.408,67.856 L369.255,64.501 L369.701,64.661 C373.384,65.98 375.458,66.519 376.86,66.519 C379.197,66.519 379.789,64.925 380.282,60.435 C381.041,53.539 381.438,39.969 381.499,18.955 L367.698,18.955 C365.906,24.182 363.781,28.744 361.208,32.893 L360.92,33.357 L358.725,31.131 L358.838,30.866 C362.185,23.01 364.406,13.267 365.631,1.078 L365.686,0.533 L371.826,2.705 L371.753,3.07 C371.055,6.529 370.267,10.43 369.073,14.598 L387.303,14.598 L387.3,15.031 C387.146,36.468 387,56.716 385.686,65.518 C384.869,71.003 382.729,73.785 379.322,73.785 L379.322,73.785 Z M339.194,71.146 L339.491,70.982 C348.958,65.796 355.704,55.433 358.055,42.498 L353.318,42.498 C352.194,44.393 351.214,45.93 350.26,47.286 C351.453,48.37 353.099,50.061 354.648,52.313 L354.824,52.568 L351.179,57.389 L350.897,56.678 C349.809,53.934 348.914,51.863 348.04,50.072 C346.07,52.379 343.97,54.374 341.788,56.008 L341.331,56.351 L340.087,53.072 L340.281,52.875 C346.259,46.839 348.937,40.758 351.547,33.161 C348.299,37.201 344.579,40.396 340.462,42.677 L339.993,42.937 L338.98,39.494 L339.218,39.315 C347.697,32.911 352.855,24.826 355.419,13.905 L349.669,13.905 C349.133,14.905 348.518,15.912 347.911,16.894 C349.129,18.021 350.773,19.751 352.16,21.947 L352.325,22.209 L348.48,26.931 L348.228,26.203 C347.394,23.798 346.559,21.761 345.815,20.012 C344.28,22.082 342.623,23.916 340.765,25.603 L340.324,26.003 L338.979,22.971 L339.137,22.768 C344.856,15.395 347.174,7.959 348.826,1.021 L348.954,0.482 L354.214,3.245 L354.089,3.596 C353.288,5.836 352.549,7.746 351.783,9.548 L355.871,9.548 L356.971,8.265 L362.003,11.083 L361.927,11.399 C360.298,18.157 357.574,24.501 354.038,29.781 L357.975,31.745 L357.868,32.093 C357.251,34.109 356.466,36.141 355.529,38.141 L358.304,38.141 L359.512,36.618 L364.541,39.434 L364.484,39.737 C361.108,57.729 352.614,70.041 340.566,74.405 L340.128,74.564 L339.194,71.146 Z" id="Fill-8" fill="#FFFFFF" mask="url(#mask-2)"></path>
                <path d="M402.4687,34.1035 C400.8637,30.9325 398.8307,27.6395 397.0387,24.7335 C396.4277,23.7435 395.8477,22.8025 395.3247,21.9325 L395.2057,21.7345 L396.6357,18.7315 L397.0537,19.0295 C398.4827,20.0485 403.3957,23.7105 406.6387,28.0575 L406.8137,28.2915 L402.8167,34.7895 L402.4687,34.1035 Z M394.7867,68.5715 L394.9027,68.2585 C397.5177,61.1675 401.3387,48.5925 403.6017,39.6305 L403.7317,39.1155 L406.3707,40.4195 L406.3317,40.7245 C404.9837,51.1455 402.4887,65.5055 400.8847,72.0825 L400.7367,72.6895 L394.7867,68.5715 Z M413.0497,30.8375 L421.3477,30.8375 L421.3477,24.8595 L413.0497,24.8595 L413.0497,30.8375 Z M413.0497,41.5585 L421.3477,41.5585 L421.3477,35.1155 L413.0497,35.1155 L413.0497,41.5585 Z M414.4097,74.0425 L414.4097,56.4825 L406.0307,56.4825 L406.0307,52.1265 L414.4097,52.1265 L414.4097,45.9165 L407.8617,45.9165 L407.8617,20.5035 L414.4097,20.5035 L414.4097,15.0695 L406.3637,15.0695 L406.3637,11.5175 L403.1627,16.5655 L402.8107,15.9385 C400.7647,12.2985 397.5757,7.3725 395.6767,4.7115 L395.5377,4.5175 L396.8117,1.4445 L397.2327,1.6755 C399.9677,3.1775 404.3267,6.5855 407.0177,9.9415 L407.2087,10.1815 L406.9217,10.6355 L414.4097,10.6355 L414.4097,1.0005 L419.9317,1.0005 L419.9317,10.6355 L427.3677,10.6355 L427.3677,15.0695 L419.9317,15.0695 L419.9317,20.5035 L426.5347,20.5035 L426.5347,45.9165 L419.9317,45.9165 L419.9317,52.1265 L426.7017,52.1265 L426.7017,56.5655 L419.9317,56.4875 L419.9317,74.0425 L414.4097,74.0425 Z M433.5287,22.3675 L438.7177,22.3675 L438.7177,10.3305 L433.5287,10.3305 L433.5287,22.3675 Z M438.7177,40.7825 L438.7177,26.5695 L433.5287,26.5695 L433.5287,35.7735 C433.5287,37.4535 433.5287,39.1855 433.4867,40.7825 L438.7177,40.7825 Z M422.0477,72.9015 L422.1647,72.6525 C427.0607,62.2555 428.1177,55.7075 428.1177,35.7735 L428.1177,5.9735 L444.2387,5.9735 L444.2387,66.6205 C444.2387,71.0915 442.3767,73.7605 439.2587,73.7605 C437.0037,73.7605 434.1997,72.3435 431.1497,69.6615 L430.9607,69.4965 L431.6667,66.1335 L432.1267,66.2905 C434.4157,67.0705 435.9457,67.4345 436.9397,67.4345 C438.3347,67.4345 438.7177,66.7915 438.7177,64.4445 L438.7177,44.9835 L433.2857,44.9835 C432.6417,57.8175 430.1397,66.2225 424.4107,74.8605 L424.0927,75.3405 L422.0477,72.9015 Z" id="Fill-9" fill="#FFFFFF" mask="url(#mask-2)"></path>
                <path d="M472.0879,50.5987 L472.4589,50.3927 C476.0989,48.3817 478.5929,44.1537 479.2159,38.9967 C478.5669,39.1507 477.8389,39.1567 477.8279,39.1567 C474.9159,39.1567 472.9589,36.4857 472.9589,32.5107 C472.9589,28.5357 474.9379,25.8647 477.8839,25.8647 C481.7199,25.8647 483.9189,29.1937 483.9189,34.9967 C483.9189,43.9877 479.7269,51.7097 473.9509,53.3587 L473.6179,53.4537 L472.0879,50.5987 Z" id="Fill-10" fill="#FFFFFF" mask="url(#mask-2)"></path>
                <path d="M21.665,176.8716 L21.665,149.9436 C16.626,159.0106 9.227,167.1426 1.623,171.9116 L1.165,172.1986 L0,168.8326 L0.242,168.6436 C6.58,163.6986 14.009,153.7896 18.48,144.4586 L16.547,146.3296 L16.353,145.6326 C15.413,142.2406 14.331,139.0176 13.48,136.5936 C11.465,143.3286 8.446,148.7766 4.045,153.6536 L3.666,154.0736 L1.888,151.2726 L2.025,151.0446 C6.914,142.9766 9.195,134.5486 9.899,121.9516 L9.93,121.4246 L16.074,123.0546 L16.028,123.4266 C15.68,126.2706 15.291,128.7626 14.841,131.0366 C17.431,134.4016 19.306,137.2256 20.546,139.6276 C20.985,138.4446 21.36,137.2996 21.665,136.2126 L21.665,120.2296 L2.075,120.2296 L2.075,115.0966 L21.665,115.0966 L21.665,103.6746 L27.63,103.6746 L27.63,115.0966 L47.442,115.0966 L47.442,120.2296 L27.63,120.2296 L27.63,139.1206 C28.245,140.3086 28.802,141.3236 29.317,142.1976 C32.053,136.2436 33.409,130.6066 34.265,121.7786 L34.317,121.2296 L40.408,123.4066 L40.33,123.7736 C39.698,126.7466 39.049,129.2746 38.345,131.4916 C41.852,135.0226 44.786,138.9936 46.379,141.5616 L46.536,141.8146 L42.009,147.7006 L41.729,146.9976 C40.206,143.1736 38.454,139.3036 36.749,135.9926 C35.265,139.7286 33.505,142.8886 31.39,145.6216 C36.291,153.2706 41.476,158.1646 49.22,162.4676 L49.559,162.6566 L45.519,172.0816 L45.078,171.7256 C37.484,165.6046 31.903,157.9206 27.63,147.6636 L27.63,176.8716 L21.665,176.8716 Z" id="Fill-11" fill="#FFFFFF" mask="url(#mask-2)"></path>
                <path d="M73.803,147.185 L93.865,147.185 L93.865,141.752 L73.803,141.752 L73.803,147.185 Z M73.803,156.975 L93.865,156.975 L93.865,151.386 L73.803,151.386 L73.803,156.975 Z M73.803,166.92 L93.865,166.92 L93.865,161.176 L73.803,161.176 L73.803,166.92 Z M67.949,176.638 L67.949,147.684 C64.782,151.6 61.258,155.038 57.701,157.673 L57.258,158.002 L55.882,154.653 L56.097,154.451 C62.171,148.73 67.68,140.764 71.655,131.962 L57.793,131.962 L57.793,127.605 L73.471,127.605 C74.008,126.25 74.522,124.751 75.07,122.95 L60.679,122.95 L60.679,118.592 L76.314,118.592 C76.706,117.069 77.018,115.732 77.278,114.453 C72.188,114.91 67.56,115.142 63.513,115.142 C62.557,115.142 61.62,115.129 60.707,115.102 L60.329,115.09 L59.971,111.473 L60.416,111.446 C74.26,110.591 85.458,107.839 95.658,102.787 L95.96,102.637 L101.671,109.415 L101.111,109.633 C96.941,111.259 90.877,112.685 84.008,113.656 C83.74,115.136 83.404,116.835 82.929,118.592 L102.605,118.592 L102.605,122.95 L81.62,122.95 C81.025,124.748 80.473,126.25 79.906,127.605 L105.936,127.605 L105.936,131.962 L77.915,131.962 C76.939,133.963 75.986,135.75 75.018,137.395 L99.72,137.395 L99.72,176.25 L93.865,176.25 L93.865,171.277 L73.803,171.277 L73.803,176.638 L67.949,176.638 Z" id="Fill-12" fill="#FFFFFF" mask="url(#mask-2)"></path>
                <path d="M112.5459,173.5679 L112.7309,173.3599 C118.4849,166.8569 121.4429,159.7099 122.8269,148.8689 C119.8989,151.0109 117.0459,152.7059 114.7169,153.6839 L114.2469,153.8809 L112.4069,145.9719 L112.9169,145.9429 C114.1379,145.8719 115.2819,145.7329 116.3559,145.5899 C117.9319,141.6789 119.6309,136.1929 121.0789,130.3539 C118.7739,131.8949 116.1499,133.2919 114.4119,133.8819 L113.9509,134.0379 L112.3579,126.3629 L112.8859,126.3629 C113.7119,126.3629 114.5639,126.3629 115.4399,126.3069 C117.1619,120.0769 118.3859,113.0209 119.2839,104.1389 L119.3409,103.5759 L125.3819,105.9399 L125.2899,106.3059 C123.4349,113.7619 121.2959,120.1929 118.7629,125.9359 C119.9149,125.7569 121.0929,125.5689 122.2359,125.3399 C122.7919,122.7479 123.2559,120.1589 123.6149,117.6409 L123.6979,117.0589 L129.3619,119.7939 L129.2889,120.1269 C127.5739,127.8519 123.8469,137.8699 120.1049,144.8799 C121.0779,144.6339 122.0789,144.3329 123.1229,144.0179 L123.3589,143.9469 C123.5169,141.9589 123.6249,139.8639 123.7229,137.8819 L123.7469,137.3929 L129.3159,138.4019 L129.2989,138.7769 C128.5039,156.2929 123.2009,169.6259 114.3669,176.3179 L113.9379,176.6439 L112.5459,173.5679 Z M135.2379,127.9929 L140.0939,127.9929 L140.0939,119.8409 L135.2379,119.8409 L135.2379,127.9929 Z M135.2379,140.9689 L140.0939,140.9689 L140.0939,132.3509 L135.2379,132.3509 L135.2379,140.9689 Z M152.4409,161.3619 L152.8449,159.1649 L153.3179,159.3309 C154.5319,159.7549 155.2749,159.9369 155.8009,159.9369 C156.1539,159.9369 156.3909,159.8559 156.5669,159.6739 C157.2659,158.9489 157.2149,156.4849 157.0749,152.5259 C156.8969,147.4809 155.6679,141.2899 153.3199,133.5999 L153.2909,133.5059 L153.3069,133.4089 C154.5479,125.4359 155.3539,118.7289 155.7679,112.9259 L152.4409,112.9259 L152.4409,161.3619 Z M146.9199,176.7939 L146.9199,168.4389 L142.7139,171.0809 L142.5979,170.4599 C142.1009,167.8039 141.4959,165.1129 140.7069,162.0529 C136.4069,167.1189 130.8659,171.3719 127.4089,173.2449 L126.9589,173.4889 L124.2129,165.2749 L124.6439,165.1509 C126.1749,164.7069 127.8849,164.0589 129.6049,163.2689 L129.6049,115.4849 L135.8889,115.4849 C134.9199,112.3759 133.5559,108.2529 132.3479,104.7899 L132.2639,104.5479 L134.3089,102.2989 L134.6259,102.6509 C136.7299,104.9749 139.5379,109.4989 141.3039,113.4069 L141.4409,113.7099 L139.2429,115.4849 L145.6139,115.4849 L145.6139,145.2489 L135.2369,145.2489 L135.2369,160.4119 C136.7409,159.5719 138.1909,158.5879 139.4729,157.6929 C138.6399,154.7389 137.7699,152.0729 136.9279,149.4929 L136.7569,148.9689 L138.9499,146.8519 L139.2279,147.3179 C142.5869,152.9469 145.2149,158.5259 146.9199,163.6239 L146.9199,106.6739 L152.0869,108.5699 L155.5339,108.5699 L156.8599,107.0499 L161.9189,110.0229 L161.8689,110.3159 C160.2779,119.5759 158.6469,126.2719 156.2479,133.3699 C160.1969,141.7629 161.5749,146.0659 162.3719,152.4579 C163.1629,158.7189 162.6739,162.9029 160.9199,164.8929 C160.2029,165.7059 159.3049,166.1169 158.2469,166.1169 C156.4839,166.1169 154.4249,164.9519 152.4409,162.8339 L152.4409,176.7939 L146.9199,176.7939 Z" id="Fill-13" fill="#FFFFFF" mask="url(#mask-2)"></path>
                <path d="M181.464,124.342 L207.854,124.342 L207.854,111.838 L181.464,111.838 L181.464,124.342 Z M193.579,140.037 C192.997,136.056 192.574,132.338 192.291,128.699 L181.465,128.699 L181.465,140.037 L193.579,140.037 Z M169.751,166.819 L170.224,166.768 C171.65,166.614 173.661,166.219 175.5,165.836 L175.5,107.482 L213.708,107.482 L213.708,128.699 L198.148,128.699 C198.451,132.635 198.902,136.445 199.491,140.037 L217.704,140.037 L217.704,144.394 L200.326,144.394 C202.283,153.28 205.191,159.706 209.209,164.027 C210.84,165.773 211.992,166.658 212.636,166.658 C212.786,166.658 212.903,166.607 213.015,166.493 C214.041,165.436 213.891,160.28 213.682,153.145 L213.669,152.702 L216.444,152.702 L216.526,153.026 C219.304,163.978 219.524,171.692 217.147,174.747 C216.395,175.715 215.401,176.206 214.195,176.206 C212.376,176.206 210.107,175.062 207.451,172.806 C203.267,169.25 197.607,161.436 194.332,144.394 L181.465,144.394 L181.465,164.466 C187.282,162.972 192.273,161.325 195.562,159.812 L196.023,159.6 L196.951,163.001 L196.733,163.178 C190.751,168.032 177.077,174.688 172.237,176.305 L171.779,176.458 L169.751,166.819 Z" id="Fill-14" fill="#FFFFFF" mask="url(#mask-2)"></path>
                <path d="M239.347,144.466 L263.239,144.466 L263.239,130.252 L239.347,130.252 L239.347,144.466 Z M239.347,165.367 L263.239,165.367 L263.239,148.823 L239.347,148.823 L239.347,165.367 Z M263.239,176.561 L263.239,169.801 L239.348,169.801 L239.348,176.561 L233.271,176.561 L233.271,125.896 L246.527,125.896 C246.941,122.364 247.353,117.132 247.615,113.16 L226.445,113.16 L226.445,108.415 L275.864,108.415 L275.864,113.16 L254.621,113.16 C253.546,117.186 252.084,121.569 250.373,125.896 L269.315,125.896 L269.315,176.561 L263.239,176.561 Z" id="Fill-15" fill="#FFFFFF" mask="url(#mask-2)"></path>
                <path d="M313.5654,127.1431 C311.0804,122.2571 308.9074,118.4771 305.8164,113.6611 L305.6744,113.4391 L307.2724,110.6971 L307.6584,110.9871 C312.1144,114.3311 315.1314,117.3751 318.0724,121.4921 L318.2524,121.7441 L313.8834,127.7701 L313.5654,127.1431 Z M312.2734,147.5451 C310.1754,142.3881 308.0194,138.4701 305.5234,133.9351 L304.7864,132.5951 L306.5904,129.9681 L306.9534,130.2681 C311.2524,133.8291 314.2354,137.2121 317.2524,141.9461 L317.4194,142.2071 L312.5474,148.2191 L312.2734,147.5451 Z M319.7344,176.1721 L319.7344,153.0961 C314.1694,154.8421 308.2714,156.6761 302.4134,158.3621 L301.9794,158.4871 L300.9484,154.1531 L301.3424,154.0401 C307.9464,152.1421 313.9654,150.3421 319.7344,148.5421 L319.7344,103.9081 L325.4774,103.9081 L325.4774,146.7051 C326.4384,146.3831 327.4064,146.0731 328.3754,145.7631 C329.5184,145.3961 330.6614,145.0301 331.7914,144.6451 L332.2574,144.4851 L333.0874,148.7551 L332.7344,148.8761 C329.8584,149.8621 327.5414,150.6271 325.4774,151.2721 L325.4774,176.1721 L319.7344,176.1721 Z M292.3194,176.9501 L292.3194,145.4511 C290.1644,151.8051 287.5044,157.3391 284.2274,162.3041 L283.8974,162.8051 L281.9774,160.3311 L282.0964,160.0891 C285.9824,152.2461 289.2444,141.2801 291.2974,129.1651 L283.0514,129.1651 L283.0514,124.8081 L292.3194,124.8081 L292.3194,114.5231 C289.5874,115.1961 286.7924,115.7151 284.1994,116.0301 L283.7834,116.0811 L283.2804,112.6651 L283.6264,112.5531 C288.8854,110.8441 295.0844,108.3641 301.1754,102.9291 L301.5494,102.5961 L306.0184,109.4691 L305.6044,109.6901 C303.4824,110.8221 300.9094,111.8961 297.9514,112.8851 L297.9514,124.8081 L305.8324,124.8081 L305.8324,129.1651 L297.9514,129.1651 L297.9514,133.1421 C300.7144,135.9351 304.6024,140.4631 306.4884,143.5041 L306.6454,143.7561 L302.0484,149.7401 L301.7804,149.0061 C300.9694,146.7961 299.7124,143.7841 297.9514,139.8321 L297.9514,176.9501 L292.3194,176.9501 Z" id="Fill-16" fill="#FFFFFF" mask="url(#mask-2)"></path>
                <path d="M341.655,132.583 L359.108,132.583 L359.108,128.46 L341.655,128.46 L341.655,132.583 Z M341.655,142.76 L341.655,138.638 L359.108,138.638 L359.108,142.842 L341.655,142.76 Z M347.066,166.455 L353.92,166.455 L353.92,153.485 L347.066,153.485 L347.066,166.455 Z M341.655,176.25 L341.655,149.361 L359.219,149.361 L359.219,170.578 L347.065,170.578 L347.065,176.25 L341.655,176.25 Z M365.935,140.27 L379.06,140.27 L379.06,126.368 L365.935,126.368 L365.935,140.27 Z M355.221,174.825 L355.471,174.627 C361.296,170.021 365.235,163.139 365.513,144.627 L360.524,144.627 L360.524,122.094 L339.547,122.094 L339.547,117.738 L348.764,117.738 C347.05,113.675 344.697,108.415 343.316,105.863 L343.193,105.636 L344.937,102.992 L345.309,103.314 C348.103,105.739 351.934,110.392 354.218,114.137 L354.379,114.402 L351.559,117.738 L361.051,117.738 L361.051,122.011 L366.031,122.011 L366.024,121.97 C365.022,116.137 363.664,110.434 362.098,105.477 L362.014,105.211 L364.256,103.224 L364.53,103.633 C367.061,107.407 369.958,113.715 371.576,118.974 L371.676,119.298 L367.1,122.011 L374.219,122.011 C375.606,116.657 377.112,108.68 377.675,103.668 L377.742,103.073 L383.944,105.968 L383.843,106.32 C382.379,111.447 379.719,117.887 377.735,122.011 L384.581,122.011 L384.581,144.627 L378.865,144.627 L378.865,164.709 C378.865,166.733 379.662,167.17 380.262,167.323 C380.692,167.436 381.555,167.514 382.36,167.514 C383.108,167.514 383.719,167.449 383.992,167.34 C385.325,166.825 385.657,166.218 385.275,154.778 L385.261,154.334 L388.055,154.334 L388.125,154.678 C389.987,163.865 390.976,169.648 388.998,172.483 C388.271,173.525 387.179,174.146 385.659,174.38 C384.5,174.556 383.247,174.648 382.035,174.648 C380.825,174.648 379.718,174.557 378.745,174.378 C374.063,173.581 373.122,170.622 373.122,166.107 L373.122,144.627 L371.254,144.627 C370.811,166.182 363.203,174.542 356.875,177.757 L356.453,177.972 L355.221,174.825 Z" id="Fill-17" fill="#FFFFFF" mask="url(#mask-2)"></path>
                <path d="M423.792,131.6709 C420.7,126.3719 417.265,120.9819 414.602,117.2529 L414.451,117.0429 L415.939,114.0639 L416.338,114.3029 C420.632,116.8799 425.25,121.0289 428.39,125.1319 L428.572,125.3719 L424.146,132.2779 L423.792,131.6709 Z M422.962,157.0039 C420.075,152.1699 416.362,146.5249 413.271,142.2749 L413.119,142.0649 L414.555,139.1479 L414.959,139.4049 C418.805,141.8519 424.14,146.2199 427.391,150.4619 L427.57,150.6969 L423.326,157.6149 L422.962,157.0039 Z M432.858,132.9659 C433.269,125.6879 433.644,118.2409 433.871,112.8479 L410.468,112.8479 C409.982,119.6799 409.44,126.5199 408.924,132.9659 L432.858,132.9659 Z M431.313,158.6069 C431.664,153.8829 432.174,144.8609 432.589,137.3239 L408.518,137.3239 C407.846,144.7659 407.226,151.5429 406.492,158.6069 L431.313,158.6069 Z M429.503,176.2449 C426.564,176.2449 422.983,174.0319 418.856,169.6669 L418.69,169.4909 L419.604,166.1439 L420.056,166.3329 C423.689,167.8499 425.869,168.4969 427.345,168.4969 C429.472,168.4969 430.375,167.1389 430.944,162.9629 L406.021,162.9629 C405.855,164.8269 405.647,166.7149 405.444,168.4869 L405.397,168.9029 L399.157,168.3629 L399.206,167.9239 C400.348,157.8489 401.296,148.3909 402.272,137.3239 L395.985,137.3239 L395.985,132.9659 L402.626,132.9659 C403.188,126.5639 403.665,120.0189 404.216,112.4649 L404.506,108.4959 L440.317,108.0979 L440.299,108.5499 C440.014,115.6409 439.563,124.8319 439.155,132.9659 L446.015,132.9659 L446.015,137.3239 L438.945,137.3239 C438.5,145.8449 438.03,153.3619 437.615,158.6069 L444.85,158.6069 L444.85,162.9629 L437.256,162.9629 L437.133,164.0579 C435.977,174.1299 432.346,176.2449 429.503,176.2449 L429.503,176.2449 Z" id="Fill-18" fill="#FFFFFF" mask="url(#mask-2)"></path>
                <path d="M486.8604,128.6948 C488.5354,125.4628 490.0814,122.0448 491.4624,118.5198 L486.8604,118.5198 L486.8604,128.6948 Z M470.8374,140.3668 C471.1954,143.0818 471.4554,146.0098 471.6114,149.1058 C476.2244,144.9398 480.5874,139.4708 484.2934,133.2058 L471.7384,133.2058 L471.7384,129.0188 C470.9624,130.2398 470.1734,131.3438 469.3754,132.3228 C469.4244,132.4988 469.4634,132.6678 469.4964,132.8198 C472.5434,134.7868 475.2674,137.1328 477.5964,139.7958 L477.8064,140.0348 L474.0084,146.1748 L473.6684,145.4718 C472.8504,143.7858 471.8354,142.0178 470.8374,140.3668 L470.8374,140.3668 Z M481.9214,152.9348 L492.6604,152.9348 L492.6604,144.9378 L481.9214,144.9378 L481.9214,152.9348 Z M481.9214,166.6098 L492.6604,166.6098 L492.6604,157.1358 L481.9214,157.1358 L481.9214,166.6098 Z M476.1774,176.5608 L476.1774,150.0328 C474.9064,151.1058 473.5734,152.0908 472.1244,153.0278 L471.7784,153.2508 C471.9014,158.5688 471.6314,163.7128 471.0374,167.0378 C469.7004,174.5858 466.7964,176.1708 464.5944,176.1708 C462.1134,176.1708 459.2284,174.1838 456.0184,170.2648 L455.8734,170.0868 L456.8624,166.8218 L457.3154,167.0418 C459.8614,168.2738 461.4804,168.8228 462.5654,168.8228 C464.4534,168.8228 464.8274,167.0788 465.4144,162.0938 C465.7194,159.3828 465.9124,155.7398 465.9564,151.9008 C462.0064,158.8648 457.0044,162.9448 454.9384,164.4368 L454.5074,164.7468 L453.1804,161.7528 L453.3694,161.5448 C458.1614,156.2638 461.8774,150.7128 465.5734,139.4018 C465.4974,138.1978 465.3944,137.0218 465.2674,135.8868 C462.5184,141.6548 458.8504,146.5108 454.8404,149.6628 L454.4064,150.0048 L453.0734,146.9978 L453.2494,146.7918 C457.6414,141.6568 460.8254,135.2678 463.5624,126.0878 C463.3824,125.4328 463.1974,124.7668 462.9974,124.1528 C460.3204,127.9628 457.6864,130.8208 455.1614,132.6558 L454.7254,132.9728 L453.4044,129.8918 L453.5924,129.6868 C459.1654,123.6468 462.0744,116.4508 463.5534,111.2948 L454.4784,111.2948 L454.4784,106.9378 L477.3144,106.9378 L477.3144,111.2948 L469.6394,111.2948 C468.4724,114.5038 466.9524,117.7318 465.2254,120.6638 C466.2574,122.5878 467.2194,124.8948 468.0404,127.4068 C468.8494,125.1168 469.5424,122.5118 470.1934,119.3248 L470.3174,118.7168 L475.4904,121.9668 L475.3334,122.3108 C474.2084,124.7598 473.0424,126.9458 471.8444,128.8488 L481.2284,128.8488 L481.2284,118.5198 L474.1254,118.5198 L474.1254,114.1638 L481.2284,114.1638 L481.2284,103.7528 L486.8604,103.7528 L486.8604,114.1638 L493.0134,114.1638 C493.6314,112.3308 494.1864,110.5368 494.6734,108.8048 L494.8344,108.2378 L500.7684,112.1688 L500.6534,112.4868 C498.4614,118.5528 495.9804,124.0528 493.2754,128.8488 L502.2884,128.8488 L502.2884,133.2058 L490.7154,133.2058 C489.0474,135.7878 487.3134,138.2108 485.4374,140.5808 L498.4034,140.5808 L498.4034,176.2498 L492.6604,176.2498 L492.6604,170.9658 L481.9214,170.9658 L481.9214,176.5608 L476.1774,176.5608 Z" id="Fill-19" fill="#FFFFFF" mask="url(#mask-2)"></path>
                <path d="M526.2783,125.5073 C527.2293,123.4433 528.4073,120.7853 529.4413,117.8993 L524.7083,117.8993 L524.7083,125.5073 L526.2783,125.5073 Z M543.6233,125.2703 C543.4973,125.7273 543.3783,126.1573 543.2923,126.6353 C543.6543,134.7923 544.7393,141.8103 546.6103,147.9563 C548.2833,141.4893 549.1863,134.0243 549.3683,125.2023 L543.6413,125.2023 L543.6233,125.2703 Z M555.3573,177.4913 C552.1603,173.5933 548.8513,169.0603 546.2223,162.3413 C542.2153,168.7893 536.9583,173.4573 530.1743,176.5983 L529.7343,176.8013 L528.6483,173.4553 L528.9373,173.2783 C535.7753,169.0893 540.7123,163.3013 544.0243,155.5873 C542.4233,149.7093 541.3823,142.8503 540.8523,134.6853 C539.5433,138.5623 538.1693,141.8743 536.7563,144.5533 L536.5013,145.0383 L534.2013,142.9983 L534.3123,142.7173 C535.6263,139.3933 536.8363,134.9803 537.8723,129.8643 L529.8603,129.8643 C528.6393,132.0753 527.3213,134.1083 525.7613,136.3853 L528.6303,136.3853 L530.2423,135.1693 L535.0923,139.6093 L534.9153,139.9093 C533.2403,142.7403 529.9493,146.7363 527.2053,149.2803 L527.2053,152.2603 C531.2173,151.1733 534.4163,150.1563 536.7163,149.2363 L537.1783,149.0513 L537.9733,152.3903 L537.7253,152.5563 C535.3913,154.1223 531.8533,155.9013 527.2053,157.8473 L527.2053,169.6813 C527.2053,173.8993 525.1813,176.4163 521.7923,176.4163 C519.3723,176.4163 516.4273,175.1833 513.0393,172.7503 L512.8163,172.5903 L513.4513,169.2313 L513.8933,169.3423 C516.0773,169.8923 517.7013,170.1593 518.8593,170.1593 C521.2143,170.1593 521.6293,169.1033 521.6293,166.8843 L521.6293,160.0433 C517.6623,161.5023 513.8753,162.6683 511.1623,163.2633 L510.7293,163.3593 L509.2863,155.6323 L509.7453,155.5793 C512.8923,155.2183 517.1013,154.5023 521.6293,153.5593 L521.6293,146.0443 L525.0163,146.9593 C526.0373,145.1903 527.0943,142.9693 527.9773,140.7413 L522.5993,140.7413 C518.6783,145.6883 514.4603,149.9523 510.3883,153.0843 L509.9733,153.4033 L508.4923,150.3983 L508.7183,150.1803 C511.9013,147.1223 514.6493,144.0273 517.1003,140.7413 L512.0833,140.7413 L512.0833,136.3853 L520.1633,136.3853 C521.5753,134.2483 522.8843,132.0593 524.0623,129.8643 L509.1413,129.8643 L509.1413,125.5073 L519.0763,125.5073 L519.0763,117.8993 L511.1393,117.8993 L511.1393,113.5423 L519.0763,113.5423 L519.0763,104.1413 L524.7083,104.1413 L524.7083,113.5423 L530.9123,113.5423 C531.7073,111.0283 532.4253,108.4103 533.0153,105.8723 L533.1443,105.3183 L538.7103,108.3983 L538.6233,108.7223 C537.0893,114.4523 534.9263,120.0953 532.1943,125.5073 L537.9163,125.5073 L537.9163,129.6473 C539.4173,122.1783 540.5493,113.2363 541.1073,104.0013 L541.1403,103.4653 L547.3973,105.2713 L547.3463,105.6393 C546.6463,110.7703 545.7253,116.0153 544.6793,120.8463 L558.3933,120.8463 L558.3933,125.2023 L555.2163,125.2023 C554.7773,137.6583 552.9433,147.6353 549.6133,155.6803 C552.2503,160.9793 555.6203,165.3783 559.9123,169.1243 L560.1643,169.3443 L555.7753,178.0013 L555.3573,177.4913 Z" id="Fill-20" fill="#FFFFFF" mask="url(#mask-2)"></path>
            </g>
        </g>
    </g>
</svg>