<?xml version="1.0" encoding="UTF-8"?>
<svg width="1440px" height="730px" viewBox="0 0 1440 730" version="1.1" xmlns="http://www.w3.org/2000/svg" xmlns:xlink="http://www.w3.org/1999/xlink">
    <!-- Generator: Sketch 41.2 (35397) - http://www.bohemiancoding.com/sketch -->
    <title>Group 17 Copy</title>
    <desc>Created with Sketch.</desc>
    <defs></defs>
    <g id="Page-1" stroke="none" stroke-width="1" fill="none" fill-rule="evenodd">
        <g id="Group-17-Copy">
            <rect id="Rectangle-14-Copy-2" fill="#343434" x="0" y="0" width="1440" height="730"></rect>
            <path d="M298,91.1439985 L298,92.7759985 L322,92.7759985 L322,91.1439985 L298,91.1439985 Z M329.992,91.1439985 L329.992,92.7759985 L353.992,92.7759985 L353.992,91.1439985 L329.992,91.1439985 Z M361.984,91.1439985 L361.984,92.7759985 L385.984,92.7759985 L385.984,91.1439985 L361.984,91.1439985 Z M393.976,91.1439985 L393.976,92.7759985 L417.976,92.7759985 L417.976,91.1439985 L393.976,91.1439985 Z M425.968,91.1439985 L425.968,92.7759985 L449.968,92.7759985 L449.968,91.1439985 L425.968,91.1439985 Z M457.96,91.1439985 L457.96,92.7759985 L481.96,92.7759985 L481.96,91.1439985 L457.96,91.1439985 Z M489.952,91.1439985 L489.952,92.7759985 L513.952,92.7759985 L513.952,91.1439985 L489.952,91.1439985 Z M521.944,91.1439985 L521.944,92.7759985 L545.944,92.7759985 L545.944,91.1439985 L521.944,91.1439985 Z M553.936,91.1439985 L553.936,92.7759985 L577.936,92.7759985 L577.936,91.1439985 L553.936,91.1439985 Z M585.928,91.1439985 L585.928,92.7759985 L609.928,92.7759985 L609.928,91.1439985 L585.928,91.1439985 Z M617.92,91.1439985 L617.92,92.7759985 L641.92,92.7759985 L641.92,91.1439985 L617.92,91.1439985 Z M649.912,91.1439985 L649.912,92.7759985 L673.912,92.7759985 L673.912,91.1439985 L649.912,91.1439985 Z M681.904,91.1439985 L681.904,92.7759985 L705.904,92.7759985 L705.904,91.1439985 L681.904,91.1439985 Z M713.896,91.1439985 L713.896,92.7759985 L737.896,92.7759985 L737.896,91.1439985 L713.896,91.1439985 Z M745.888,91.1439985 L745.888,92.7759985 L769.888,92.7759985 L769.888,91.1439985 L745.888,91.1439985 Z M777.88,91.1439985 L777.88,92.7759985 L801.88,92.7759985 L801.88,91.1439985 L777.88,91.1439985 Z M809.872,91.1439985 L809.872,92.7759985 L833.872,92.7759985 L833.872,91.1439985 L809.872,91.1439985 Z M841.864,91.1439985 L841.864,92.7759985 L865.864,92.7759985 L865.864,91.1439985 L841.864,91.1439985 Z M873.856,91.1439985 L873.856,92.7759985 L897.856,92.7759985 L897.856,91.1439985 L873.856,91.1439985 Z M905.848,91.1439985 L905.848,92.7759985 L929.848,92.7759985 L929.848,91.1439985 L905.848,91.1439985 Z M937.84,91.1439985 L937.84,92.7759985 L961.84,92.7759985 L961.84,91.1439985 L937.84,91.1439985 Z M969.832,91.1439985 L969.832,92.7759985 L993.832,92.7759985 L993.832,91.1439985 L969.832,91.1439985 Z M1001.824,91.1439985 L1001.824,92.7759985 L1025.824,92.7759985 L1025.824,91.1439985 L1001.824,91.1439985 Z M1033.816,91.1439985 L1033.816,92.7759985 L1057.816,92.7759985 L1057.816,91.1439985 L1033.816,91.1439985 Z M1065.808,91.1439985 L1065.808,92.7759985 L1089.808,92.7759985 L1089.808,91.1439985 L1065.808,91.1439985 Z" id="—-—-—-—-—-—-—-—-—-—" fill="#BBBBBB"></path>
            <path d="M298,638.143998 L298,639.775998 L322,639.775998 L322,638.143998 L298,638.143998 Z M329.992,638.143998 L329.992,639.775998 L353.992,639.775998 L353.992,638.143998 L329.992,638.143998 Z M361.984,638.143998 L361.984,639.775998 L385.984,639.775998 L385.984,638.143998 L361.984,638.143998 Z M393.976,638.143998 L393.976,639.775998 L417.976,639.775998 L417.976,638.143998 L393.976,638.143998 Z M425.968,638.143998 L425.968,639.775998 L449.968,639.775998 L449.968,638.143998 L425.968,638.143998 Z M457.96,638.143998 L457.96,639.775998 L481.96,639.775998 L481.96,638.143998 L457.96,638.143998 Z M489.952,638.143998 L489.952,639.775998 L513.952,639.775998 L513.952,638.143998 L489.952,638.143998 Z M521.944,638.143998 L521.944,639.775998 L545.944,639.775998 L545.944,638.143998 L521.944,638.143998 Z M553.936,638.143998 L553.936,639.775998 L577.936,639.775998 L577.936,638.143998 L553.936,638.143998 Z M585.928,638.143998 L585.928,639.775998 L609.928,639.775998 L609.928,638.143998 L585.928,638.143998 Z M617.92,638.143998 L617.92,639.775998 L641.92,639.775998 L641.92,638.143998 L617.92,638.143998 Z M649.912,638.143998 L649.912,639.775998 L673.912,639.775998 L673.912,638.143998 L649.912,638.143998 Z M681.904,638.143998 L681.904,639.775998 L705.904,639.775998 L705.904,638.143998 L681.904,638.143998 Z M713.896,638.143998 L713.896,639.775998 L737.896,639.775998 L737.896,638.143998 L713.896,638.143998 Z M745.888,638.143998 L745.888,639.775998 L769.888,639.775998 L769.888,638.143998 L745.888,638.143998 Z M777.88,638.143998 L777.88,639.775998 L801.88,639.775998 L801.88,638.143998 L777.88,638.143998 Z M809.872,638.143998 L809.872,639.775998 L833.872,639.775998 L833.872,638.143998 L809.872,638.143998 Z M841.864,638.143998 L841.864,639.775998 L865.864,639.775998 L865.864,638.143998 L841.864,638.143998 Z M873.856,638.143998 L873.856,639.775998 L897.856,639.775998 L897.856,638.143998 L873.856,638.143998 Z M905.848,638.143998 L905.848,639.775998 L929.848,639.775998 L929.848,638.143998 L905.848,638.143998 Z M937.84,638.143998 L937.84,639.775998 L961.84,639.775998 L961.84,638.143998 L937.84,638.143998 Z M969.832,638.143998 L969.832,639.775998 L993.832,639.775998 L993.832,638.143998 L969.832,638.143998 Z M1001.824,638.143998 L1001.824,639.775998 L1025.824,639.775998 L1025.824,638.143998 L1001.824,638.143998 Z M1033.816,638.143998 L1033.816,639.775998 L1057.816,639.775998 L1057.816,638.143998 L1033.816,638.143998 Z M1065.808,638.143998 L1065.808,639.775998 L1089.808,639.775998 L1089.808,638.143998 L1065.808,638.143998 Z" id="—-—-—-—-—-—-—-—-—-—-copy" fill="#BBBBBB"></path>
            <g id="Group-4" transform="translate(399.000000, 344.000000)">
                <path d="M58.032,19.8559985 C56.16,19.8559985 54.696,20.4799985 53.592,21.7759985 C52.536,22.9999985 52.008,24.5359985 52.008,26.4079985 C52.008,28.2559985 52.536,29.7919985 53.592,30.9919985 C54.696,32.2879985 56.16,32.9359985 58.032,32.9359985 C59.88,32.9359985 61.368,32.2879985 62.496,30.9919985 C63.528,29.7919985 64.056,28.2559985 64.056,26.4079985 C64.056,24.5359985 63.528,22.9999985 62.472,21.7759985 C61.368,20.4799985 59.88,19.8559985 58.032,19.8559985 Z M58.032,21.4639985 C59.328,21.4639985 60.36,21.9679985 61.128,22.9759985 C61.776,23.8879985 62.112,25.0159985 62.112,26.4079985 C62.112,27.7519985 61.776,28.9039985 61.128,29.8159985 C60.36,30.8239985 59.328,31.3279985 58.032,31.3279985 C56.712,31.3279985 55.68,30.8239985 54.96,29.8159985 C54.288,28.9039985 53.976,27.7759985 53.976,26.4079985 C53.976,25.0159985 54.288,23.8879985 54.96,22.9759985 C55.68,21.9679985 56.712,21.4639985 58.032,21.4639985 Z M66.552,15.1279985 L66.552,32.5999985 L68.352,32.5999985 L68.352,30.5599985 C69.192,32.1439985 70.56,32.9359985 72.48,32.9359985 C74.28,32.9359985 75.696,32.2639985 76.728,30.9679985 C77.64,29.7679985 78.12,28.2319985 78.12,26.3599985 C78.12,24.5359985 77.64,23.0479985 76.728,21.8479985 C75.72,20.5039985 74.328,19.8559985 72.576,19.8559985 C70.8,19.8559985 69.432,20.7199985 68.472,22.4719985 L68.472,15.1279985 L66.552,15.1279985 Z M72.168,21.4399985 C73.512,21.4399985 74.52,21.9199985 75.216,22.8799985 C75.84,23.7199985 76.152,24.8719985 76.152,26.3599985 C76.152,27.8479985 75.84,29.0239985 75.264,29.8879985 C74.592,30.8479985 73.584,31.3519985 72.24,31.3519985 C70.992,31.3519985 70.008,30.8719985 69.336,29.9119985 C68.712,29.0479985 68.4,27.9199985 68.4,26.5279985 L68.4,26.2879985 C68.4,24.8479985 68.736,23.6719985 69.456,22.7839985 C70.128,21.8719985 71.04,21.4399985 72.168,21.4399985 Z M86.16,19.8559985 C84.288,19.8559985 82.824,20.4799985 81.72,21.7759985 C80.664,22.9999985 80.136,24.5359985 80.136,26.4079985 C80.136,28.2559985 80.664,29.7919985 81.72,30.9919985 C82.824,32.2879985 84.288,32.9359985 86.16,32.9359985 C88.008,32.9359985 89.496,32.2879985 90.624,30.9919985 C91.656,29.7919985 92.184,28.2559985 92.184,26.4079985 C92.184,24.5359985 91.656,22.9999985 90.6,21.7759985 C89.496,20.4799985 88.008,19.8559985 86.16,19.8559985 Z M86.16,21.4639985 C87.456,21.4639985 88.488,21.9679985 89.256,22.9759985 C89.904,23.8879985 90.24,25.0159985 90.24,26.4079985 C90.24,27.7519985 89.904,28.9039985 89.256,29.8159985 C88.488,30.8239985 87.456,31.3279985 86.16,31.3279985 C84.84,31.3279985 83.808,30.8239985 83.088,29.8159985 C82.416,28.9039985 82.104,27.7759985 82.104,26.4079985 C82.104,25.0159985 82.416,23.8879985 83.088,22.9759985 C83.808,21.9679985 84.84,21.4639985 86.16,21.4639985 Z M93.312,20.1919985 L97.992,32.5999985 L99.936,32.5999985 L104.64,20.1919985 L102.528,20.1919985 L98.976,30.1999985 L95.424,20.1919985 L93.312,20.1919985 Z M107.928,20.9119985 C107.496,20.9119985 107.16,21.0559985 106.896,21.3439985 C106.608,21.6319985 106.464,21.9679985 106.464,22.3759985 C106.464,22.7839985 106.608,23.1439985 106.896,23.4319985 C107.16,23.6959985 107.496,23.8399985 107.928,23.8399985 C108.312,23.8399985 108.672,23.6959985 108.96,23.4319985 C109.248,23.1439985 109.392,22.7839985 109.392,22.3759985 C109.392,21.9679985 109.248,21.6319985 108.96,21.3439985 C108.672,21.0559985 108.312,20.9119985 107.928,20.9119985 Z M107.928,29.6959985 C107.496,29.6959985 107.16,29.8399985 106.896,30.1279985 C106.608,30.4159985 106.464,30.7519985 106.464,31.1599985 C106.464,31.5679985 106.608,31.9279985 106.896,32.2159985 C107.16,32.4799985 107.496,32.6239985 107.928,32.6239985 C108.312,32.6239985 108.672,32.4799985 108.96,32.2159985 C109.248,31.9279985 109.392,31.5679985 109.392,31.1599985 C109.392,30.7519985 109.248,30.4159985 108.96,30.1279985 C108.672,29.8399985 108.312,29.6959985 107.928,29.6959985 Z M136.224,27.2959985 L135.072,28.4239985 C137.136,30.3919985 138.768,32.2639985 139.968,33.9919985 L141.216,32.7919985 C139.872,30.9439985 138.216,29.1199985 136.224,27.2959985 Z M126.192,27.4399985 C124.872,29.4559985 123.24,31.2079985 121.296,32.6959985 L122.328,34.0639985 C124.344,32.4799985 126.048,30.6319985 127.416,28.5199985 L126.192,27.4399985 Z M140.472,15.3919985 L132.216,15.3919985 C131.976,14.4799985 131.736,13.6639985 131.496,12.9439985 L129.768,13.2319985 C130.008,13.8799985 130.224,14.5999985 130.464,15.3919985 L121.824,15.3919985 L121.824,20.2879985 L123.504,20.2879985 L123.504,17.0239985 L138.768,17.0239985 L138.768,20.2159985 L140.472,20.2159985 L140.472,15.3919985 Z M124.68,19.9519985 L124.68,21.5839985 L137.688,21.5839985 L137.688,19.9519985 L124.68,19.9519985 Z M121.344,24.2239985 L121.344,25.8799985 L130.296,25.8799985 L130.296,34.6399985 L132.024,34.6399985 L132.024,25.8799985 L140.952,25.8799985 L140.952,24.2239985 L121.344,24.2239985 Z M145.56,15.3199985 L145.56,16.8559985 L148.704,16.8559985 L148.704,19.3039985 L144.432,19.3039985 L144.432,20.9119985 L150.24,20.9119985 C148.416,22.8319985 146.304,24.4399985 143.904,25.7599985 L144.984,26.9839985 C146.232,26.2879985 147.432,25.4719985 148.584,24.5599985 L152.52,24.5599985 C151.704,25.4239985 150.864,26.1679985 150,26.8159985 L150,28.5199985 C148.32,28.7119985 146.448,28.8799985 144.408,28.9759985 L144.648,30.6319985 C146.616,30.4639985 148.392,30.2719985 150,30.0799985 L150,32.1679985 C150,32.9359985 149.64,33.3199985 148.944,33.3199985 C148.416,33.3199985 147.72,33.2719985 146.808,33.1999985 L147.24,34.7599985 L149.616,34.7599985 C150.96,34.7599985 151.656,34.0399985 151.656,32.6239985 L151.656,29.8639985 C153.36,29.5999985 154.824,29.3119985 156.024,29.0239985 L156.024,27.3919985 C154.752,27.7279985 153.288,28.0399985 151.656,28.2799985 L151.656,27.1519985 C152.784,26.1919985 153.744,25.2319985 154.56,24.2719985 L154.56,23.0239985 L150.336,23.0239985 C151.008,22.3759985 151.656,21.6799985 152.304,20.9119985 L155.424,20.9119985 L155.424,19.3039985 L153.576,19.3039985 C154.56,17.9599985 155.472,16.4719985 156.336,14.8399985 L154.968,14.1439985 C154.008,16.0159985 152.904,17.7439985 151.656,19.3039985 L150.336,19.3039985 L150.336,16.8559985 L152.928,16.8559985 L152.928,15.3199985 L150.336,15.3199985 L150.336,13.1359985 L148.704,13.1359985 L148.704,15.3199985 L145.56,15.3199985 Z M158.904,18.3199985 L162.456,18.3199985 C162.36,21.5359985 161.736,24.3199985 160.584,26.7199985 C159.768,25.2559985 159.12,23.6719985 158.592,21.9919985 L157.272,22.7599985 C157.872,24.7759985 158.664,26.6719985 159.648,28.4239985 C158.352,30.4399985 156.576,32.0959985 154.368,33.3679985 L155.328,34.9279985 C157.488,33.6079985 159.24,31.9519985 160.608,29.9839985 C161.808,31.7839985 163.272,33.4159985 165,34.9039985 L166.176,33.5359985 C164.376,32.0239985 162.84,30.2959985 161.592,28.3759985 C163.104,25.5919985 163.92,22.2559985 164.064,18.3199985 L165.552,18.3199985 L165.552,16.6639985 L159.36,16.6639985 C159.648,15.6079985 159.888,14.4559985 160.08,13.2559985 L158.376,12.9679985 C157.776,17.1199985 156.624,20.4319985 154.92,22.8799985 L155.976,24.1519985 C157.176,22.5919985 158.136,20.6479985 158.904,18.3199985 Z M168.456,24.4399985 L168.456,25.9279985 L177.864,25.9279985 L177.024,27.7519985 L170.568,27.7519985 L170.568,35.0719985 L172.224,35.0719985 L172.224,29.2159985 L175.824,29.2159985 L175.824,34.8319985 L177.456,34.8319985 L177.456,29.2159985 L181.032,29.2159985 L181.032,34.8319985 L182.688,34.8319985 L182.688,29.2159985 L186.528,29.2159985 L186.528,32.6959985 C186.528,33.2719985 186.24,33.5599985 185.664,33.5599985 L183.984,33.4879985 L184.392,34.9759985 L186.144,34.9759985 C187.488,34.9759985 188.184,34.3279985 188.184,33.0559985 L188.184,27.7519985 L178.776,27.7519985 L179.616,25.9279985 L189.72,25.9279985 L189.72,24.4399985 L168.456,24.4399985 Z M169.92,13.8559985 L169.92,15.2719985 L178.248,15.2719985 L178.248,16.7839985 L168.936,16.7839985 L168.936,21.6799985 L170.592,21.6799985 L170.592,18.1519985 L178.248,18.1519985 L178.248,23.4079985 L179.928,23.4079985 L179.928,18.1519985 L187.584,18.1519985 L187.584,21.6799985 L189.24,21.6799985 L189.24,16.7839985 L179.928,16.7839985 L179.928,15.2719985 L188.28,15.2719985 L188.28,13.8559985 L169.92,13.8559985 Z M172.608,19.0159985 L172.032,20.1439985 C173.568,20.2879985 175.056,20.4799985 176.472,20.7439985 L176.928,19.6639985 C175.536,19.3759985 174.096,19.1599985 172.608,19.0159985 Z M176.52,21.6319985 C175.488,21.8239985 173.88,21.9679985 171.72,22.0639985 L172.104,23.2879985 C174.312,23.1439985 175.896,22.9759985 176.904,22.7359985 L176.52,21.6319985 Z M181.56,20.7439985 C183.288,20.5999985 184.8,20.4079985 186.096,20.1439985 L185.664,18.9679985 C184.392,19.2559985 182.952,19.4479985 181.32,19.5439985 L181.56,20.7439985 Z M181.776,21.6559985 L181.272,22.7119985 C182.856,22.9039985 184.392,23.1679985 185.88,23.5279985 L186.36,22.3519985 C184.92,22.0399985 183.384,21.7999985 181.776,21.6559985 Z M192.48,13.9519985 L192.48,15.5119985 L199.56,15.5119985 L199.56,17.6479985 L193.968,17.6479985 L193.968,23.6959985 L200.28,23.6959985 C199.896,24.3679985 199.488,25.0879985 199.056,25.8319985 L192.168,25.8319985 L192.168,27.4159985 L198.096,27.4159985 C197.568,28.2319985 197.04,29.0719985 196.464,29.9119985 C198.456,30.3679985 200.448,30.8959985 202.44,31.4959985 C200.28,32.3359985 197.04,33.0079985 192.768,33.5119985 L193.416,35.0479985 C198.6,34.3519985 202.344,33.3919985 204.624,32.1679985 C207.288,33.0319985 209.952,34.0159985 212.592,35.1439985 L213.672,33.7279985 C211.128,32.7199985 208.632,31.8559985 206.184,31.1119985 C207.456,30.0799985 208.344,28.8559985 208.824,27.4159985 L213.984,27.4159985 L213.984,25.8319985 L201,25.8319985 C201.384,25.1599985 201.792,24.4639985 202.224,23.6959985 L212.208,23.6959985 L212.208,17.6479985 L206.616,17.6479985 L206.616,15.5119985 L213.696,15.5119985 L213.696,13.9519985 L192.48,13.9519985 Z M204.336,30.5599985 C202.488,30.0319985 200.688,29.5759985 198.912,29.1919985 C199.272,28.6639985 199.656,28.0639985 200.064,27.4159985 L207.072,27.4159985 C206.592,28.6639985 205.68,29.7199985 204.336,30.5599985 Z M204.96,17.6479985 L201.216,17.6479985 L201.216,15.5119985 L204.96,15.5119985 L204.96,17.6479985 Z M210.552,22.2079985 L206.616,22.2079985 L206.616,19.1599985 L210.552,19.1599985 L210.552,22.2079985 Z M204.96,22.2079985 L201.216,22.2079985 L201.216,19.1599985 L204.96,19.1599985 L204.96,22.2079985 Z M199.56,22.2079985 L195.624,22.2079985 L195.624,19.1599985 L199.56,19.1599985 L199.56,22.2079985 Z M224.784,17.1439985 L220.92,17.1439985 C221.4,15.9439985 221.76,14.6239985 222.048,13.2079985 L220.32,12.9679985 C220.104,14.4079985 219.768,15.7999985 219.288,17.1439985 L217.056,17.1439985 L217.056,34.2079985 L218.736,34.2079985 L218.736,32.1439985 L223.104,32.1439985 L223.104,33.5119985 L224.784,33.5119985 L224.784,17.1439985 Z M218.736,30.5359985 L218.736,25.2799985 L223.104,25.2799985 L223.104,30.5359985 L218.736,30.5359985 Z M218.736,23.7199985 L218.736,18.7759985 L223.104,18.7759985 L223.104,23.7199985 L218.736,23.7199985 Z M228.96,22.7119985 L227.568,23.5759985 C229.224,25.5439985 230.544,27.3199985 231.528,28.9039985 L232.896,27.9439985 C231.984,26.4559985 230.688,24.7039985 228.96,22.7119985 Z M237.192,17.1679985 L229.536,17.1679985 C229.968,15.9199985 230.304,14.5759985 230.592,13.1599985 L228.888,12.9439985 C228.264,16.3519985 227.136,19.2319985 225.456,21.5839985 L226.488,22.9519985 C227.424,21.7279985 228.216,20.3599985 228.888,18.8479985 L235.488,18.8479985 C235.44,25.7599985 235.344,29.9119985 235.2,31.2559985 C235.008,32.4799985 234.36,33.1039985 233.232,33.1039985 C232.488,33.1039985 231.624,33.0799985 230.616,33.0319985 L231.024,34.6159985 C232.176,34.6639985 232.992,34.7119985 233.472,34.7119985 C235.488,34.7119985 236.592,33.7759985 236.832,31.9519985 C237.072,30.0799985 237.192,25.1359985 237.192,17.1679985 Z M240.816,14.2639985 L240.816,15.9439985 L251.568,15.9439985 C249.432,20.3839985 245.64,24.1519985 240.168,27.2719985 L241.296,28.7599985 C244.968,26.5999985 247.944,24.1039985 250.2,21.3199985 L250.2,35.0479985 L251.976,35.0479985 L251.976,21.7519985 C255.48,23.9359985 258.384,26.2639985 260.736,28.7599985 L261.912,27.3439985 C259.128,24.6559985 255.816,22.1839985 251.976,19.9279985 L251.976,18.8239985 C252.552,17.8879985 253.056,16.9279985 253.488,15.9439985 L261.36,15.9439985 L261.36,14.2639985 L240.816,14.2639985 Z M267.888,13.8079985 L267.888,22.1359985 L282.48,22.1359985 L282.48,13.8079985 L267.888,13.8079985 Z M280.776,20.6719985 L269.592,20.6719985 L269.592,18.7039985 L280.776,18.7039985 L280.776,20.6719985 Z M269.592,17.2879985 L269.592,15.2959985 L280.776,15.2959985 L280.776,17.2879985 L269.592,17.2879985 Z M274.488,25.4959985 L274.488,32.6719985 C273.984,32.5759985 273.552,32.4559985 273.168,32.3359985 C271.92,31.8799985 270.768,30.8239985 269.76,29.1439985 C270.072,28.3519985 270.336,27.5119985 270.576,26.6239985 L268.944,26.3359985 C268.152,29.3359985 266.64,31.7359985 264.432,33.5119985 L265.56,34.9279985 C267,33.7519985 268.2,32.2879985 269.136,30.5119985 C270.096,32.0959985 271.2,33.1519985 272.424,33.7039985 C273.84,34.3039985 276.528,34.6159985 280.488,34.6159985 C281.856,34.6399985 283.392,34.6639985 285.12,34.6639985 L285.6,33.0319985 C284.184,33.0799985 282.432,33.1039985 280.368,33.1039985 C278.784,33.1039985 277.392,33.0319985 276.24,32.9359985 L276.24,29.7439985 L283.152,29.7439985 L283.152,28.2079985 L276.24,28.2079985 L276.24,25.4959985 L285.72,25.4959985 L285.72,23.9119985 L264.48,23.9119985 L264.48,25.4959985 L274.488,25.4959985 Z M292.056,20.1199985 L292.056,21.7519985 L298.344,21.7519985 L298.344,32.2159985 C298.104,32.1679985 297.864,32.0959985 297.648,32.0239985 C295.92,31.4719985 294.48,30.1759985 293.328,28.1119985 C293.76,26.8639985 294.144,25.4959985 294.432,24.0079985 L292.752,23.7199985 C291.936,27.8479985 290.4,31.1359985 288.096,33.5839985 L289.2,34.9519985 C290.568,33.5599985 291.72,31.8319985 292.656,29.7679985 C293.64,31.3279985 294.936,32.4799985 296.52,33.2239985 C298.632,34.1119985 302.088,34.5679985 306.936,34.5679985 L309.624,34.5679985 L309.936,32.8399985 C308.64,32.9359985 307.392,32.9839985 306.168,32.9839985 C303.768,32.9599985 301.752,32.8159985 300.072,32.5759985 L300.072,27.6079985 L307.224,27.6079985 L307.224,25.9759985 L300.072,25.9759985 L300.072,21.7519985 L306.168,21.7519985 L306.168,20.1199985 L292.056,20.1199985 Z M308.904,15.4399985 L300.192,15.4399985 C299.856,14.4559985 299.472,13.5679985 299.088,12.7759985 L297.24,13.0639985 C297.672,13.7839985 298.08,14.5759985 298.44,15.4399985 L289.272,15.4399985 L289.272,20.6719985 L290.952,20.6719985 L290.952,17.0239985 L307.224,17.0239985 L307.224,20.5519985 L308.904,20.5519985 L308.904,15.4399985 Z M313.344,14.9359985 L313.344,16.3279985 L322.176,16.3279985 L322.176,17.7439985 L314.472,17.7439985 L314.472,19.1119985 L322.176,19.1119985 L322.176,20.6479985 L312.672,20.6479985 L312.672,22.0399985 L333.552,22.0399985 L333.552,20.6479985 L323.856,20.6479985 L323.856,19.1119985 L331.896,19.1119985 L331.896,17.7439985 L323.856,17.7439985 L323.856,16.3279985 L332.736,16.3279985 L332.736,14.9359985 L327.216,14.9359985 C327.576,14.5039985 327.912,14.0239985 328.224,13.4959985 L326.568,12.9199985 C326.208,13.6399985 325.8,14.3119985 325.32,14.9359985 L320.592,14.9359985 C320.232,14.1199985 319.848,13.4239985 319.44,12.8479985 L317.832,13.4479985 C318.192,13.9039985 318.504,14.4079985 318.792,14.9359985 L313.344,14.9359985 Z M312.672,26.1199985 L312.672,27.5599985 L317.664,27.5599985 L317.664,29.6479985 C316.176,29.8159985 314.568,29.9599985 312.792,30.0559985 L313.032,31.6639985 C314.712,31.4959985 316.272,31.3279985 317.664,31.1359985 L317.664,32.3599985 C317.664,33.1039985 317.304,33.4879985 316.632,33.4879985 C316.008,33.4879985 315.336,33.4399985 314.64,33.3679985 L314.976,34.9279985 L317.184,34.9279985 C318.624,34.9279985 319.368,34.2079985 319.368,32.7919985 L319.368,30.8719985 C320.88,30.6079985 322.152,30.3199985 323.208,30.0079985 L323.208,28.5679985 C322.08,28.8799985 320.808,29.1679985 319.368,29.4079985 L319.368,27.5599985 L325.248,27.5599985 C325.488,28.7119985 325.776,29.6239985 326.088,30.3439985 C326.208,30.6079985 326.328,30.8719985 326.472,31.1359985 C324.984,32.0239985 323.28,32.7439985 321.336,33.3199985 L322.008,34.7839985 C323.952,34.1839985 325.704,33.4159985 327.264,32.5039985 C327.552,32.9599985 327.888,33.3439985 328.248,33.6799985 C329.016,34.4239985 329.76,34.8079985 330.48,34.8079985 C331.8,34.8079985 332.952,33.7039985 333.96,31.5439985 L332.592,30.6799985 C331.872,32.2639985 331.104,33.0799985 330.312,33.1279985 C329.928,33.1279985 329.424,32.7919985 328.848,32.1679985 C328.728,32.0239985 328.608,31.8799985 328.512,31.6879985 C329.856,30.7279985 331.008,29.5759985 331.992,28.2799985 L331.032,27.5599985 L333.336,27.5599985 L333.336,26.1199985 L326.616,26.1199985 C326.448,25.1119985 326.304,23.9599985 326.16,22.6639985 L324.456,22.8559985 C324.6,24.0319985 324.768,25.1119985 324.96,26.1199985 L319.368,26.1199985 L319.368,24.6319985 C320.568,24.4879985 321.648,24.3199985 322.608,24.1039985 L321.864,22.8319985 C319.752,23.2639985 317.088,23.4799985 313.872,23.4799985 L314.328,24.8479985 C315.528,24.8479985 316.632,24.7999985 317.664,24.7519985 L317.664,26.1199985 L312.672,26.1199985 Z M327.744,30.2719985 C327.6,29.9599985 327.48,29.6239985 327.336,29.2399985 C327.168,28.7599985 327.024,28.2079985 326.904,27.5599985 L330.576,27.5599985 C329.784,28.5439985 328.848,29.4559985 327.744,30.2719985 Z M328.8,22.4239985 L327.744,23.4319985 C329.376,24.2479985 330.672,25.0399985 331.608,25.7839985 L332.688,24.7039985 C331.632,23.9359985 330.336,23.1919985 328.8,22.4239985 Z M352.368,14.5519985 L352.368,16.2079985 L361.92,16.2079985 C361.656,17.4319985 361.272,18.6079985 360.744,19.7119985 L354.048,19.7119985 L354.048,34.8559985 L355.8,34.8559985 L355.8,21.3679985 L359.448,21.3679985 L359.448,34.1359985 L361.128,34.1359985 L361.128,21.3679985 L364.968,21.3679985 L364.968,34.1359985 L366.648,34.1359985 L366.648,21.3679985 L370.68,21.3679985 L370.68,31.9519985 C370.68,32.7439985 370.344,33.1519985 369.672,33.1519985 L367.584,33.0799985 L368.064,34.8319985 L370.272,34.8319985 C371.688,34.8319985 372.408,33.9919985 372.408,32.3359985 L372.408,19.7119985 L362.784,19.7119985 C363.288,18.6079985 363.672,17.4319985 363.96,16.2079985 L373.776,16.2079985 L373.776,14.5519985 L352.368,14.5519985 Z M379.872,13.8079985 L379.872,22.1359985 L394.464,22.1359985 L394.464,13.8079985 L379.872,13.8079985 Z M392.76,20.6719985 L381.576,20.6719985 L381.576,18.7039985 L392.76,18.7039985 L392.76,20.6719985 Z M381.576,17.2879985 L381.576,15.2959985 L392.76,15.2959985 L392.76,17.2879985 L381.576,17.2879985 Z M386.472,25.4959985 L386.472,32.6719985 C385.968,32.5759985 385.536,32.4559985 385.152,32.3359985 C383.904,31.8799985 382.752,30.8239985 381.744,29.1439985 C382.056,28.3519985 382.32,27.5119985 382.56,26.6239985 L380.928,26.3359985 C380.136,29.3359985 378.624,31.7359985 376.416,33.5119985 L377.544,34.9279985 C378.984,33.7519985 380.184,32.2879985 381.12,30.5119985 C382.08,32.0959985 383.184,33.1519985 384.408,33.7039985 C385.824,34.3039985 388.512,34.6159985 392.472,34.6159985 C393.84,34.6399985 395.376,34.6639985 397.104,34.6639985 L397.584,33.0319985 C396.168,33.0799985 394.416,33.1039985 392.352,33.1039985 C390.768,33.1039985 389.376,33.0319985 388.224,32.9359985 L388.224,29.7439985 L395.136,29.7439985 L395.136,28.2079985 L388.224,28.2079985 L388.224,25.4959985 L397.704,25.4959985 L397.704,23.9119985 L376.464,23.9119985 L376.464,25.4959985 L386.472,25.4959985 Z M405.024,18.5599985 L405.024,19.9999985 L413.112,19.9999985 L413.112,18.5599985 L405.024,18.5599985 Z M405.48,21.5839985 L405.48,26.5999985 L412.56,26.5999985 L412.56,21.5839985 L405.48,21.5839985 Z M411,25.3039985 L407.064,25.3039985 L407.064,22.8799985 L411,22.8799985 L411,25.3039985 Z M421.392,15.1039985 L419.76,15.1039985 C419.448,14.2879985 419.136,13.5679985 418.8,12.9679985 L417.432,13.4719985 C417.768,13.9759985 418.056,14.5279985 418.296,15.1039985 L416.232,15.1039985 C416.208,14.4319985 416.208,13.7119985 416.208,12.9919985 L414.6,12.9919985 C414.6,13.7119985 414.6,14.4079985 414.624,15.1039985 L402.192,15.1039985 L402.192,21.1999985 C402.12,26.5519985 401.352,30.7279985 399.888,33.7279985 L401.136,34.8559985 C402.864,31.4239985 403.752,26.8639985 403.848,21.1999985 L403.848,16.6879985 L414.648,16.6879985 C414.744,20.1199985 414.984,22.9999985 415.392,25.3039985 C414.432,26.3599985 413.352,27.2719985 412.2,27.9919985 L413.04,29.3839985 C414.048,28.6159985 414.96,27.8719985 415.776,27.1039985 C416.304,29.4319985 416.976,31.2559985 417.768,32.5759985 C418.656,34.0159985 419.496,34.7359985 420.288,34.7359985 C421.128,34.7359985 421.776,33.0799985 422.232,29.7679985 L420.888,29.0239985 C420.624,31.5679985 420.336,32.8639985 420.024,32.8639985 C419.688,32.8639985 419.208,32.2879985 418.632,31.1359985 C418.032,29.9119985 417.504,28.1119985 417.072,25.7599985 L417.504,25.2319985 C418.56,23.9359985 419.616,22.2799985 420.648,20.2399985 L419.232,19.3999985 C418.488,20.9839985 417.648,22.3999985 416.736,23.6479985 C416.496,21.8239985 416.352,19.4959985 416.28,16.6879985 L421.392,16.6879985 L421.392,15.1039985 Z M404.496,28.9039985 C404.208,30.5599985 403.776,32.0719985 403.2,33.4639985 L404.304,34.1839985 C404.88,32.7679985 405.312,31.0879985 405.624,29.1439985 L404.496,28.9039985 Z M410.832,34.6159985 C411.552,34.6159985 412.104,34.4719985 412.464,34.2079985 C412.848,33.8239985 413.112,32.8639985 413.256,31.2799985 L411.936,30.8479985 C411.864,31.9999985 411.72,32.7199985 411.48,32.9599985 C411.288,33.1519985 411,33.2479985 410.592,33.2479985 L408.624,33.2479985 C408.24,33.2479985 408.048,33.0079985 408.048,32.5519985 L408.048,28.3999985 L406.584,28.3999985 L406.584,32.8399985 C406.584,34.0159985 407.112,34.6159985 408.192,34.6159985 L410.832,34.6159985 Z M414.6,29.5519985 L413.568,30.2239985 C414.432,31.5199985 415.104,32.7199985 415.632,33.8239985 L416.664,33.1039985 C416.184,32.0959985 415.488,30.8959985 414.6,29.5519985 Z M409.848,27.3679985 L408.84,27.9919985 C409.704,29.0479985 410.376,30.0079985 410.856,30.8959985 L411.888,30.1759985 C411.408,29.3599985 410.736,28.4239985 409.848,27.3679985 Z M443.64,13.1839985 C438.816,13.8559985 432.744,14.1919985 425.424,14.1919985 L425.928,15.7519985 C433.632,15.7519985 439.824,15.3679985 444.48,14.6479985 L443.64,13.1839985 Z M445.104,20.3839985 L440.544,20.3839985 C441.336,19.3519985 442.104,18.0799985 442.872,16.5439985 L441.144,15.8959985 C440.472,17.4799985 439.656,18.9919985 438.696,20.3839985 L425.04,20.3839985 L425.04,25.8559985 L426.72,25.8559985 L426.72,22.0159985 L443.424,22.0159985 L443.424,25.8559985 L445.104,25.8559985 L445.104,20.3839985 Z M428.424,16.3519985 L426.912,17.1199985 C427.752,18.0559985 428.544,19.1359985 429.288,20.3359985 L430.776,19.5919985 C430.056,18.4159985 429.264,17.3359985 428.424,16.3519985 Z M434.136,16.0879985 L432.576,16.8319985 C433.392,17.7919985 434.136,18.8959985 434.856,20.1439985 L436.392,19.3519985 C435.672,18.1519985 434.904,17.0719985 434.136,16.0879985 Z M427.968,24.3679985 L427.968,25.9519985 L428.928,25.9519985 C429.864,27.7999985 431.424,29.4319985 433.608,30.8239985 C431.136,31.9039985 428.088,32.7679985 424.464,33.4399985 L425.376,35.0719985 C429.336,34.2559985 432.648,33.1759985 435.336,31.8319985 C437.832,33.1279985 440.976,34.2079985 444.768,35.0479985 L445.776,33.5119985 C442.344,32.8159985 439.44,31.9279985 437.064,30.8479985 C439.32,29.4559985 440.976,27.7759985 442.032,25.8559985 L442.032,24.3679985 L427.968,24.3679985 Z M430.704,25.9519985 L440.112,25.9519985 C439.008,27.4879985 437.424,28.8319985 435.312,29.9839985 C433.224,28.8319985 431.688,27.4879985 430.704,25.9519985 Z" id="obov:-宗教需要的不是定義-而是感受" fill="#FFFF66"></path>
                <text id="→" font-family="AppleSymbols, Apple Symbols" font-size="49" font-weight="normal" line-spacing="37.5999985" fill="#FF001F">
                    <tspan x="0" y="33">→</tspan>
                </text>
            </g>
        </g>
    </g>
</svg>