<?xml version="1.0" encoding="UTF-8"?>
<svg width="1440px" height="730px" viewBox="0 0 1440 730" version="1.1" xmlns="http://www.w3.org/2000/svg" xmlns:xlink="http://www.w3.org/1999/xlink">
    <!-- Generator: Sketch 41.2 (35397) - http://www.bohemiancoding.com/sketch -->
    <title>Group 28</title>
    <desc>Created with Sketch.</desc>
    <defs></defs>
    <g id="Page-1" stroke="none" stroke-width="1" fill="none" fill-rule="evenodd">
        <g id="Group-28">
            <rect id="Rectangle-14-Copy-9" fill="#FFBEBE" x="0" y="0" width="1440" height="730"></rect>
            <path d="M518.932,150.524 L513.316,150.524 L513.316,133.364 L517.424,133.364 L517.424,131.024 L493.816,131.024 L493.816,133.364 L497.196,133.364 L497.196,150.524 L492.152,150.524 L492.152,152.864 L497.144,152.864 C496.884,163.576 495.064,169.504 488.2,175.12 L489.24,176.68 C497.872,171.532 501.148,166.644 501.616,152.864 L508.74,152.864 L508.74,176.108 L513.316,176.108 L513.316,152.864 L518.932,152.864 L518.932,150.524 Z M491.164,170.18 L491.164,146.468 L481.544,146.468 C482.636,142.984 483.416,139.136 483.676,135.028 L492.516,135.028 L492.516,132.584 L473.432,132.584 L473.432,135.028 L479.204,135.028 C478.736,145.272 475.876,154.58 472.288,159.468 L473.692,160.664 C475.044,159.26 476.344,157.544 477.592,155.464 L477.592,172.156 L481.856,172.156 L481.856,167.008 L486.9,167.008 L486.9,170.18 L491.164,170.18 Z M501.668,150.524 L501.668,133.364 L508.74,133.364 L508.74,150.524 L501.668,150.524 Z M481.856,164.772 L481.856,148.704 L486.9,148.704 L486.9,164.772 L481.856,164.772 Z M525.536,150.108 L526.004,151.928 C535.052,150.836 544.516,146.884 545.348,137.212 L550.34,137.212 L550.34,145.168 C550.34,149.224 551.588,149.9 558.452,149.9 C564.12,149.9 566.512,149.432 568.904,147.352 L566.356,144.076 C564.432,145.688 562.768,146.052 559.336,146.052 C554.812,146.052 554.812,145.688 554.812,143.92 L554.812,137.212 L564.588,137.212 L564.588,143.192 L569.164,143.192 L569.164,134.872 L550.652,134.872 L552.784,131.336 C550.184,129.828 544.88,128.112 542.124,127.488 L541.344,129.204 C543.476,130.608 546.856,133.104 549.092,134.872 L526.888,134.872 L526.888,144.336 L531.464,144.336 L531.464,137.212 L540.564,137.212 C539.42,145.428 533.024,148.184 525.536,150.108 Z M570.1,160.3 L568.228,160.248 C568.176,169.296 567.656,170.284 563.652,170.284 C559.596,170.284 558.712,169.92 558.712,167.528 L558.712,154.892 L546.284,154.892 C546.544,152.76 546.648,150.42 546.648,147.82 L541.5,147.612 C541.5,150.264 541.396,152.708 541.24,154.892 L529.488,154.892 L529.488,157.232 L541.032,157.232 C539.732,168.88 532.348,172.468 524.6,175.068 L525.224,176.888 C535.416,174.704 543.632,170.7 545.972,157.232 L553.928,157.232 L553.928,167.632 C553.928,173.768 555.54,174.496 563.912,174.496 C572.7,174.496 572.232,170.596 570.1,160.3 Z M603.432,161.704 C608.424,155.932 611.596,148.808 613.572,140.592 L622.412,140.592 L622.412,137.992 L602.028,137.992 L605.2,135.444 C601.872,132.116 597.816,128.944 594.644,127.228 L593.448,128.632 C595.424,131.024 598.18,134.924 600.104,137.992 L577.848,137.992 L577.848,140.592 L588.924,140.592 C590.484,149.328 593.5,156.4 597.816,161.964 C592.824,167.58 586.116,171.896 577.224,174.548 L577.796,176.316 C587.468,173.924 594.8,170.076 600.364,164.928 C605.512,170.284 612.168,173.976 620.176,176.264 L623.14,169.972 C615.08,168.152 608.58,165.812 603.432,161.704 Z M590.9,140.592 L608.112,140.592 C606.604,147.456 604.108,153.644 600.312,158.844 C596.256,154.528 593.188,148.704 590.9,140.592 Z M655.796,141.476 L673.944,141.476 L673.944,138.616 L654.288,138.616 L654.288,128.06 L649.296,128.06 L649.296,138.616 L630.264,138.616 L630.264,141.476 L644.98,141.476 C641.6,151.72 636.764,159.52 628.392,166.748 L629.484,168.36 C639.728,161.964 646.748,151.616 649.296,143.296 L649.296,161.444 L639.364,161.444 L639.364,163.784 L649.296,163.784 L649.296,176.42 L654.288,176.42 L654.288,163.784 L664.48,163.784 L664.48,161.444 L654.288,161.444 L654.288,143.296 C658.552,157.336 668.588,165.344 671.864,167.372 L675.66,161.964 C667.86,157.908 660.476,151.356 655.796,141.476 Z M704.468,147.56 C706.652,147.56 708.472,145.792 708.472,143.556 C708.472,141.372 706.652,139.552 704.468,139.552 C702.232,139.552 700.412,141.372 700.412,143.556 C700.412,145.792 702.232,147.56 704.468,147.56 Z M704.468,166.384 C706.652,166.384 708.472,164.564 708.472,162.38 C708.472,160.144 706.652,158.376 704.468,158.376 C702.232,158.376 700.412,160.144 700.412,162.38 C700.412,164.564 702.232,166.384 704.468,166.384 Z" id="研究文本：-copy" fill="#000000"></path>
            <path d="M504.424,395.036 L493.192,395.036 L493.192,397.896 L502.448,397.896 C503.592,404.656 506.088,409.96 509.832,413.86 L481.492,413.86 C486.848,408.66 489.344,402.888 491.112,397.792 L485.964,395.92 C483.572,404.864 480.296,411.728 472.444,418.176 L473.484,419.736 C476.084,418.28 478.268,416.72 480.14,415.056 L480.14,416.72 L489.084,416.72 C488.2,423.532 486.016,433.984 473.9,440.172 L474.732,441.94 C489.864,436.896 493.088,424.676 494.076,416.72 L504.684,416.72 C504.32,425.924 503.852,430.656 503.28,433.308 C502.604,436.48 501.044,437.156 492.36,434.712 L491.736,436.48 C501.512,442.772 506.608,440.484 507.752,436.064 C508.584,432.84 509.156,427.276 509.936,413.964 C511.808,415.94 514.044,417.552 516.592,418.852 L520.128,412.976 C509.676,408.972 505.828,402.784 504.424,395.036 Z M551.484,410.22 L551.484,400.808 C556.268,400.496 563.34,399.456 568.904,397.428 L564.224,393.268 C560.948,395.868 556.58,397.844 551.484,398.832 L551.484,398.78 L546.7,397.636 L546.7,413.548 C546.44,428.524 543.476,435.648 539.94,440.38 L541.344,441.628 C548.208,435.284 551.484,425.508 551.484,412.82 L551.484,412.56 L558.504,412.56 L558.504,441.472 L563.08,441.472 L563.08,412.56 L570.932,412.56 L570.932,410.22 L551.484,410.22 Z M542.228,420.152 L545.66,417.188 C543.58,414.276 540.72,412.092 538.224,410.376 L538.224,406.58 L544.984,406.58 L544.984,404.188 L538.224,404.188 L538.224,393.372 L533.752,393.372 L533.752,404.188 L526.004,404.188 L526.004,406.528 L532.92,406.528 C531.412,415.004 527.98,422.804 524.548,428.056 L525.9,429.252 C528.968,425.82 532.14,420.464 533.752,416.2 L533.752,441.42 L538.224,441.42 L538.224,413.392 C539.628,415.472 541.136,417.916 542.228,420.152 Z M604.992,406.632 C607.176,404.864 609.776,402.368 611.44,400.028 L606.24,397.168 L604.784,398.208 L595.892,398.208 C596.828,396.96 597.66,395.608 598.492,394.204 L592.824,392.54 C590.12,398.936 584.712,406.164 577.484,410.532 L578.472,412.144 C580.604,411.156 582.788,409.96 584.92,408.556 L584.92,418.228 C584.92,427.536 583.984,435.18 578.368,440.484 L579.564,441.888 C585.388,437.832 587.936,432.632 588.924,426.652 L614.82,426.652 L614.82,434.14 C614.82,437.156 614.196,437.988 605.772,435.908 L605.2,437.676 C615.08,443.5 619.396,441.212 619.396,435.908 L619.396,406.632 L604.992,406.632 Z M594.02,400.548 L604.784,400.548 C604.108,402.264 602.86,404.656 601.612,406.632 L587.624,406.632 C589.912,404.916 592.044,402.888 594.02,400.548 Z M599.74,415.212 L589.496,415.212 L589.496,408.972 L599.74,408.972 L599.74,415.212 Z M614.82,415.212 L604.212,415.212 L604.212,408.972 L614.82,408.972 L614.82,415.212 Z M599.74,424.312 L589.236,424.312 C589.444,422.284 589.496,420.204 589.496,418.072 L589.496,417.552 L599.74,417.552 L599.74,424.312 Z M604.212,424.312 L604.212,417.552 L614.82,417.552 L614.82,424.312 L604.212,424.312 Z M637.96,409.388 L645.968,409.388 L645.968,417.552 L664.844,417.552 L664.844,409.388 L673.268,409.388 L673.268,407.048 L664.844,407.048 L664.844,402.368 L660.476,402.368 L660.476,407.048 L650.336,407.048 L650.336,402.368 L645.968,402.368 L645.968,407.048 L637.96,407.048 L637.96,401.12 L673.32,401.12 L673.32,398.78 L657.148,398.78 L658.708,395.608 C655.068,393.996 650.648,393.008 646.956,392.54 L646.488,394.412 C649.036,395.66 651.74,397.064 654.444,398.78 L633.072,398.78 L633.072,411.156 C633.072,428.576 632.136,434.868 628.652,440.64 L630.108,441.836 C635.36,436.012 637.96,428.888 637.96,410.116 L637.96,409.388 Z M650.336,409.388 L660.476,409.388 L660.476,415.212 L650.336,415.212 L650.336,409.388 Z M674.048,435.648 C668.848,435.024 664.272,434.348 660.164,432.892 C663.96,430.084 666.976,426.496 669.316,421.972 L664.584,419.528 L663.336,420.308 L640.716,420.308 L640.716,422.648 L645.24,422.648 C647.32,427.276 649.972,430.656 653.04,433.152 C648.828,435.7 643.368,437.78 636.244,439.184 L636.764,440.952 C644.408,440.068 650.908,438.3 656.212,435.44 C660.84,438.248 666.04,439.704 671.136,440.848 L674.048,435.648 Z M647.32,422.648 L663.128,422.648 C661.516,425.768 659.28,428.576 656.108,431.072 C652.832,429.2 649.92,426.548 647.32,422.648 Z M704.468,412.56 C706.652,412.56 708.472,410.792 708.472,408.556 C708.472,406.372 706.652,404.552 704.468,404.552 C702.232,404.552 700.412,406.372 700.412,408.556 C700.412,410.792 702.232,412.56 704.468,412.56 Z M704.468,431.384 C706.652,431.384 708.472,429.564 708.472,427.38 C708.472,425.144 706.652,423.376 704.468,423.376 C702.232,423.376 700.412,425.144 700.412,427.38 C700.412,429.564 702.232,431.384 704.468,431.384 Z" id="分析角度：-copy" fill="#000000"></path>
            <path d="M471.32,210.263998 L471.32,211.967998 L480.488,211.967998 L480.488,231.047998 L482.24,231.047998 L482.24,217.415998 C484.4,218.567998 487.088,220.199998 490.28,222.311998 L491.312,220.775998 C488.24,218.807998 485.216,217.079998 482.24,215.591998 L482.24,211.967998 L492.656,211.967998 L492.656,210.263998 L471.32,210.263998 Z M496.784,210.479998 L496.784,211.871998 L501.128,211.871998 L501.128,213.551998 L495.272,213.551998 L495.272,214.991998 L509.072,214.991998 C509.216,217.775998 509.48,220.151998 509.888,222.071998 C510.128,223.271998 510.392,224.375998 510.728,225.383998 C509.912,226.631998 509,227.663998 507.968,228.479998 L507.968,227.255998 L502.712,227.255998 L502.712,225.959998 L507.152,225.959998 L507.152,219.167998 L502.712,219.167998 L502.712,217.919998 L508.016,217.919998 L508.016,216.623998 L502.712,216.623998 L502.712,215.495998 L501.128,215.495998 L501.128,216.623998 L495.824,216.623998 L495.824,217.919998 L501.128,217.919998 L501.128,219.167998 L496.76,219.167998 L496.76,225.959998 L501.128,225.959998 L501.128,227.255998 L495.512,227.255998 L495.512,228.671998 L501.128,228.671998 L501.128,230.903998 L502.712,230.903998 L502.712,228.671998 L507.704,228.671998 L507.272,228.959998 L508.16,230.327998 C509.36,229.583998 510.44,228.551998 511.424,227.255998 C511.664,227.783998 511.904,228.287998 512.192,228.719998 C513.128,230.183998 513.992,230.927998 514.808,230.927998 C515.768,230.927998 516.488,229.199998 517.016,225.791998 L515.6,225.023998 C515.264,227.663998 514.928,229.007998 514.544,229.007998 C514.16,229.007998 513.68,228.407998 513.08,227.255998 C512.84,226.823998 512.624,226.295998 512.432,225.695998 C513.68,223.487998 514.688,220.631998 515.456,217.175998 L513.992,216.527998 C513.44,219.215998 512.696,221.543998 511.784,223.487998 C511.64,222.911998 511.496,222.311998 511.376,221.639998 C511.064,219.983998 510.848,217.775998 510.728,214.991998 L516.704,214.991998 L516.704,213.551998 L510.656,213.551998 C510.608,212.159998 510.56,210.671998 510.56,209.039998 L508.928,209.039998 C508.928,210.623998 508.952,212.111998 509,213.551998 L502.808,213.551998 L502.808,211.871998 L507.032,211.871998 L507.032,210.479998 L502.808,210.479998 L502.808,209.015998 L501.128,209.015998 L501.128,210.479998 L496.784,210.479998 Z M513.056,209.183998 L511.808,209.975998 C512.912,211.151998 513.776,212.231998 514.4,213.215998 L515.648,212.327998 C515.048,211.415998 514.184,210.383998 513.056,209.183998 Z M505.664,224.711998 L502.64,224.711998 L502.64,223.079998 L505.664,223.079998 L505.664,224.711998 Z M501.248,224.711998 L498.248,224.711998 L498.248,223.079998 L501.248,223.079998 L501.248,224.711998 Z M498.248,221.951998 L498.248,220.391998 L501.248,220.391998 L501.248,221.951998 L498.248,221.951998 Z M502.64,220.391998 L505.664,220.391998 L505.664,221.951998 L502.64,221.951998 L502.64,220.391998 Z M527.72,211.463998 L527.72,228.599998 L529.688,228.599998 L529.688,221.591998 L534.704,221.591998 C538.64,221.591998 540.632,219.887998 540.632,216.503998 C540.632,213.143998 538.664,211.463998 534.728,211.463998 L527.72,211.463998 Z M529.688,213.167998 L534.608,213.167998 C535.976,213.167998 536.984,213.431998 537.656,214.007998 C538.328,214.511998 538.664,215.351998 538.664,216.503998 C538.664,217.655998 538.328,218.495998 537.68,219.047998 C537.008,219.599998 536,219.887998 534.608,219.887998 L529.688,219.887998 L529.688,213.167998 Z M541.808,211.463998 L541.808,213.167998 L547.856,213.167998 L547.856,228.599998 L549.8,228.599998 L549.8,213.167998 L555.848,213.167998 L555.848,211.463998 L541.808,211.463998 Z M556.664,211.463998 L556.664,213.167998 L562.712,213.167998 L562.712,228.599998 L564.656,228.599998 L564.656,213.167998 L570.704,213.167998 L570.704,211.463998 L556.664,211.463998 Z M590.264,209.903998 L590.264,211.535998 L593.72,211.535998 C594.056,220.535998 596.48,226.943998 601.016,230.759998 L602.096,229.295998 C597.584,225.359998 595.328,218.879998 595.328,209.903998 L590.264,209.903998 Z M586.832,211.679998 C585.92,220.871998 583.712,226.751998 580.184,229.319998 L581.144,230.879998 C584.984,228.047998 587.432,221.687998 588.488,211.847998 L586.832,211.679998 Z M618.2,209.039998 L618.2,231.023998 L619.928,231.023998 L619.928,218.759998 C621.368,219.863998 623.096,221.375998 625.112,223.319998 L626.168,221.735998 C624.056,219.911998 621.992,218.303998 619.928,216.887998 L619.928,209.039998 L618.2,209.039998 Z M604.904,212.207998 L604.904,213.839998 L609.512,213.839998 L609.512,216.983998 L604.448,216.983998 L604.448,218.663998 L616.4,218.663998 L616.4,216.983998 L611.216,216.983998 L611.216,213.839998 L615.872,213.839998 L615.872,212.207998 L611.216,212.207998 L611.216,209.231998 L609.512,209.231998 L609.512,212.207998 L604.904,212.207998 Z M604.808,222.359998 L604.808,223.991998 L609.512,223.991998 L609.512,227.951998 C607.784,228.119998 605.936,228.287998 604.016,228.431998 L604.256,230.183998 C609.008,229.799998 613.232,229.271998 616.928,228.647998 L616.928,226.967998 C615.176,227.255998 613.28,227.519998 611.216,227.759998 L611.216,223.991998 L616.016,223.991998 L616.016,222.359998 L611.216,222.359998 L611.216,219.575998 L609.512,219.575998 L609.512,222.359998 L604.808,222.359998 Z M649.52,209.975998 L638.384,209.975998 L638.384,219.623998 C638.312,223.943998 637.592,227.327998 636.248,229.775998 L637.544,230.927998 C639.08,228.095998 639.896,224.327998 639.968,219.623998 L639.968,217.655998 L640.928,217.655998 C641.264,220.487998 642.248,223.151998 643.904,225.623998 C642.632,227.159998 641.024,228.455998 639.08,229.487998 L639.92,231.023998 C641.888,229.991998 643.544,228.647998 644.936,227.015998 C646.064,228.407998 647.456,229.751998 649.088,231.047998 L650.216,229.727998 C648.512,228.527998 647.072,227.183998 645.92,225.743998 C647.456,223.487998 648.488,220.751998 649.04,217.511998 L649.04,216.023998 L639.968,216.023998 L639.968,211.559998 L649.52,211.559998 L649.52,209.975998 Z M642.464,217.655998 L647.36,217.655998 C646.928,220.175998 646.088,222.383998 644.864,224.303998 C643.568,222.287998 642.776,220.079998 642.464,217.655998 Z M631.424,222.359998 L634.352,222.359998 L634.352,230.903998 L636.032,230.903998 L636.032,220.727998 L631.496,220.727998 L631.496,217.295998 L635.96,217.295998 L635.96,209.231998 L634.28,209.231998 L634.28,215.663998 L631.496,215.663998 L631.496,209.687998 L629.792,209.687998 L629.792,220.343998 C629.768,224.519998 629.216,227.567998 628.112,229.463998 L629.384,230.615998 C630.536,228.767998 631.232,226.007998 631.424,222.359998 Z M661.64,223.127998 L661.64,215.111998 L655.496,215.111998 L655.496,212.327998 C657.992,211.967998 660.104,211.319998 661.832,210.383998 L660.68,209.063998 C659.048,210.047998 656.816,210.719998 653.96,211.055998 L653.96,221.015998 C653.912,224.375998 653.24,227.255998 651.944,229.703998 L653.144,230.951998 C654.344,228.719998 655.088,226.103998 655.376,223.127998 L661.64,223.127998 Z M655.496,216.791998 L660.056,216.791998 L660.056,221.543998 L655.472,221.543998 C655.472,221.351998 655.496,221.183998 655.496,221.015998 L655.496,216.791998 Z M665.264,218.063998 L669.608,218.063998 L669.608,230.999998 L671.312,230.999998 L671.312,218.063998 L674.024,218.063998 L674.024,216.407998 L665.264,216.407998 L665.24,212.207998 C668.168,212.063998 670.808,211.535998 673.184,210.623998 L672.32,209.111998 C669.968,210.095998 667.088,210.647998 663.704,210.791998 L663.704,221.639998 C663.656,225.335998 663.104,228.191998 662.072,230.231998 L663.632,230.999998 C664.688,228.911998 665.216,225.791998 665.264,221.639998 L665.264,218.063998 Z M683.48,221.759998 L693.032,221.759998 L693.032,224.303998 L683.456,224.303998 C683.456,224.159998 683.48,224.039998 683.48,223.895998 L683.48,221.759998 Z M693.032,220.247998 L683.48,220.247998 L683.48,217.631998 L693.032,217.631998 L693.032,220.247998 Z M683.336,225.815998 L693.032,225.815998 L693.032,228.383998 C693.032,229.055998 692.696,229.415998 692.072,229.415998 C691.328,229.415998 690.512,229.391998 689.648,229.343998 L690.056,230.903998 L692.576,230.903998 C693.968,230.903998 694.688,230.255998 694.688,228.959998 L694.688,216.119998 L683.504,216.119998 C684.08,215.207998 684.608,214.271998 685.088,213.311998 L697.736,213.311998 L697.736,211.655998 L685.808,211.655998 C686.144,210.815998 686.456,209.951998 686.72,209.039998 L684.968,208.847998 C684.68,209.783998 684.32,210.719998 683.912,211.655998 L676.76,211.655998 L676.76,213.311998 L683.12,213.311998 C681.464,216.431998 679.136,219.167998 676.136,221.567998 L677.24,223.007998 C678.992,221.591998 680.528,220.055998 681.872,218.399998 L681.872,223.991998 C681.824,226.391998 681.08,228.335998 679.64,229.871998 L680.912,231.023998 C682.184,229.631998 683,227.879998 683.336,225.815998 Z M700.64,213.047998 L700.64,214.775998 L704.336,214.775998 C705.416,218.471998 707.336,221.687998 710.12,224.423998 C707.528,226.775998 704.216,228.479998 700.184,229.559998 L701.096,231.071998 C705.176,229.895998 708.584,228.047998 711.32,225.527998 C713.912,227.759998 717.176,229.607998 721.16,231.095998 L722.096,229.655998 C718.256,228.239998 715.064,226.463998 712.52,224.303998 C714.872,221.759998 716.648,218.567998 717.824,214.775998 L721.568,214.775998 L721.568,213.047998 L712.4,213.047998 C711.632,211.391998 710.816,209.975998 709.904,208.823998 L708.176,209.447998 C709.136,210.575998 709.928,211.775998 710.576,213.047998 L700.64,213.047998 Z M706.04,214.775998 L716.024,214.775998 C715.016,218.087998 713.456,220.895998 711.32,223.223998 C708.824,220.823998 707.072,218.015998 706.04,214.775998 Z M734.264,224.687998 L734.264,226.367998 L724.544,226.367998 L724.544,227.903998 L734.264,227.903998 L734.264,230.903998 L736.04,230.903998 L736.04,227.903998 L745.664,227.903998 L745.664,226.367998 L736.04,226.367998 L736.04,224.687998 L742.688,224.687998 L742.688,217.391998 L727.568,217.391998 L727.568,224.687998 L734.264,224.687998 Z M729.272,221.711998 L740.984,221.711998 L740.984,223.247998 L729.272,223.247998 L729.272,221.711998 Z M740.984,220.367998 L729.272,220.367998 L729.272,218.831998 L740.984,218.831998 L740.984,220.367998 Z M729.728,212.183998 L730.616,214.415998 L724.88,214.415998 L724.88,215.903998 L745.352,215.903998 L745.352,214.415998 L739.688,214.415998 L740.552,212.183998 L744.104,212.183998 L744.104,210.671998 L735.944,210.671998 C735.704,209.975998 735.488,209.351998 735.248,208.775998 L733.4,209.063998 C733.64,209.543998 733.856,210.095998 734.048,210.671998 L726.104,210.671998 L726.104,212.183998 L729.728,212.183998 Z M732.368,214.415998 L731.48,212.183998 L738.752,212.183998 L737.912,214.415998 L732.368,214.415998 Z M759.08,218.303998 C758.6,218.303998 758.216,218.423998 757.952,218.711998 C757.664,218.975998 757.52,219.335998 757.52,219.791998 C757.52,220.199998 757.64,220.559998 757.928,220.847998 C758.216,221.135998 758.552,221.279998 758.96,221.279998 C759.2,221.279998 759.392,221.231998 759.488,221.183998 C759.488,221.759998 759.32,222.287998 758.984,222.791998 C758.576,223.271998 758.072,223.631998 757.448,223.847998 L757.448,225.023998 C758.456,224.759998 759.296,224.231998 759.92,223.463998 C760.544,222.647998 760.856,221.711998 760.856,220.655998 C760.856,219.959998 760.688,219.407998 760.376,218.975998 C760.04,218.519998 759.608,218.303998 759.08,218.303998 Z M782.864,217.511998 L782.864,219.047998 L779.672,219.047998 L779.672,220.511998 L782.864,220.511998 L782.864,222.671998 L779.048,222.671998 L779.048,224.159998 L793.664,224.159998 L793.664,222.671998 L789.848,222.671998 L789.848,220.511998 L792.944,220.511998 L792.944,219.047998 L789.848,219.047998 L789.848,217.511998 L788.288,217.511998 L788.288,219.047998 L784.4,219.047998 L784.4,217.511998 L782.864,217.511998 Z M784.4,222.671998 L784.4,220.511998 L788.288,220.511998 L788.288,222.671998 L784.4,222.671998 Z M788.312,224.399998 L787.52,225.551998 C789.2,226.223998 790.832,227.135998 792.416,228.335998 L793.256,227.039998 C791.744,225.983998 790.088,225.119998 788.312,224.399998 Z M783.992,224.399998 C782.792,225.359998 781.28,226.223998 779.504,226.967998 L780.44,228.191998 C782.264,227.375998 783.8,226.415998 785.048,225.335998 L783.992,224.399998 Z M774.056,209.327998 L772.904,210.407998 C774.488,211.583998 775.76,212.687998 776.672,213.743998 L777.8,212.615998 C776.792,211.511998 775.544,210.407998 774.056,209.327998 Z M772.448,215.063998 L772.448,216.599998 L775.976,216.599998 C775.16,217.943998 774.176,219.287998 773,220.655998 L773,221.951998 L776.48,221.951998 C776.192,223.535998 775.808,224.951998 775.304,226.223998 C774.296,226.535998 773.264,227.711998 772.16,229.751998 L773.36,230.855998 C774.464,228.767998 775.304,227.735998 775.904,227.735998 C776.096,227.735998 776.312,227.807998 776.504,227.999998 C777.32,228.863998 778.208,229.487998 779.216,229.895998 C780.08,230.279998 781.328,230.495998 782.96,230.543998 C784.352,230.591998 785.96,230.615998 787.76,230.615998 L793.712,230.615998 L794.096,228.959998 C791.408,229.031998 789.224,229.079998 787.544,229.079998 C785.864,229.079998 784.352,229.055998 783.056,229.055998 C781.688,229.031998 780.608,228.863998 779.84,228.551998 C779.048,228.191998 778.28,227.663998 777.536,226.943998 C777.296,226.727998 777.08,226.559998 776.888,226.439998 C777.368,225.167998 777.752,223.559998 778.088,221.639998 L778.088,220.511998 L774.968,220.511998 C776.072,219.167998 777.032,217.799998 777.848,216.383998 L777.848,215.063998 L772.448,215.063998 Z M791.432,211.007998 L791.432,212.687998 L788.336,212.687998 L788.336,211.007998 L791.432,211.007998 Z M788.336,213.887998 L792.896,213.887998 L792.896,209.759998 L786.872,209.759998 L786.872,215.687998 C786.872,216.527998 787.352,216.959998 788.36,216.959998 L793.304,216.959998 L793.304,215.663998 L789.104,215.663998 C788.576,215.663998 788.336,215.447998 788.336,215.039998 L788.336,213.887998 Z M779.72,217.415998 C782.072,217.151998 784.16,216.863998 785.984,216.575998 L785.648,215.351998 C784.208,215.591998 782.696,215.783998 781.16,215.927998 L781.16,213.911998 L785.648,213.911998 L785.648,209.759998 L779.672,209.759998 L779.672,215.543998 C779.672,215.903998 779.504,216.167998 779.216,216.311998 L779.72,217.415998 Z M781.16,212.711998 L781.16,211.031998 L784.184,211.031998 L784.184,212.711998 L781.16,212.711998 Z M796.472,209.927998 L796.472,211.559998 L798.368,211.559998 L798.368,226.439998 C797.696,226.535998 796.976,226.607998 796.256,226.703998 L796.664,228.407998 C799.4,228.047998 801.992,227.591998 804.416,227.063998 L804.416,230.999998 L806.096,230.999998 L806.096,211.559998 L807.896,211.559998 L807.896,209.927998 L796.472,209.927998 Z M800.048,226.199998 L800.048,222.023998 L804.416,222.023998 L804.416,225.335998 C803,225.671998 801.536,225.959998 800.048,226.199998 Z M800.048,220.463998 L800.048,216.839998 L804.416,216.839998 L804.416,220.463998 L800.048,220.463998 Z M800.048,215.255998 L800.048,211.559998 L804.416,211.559998 L804.416,215.255998 L800.048,215.255998 Z M815.552,212.903998 C815.12,216.455998 814.232,219.599998 812.936,222.335998 C811.544,219.503998 810.728,216.359998 810.44,212.903998 L815.552,212.903998 Z M812.024,224.039998 C810.752,226.199998 809.144,228.047998 807.176,229.583998 L808.352,230.927998 C810.152,229.511998 811.688,227.783998 812.984,225.743998 C814.088,227.567998 815.432,229.295998 817.016,230.927998 L818.168,229.607998 C816.464,227.951998 815.048,226.151998 813.896,224.183998 C815.552,221.039998 816.632,217.247998 817.16,212.807998 L817.16,211.223998 L807.92,211.223998 L807.92,212.903998 L808.856,212.903998 C809.192,216.935998 810.248,220.631998 812.024,224.039998 Z M827.48,221.759998 L837.032,221.759998 L837.032,224.303998 L827.456,224.303998 C827.456,224.159998 827.48,224.039998 827.48,223.895998 L827.48,221.759998 Z M837.032,220.247998 L827.48,220.247998 L827.48,217.631998 L837.032,217.631998 L837.032,220.247998 Z M827.336,225.815998 L837.032,225.815998 L837.032,228.383998 C837.032,229.055998 836.696,229.415998 836.072,229.415998 C835.328,229.415998 834.512,229.391998 833.648,229.343998 L834.056,230.903998 L836.576,230.903998 C837.968,230.903998 838.688,230.255998 838.688,228.959998 L838.688,216.119998 L827.504,216.119998 C828.08,215.207998 828.608,214.271998 829.088,213.311998 L841.736,213.311998 L841.736,211.655998 L829.808,211.655998 C830.144,210.815998 830.456,209.951998 830.72,209.039998 L828.968,208.847998 C828.68,209.783998 828.32,210.719998 827.912,211.655998 L820.76,211.655998 L820.76,213.311998 L827.12,213.311998 C825.464,216.431998 823.136,219.167998 820.136,221.567998 L821.24,223.007998 C822.992,221.591998 824.528,220.055998 825.872,218.399998 L825.872,223.991998 C825.824,226.391998 825.08,228.335998 823.64,229.871998 L824.912,231.023998 C826.184,229.631998 827,227.879998 827.336,225.815998 Z M861.608,217.343998 L855.992,217.343998 L855.992,208.967998 L854.216,208.967998 L854.216,217.343998 L848.6,217.343998 L848.6,210.791998 L846.872,210.791998 L846.872,219.023998 L854.216,219.023998 L854.216,227.831998 L847.448,227.831998 L847.448,221.279998 L845.696,221.279998 L845.696,230.831998 L847.448,230.831998 L847.448,229.487998 L862.76,229.487998 L862.76,230.831998 L864.512,230.831998 L864.512,221.279998 L862.76,221.279998 L862.76,227.831998 L855.992,227.831998 L855.992,219.023998 L863.336,219.023998 L863.336,210.791998 L861.608,210.791998 L861.608,217.343998 Z M868.616,218.111998 L868.616,219.791998 L871.376,219.791998 L871.376,226.247998 C870.344,226.583998 869.288,226.847998 868.232,227.087998 L868.64,228.743998 C871.328,227.975998 873.872,227.039998 876.224,225.935998 L876.224,224.255998 C875.216,224.759998 874.208,225.215998 873.152,225.623998 L873.152,219.791998 L875.768,219.791998 L875.768,218.111998 L873.152,218.111998 L873.152,212.135998 L876.176,212.135998 L876.176,210.479998 L868.304,210.479998 L868.304,212.135998 L871.376,212.135998 L871.376,218.111998 L868.616,218.111998 Z M877.376,209.879998 L877.376,223.127998 L880.112,223.127998 C879.872,226.031998 878.384,228.119998 875.6,229.391998 L876.512,230.831998 C879.776,229.223998 881.504,226.655998 881.744,223.127998 L883.904,223.127998 L883.904,228.551998 C883.904,229.871998 884.624,230.543998 886.064,230.543998 L887.408,230.543998 C888.44,230.495998 889.112,230.207998 889.424,229.703998 C889.736,229.175998 889.904,227.759998 889.904,225.479998 L888.392,224.903998 C888.392,226.343998 888.32,227.399998 888.224,228.071998 C888.128,228.623998 887.816,228.911998 887.312,228.959998 L886.088,228.959998 C885.704,228.911998 885.536,228.647998 885.536,228.215998 L885.536,223.127998 L888.272,223.127998 L888.272,209.879998 L877.376,209.879998 Z M886.616,221.663998 L879.056,221.663998 L879.056,219.071998 L886.616,219.071998 L886.616,221.663998 Z M879.056,217.679998 L879.056,215.183998 L886.616,215.183998 L886.616,217.679998 L879.056,217.679998 Z M879.056,213.791998 L879.056,211.367998 L886.616,211.367998 L886.616,213.791998 L879.056,213.791998 Z M906.704,208.751998 L906.704,223.463998 L908.456,223.463998 L908.456,210.359998 L914.384,210.359998 L914.384,208.751998 L906.704,208.751998 Z M918.176,226.871998 L932.672,226.871998 C932.624,227.183998 932.576,227.399998 932.552,227.519998 C932.264,228.239998 931.88,228.719998 931.352,228.935998 C930.824,229.079998 930.224,229.175998 929.528,229.175998 C928.736,229.175998 927.848,229.151998 926.84,229.103998 L927.416,230.759998 L929.768,230.759998 C931.112,230.759998 932.12,230.543998 932.816,230.135998 C933.488,229.655998 933.968,228.911998 934.232,227.951998 C934.28,227.759998 934.328,227.399998 934.376,226.871998 L937.256,226.871998 L937.256,225.239998 L934.496,225.239998 C934.592,223.751998 934.688,221.687998 934.784,219.023998 L937.88,219.023998 L937.88,217.343998 L934.856,217.343998 L935.072,209.903998 L919.952,209.903998 C919.904,212.399998 919.76,214.895998 919.52,217.343998 L916.376,217.343998 L916.376,219.023998 L919.352,219.023998 C919.064,221.663998 918.656,224.279998 918.176,226.871998 Z M932.816,225.239998 L920.216,225.239998 C920.576,223.367998 920.864,221.279998 921.104,219.023998 L933.104,219.023998 C933.008,221.711998 932.912,223.799998 932.816,225.239998 Z M921.272,217.343998 C921.416,215.519998 921.512,213.599998 921.608,211.535998 L933.32,211.535998 L933.152,217.343998 L921.272,217.343998 Z M925.808,212.495998 L924.656,213.527998 C926.096,214.487998 927.44,215.615998 928.712,216.911998 L929.744,215.735998 C928.544,214.487998 927.224,213.407998 925.808,212.495998 Z M925.256,219.791998 L924.224,220.991998 C925.616,221.975998 926.96,223.151998 928.28,224.495998 L929.36,223.295998 C928.136,222.047998 926.768,220.871998 925.256,219.791998 Z M476.216,258.495997 C474.896,260.655997 473.312,262.335997 471.464,263.535997 L472.472,265.023997 C473.96,263.967997 475.28,262.527997 476.48,260.655997 C476.528,261.231997 476.552,261.831997 476.552,262.503997 C476.552,264.471997 476.36,265.695997 476.024,266.175997 C475.712,266.583997 475.256,266.799997 474.632,266.799997 L473.072,266.799997 L473.624,268.479997 C474.032,268.479997 474.416,268.455997 474.776,268.455997 C475.88,268.383997 476.696,268.095997 477.224,267.567997 C477.8,266.943997 478.112,265.263997 478.112,262.503997 C478.112,261.159997 478.016,259.911997 477.848,258.759997 C478.376,259.047997 479.024,259.407997 479.744,259.863997 L480.656,258.471997 C479.576,257.847997 478.496,257.319997 477.44,256.839997 L477.344,256.479997 C478.376,255.903997 479.336,255.039997 480.2,253.839997 L479.072,252.735997 C478.352,253.695997 477.608,254.463997 476.816,255.015997 C476.384,254.007997 475.832,253.143997 475.184,252.399997 C475.856,251.607997 476.504,250.647997 477.128,249.519997 L480.104,249.519997 L480.104,247.935997 L471.656,247.935997 L471.656,249.519997 L475.424,249.519997 C474.32,251.319997 472.928,252.591997 471.248,253.311997 L472.208,254.607997 C472.856,254.319997 473.48,253.935997 474.08,253.455997 C474.44,253.887997 474.776,254.415997 475.088,255.015997 C474.152,256.359997 472.904,257.511997 471.32,258.519997 L472.256,259.863997 C473.552,258.927997 474.704,257.775997 475.664,256.383997 C475.88,257.007997 476.072,257.727997 476.216,258.495997 Z M490.856,247.743997 C490.472,248.703997 490.04,249.615997 489.584,250.479997 L489.584,249.399997 L486.32,249.399997 L486.32,246.735997 L484.664,246.735997 L484.664,249.399997 L481.328,249.399997 L481.328,250.911997 L484.664,250.911997 L484.664,254.079997 L480.416,254.079997 L480.416,255.639997 L486.008,255.639997 C484.136,257.679997 481.928,259.239997 479.432,260.319997 L480.344,261.687997 C480.992,261.399997 481.64,261.063997 482.288,260.679997 L482.288,268.575997 L483.92,268.575997 L483.92,267.471997 L489.776,267.471997 L489.776,268.575997 L491.408,268.575997 L491.408,258.063997 L485.84,258.063997 C486.608,257.343997 487.352,256.551997 488.096,255.639997 L492.584,255.639997 L492.584,254.079997 L489.272,254.079997 C490.376,252.447997 491.384,250.599997 492.272,248.487997 L490.856,247.743997 Z M483.92,259.623997 L483.992,259.575997 L489.776,259.575997 L489.776,261.975997 L483.92,261.975997 L483.92,259.623997 Z M486.32,254.079997 L486.32,250.911997 L489.368,250.911997 C488.744,252.015997 488.072,253.071997 487.304,254.079997 L486.32,254.079997 Z M483.92,263.415997 L489.776,263.415997 L489.776,265.935997 L483.92,265.935997 L483.92,263.415997 Z M500.648,254.055997 L500.648,267.159997 L494.72,267.159997 L494.72,268.767997 L502.4,268.767997 L502.4,254.055997 L500.648,254.055997 Z M527.696,250.743997 L523.832,250.743997 C524.312,249.543997 524.672,248.223997 524.96,246.807997 L523.232,246.567997 C523.016,248.007997 522.68,249.399997 522.2,250.743997 L519.968,250.743997 L519.968,267.807997 L521.648,267.807997 L521.648,265.743997 L526.016,265.743997 L526.016,267.111997 L527.696,267.111997 L527.696,250.743997 Z M521.648,264.135997 L521.648,258.879997 L526.016,258.879997 L526.016,264.135997 L521.648,264.135997 Z M521.648,257.319997 L521.648,252.375997 L526.016,252.375997 L526.016,257.319997 L521.648,257.319997 Z M531.872,256.311997 L530.48,257.175997 C532.136,259.143997 533.456,260.919997 534.44,262.503997 L535.808,261.543997 C534.896,260.055997 533.6,258.303997 531.872,256.311997 Z M540.104,250.767997 L532.448,250.767997 C532.88,249.519997 533.216,248.175997 533.504,246.759997 L531.8,246.543997 C531.176,249.951997 530.048,252.831997 528.368,255.183997 L529.4,256.551997 C530.336,255.327997 531.128,253.959997 531.8,252.447997 L538.4,252.447997 C538.352,259.359997 538.256,263.511997 538.112,264.855997 C537.92,266.079997 537.272,266.703997 536.144,266.703997 C535.4,266.703997 534.536,266.679997 533.528,266.631997 L533.936,268.215997 C535.088,268.263997 535.904,268.311997 536.384,268.311997 C538.4,268.311997 539.504,267.375997 539.744,265.551997 C539.984,263.679997 540.104,258.735997 540.104,250.767997 Z M543.536,250.647997 L543.536,252.375997 L547.232,252.375997 C548.312,256.071997 550.232,259.287997 553.016,262.023997 C550.424,264.375997 547.112,266.079997 543.08,267.159997 L543.992,268.671997 C548.072,267.495997 551.48,265.647997 554.216,263.127997 C556.808,265.359997 560.072,267.207997 564.056,268.695997 L564.992,267.255997 C561.152,265.839997 557.96,264.063997 555.416,261.903997 C557.768,259.359997 559.544,256.167997 560.72,252.375997 L564.464,252.375997 L564.464,250.647997 L555.296,250.647997 C554.528,248.991997 553.712,247.575997 552.8,246.423997 L551.072,247.047997 C552.032,248.175997 552.824,249.375997 553.472,250.647997 L543.536,250.647997 Z M548.936,252.375997 L558.92,252.375997 C557.912,255.687997 556.352,258.495997 554.216,260.823997 C551.72,258.423997 549.968,255.615997 548.936,252.375997 Z M577.16,262.287997 L577.16,263.967997 L567.44,263.967997 L567.44,265.503997 L577.16,265.503997 L577.16,268.503997 L578.936,268.503997 L578.936,265.503997 L588.56,265.503997 L588.56,263.967997 L578.936,263.967997 L578.936,262.287997 L585.584,262.287997 L585.584,254.991997 L570.464,254.991997 L570.464,262.287997 L577.16,262.287997 Z M572.168,259.311997 L583.88,259.311997 L583.88,260.847997 L572.168,260.847997 L572.168,259.311997 Z M583.88,257.967997 L572.168,257.967997 L572.168,256.431997 L583.88,256.431997 L583.88,257.967997 Z M572.624,249.783997 L573.512,252.015997 L567.776,252.015997 L567.776,253.503997 L588.248,253.503997 L588.248,252.015997 L582.584,252.015997 L583.448,249.783997 L587,249.783997 L587,248.271997 L578.84,248.271997 C578.6,247.575997 578.384,246.951997 578.144,246.375997 L576.296,246.663997 C576.536,247.143997 576.752,247.695997 576.944,248.271997 L569,248.271997 L569,249.783997 L572.624,249.783997 Z M575.264,252.015997 L574.376,249.783997 L581.648,249.783997 L580.808,252.015997 L575.264,252.015997 Z M601.976,255.903997 C601.496,255.903997 601.112,256.023997 600.848,256.311997 C600.56,256.575997 600.416,256.935997 600.416,257.391997 C600.416,257.799997 600.536,258.159997 600.824,258.447997 C601.112,258.735997 601.448,258.879997 601.856,258.879997 C602.096,258.879997 602.288,258.831997 602.384,258.783997 C602.384,259.359997 602.216,259.887997 601.88,260.391997 C601.472,260.871997 600.968,261.231997 600.344,261.447997 L600.344,262.623997 C601.352,262.359997 602.192,261.831997 602.816,261.063997 C603.44,260.247997 603.752,259.311997 603.752,258.255997 C603.752,257.559997 603.584,257.007997 603.272,256.575997 C602.936,256.119997 602.504,255.903997 601.976,255.903997 Z M622.424,252.783997 L622.424,266.127997 L615.368,266.127997 L615.368,267.783997 L636.68,267.783997 L636.68,266.127997 L629.576,266.127997 L629.576,252.783997 L636.248,252.783997 L636.248,251.127997 L630.416,251.127997 C631.184,249.975997 631.904,248.679997 632.528,247.239997 L630.872,246.663997 C630.2,248.247997 629.408,249.735997 628.496,251.127997 L615.752,251.127997 L615.752,252.783997 L622.424,252.783997 Z M624.128,266.127997 L624.128,252.783997 L627.872,252.783997 L627.872,266.127997 L624.128,266.127997 Z M618.656,255.039997 L617.12,255.375997 C617.912,257.631997 618.584,260.247997 619.112,263.223997 L620.72,262.887997 C620.12,260.055997 619.424,257.439997 618.656,255.039997 Z M633.416,254.919997 C632.744,258.087997 631.976,260.679997 631.088,262.743997 L632.648,263.295997 C633.608,261.015997 634.4,258.351997 635,255.327997 L633.416,254.919997 Z M621.2,246.663997 L619.712,247.383997 C620.552,248.463997 621.368,249.711997 622.136,251.103997 L623.6,250.359997 C622.832,249.015997 622.04,247.767997 621.2,246.663997 Z M643.112,254.967997 L649.208,254.967997 L649.208,259.167997 L643.112,259.167997 L643.112,254.967997 Z M643.016,260.751997 L649.208,260.751997 L649.208,267.783997 L650.984,267.783997 L650.984,260.751997 L657.512,260.751997 L657.512,264.927997 C657.512,265.935997 657.056,266.439997 656.192,266.439997 C655.376,266.439997 654.488,266.391997 653.528,266.343997 L653.984,268.047997 L656.744,268.047997 C658.424,268.047997 659.264,267.207997 659.264,265.527997 L659.264,247.551997 L641.384,247.551997 L641.384,259.071997 C641.336,262.359997 640.544,265.071997 639.008,267.207997 L640.328,268.383997 C641.864,266.367997 642.752,263.823997 643.016,260.751997 Z M657.512,259.167997 L650.984,259.167997 L650.984,254.967997 L657.512,254.967997 L657.512,259.167997 Z M657.512,253.359997 L650.984,253.359997 L650.984,249.231997 L657.512,249.231997 L657.512,253.359997 Z M649.208,249.231997 L649.208,253.359997 L643.112,253.359997 L643.112,249.231997 L649.208,249.231997 Z M684.176,249.063997 L675.128,249.063997 C674.816,248.079997 674.48,247.191997 674.144,246.399997 L672.176,246.735997 C672.56,247.431997 672.92,248.199997 673.256,249.063997 L663.824,249.063997 L663.824,254.415997 L665.552,254.415997 L665.552,250.719997 L682.448,250.719997 L682.448,254.415997 L684.176,254.415997 L684.176,249.063997 Z M667.52,253.311997 L667.52,254.919997 L677.816,254.919997 C676.832,255.543997 675.368,256.383997 673.424,257.391997 L673.424,259.743997 L663.392,259.743997 L663.392,261.423997 L673.424,261.423997 L673.424,265.911997 C673.424,266.607997 673.112,266.967997 672.488,266.967997 C671.48,266.967997 670.568,266.943997 669.728,266.919997 L670.136,268.503997 L673.088,268.503997 C674.48,268.503997 675.176,267.831997 675.176,266.511997 L675.176,261.423997 L684.632,261.423997 L684.632,259.743997 L675.176,259.743997 L675.176,258.135997 C677.096,257.079997 678.848,256.023997 680.408,254.919997 L680.408,253.311997 L667.52,253.311997 Z M706.64,249.663997 L701.528,249.663997 L701.528,246.423997 L699.872,246.423997 L699.872,249.663997 L696.176,249.663997 L696.176,246.423997 L694.52,246.423997 L694.52,249.663997 L689.384,249.663997 L689.384,260.967997 L687.056,260.967997 L687.056,262.623997 L708.872,262.623997 L708.872,260.967997 L706.64,260.967997 L706.64,249.663997 Z M691.064,260.967997 L691.064,256.743997 L694.52,256.743997 L694.52,260.967997 L691.064,260.967997 Z M696.176,260.967997 L696.176,256.743997 L699.872,256.743997 L699.872,260.967997 L696.176,260.967997 Z M701.528,260.967997 L701.528,256.743997 L704.96,256.743997 L704.96,260.967997 L701.528,260.967997 Z M691.064,255.183997 L691.064,251.271997 L694.52,251.271997 L694.52,255.183997 L691.064,255.183997 Z M696.176,251.271997 L699.872,251.271997 L699.872,255.183997 L696.176,255.183997 L696.176,251.271997 Z M701.528,251.271997 L704.96,251.271997 L704.96,255.183997 L701.528,255.183997 L701.528,251.271997 Z M701.168,263.175997 L700.304,264.495997 C702.824,265.503997 705.296,266.919997 707.72,268.743997 L708.632,267.279997 C706.376,265.671997 703.904,264.303997 701.168,263.175997 Z M694.784,263.199997 C692.864,264.831997 690.416,266.175997 687.44,267.183997 L688.208,268.791997 C691.256,267.615997 693.8,266.151997 695.84,264.423997 L694.784,263.199997 Z M713.36,256.935997 L724.04,256.935997 L724.04,255.543997 L713.36,255.543997 L713.36,247.071997 L711.848,247.071997 L711.848,267.879997 L723.104,267.879997 L723.104,266.415997 L713.36,266.415997 L713.36,256.935997 Z M732.152,246.783997 C730.088,247.887997 727.736,248.487997 725.144,248.583997 L725.144,259.767997 C725.048,262.983997 724.496,265.503997 723.464,267.327997 L724.592,268.503997 C725.864,266.319997 726.536,263.415997 726.632,259.767997 L726.632,255.951997 L729.344,255.951997 L729.344,268.551997 L730.904,268.551997 L730.904,255.951997 L733.064,255.951997 L733.064,254.439997 L726.632,254.439997 L726.632,249.879997 C728.936,249.687997 731.024,249.111997 732.896,248.151997 L732.152,246.783997 Z M723.44,251.415997 L722.48,251.727997 C722.6,252.135997 722.72,252.591997 722.84,253.071997 L720.896,253.383997 C721.664,252.567997 722.648,250.983997 723.872,248.655997 L722.792,248.223997 C722.504,248.775997 722.24,249.303997 721.952,249.831997 C721.376,249.975997 720.776,250.095997 720.176,250.191997 C720.752,249.423997 721.304,248.415997 721.88,247.143997 L720.776,246.735997 C720.344,247.887997 719.84,248.919997 719.264,249.831997 C719.12,250.047997 718.952,250.191997 718.784,250.287997 L719.072,251.295997 C719.84,251.175997 720.608,251.031997 721.376,250.887997 C720.56,252.303997 719.864,253.191997 719.336,253.551997 L719.552,254.535997 C720.608,254.391997 721.76,254.199997 723.032,253.959997 C723.08,254.247997 723.152,254.559997 723.2,254.895997 L724.184,254.655997 C723.944,253.431997 723.704,252.351997 723.44,251.415997 Z M718.136,251.559997 L717.248,251.871997 C717.344,252.303997 717.464,252.759997 717.56,253.239997 C716.84,253.383997 716.192,253.527997 715.616,253.623997 C716.384,252.783997 717.392,251.151997 718.688,248.751997 L717.632,248.319997 C717.296,248.967997 716.984,249.567997 716.696,250.143997 C716.168,250.239997 715.664,250.311997 715.136,250.383997 C715.688,249.567997 716.24,248.487997 716.768,247.143997 L715.688,246.735997 C715.304,247.959997 714.824,249.063997 714.272,250.047997 C714.128,250.239997 713.984,250.383997 713.792,250.455997 L714.08,251.439997 C714.752,251.343997 715.448,251.247997 716.12,251.127997 C715.256,252.567997 714.56,253.479997 714.008,253.839997 L714.248,254.799997 C715.304,254.631997 716.48,254.415997 717.752,254.151997 C717.8,254.415997 717.872,254.703997 717.92,254.991997 L718.88,254.727997 C718.664,253.527997 718.424,252.471997 718.136,251.559997 Z M723.392,262.119997 L722.432,262.431997 C722.576,262.839997 722.72,263.271997 722.864,263.727997 C722.096,263.847997 721.424,263.967997 720.848,264.063997 C721.616,263.247997 722.624,261.663997 723.872,259.311997 L722.792,258.879997 C722.504,259.455997 722.216,259.983997 721.952,260.511997 C721.376,260.655997 720.776,260.751997 720.176,260.847997 C720.752,260.055997 721.328,259.047997 721.88,257.823997 L720.824,257.391997 C720.392,258.567997 719.864,259.599997 719.264,260.511997 C719.12,260.703997 718.952,260.847997 718.784,260.943997 L719.072,261.975997 C719.816,261.831997 720.584,261.711997 721.352,261.567997 C720.488,263.007997 719.792,263.895997 719.24,264.279997 L719.456,265.263997 C720.56,265.095997 721.784,264.879997 723.104,264.615997 L723.296,265.407997 L724.256,265.167997 C724.016,264.015997 723.728,262.983997 723.392,262.119997 Z M718.112,262.287997 L717.2,262.575997 C717.344,263.031997 717.464,263.511997 717.56,263.991997 C716.84,264.111997 716.192,264.231997 715.616,264.327997 C716.384,263.511997 717.392,261.879997 718.64,259.455997 L717.584,259.023997 C717.296,259.599997 717.008,260.127997 716.744,260.655997 C716.24,260.751997 715.712,260.847997 715.184,260.919997 C715.736,260.127997 716.288,259.095997 716.816,257.823997 L715.736,257.391997 C715.328,258.591997 714.848,259.647997 714.272,260.583997 C714.128,260.775997 713.984,260.919997 713.792,260.991997 L714.08,261.999997 C714.776,261.903997 715.472,261.783997 716.192,261.687997 C715.304,263.223997 714.584,264.159997 714.008,264.543997 L714.248,265.503997 C715.304,265.359997 716.456,265.167997 717.752,264.927997 C717.8,265.167997 717.872,265.407997 717.92,265.695997 L718.88,265.455997 C718.64,264.255997 718.4,263.199997 718.112,262.287997 Z M753.68,268.503997 C755.24,268.503997 756.032,267.735997 756.032,266.199997 L756.032,247.527997 L744.464,247.527997 L744.464,249.207997 L754.328,249.207997 L754.328,265.695997 C754.328,266.487997 753.992,266.895997 753.32,266.895997 L750.992,266.847997 L751.424,268.503997 L753.68,268.503997 Z M744.944,252.111997 L744.944,253.671997 L753.056,253.671997 L753.056,252.111997 L744.944,252.111997 Z M745.496,256.335997 L745.496,263.775997 L752.216,263.775997 L752.216,256.335997 L745.496,256.335997 Z M750.632,262.263997 L747.128,262.263997 L747.128,257.847997 L750.632,257.847997 L750.632,262.263997 Z M735.032,249.735997 L735.032,251.343997 L743.888,251.343997 L743.888,249.735997 L739.664,249.735997 L740.48,249.423997 C740.192,248.559997 739.808,247.575997 739.328,246.519997 L737.696,246.975997 C738.176,247.839997 738.584,248.775997 738.92,249.735997 L735.032,249.735997 Z M736.088,253.239997 L736.088,254.775997 L742.808,254.775997 L742.808,253.239997 L736.088,253.239997 Z M736.088,256.551997 L736.088,258.111997 L742.808,258.111997 L742.808,256.551997 L736.088,256.551997 Z M742.976,260.127997 L735.896,260.127997 L735.896,268.407997 L737.504,268.407997 L737.504,267.063997 L741.368,267.063997 L741.368,268.215997 L742.976,268.215997 L742.976,260.127997 Z M737.504,265.503997 L737.504,261.687997 L741.368,261.687997 L741.368,265.503997 L737.504,265.503997 Z" id="下載-PTT-八卦版所有文章，選取有出現-Copy" fill="#1C1C1C"></path>
            <path d="M485.816,473.751998 L485.816,496.167998 L492.8,496.167998 C490.232,492.999998 488.96,489.279998 488.96,484.959998 C488.96,480.639998 490.232,476.895998 492.8,473.751998 L485.816,473.751998 Z M497.384,480.687998 L499.64,480.687998 L499.64,487.023998 C498.152,487.503998 496.64,487.911998 495.08,488.247998 L495.488,489.903998 C496.904,489.519998 498.296,489.111998 499.64,488.655998 L499.64,495.999998 L501.296,495.999998 L501.296,488.055998 C502.04,487.767998 502.784,487.455998 503.552,487.119998 L503.552,485.487998 C502.808,485.823998 502.064,486.135998 501.296,486.447998 L501.296,480.687998 L503.48,480.687998 L503.48,479.007998 L501.296,479.007998 L501.296,474.015998 L499.64,474.015998 L499.64,479.007998 L497.624,479.007998 C497.744,478.023998 497.816,477.015998 497.864,476.007998 L496.28,475.887998 C496.184,478.647998 495.776,481.263998 495.032,483.759998 L496.544,484.191998 C496.88,483.063998 497.144,481.887998 497.384,480.687998 Z M509.36,473.991998 L509.36,476.583998 L503.672,476.583998 L503.672,478.191998 L509.36,478.191998 L509.36,481.023998 L504.632,481.023998 L504.632,482.655998 L516.056,482.655998 L516.056,481.023998 L511.04,481.023998 L511.04,478.191998 L516.8,478.191998 L516.8,476.583998 L511.04,476.583998 L511.04,473.991998 L509.36,473.991998 Z M504.272,485.391998 L504.272,487.023998 L512.216,487.023998 L512.216,493.431998 C512.216,494.007998 511.904,494.319998 511.28,494.319998 C510.416,494.319998 509.528,494.271998 508.568,494.199998 L508.928,495.831998 L511.856,495.831998 C513.2,495.831998 513.896,495.159998 513.896,493.839998 L513.896,487.023998 L516.8,487.023998 L516.8,485.391998 L513.896,485.391998 L513.896,483.783998 L512.216,483.783998 L512.216,485.391998 L504.272,485.391998 Z M506.216,488.151998 L504.896,488.967998 C506.072,490.359998 507.008,491.607998 507.704,492.735998 L509.048,491.775998 C508.376,490.743998 507.44,489.543998 506.216,488.151998 Z M522.968,481.119998 L522.968,482.751998 L529.256,482.751998 L529.256,493.215998 C529.016,493.167998 528.776,493.095998 528.56,493.023998 C526.832,492.471998 525.392,491.175998 524.24,489.111998 C524.672,487.863998 525.056,486.495998 525.344,485.007998 L523.664,484.719998 C522.848,488.847998 521.312,492.135998 519.008,494.583998 L520.112,495.951998 C521.48,494.559998 522.632,492.831998 523.568,490.767998 C524.552,492.327998 525.848,493.479998 527.432,494.223998 C529.544,495.111998 533,495.567998 537.848,495.567998 L540.536,495.567998 L540.848,493.839998 C539.552,493.935998 538.304,493.983998 537.08,493.983998 C534.68,493.959998 532.664,493.815998 530.984,493.575998 L530.984,488.607998 L538.136,488.607998 L538.136,486.975998 L530.984,486.975998 L530.984,482.751998 L537.08,482.751998 L537.08,481.119998 L522.968,481.119998 Z M539.816,476.439998 L531.104,476.439998 C530.768,475.455998 530.384,474.567998 530,473.775998 L528.152,474.063998 C528.584,474.783998 528.992,475.575998 529.352,476.439998 L520.184,476.439998 L520.184,481.671998 L521.864,481.671998 L521.864,478.023998 L538.136,478.023998 L538.136,481.551998 L539.816,481.551998 L539.816,476.439998 Z M548.48,474.135998 C547.28,477.831998 545.384,481.119998 542.792,483.999998 L543.344,485.775998 C544.304,484.791998 545.168,483.759998 545.96,482.703998 L545.96,495.999998 L547.688,495.999998 L547.688,480.087998 C548.648,478.431998 549.416,476.679998 550.04,474.855998 L548.48,474.135998 Z M553.544,474.231998 L553.544,479.199998 L550.16,479.199998 L550.16,480.879998 L553.544,480.879998 C553.424,487.191998 551.84,491.799998 548.792,494.703998 L550.136,495.879998 C553.376,492.711998 555.056,487.695998 555.2,480.879998 L558.992,480.879998 L558.992,493.215998 C558.992,494.847998 559.784,495.687998 561.416,495.687998 L562.4,495.687998 C563.576,495.687998 564.272,495.111998 564.488,494.007998 C564.632,493.551998 564.8,492.351998 564.968,490.383998 L563.336,489.903998 C563.336,490.983998 563.264,491.991998 563.168,492.951998 C563.072,493.719998 562.808,494.103998 562.376,494.103998 L561.68,494.103998 C561.008,494.103998 560.696,493.719998 560.696,492.951998 L560.696,479.199998 L555.2,479.199998 L555.2,474.231998 L553.544,474.231998 Z M577.736,480.879998 L585.128,480.879998 L585.128,483.591998 L577.736,483.591998 L577.736,480.879998 Z M585.128,479.343998 L577.736,479.343998 L577.736,476.535998 L585.128,476.535998 L585.128,479.343998 Z M587.288,486.231998 C586.184,487.503998 585.008,488.463998 583.784,489.087998 C583.28,488.295998 582.824,487.407998 582.44,486.447998 L581.144,487.191998 C582.584,491.007998 584.888,493.815998 588.08,495.615998 L589.064,494.151998 C587.336,493.215998 585.848,491.943998 584.624,490.311998 C586.016,489.615998 587.264,488.607998 588.392,487.311998 L587.288,486.231998 Z M577.736,485.127998 L586.832,485.127998 L586.832,474.951998 L576.056,474.951998 L576.056,493.479998 C576.056,493.767998 575.84,493.959998 575.408,494.103998 L575.792,495.567998 C578.528,494.943998 580.784,494.271998 582.56,493.599998 L582.152,491.967998 C580.688,492.591998 579.224,493.119998 577.736,493.503998 L577.736,485.127998 Z M567.776,478.623998 C567.704,481.047998 567.44,483.351998 566.96,485.511998 L568.376,485.943998 C568.832,483.663998 569.096,481.263998 569.144,478.719998 L567.776,478.623998 Z M573.8,478.095998 L572.552,478.503998 C573.224,480.159998 573.8,481.887998 574.256,483.687998 L575.576,483.375998 C575.048,481.383998 574.472,479.631998 573.8,478.095998 Z M570.392,474.063998 L570.392,495.903998 L572.096,495.903998 L572.096,474.063998 L570.392,474.063998 Z M609.68,495.903998 C611.24,495.903998 612.032,495.135998 612.032,493.599998 L612.032,474.927998 L600.464,474.927998 L600.464,476.607998 L610.328,476.607998 L610.328,493.095998 C610.328,493.887998 609.992,494.295998 609.32,494.295998 L606.992,494.247998 L607.424,495.903998 L609.68,495.903998 Z M600.944,479.511998 L600.944,481.071998 L609.056,481.071998 L609.056,479.511998 L600.944,479.511998 Z M601.496,483.735998 L601.496,491.175998 L608.216,491.175998 L608.216,483.735998 L601.496,483.735998 Z M606.632,489.663998 L603.128,489.663998 L603.128,485.247998 L606.632,485.247998 L606.632,489.663998 Z M591.032,477.135998 L591.032,478.743998 L599.888,478.743998 L599.888,477.135998 L595.664,477.135998 L596.48,476.823998 C596.192,475.959998 595.808,474.975998 595.328,473.919998 L593.696,474.375998 C594.176,475.239998 594.584,476.175998 594.92,477.135998 L591.032,477.135998 Z M592.088,480.639998 L592.088,482.175998 L598.808,482.175998 L598.808,480.639998 L592.088,480.639998 Z M592.088,483.951998 L592.088,485.511998 L598.808,485.511998 L598.808,483.951998 L592.088,483.951998 Z M598.976,487.527998 L591.896,487.527998 L591.896,495.807998 L593.504,495.807998 L593.504,494.463998 L597.368,494.463998 L597.368,495.615998 L598.976,495.615998 L598.976,487.527998 Z M593.504,492.903998 L593.504,489.087998 L597.368,489.087998 L597.368,492.903998 L593.504,492.903998 Z M618.512,478.095998 L629.888,478.095998 L629.432,479.103998 L615.632,479.103998 L615.632,480.351998 L636.368,480.351998 L636.368,479.103998 L631.136,479.103998 L632.816,475.311998 L632.816,474.735998 L622.352,474.735998 L622.712,474.159998 L621.056,473.895998 L618.512,478.095998 Z M630.392,476.991998 L620.936,476.991998 L621.656,475.863998 L630.92,475.863998 L630.392,476.991998 Z M636.008,481.455998 L615.992,481.455998 L615.992,485.199998 L617.648,485.199998 L617.648,482.607998 L634.352,482.607998 L634.352,485.199998 L636.008,485.199998 L636.008,481.455998 Z M618.992,483.639998 L618.992,489.327998 L625.16,489.327998 L625.16,490.431998 L615.944,490.431998 L615.944,491.727998 L623.6,491.727998 C622.16,492.831998 619.328,493.695998 615.128,494.271998 L615.896,495.639998 C620.432,494.847998 623.528,493.599998 625.16,491.919998 L625.16,495.975998 L626.84,495.975998 L626.84,491.895998 C628.832,493.719998 631.88,494.967998 636.008,495.639998 L636.872,494.247998 C633.032,493.767998 630.2,492.927998 628.328,491.727998 L636.008,491.727998 L636.008,490.431998 L626.84,490.431998 L626.84,489.327998 L633.008,489.327998 L633.008,483.639998 L618.992,483.639998 Z M631.376,488.175998 L626.84,488.175998 L626.84,486.975998 L631.376,486.975998 L631.376,488.175998 Z M625.16,488.175998 L620.624,488.175998 L620.624,486.975998 L625.16,486.975998 L625.16,488.175998 Z M620.624,485.991998 L620.624,484.791998 L625.16,484.791998 L625.16,485.991998 L620.624,485.991998 Z M626.84,484.791998 L631.376,484.791998 L631.376,485.991998 L626.84,485.991998 L626.84,484.791998 Z M647.696,478.143998 L643.832,478.143998 C644.312,476.943998 644.672,475.623998 644.96,474.207998 L643.232,473.967998 C643.016,475.407998 642.68,476.799998 642.2,478.143998 L639.968,478.143998 L639.968,495.207998 L641.648,495.207998 L641.648,493.143998 L646.016,493.143998 L646.016,494.511998 L647.696,494.511998 L647.696,478.143998 Z M641.648,491.535998 L641.648,486.279998 L646.016,486.279998 L646.016,491.535998 L641.648,491.535998 Z M641.648,484.719998 L641.648,479.775998 L646.016,479.775998 L646.016,484.719998 L641.648,484.719998 Z M651.872,483.711998 L650.48,484.575998 C652.136,486.543998 653.456,488.319998 654.44,489.903998 L655.808,488.943998 C654.896,487.455998 653.6,485.703998 651.872,483.711998 Z M660.104,478.167998 L652.448,478.167998 C652.88,476.919998 653.216,475.575998 653.504,474.159998 L651.8,473.943998 C651.176,477.351998 650.048,480.231998 648.368,482.583998 L649.4,483.951998 C650.336,482.727998 651.128,481.359998 651.8,479.847998 L658.4,479.847998 C658.352,486.759998 658.256,490.911998 658.112,492.255998 C657.92,493.479998 657.272,494.103998 656.144,494.103998 C655.4,494.103998 654.536,494.079998 653.528,494.031998 L653.936,495.615998 C655.088,495.663998 655.904,495.711998 656.384,495.711998 C658.4,495.711998 659.504,494.775998 659.744,492.951998 C659.984,491.079998 660.104,486.135998 660.104,478.167998 Z M680.504,482.343998 L674.888,482.343998 L674.888,473.967998 L673.112,473.967998 L673.112,482.343998 L667.496,482.343998 L667.496,475.791998 L665.768,475.791998 L665.768,484.023998 L673.112,484.023998 L673.112,492.831998 L666.344,492.831998 L666.344,486.279998 L664.592,486.279998 L664.592,495.831998 L666.344,495.831998 L666.344,494.487998 L681.656,494.487998 L681.656,495.831998 L683.408,495.831998 L683.408,486.279998 L681.656,486.279998 L681.656,492.831998 L674.888,492.831998 L674.888,484.023998 L682.232,484.023998 L682.232,475.791998 L680.504,475.791998 L680.504,482.343998 Z M687.512,483.111998 L687.512,484.791998 L690.272,484.791998 L690.272,491.247998 C689.24,491.583998 688.184,491.847998 687.128,492.087998 L687.536,493.743998 C690.224,492.975998 692.768,492.039998 695.12,490.935998 L695.12,489.255998 C694.112,489.759998 693.104,490.215998 692.048,490.623998 L692.048,484.791998 L694.664,484.791998 L694.664,483.111998 L692.048,483.111998 L692.048,477.135998 L695.072,477.135998 L695.072,475.479998 L687.2,475.479998 L687.2,477.135998 L690.272,477.135998 L690.272,483.111998 L687.512,483.111998 Z M696.272,474.879998 L696.272,488.127998 L699.008,488.127998 C698.768,491.031998 697.28,493.119998 694.496,494.391998 L695.408,495.831998 C698.672,494.223998 700.4,491.655998 700.64,488.127998 L702.8,488.127998 L702.8,493.551998 C702.8,494.871998 703.52,495.543998 704.96,495.543998 L706.304,495.543998 C707.336,495.495998 708.008,495.207998 708.32,494.703998 C708.632,494.175998 708.8,492.759998 708.8,490.479998 L707.288,489.903998 C707.288,491.343998 707.216,492.399998 707.12,493.071998 C707.024,493.623998 706.712,493.911998 706.208,493.959998 L704.984,493.959998 C704.6,493.911998 704.432,493.647998 704.432,493.215998 L704.432,488.127998 L707.168,488.127998 L707.168,474.879998 L696.272,474.879998 Z M705.512,486.663998 L697.952,486.663998 L697.952,484.071998 L705.512,484.071998 L705.512,486.663998 Z M697.952,482.679998 L697.952,480.183998 L705.512,480.183998 L705.512,482.679998 L697.952,482.679998 Z M697.952,478.791998 L697.952,476.367998 L705.512,476.367998 L705.512,478.791998 L697.952,478.791998 Z M716.744,474.111998 L716.744,481.239998 L714.416,481.239998 L714.416,475.671998 L712.832,475.671998 L712.832,481.239998 L711.272,481.239998 L711.272,482.871998 L716.48,482.871998 L716.48,489.399998 L718.112,489.399998 L718.112,482.871998 L722.216,482.871998 L722.216,481.239998 L718.352,481.239998 L718.352,478.431998 L721.568,478.431998 L721.568,476.871998 L718.352,476.871998 L718.352,474.111998 L716.744,474.111998 Z M713.96,484.311998 C713.192,486.327998 712.28,488.055998 711.224,489.519998 L712.52,490.431998 C713.6,488.895998 714.536,487.071998 715.352,484.983998 L713.96,484.311998 Z M723.032,478.383998 L723.032,491.031998 L731.936,491.031998 L731.936,478.383998 L727.784,478.383998 C727.976,477.759998 728.144,477.111998 728.264,476.415998 L732.56,476.415998 L732.56,474.879998 L722.288,474.879998 L722.288,476.415998 L726.584,476.415998 C726.464,477.087998 726.296,477.735998 726.104,478.383998 L723.032,478.383998 Z M730.28,489.567998 L724.688,489.567998 L724.688,487.167998 L730.28,487.167998 L730.28,489.567998 Z M724.688,485.775998 L724.688,483.471998 L730.28,483.471998 L730.28,485.775998 L724.688,485.775998 Z M724.688,482.079998 L724.688,479.847998 L730.28,479.847998 L730.28,482.079998 L724.688,482.079998 Z M725.744,491.463998 C724.664,492.663998 723.344,493.695998 721.76,494.607998 L722.72,495.831998 C724.328,494.847998 725.696,493.695998 726.824,492.399998 L725.744,491.463998 Z M729.32,491.415998 L728.288,492.399998 C729.776,493.575998 730.952,494.703998 731.816,495.759998 L732.944,494.655998 C731.96,493.575998 730.76,492.495998 729.32,491.415998 Z M720.2,484.959998 C719.264,489.759998 716.384,492.927998 711.56,494.439998 L712.472,495.951998 C717.608,494.247998 720.68,490.695998 721.736,485.295998 L720.2,484.959998 Z M735.68,476.007998 L735.68,477.639998 L744.512,477.639998 C743.744,479.199998 742.736,480.351998 741.488,481.095998 L741.824,482.487998 C743.216,482.391998 744.56,482.271998 745.856,482.175998 C744.368,483.855998 743.096,485.007998 742.04,485.607998 L741.416,485.751998 L741.752,487.263998 C742.904,487.167998 744.008,487.071998 745.112,486.951998 L745.112,489.543998 L735.32,489.543998 L735.32,491.199998 L745.112,491.199998 L745.112,496.095998 L746.888,496.095998 L746.888,491.199998 L756.728,491.199998 L756.728,489.543998 L746.888,489.543998 L746.888,486.735998 C747.68,486.639998 748.472,486.519998 749.24,486.375998 C749.432,486.879998 749.648,487.431998 749.84,488.007998 L751.4,487.311998 C750.824,485.727998 750.128,484.239998 749.336,482.847998 L747.872,483.327998 C748.136,483.855998 748.4,484.431998 748.688,485.055998 C747.248,485.295998 745.76,485.511998 744.224,485.703998 C745.952,484.263998 747.992,482.079998 750.296,479.151998 L748.76,478.527998 C748.184,479.295998 747.632,480.015998 747.08,480.711998 L743.936,480.999998 C744.8,480.135998 745.592,479.007998 746.288,477.639998 L756.32,477.639998 L756.32,476.007998 L746.864,476.007998 C746.528,475.143998 746.168,474.399998 745.784,473.727998 L744.032,474.015998 C744.44,474.615998 744.8,475.287998 745.136,476.007998 L735.68,476.007998 Z M739.688,483.231998 C738.56,484.551998 737.288,485.703998 735.896,486.687998 L737.048,487.983998 C738.416,486.975998 739.736,485.727998 740.984,484.191998 L739.688,483.231998 Z M737.312,478.455998 L736.112,479.607998 C737.552,480.639998 738.704,481.623998 739.52,482.559998 L740.72,481.359998 C739.808,480.399998 738.656,479.415998 737.312,478.455998 Z M752.36,483.231998 L751.256,484.287998 C752.792,485.583998 753.992,486.831998 754.856,487.983998 L756.104,486.735998 C755.096,485.583998 753.848,484.407998 752.36,483.231998 Z M754.232,478.383998 C753.296,479.487998 752.264,480.471998 751.112,481.311998 L752.192,482.559998 C753.368,481.695998 754.496,480.639998 755.576,479.367998 L754.232,478.383998 Z M759.2,473.751998 C761.744,476.895998 763.04,480.639998 763.04,484.959998 C763.04,489.279998 761.744,492.999998 759.2,496.167998 L766.184,496.167998 L766.184,473.751998 L759.2,473.751998 Z M792.128,482.007998 L791.048,483.015998 C791.936,483.687998 792.824,484.479998 793.712,485.415998 C794.48,486.231998 795.176,487.071998 795.752,487.887998 L796.952,486.879998 C796.376,486.063998 795.68,485.223998 794.888,484.407998 C793.952,483.447998 793.04,482.631998 792.128,482.007998 Z M485.816,511.351997 L485.816,533.767997 L492.8,533.767997 C490.232,530.599997 488.96,526.879997 488.96,522.559997 C488.96,518.239997 490.232,514.495997 492.8,511.351997 L485.816,511.351997 Z M497.696,518.647997 L497.696,526.615997 L505.112,526.615997 L505.112,528.271997 L496.592,528.271997 L496.592,529.663997 L505.112,529.663997 L505.112,531.463997 L495.392,531.463997 L495.392,532.975997 L516.608,532.975997 L516.608,531.463997 L506.84,531.463997 L506.84,529.663997 L515.432,529.663997 L515.432,528.271997 L506.84,528.271997 L506.84,526.615997 L514.28,526.615997 L514.28,518.647997 L506.84,518.647997 L506.84,517.111997 L516.272,517.111997 L516.272,515.623997 L506.84,515.623997 L506.84,513.799997 C509.504,513.631997 512,513.439997 514.304,513.199997 L513.776,511.759997 C509,512.287997 503.48,512.647997 497.24,512.839997 L497.528,514.255997 C500.168,514.159997 502.688,514.039997 505.112,513.895997 L505.112,515.623997 L495.728,515.623997 L495.728,517.111997 L505.112,517.111997 L505.112,518.647997 L497.696,518.647997 Z M512.6,525.223997 L506.84,525.223997 L506.84,523.279997 L512.6,523.279997 L512.6,525.223997 Z M505.112,525.223997 L499.352,525.223997 L499.352,523.279997 L505.112,523.279997 L505.112,525.223997 Z M499.352,521.935997 L499.352,520.039997 L505.112,520.039997 L505.112,521.935997 L499.352,521.935997 Z M506.84,520.039997 L512.6,520.039997 L512.6,521.935997 L506.84,521.935997 L506.84,520.039997 Z M519.464,517.903997 L519.464,519.583997 L528.512,519.583997 C527.264,525.487997 524.096,529.711997 518.984,532.231997 L520.064,533.671997 C525.176,531.007997 528.488,526.759997 529.976,520.927997 C531.776,526.351997 535.088,530.527997 539.912,533.503997 L540.992,532.111997 C536.072,529.183997 532.76,525.007997 531.08,519.583997 L540.536,519.583997 L540.536,517.903997 L530.576,517.903997 C530.768,516.415997 530.888,514.855997 530.888,513.175997 L530.888,511.615997 L529.112,511.615997 L529.112,513.559997 C529.088,515.071997 528.992,516.511997 528.8,517.903997 L519.464,517.903997 Z M546.032,515.935997 L546.032,520.615997 L553.136,520.615997 L553.136,522.103997 L545.24,522.103997 L545.24,523.495997 L553.136,523.495997 L553.136,525.343997 L543.08,525.343997 L543.08,526.759997 L553.136,526.759997 L553.136,528.511997 L545.24,528.511997 L545.24,529.903997 L553.136,529.903997 L553.136,531.079997 C553.136,531.679997 552.8,531.991997 552.152,531.991997 C551.288,531.991997 550.376,531.943997 549.416,531.871997 L549.776,533.503997 L552.728,533.503997 C554.144,533.503997 554.864,532.831997 554.864,531.487997 L554.864,529.903997 L562.304,529.903997 L562.304,526.759997 L564.92,526.759997 L564.92,525.343997 L562.304,525.343997 L562.304,522.103997 L554.864,522.103997 L554.864,520.615997 L561.968,520.615997 L561.968,515.935997 L554.864,515.935997 L554.864,514.447997 L564.272,514.447997 L564.272,512.959997 L554.864,512.959997 L554.864,511.519997 L553.136,511.519997 L553.136,512.959997 L543.728,512.959997 L543.728,514.447997 L553.136,514.447997 L553.136,515.935997 L546.032,515.935997 Z M560.24,519.295997 L554.864,519.295997 L554.864,517.255997 L560.24,517.255997 L560.24,519.295997 Z M553.136,519.295997 L547.76,519.295997 L547.76,517.255997 L553.136,517.255997 L553.136,519.295997 Z M554.864,523.495997 L560.648,523.495997 L560.648,525.343997 L554.864,525.343997 L554.864,523.495997 Z M560.648,526.759997 L560.648,528.511997 L554.864,528.511997 L554.864,526.759997 L560.648,526.759997 Z M572.288,511.447997 C571.136,515.191997 569.312,518.527997 566.768,521.407997 L567.32,523.255997 C568.232,522.295997 569.072,521.287997 569.84,520.231997 L569.84,533.623997 L571.544,533.623997 L571.544,517.591997 C572.504,515.887997 573.296,514.087997 573.92,512.191997 L572.288,511.447997 Z M576.32,513.031997 C575.792,516.223997 574.808,518.935997 573.344,521.143997 L574.448,522.583997 C575.336,521.335997 576.08,519.919997 576.68,518.335997 L580.76,518.335997 L580.76,524.119997 L573.704,524.119997 L573.704,525.775997 L580.76,525.775997 L580.76,533.503997 L582.488,533.503997 L582.488,525.775997 L588.896,525.775997 L588.896,524.119997 L582.488,524.119997 L582.488,518.335997 L588.008,518.335997 L588.008,516.655997 L582.488,516.655997 L582.488,511.663997 L580.76,511.663997 L580.76,516.655997 L577.232,516.655997 C577.568,515.599997 577.832,514.447997 578.024,513.247997 L576.32,513.031997 Z M593.768,514.687997 L592.496,515.503997 C593.528,516.175997 594.416,516.823997 595.184,517.447997 C593.984,518.071997 592.592,518.623997 591.008,519.103997 L592.04,520.447997 C592.688,520.231997 593.312,519.991997 593.936,519.751997 L598.928,519.751997 L598.928,522.295997 L593.768,522.295997 L593,527.863997 L599.024,527.863997 C599.024,529.543997 598.928,530.671997 598.76,531.199997 C598.544,531.727997 597.824,531.991997 596.576,531.991997 C595.664,531.991997 594.752,531.943997 593.864,531.895997 L594.272,533.407997 C595.16,533.455997 596.048,533.503997 596.912,533.503997 C598.856,533.455997 599.96,532.951997 600.248,531.991997 C600.488,531.079997 600.608,529.231997 600.608,526.399997 L594.68,526.399997 L595.112,523.783997 L600.464,523.783997 L600.464,518.263997 L596.96,518.263997 C598.976,517.015997 600.464,515.527997 601.4,513.775997 L601.4,512.527997 L592.832,512.527997 L592.832,514.039997 L599.432,514.039997 C598.712,514.999997 597.728,515.887997 596.528,516.679997 C595.808,516.079997 594.896,515.407997 593.768,514.687997 Z M608.096,511.591997 C607.64,512.119997 607.136,512.599997 606.584,512.983997 C606.128,513.295997 605.624,513.583997 605.096,513.823997 C604.544,513.247997 604.064,512.647997 603.656,511.999997 L602.288,512.767997 C603.584,514.855997 605.624,516.679997 608.408,518.263997 L602.84,518.263997 C602.84,519.463997 602.72,520.351997 602.528,520.903997 C602.24,521.479997 601.736,522.055997 600.968,522.655997 L602.168,523.711997 C602.984,523.159997 603.56,522.559997 603.896,521.935997 C604.184,521.335997 604.328,520.591997 604.328,519.703997 L607.832,519.703997 L607.832,521.407997 C607.832,522.607997 608.48,523.207997 609.776,523.207997 L611.552,523.207997 L611.552,521.791997 L610.208,521.791997 C609.584,521.791997 609.296,521.527997 609.296,521.047997 L609.296,518.743997 C610.088,519.151997 610.952,519.535997 611.888,519.919997 L613.04,518.551997 C611.576,518.023997 610.256,517.423997 609.056,516.751997 C609.536,516.463997 609.968,516.175997 610.352,515.887997 C610.976,515.407997 611.576,514.783997 612.176,514.039997 L610.952,513.295997 C610.448,513.919997 609.896,514.447997 609.296,514.903997 C608.792,515.287997 608.24,515.623997 607.64,515.911997 C607.112,515.575997 606.632,515.215997 606.176,514.831997 C606.728,514.543997 607.208,514.231997 607.616,513.943997 C608.192,513.511997 608.744,512.983997 609.32,512.335997 L608.096,511.591997 Z M602.072,524.527997 L602.072,526.063997 L608.744,526.063997 C608.264,527.119997 607.568,528.103997 606.704,528.967997 C605.6,528.343997 604.4,527.719997 603.128,527.095997 L602.096,528.103997 C603.296,528.727997 604.448,529.351997 605.528,529.975997 C604.4,530.815997 603.032,531.511997 601.448,532.039997 L602.096,533.551997 C604.04,532.879997 605.696,531.967997 607.04,530.863997 C608.576,531.823997 609.92,532.735997 611.048,533.647997 L612.224,532.423997 C611.024,531.559997 609.656,530.671997 608.168,529.807997 C609.176,528.703997 609.944,527.431997 610.472,525.991997 L610.472,524.527997 L602.072,524.527997 Z M619.784,517.735997 L625.544,517.735997 L625.544,523.279997 L618.488,523.279997 L618.488,524.959997 L625.544,524.959997 L625.544,531.055997 L615.584,531.055997 L615.584,532.783997 L636.728,532.783997 L636.728,531.055997 L627.296,531.055997 L627.296,524.959997 L634.712,524.959997 L634.712,523.279997 L627.296,523.279997 L627.296,517.735997 L635.192,517.735997 L635.192,516.055997 L627.296,516.055997 L627.296,511.783997 L625.544,511.783997 L625.544,516.055997 L620.408,516.055997 C620.768,514.975997 621.08,513.823997 621.344,512.575997 L619.592,512.263997 C618.8,516.271997 617.264,519.463997 615.008,521.815997 L616.112,523.231997 C617.6,521.743997 618.824,519.919997 619.784,517.735997 Z M647.696,515.743997 L643.832,515.743997 C644.312,514.543997 644.672,513.223997 644.96,511.807997 L643.232,511.567997 C643.016,513.007997 642.68,514.399997 642.2,515.743997 L639.968,515.743997 L639.968,532.807997 L641.648,532.807997 L641.648,530.743997 L646.016,530.743997 L646.016,532.111997 L647.696,532.111997 L647.696,515.743997 Z M641.648,529.135997 L641.648,523.879997 L646.016,523.879997 L646.016,529.135997 L641.648,529.135997 Z M641.648,522.319997 L641.648,517.375997 L646.016,517.375997 L646.016,522.319997 L641.648,522.319997 Z M651.872,521.311997 L650.48,522.175997 C652.136,524.143997 653.456,525.919997 654.44,527.503997 L655.808,526.543997 C654.896,525.055997 653.6,523.303997 651.872,521.311997 Z M660.104,515.767997 L652.448,515.767997 C652.88,514.519997 653.216,513.175997 653.504,511.759997 L651.8,511.543997 C651.176,514.951997 650.048,517.831997 648.368,520.183997 L649.4,521.551997 C650.336,520.327997 651.128,518.959997 651.8,517.447997 L658.4,517.447997 C658.352,524.359997 658.256,528.511997 658.112,529.855997 C657.92,531.079997 657.272,531.703997 656.144,531.703997 C655.4,531.703997 654.536,531.679997 653.528,531.631997 L653.936,533.215997 C655.088,533.263997 655.904,533.311997 656.384,533.311997 C658.4,533.311997 659.504,532.375997 659.744,530.551997 C659.984,528.679997 660.104,523.735997 660.104,515.767997 Z M677.48,511.687997 L677.48,514.183997 L671.696,514.183997 L671.696,515.743997 L677.48,515.743997 L677.48,518.527997 L672.632,518.527997 L672.632,520.111997 L683.96,520.111997 L683.96,518.527997 L679.16,518.527997 L679.16,515.743997 L684.872,515.743997 L684.872,514.183997 L679.16,514.183997 L679.16,511.687997 L677.48,511.687997 Z M672.176,523.111997 L672.176,524.719997 L680.216,524.719997 L680.216,530.719997 C680.216,531.511997 679.856,531.919997 679.16,531.919997 C678.296,531.919997 677.408,531.871997 676.448,531.799997 L676.808,533.431997 L679.736,533.431997 C681.176,533.431997 681.896,532.663997 681.896,531.151997 L681.896,524.719997 L684.872,524.719997 L684.872,523.111997 L681.896,523.111997 L681.896,521.239997 L680.216,521.239997 L680.216,523.111997 L672.176,523.111997 Z M673.928,525.703997 L672.584,526.519997 C673.88,527.935997 674.912,529.231997 675.68,530.383997 L677.024,529.423997 C676.304,528.367997 675.272,527.119997 673.928,525.703997 Z M670.688,513.391997 L663.968,513.391997 L663.968,531.655997 L665.648,531.655997 L665.648,529.471997 L669.056,529.471997 L669.056,531.079997 L670.688,531.079997 L670.688,513.391997 Z M665.648,527.863997 L665.648,522.079997 L669.056,522.079997 L669.056,527.863997 L665.648,527.863997 Z M665.648,520.519997 L665.648,514.975997 L669.056,514.975997 L669.056,520.519997 L665.648,520.519997 Z M693.584,522.175997 L693.584,531.439997 L702.392,531.439997 L702.392,522.175997 L693.584,522.175997 Z M700.76,529.999997 L695.24,529.999997 L695.24,527.503997 L700.76,527.503997 L700.76,529.999997 Z M695.24,526.087997 L695.24,523.615997 L700.76,523.615997 L700.76,526.087997 L695.24,526.087997 Z M690.032,517.063997 L695.048,517.063997 L695.048,518.887997 L690.032,518.887997 L690.032,517.063997 Z M695.048,515.719997 L690.032,515.719997 L690.032,513.919997 L695.048,513.919997 L695.048,515.719997 Z M700.808,517.087997 L705.992,517.087997 L705.992,518.887997 L700.808,518.887997 L700.808,517.087997 Z M705.992,515.743997 L700.808,515.743997 L700.808,513.919997 L705.992,513.919997 L705.992,515.743997 Z M696.776,512.383997 L688.304,512.383997 L688.304,533.551997 L690.032,533.551997 L690.032,520.447997 L696.776,520.447997 L696.776,512.383997 Z M705.992,520.447997 L705.992,531.127997 C705.992,531.631997 705.728,531.895997 705.248,531.895997 C704.552,531.895997 703.808,531.847997 702.992,531.799997 L703.448,533.455997 C704.24,533.479997 705.056,533.503997 705.872,533.503997 C707.072,533.503997 707.696,532.879997 707.696,531.679997 L707.696,512.359997 L699.08,512.359997 L699.08,520.447997 L705.992,520.447997 Z M717.824,515.743997 L717.824,521.383997 L728.696,521.383997 L728.696,515.743997 L717.824,515.743997 Z M727.088,519.847997 L719.456,519.847997 L719.456,517.279997 L727.088,517.279997 L727.088,519.847997 Z M716.024,523.111997 L716.024,529.639997 L722.552,529.639997 L722.552,523.111997 L716.024,523.111997 Z M721.016,528.175997 L717.56,528.175997 L717.56,524.599997 L721.016,524.599997 L721.016,528.175997 Z M724.568,523.111997 L724.568,529.639997 L731.072,529.639997 L731.072,523.111997 L724.568,523.111997 Z M729.536,528.175997 L726.08,528.175997 L726.08,524.599997 L729.536,524.599997 L729.536,528.175997 Z M711.392,512.551997 L711.392,514.231997 L712.568,514.231997 L712.568,530.455997 C712.568,532.015997 713.336,532.807997 714.872,532.807997 L732.464,532.807997 L732.464,531.127997 L715.352,531.127997 C714.632,531.127997 714.296,530.767997 714.296,530.071997 L714.296,514.231997 L731.96,514.231997 L731.96,512.551997 L711.392,512.551997 Z M738.632,519.175997 L743.984,519.175997 L743.984,517.591997 L738.632,517.591997 L738.632,514.855997 C740.984,514.471997 743.12,513.895997 744.992,513.151997 L744.128,511.687997 C742.256,512.527997 739.88,513.151997 736.952,513.583997 L736.952,527.599997 C736.328,527.647997 735.704,527.671997 735.056,527.719997 L735.32,529.447997 L736.952,529.303997 L736.952,533.455997 L738.632,533.455997 L738.632,529.111997 C741.224,528.799997 743.288,528.463997 744.824,528.079997 L744.824,526.471997 C743.12,526.903997 741.056,527.215997 738.632,527.455997 L738.632,523.711997 L743.984,523.711997 L743.984,522.151997 L738.632,522.151997 L738.632,519.175997 Z M745.328,521.911997 L745.328,523.495997 L746.696,523.495997 C747.224,525.559997 748.208,527.407997 749.696,529.039997 C748.16,530.335997 746.216,531.415997 743.864,532.231997 L744.824,533.695997 C747.248,532.855997 749.288,531.727997 750.968,530.287997 C752.36,531.535997 754.088,532.663997 756.2,533.647997 L757.136,532.159997 C755.12,531.295997 753.44,530.311997 752.096,529.183997 C753.584,527.599997 754.64,525.679997 755.312,523.423997 L755.312,521.911997 L745.328,521.911997 Z M748.28,523.495997 L753.584,523.495997 C752.96,525.175997 752.048,526.663997 750.824,527.959997 C749.6,526.639997 748.76,525.151997 748.28,523.495997 Z M747.152,512.503997 L747.152,515.743997 C747.152,517.423997 746.312,518.719997 744.68,519.631997 L745.832,520.927997 C747.848,519.679997 748.856,517.879997 748.856,515.575997 L748.856,514.111997 L752.216,514.111997 L752.216,517.975997 C752.216,519.415997 752.936,520.159997 754.4,520.159997 L756.824,520.159997 L756.824,518.599997 L754.832,518.599997 C754.208,518.599997 753.896,518.263997 753.896,517.615997 L753.896,512.503997 L747.152,512.503997 Z M759.2,511.351997 C761.744,514.495997 763.04,518.239997 763.04,522.559997 C763.04,526.879997 761.744,530.599997 759.2,533.767997 L766.184,533.767997 L766.184,511.351997 L759.2,511.351997 Z M792.128,519.607997 L791.048,520.615997 C791.936,521.287997 792.824,522.079997 793.712,523.015997 C794.48,523.831997 795.176,524.671997 795.752,525.487997 L796.952,524.479997 C796.376,523.663997 795.68,522.823997 794.888,522.007997 C793.952,521.047997 793.04,520.231997 792.128,519.607997 Z M485.816,548.951995 L485.816,571.367995 L492.8,571.367995 C490.232,568.199995 488.96,564.479995 488.96,560.159995 C488.96,555.839995 490.232,552.095995 492.8,548.951995 L485.816,548.951995 Z M495.728,550.463995 L495.728,552.143995 L506.48,552.143995 C504.344,556.583995 500.552,560.351995 495.08,563.471995 L496.208,564.959995 C499.88,562.799995 502.856,560.303995 505.112,557.519995 L505.112,571.247995 L506.888,571.247995 L506.888,557.951995 C510.392,560.135995 513.296,562.463995 515.648,564.959995 L516.824,563.543995 C514.04,560.855995 510.728,558.383995 506.888,556.127995 L506.888,555.023995 C507.464,554.087995 507.968,553.127995 508.4,552.143995 L516.272,552.143995 L516.272,550.463995 L495.728,550.463995 Z M537.536,571.103995 C538.928,571.103995 539.624,570.311995 539.624,568.751995 L539.624,550.127995 L520.376,550.127995 L520.376,571.175995 L522.104,571.175995 L522.104,551.807995 L537.896,551.807995 L537.896,568.367995 C537.896,569.087995 537.584,569.447995 536.984,569.447995 L533.864,569.375995 L534.344,571.103995 L537.536,571.103995 Z M523.856,554.567995 L523.856,556.175995 L536.168,556.175995 L536.168,554.567995 L523.856,554.567995 Z M525.2,558.767995 L525.2,566.495995 L534.824,566.495995 L534.824,558.767995 L525.2,558.767995 Z M533.144,564.959995 L526.88,564.959995 L526.88,560.327995 L533.144,560.327995 L533.144,564.959995 Z M547.112,557.567995 L553.208,557.567995 L553.208,561.767995 L547.112,561.767995 L547.112,557.567995 Z M547.016,563.351995 L553.208,563.351995 L553.208,570.383995 L554.984,570.383995 L554.984,563.351995 L561.512,563.351995 L561.512,567.527995 C561.512,568.535995 561.056,569.039995 560.192,569.039995 C559.376,569.039995 558.488,568.991995 557.528,568.943995 L557.984,570.647995 L560.744,570.647995 C562.424,570.647995 563.264,569.807995 563.264,568.127995 L563.264,550.151995 L545.384,550.151995 L545.384,561.671995 C545.336,564.959995 544.544,567.671995 543.008,569.807995 L544.328,570.983995 C545.864,568.967995 546.752,566.423995 547.016,563.351995 Z M561.512,561.767995 L554.984,561.767995 L554.984,557.567995 L561.512,557.567995 L561.512,561.767995 Z M561.512,555.959995 L554.984,555.959995 L554.984,551.831995 L561.512,551.831995 L561.512,555.959995 Z M553.208,551.831995 L553.208,555.959995 L547.112,555.959995 L547.112,551.831995 L553.208,551.831995 Z M585.992,549.383995 C581.192,550.343995 575.792,550.871995 569.792,550.943995 L569.792,558.503995 C569.672,563.327995 568.736,567.095995 567.008,569.831995 L568.256,571.127995 C569.648,568.919995 570.608,566.159995 571.088,562.895995 L587,562.895995 L587,555.311995 L571.448,555.311995 L571.448,552.479995 C577.136,552.335995 582.272,551.831995 586.856,550.943995 L585.992,549.383995 Z M571.28,561.215995 C571.376,560.351995 571.424,559.439995 571.448,558.503995 L571.448,556.991995 L585.32,556.991995 L585.32,561.215995 L571.28,561.215995 Z M598.616,560.375995 L598.616,562.055995 L604.112,562.055995 L604.112,568.679995 L597.632,568.679995 L597.632,570.383995 L612.68,570.383995 L612.68,568.679995 L605.864,568.679995 L605.864,562.055995 L611.6,562.055995 L611.6,560.375995 L605.864,560.375995 L605.864,555.911995 L604.112,555.911995 L604.112,560.375995 L598.616,560.375995 Z M594.752,561.431995 L594.752,571.271995 L596.456,571.271995 L596.456,559.463995 C597.752,557.831995 598.88,556.055995 599.816,554.159995 L612.656,554.159995 L612.656,552.455995 L600.584,552.455995 C601.016,551.423995 601.376,550.343995 601.712,549.239995 L599.912,549.023995 C599.576,550.199995 599.144,551.351995 598.664,552.455995 L591.68,552.455995 L591.68,554.159995 L597.848,554.159995 C596.168,557.351995 593.84,560.183995 590.84,562.655995 L591.92,564.071995 C592.928,563.231995 593.864,562.343995 594.752,561.431995 Z M619.112,557.567995 L625.208,557.567995 L625.208,561.767995 L619.112,561.767995 L619.112,557.567995 Z M619.016,563.351995 L625.208,563.351995 L625.208,570.383995 L626.984,570.383995 L626.984,563.351995 L633.512,563.351995 L633.512,567.527995 C633.512,568.535995 633.056,569.039995 632.192,569.039995 C631.376,569.039995 630.488,568.991995 629.528,568.943995 L629.984,570.647995 L632.744,570.647995 C634.424,570.647995 635.264,569.807995 635.264,568.127995 L635.264,550.151995 L617.384,550.151995 L617.384,561.671995 C617.336,564.959995 616.544,567.671995 615.008,569.807995 L616.328,570.983995 C617.864,568.967995 618.752,566.423995 619.016,563.351995 Z M633.512,561.767995 L626.984,561.767995 L626.984,557.567995 L633.512,557.567995 L633.512,561.767995 Z M633.512,555.959995 L626.984,555.959995 L626.984,551.831995 L633.512,551.831995 L633.512,555.959995 Z M625.208,551.831995 L625.208,555.959995 L619.112,555.959995 L619.112,551.831995 L625.208,551.831995 Z M657.68,571.103995 C659.24,571.103995 660.032,570.335995 660.032,568.799995 L660.032,550.127995 L648.464,550.127995 L648.464,551.807995 L658.328,551.807995 L658.328,568.295995 C658.328,569.087995 657.992,569.495995 657.32,569.495995 L654.992,569.447995 L655.424,571.103995 L657.68,571.103995 Z M648.944,554.711995 L648.944,556.271995 L657.056,556.271995 L657.056,554.711995 L648.944,554.711995 Z M649.496,558.935995 L649.496,566.375995 L656.216,566.375995 L656.216,558.935995 L649.496,558.935995 Z M654.632,564.863995 L651.128,564.863995 L651.128,560.447995 L654.632,560.447995 L654.632,564.863995 Z M639.032,552.335995 L639.032,553.943995 L647.888,553.943995 L647.888,552.335995 L643.664,552.335995 L644.48,552.023995 C644.192,551.159995 643.808,550.175995 643.328,549.119995 L641.696,549.575995 C642.176,550.439995 642.584,551.375995 642.92,552.335995 L639.032,552.335995 Z M640.088,555.839995 L640.088,557.375995 L646.808,557.375995 L646.808,555.839995 L640.088,555.839995 Z M640.088,559.151995 L640.088,560.711995 L646.808,560.711995 L646.808,559.151995 L640.088,559.151995 Z M646.976,562.727995 L639.896,562.727995 L639.896,571.007995 L641.504,571.007995 L641.504,569.663995 L645.368,569.663995 L645.368,570.815995 L646.976,570.815995 L646.976,562.727995 Z M641.504,568.103995 L641.504,564.287995 L645.368,564.287995 L645.368,568.103995 L641.504,568.103995 Z M671.984,549.191995 L671.984,568.559995 L663.344,568.559995 L663.344,570.239995 L684.704,570.239995 L684.704,568.559995 L673.76,568.559995 L673.76,558.287995 L682.664,558.287995 L682.664,556.607995 L673.76,556.607995 L673.76,549.191995 L671.984,549.191995 Z M690.248,550.079995 L690.248,557.375995 L705.776,557.375995 L705.776,550.079995 L690.248,550.079995 Z M704.072,555.743995 L691.952,555.743995 L691.952,551.711995 L704.072,551.711995 L704.072,555.743995 Z M689.36,563.927995 L689.36,565.583995 L697.184,565.583995 L697.184,568.727995 L687.344,568.727995 L687.344,570.383995 L708.656,570.383995 L708.656,568.727995 L698.912,568.727995 L698.912,565.583995 L706.808,565.583995 L706.808,563.927995 L698.912,563.927995 L698.912,560.879995 C701.792,560.615995 704.312,560.231995 706.472,559.751995 L705.632,558.287995 C701.216,559.223995 695.648,559.703995 688.928,559.703995 L689.456,561.239995 C692.24,561.239995 694.808,561.143995 697.184,560.999995 L697.184,563.927995 L689.36,563.927995 Z M711.512,558.311995 L711.512,559.991995 L714.272,559.991995 L714.272,566.447995 C713.24,566.783995 712.184,567.047995 711.128,567.287995 L711.536,568.943995 C714.224,568.175995 716.768,567.239995 719.12,566.135995 L719.12,564.455995 C718.112,564.959995 717.104,565.415995 716.048,565.823995 L716.048,559.991995 L718.664,559.991995 L718.664,558.311995 L716.048,558.311995 L716.048,552.335995 L719.072,552.335995 L719.072,550.679995 L711.2,550.679995 L711.2,552.335995 L714.272,552.335995 L714.272,558.311995 L711.512,558.311995 Z M720.272,550.079995 L720.272,563.327995 L723.008,563.327995 C722.768,566.231995 721.28,568.319995 718.496,569.591995 L719.408,571.031995 C722.672,569.423995 724.4,566.855995 724.64,563.327995 L726.8,563.327995 L726.8,568.751995 C726.8,570.071995 727.52,570.743995 728.96,570.743995 L730.304,570.743995 C731.336,570.695995 732.008,570.407995 732.32,569.903995 C732.632,569.375995 732.8,567.959995 732.8,565.679995 L731.288,565.103995 C731.288,566.543995 731.216,567.599995 731.12,568.271995 C731.024,568.823995 730.712,569.111995 730.208,569.159995 L728.984,569.159995 C728.6,569.111995 728.432,568.847995 728.432,568.415995 L728.432,563.327995 L731.168,563.327995 L731.168,550.079995 L720.272,550.079995 Z M729.512,561.863995 L721.952,561.863995 L721.952,559.271995 L729.512,559.271995 L729.512,561.863995 Z M721.952,557.879995 L721.952,555.383995 L729.512,555.383995 L729.512,557.879995 L721.952,557.879995 Z M721.952,553.991995 L721.952,551.567995 L729.512,551.567995 L729.512,553.991995 L721.952,553.991995 Z M743.696,553.343995 L739.832,553.343995 C740.312,552.143995 740.672,550.823995 740.96,549.407995 L739.232,549.167995 C739.016,550.607995 738.68,551.999995 738.2,553.343995 L735.968,553.343995 L735.968,570.407995 L737.648,570.407995 L737.648,568.343995 L742.016,568.343995 L742.016,569.711995 L743.696,569.711995 L743.696,553.343995 Z M737.648,566.735995 L737.648,561.479995 L742.016,561.479995 L742.016,566.735995 L737.648,566.735995 Z M737.648,559.919995 L737.648,554.975995 L742.016,554.975995 L742.016,559.919995 L737.648,559.919995 Z M747.872,558.911995 L746.48,559.775995 C748.136,561.743995 749.456,563.519995 750.44,565.103995 L751.808,564.143995 C750.896,562.655995 749.6,560.903995 747.872,558.911995 Z M756.104,553.367995 L748.448,553.367995 C748.88,552.119995 749.216,550.775995 749.504,549.359995 L747.8,549.143995 C747.176,552.551995 746.048,555.431995 744.368,557.783995 L745.4,559.151995 C746.336,557.927995 747.128,556.559995 747.8,555.047995 L754.4,555.047995 C754.352,561.959995 754.256,566.111995 754.112,567.455995 C753.92,568.679995 753.272,569.303995 752.144,569.303995 C751.4,569.303995 750.536,569.279995 749.528,569.231995 L749.936,570.815995 C751.088,570.863995 751.904,570.911995 752.384,570.911995 C754.4,570.911995 755.504,569.975995 755.744,568.151995 C755.984,566.279995 756.104,561.335995 756.104,553.367995 Z M764.576,552.143995 L765.344,554.039995 L759.584,554.039995 L759.584,555.551995 L780.416,555.551995 L780.416,554.039995 L774.44,554.039995 L775.376,552.143995 L779.288,552.143995 L779.288,550.655995 L770.84,550.655995 C770.6,550.031995 770.336,549.479995 770.096,548.975995 L768.248,549.263995 C768.488,549.671995 768.728,550.127995 768.944,550.655995 L760.712,550.655995 L760.712,552.143995 L764.576,552.143995 Z M767.144,554.039995 L766.376,552.143995 L773.576,552.143995 L772.64,554.039995 L767.144,554.039995 Z M762.32,556.967995 L762.32,564.071995 L777.68,564.071995 L777.68,556.967995 L762.32,556.967995 Z M776,562.727995 L764,562.727995 L764,561.143995 L776,561.143995 L776,562.727995 Z M764,559.871995 L764,558.335995 L776,558.335995 L776,559.871995 L764,559.871995 Z M761.36,565.199995 C760.904,566.783995 760.184,568.247995 759.2,569.567995 L760.688,570.503995 C761.696,569.111995 762.464,567.455995 763.04,565.535995 L761.36,565.199995 Z M773.288,570.815995 C774.2,570.815995 774.848,570.647995 775.28,570.359995 C775.76,569.975995 776.096,568.967995 776.264,567.311995 L774.632,566.783995 C774.536,567.983995 774.344,568.727995 774.056,568.967995 C773.864,569.159995 773.504,569.255995 772.976,569.255995 L767.936,569.255995 C767.168,569.255995 766.784,568.895995 766.784,568.223995 L766.784,565.415995 L765.008,565.415995 L765.008,568.583995 C765.008,570.071995 765.8,570.815995 767.432,570.815995 L773.288,570.815995 Z M770.264,564.527995 L768.8,565.439995 C769.808,566.447995 770.576,567.383995 771.152,568.247995 L772.592,567.239995 C772.064,566.447995 771.272,565.535995 770.264,564.527995 Z M777.8,564.983995 L776.408,565.847995 C777.704,567.431995 778.712,568.871995 779.48,570.191995 L780.92,569.183995 C780.2,567.983995 779.144,566.591995 777.8,564.983995 Z M797.624,559.367995 L791.624,559.367995 L791.624,569.447995 L793.064,569.447995 L793.064,568.127995 L797.624,568.127995 L797.624,559.367995 Z M793.064,566.759995 L793.064,564.359995 L796.16,564.359995 L796.16,566.759995 L793.064,566.759995 Z M793.064,563.039995 L793.064,560.759995 L796.16,560.759995 L796.16,563.039995 L793.064,563.039995 Z M803.096,550.391995 L801.824,550.799995 C802.4,552.119995 802.856,553.511995 803.192,554.975995 L804.464,554.663995 C804.08,553.055995 803.624,551.639995 803.096,550.391995 Z M794.744,549.047995 L793.088,549.335995 C793.376,549.911995 793.64,550.559995 793.88,551.255995 L791.048,551.255995 L791.048,552.791995 L791.888,552.791995 C792.128,553.799995 792.344,554.903995 792.56,556.127995 L790.472,556.127995 L790.472,557.711995 L799.544,557.711995 C799.64,561.239995 799.784,563.735995 800.024,565.199995 L800.072,565.415995 C799.016,567.095995 797.768,568.607995 796.352,569.903995 L797.528,570.911995 C798.584,569.927995 799.592,568.775995 800.504,567.455995 C800.744,568.271995 801.032,568.967995 801.368,569.567995 C801.848,570.383995 802.352,570.791995 802.928,570.791995 C803.936,570.791995 804.608,569.375995 804.968,566.543995 L803.72,565.631995 C803.48,567.791995 803.168,568.871995 802.832,568.919995 C802.4,568.799995 801.992,567.839995 801.656,566.015995 C801.632,565.943995 801.608,565.847995 801.608,565.751995 C802.712,563.879995 803.672,561.719995 804.536,559.295995 L803.12,558.743995 C802.592,560.327995 801.992,561.815995 801.32,563.183995 C801.2,561.743995 801.128,559.919995 801.08,557.711995 L804.752,557.711995 L804.752,556.127995 L801.032,556.127995 C800.984,554.159995 800.984,551.879995 800.984,549.311995 L799.448,549.311995 C799.448,551.855995 799.448,554.111995 799.496,556.127995 L796.856,556.127995 C797.048,555.095995 797.216,553.991995 797.336,552.791995 L798.2,552.791995 L798.2,551.255995 L795.464,551.255995 C795.224,550.439995 794.984,549.695995 794.744,549.047995 Z M795.44,556.127995 L793.88,556.127995 C793.688,554.927995 793.472,553.799995 793.256,552.791995 L795.896,552.791995 C795.776,553.943995 795.632,555.047995 795.44,556.127995 Z M786.8,549.095995 L785.144,549.551995 C785.576,550.415995 785.936,551.327995 786.248,552.263995 L783.176,552.263995 L783.176,553.847995 L790.256,553.847995 L790.256,552.263995 L786.872,552.263995 L787.784,551.903995 C787.544,551.063995 787.208,550.127995 786.8,549.095995 Z M784.04,555.863995 L784.04,557.327995 L789.536,557.327995 L789.536,555.863995 L784.04,555.863995 Z M784.04,559.271995 L784.04,560.735995 L789.536,560.735995 L789.536,559.271995 L784.04,559.271995 Z M789.752,562.751995 L783.848,562.751995 L783.848,570.815995 L785.408,570.815995 L785.408,569.591995 L788.168,569.591995 L788.168,570.791995 L789.752,570.791995 L789.752,562.751995 Z M785.408,568.079995 L785.408,564.239995 L788.168,564.239995 L788.168,568.079995 L785.408,568.079995 Z M807.488,550.127995 L807.488,551.759995 L809.96,551.759995 L809.96,558.695995 L807.056,558.695995 L807.056,560.351995 L809.936,560.351995 C809.768,564.719995 808.808,567.935995 807.056,569.999995 L808.352,571.127995 C810.392,568.823995 811.52,565.223995 811.712,560.351995 L815.312,560.351995 L815.312,571.031995 L817.064,571.031995 L817.064,560.351995 L819.824,560.351995 L819.824,558.695995 L817.064,558.695995 L817.064,551.759995 L819.464,551.759995 L819.464,550.127995 L807.488,550.127995 Z M811.736,551.759995 L815.312,551.759995 L815.312,558.695995 L811.736,558.695995 L811.736,551.759995 Z M826.472,549.263995 C824.648,551.231995 822.344,552.815995 819.56,554.015995 L820.304,555.599995 C823.232,554.255995 825.656,552.575995 827.6,550.559995 L826.472,549.263995 Z M827.504,555.767995 C825.68,557.879995 823.376,559.607995 820.568,560.903995 L821.312,562.463995 C824.24,561.023995 826.664,559.223995 828.632,557.063995 L827.504,555.767995 Z M828.104,562.415995 C825.8,565.343995 822.896,567.695995 819.368,569.471995 L820.112,571.079995 C823.76,569.135995 826.808,566.687995 829.256,563.711995 L828.104,562.415995 Z M833.648,565.007995 C833.168,566.903995 832.448,568.631995 831.44,570.191995 L832.88,571.079995 C833.888,569.471995 834.656,567.551995 835.232,565.343995 L833.648,565.007995 Z M845.36,571.103995 C846.248,571.103995 846.896,570.911995 847.304,570.575995 C847.784,570.143995 848.096,568.991995 848.264,567.095995 L846.704,566.591995 C846.608,568.055995 846.416,568.943995 846.128,569.231995 C845.912,569.471995 845.552,569.591995 845.048,569.591995 L839.336,569.591995 C838.808,569.591995 838.568,569.351995 838.568,568.871995 L838.568,564.935995 L836.912,564.935995 L836.912,569.207995 C836.912,570.455995 837.56,571.103995 838.856,571.103995 L845.36,571.103995 Z M841.784,563.951995 L840.536,564.719995 C841.688,566.087995 842.6,567.335995 843.272,568.463995 L844.568,567.551995 C843.92,566.519995 842.984,565.319995 841.784,563.951995 Z M849.632,564.599995 L848.288,565.439995 C849.704,567.263995 850.832,568.919995 851.648,570.407995 L852.992,569.447995 C852.224,568.055995 851.096,566.447995 849.632,564.599995 Z M839.504,550.007995 L838.328,550.751995 C838.76,551.231995 839.192,551.711995 839.6,552.191995 C838.016,552.287995 836.336,552.359995 834.536,552.455995 C835.352,551.735995 836.216,550.751995 837.104,549.551995 L835.616,548.999995 C834.872,550.127995 834.152,551.039995 833.456,551.759995 C832.976,552.215995 832.472,552.479995 831.992,552.551995 L832.184,553.799995 C835.928,553.655995 838.712,553.487995 840.488,553.295995 C840.776,553.679995 841.04,554.039995 841.28,554.423995 L842.504,553.559995 C841.808,552.551995 840.8,551.351995 839.504,550.007995 Z M843.32,549.239995 L843.32,554.375995 C843.32,555.575995 843.944,556.199995 845.192,556.199995 L852.272,556.199995 L852.272,554.711995 L845.624,554.711995 C845.144,554.711995 844.904,554.471995 844.904,554.015995 L844.904,552.455995 L851.84,552.071995 L851.84,550.655995 L844.904,551.063995 L844.904,549.239995 L843.32,549.239995 Z M851.816,558.119995 L844.952,558.503995 L844.952,556.991995 L843.32,556.991995 L843.32,561.959995 C843.32,563.255995 843.968,563.903995 845.312,563.903995 L849.608,563.903995 C850.424,563.903995 851.048,563.759995 851.432,563.519995 C851.864,563.183995 852.176,562.319995 852.32,560.927995 L850.88,560.447995 C850.784,561.431995 850.616,562.031995 850.352,562.223995 C850.136,562.391995 849.8,562.487995 849.32,562.487995 L845.768,562.487995 C845.216,562.487995 844.952,562.199995 844.952,561.647995 L844.952,559.919995 L851.816,559.535995 L851.816,558.119995 Z M841.28,554.879995 L832.76,554.879995 L832.76,558.335995 C832.736,560.399995 832.352,562.103995 831.632,563.447995 L832.856,564.551995 C833.744,562.991995 834.224,560.975995 834.272,558.503995 C835.616,558.695995 836.936,558.935995 838.232,559.247995 L838.688,558.119995 C837.296,557.783995 835.808,557.519995 834.272,557.327995 L834.272,556.271995 L839.744,556.271995 L839.744,559.535995 C838.064,560.063995 836.216,560.543995 834.2,560.975995 L834.536,562.223995 C836.456,561.791995 838.208,561.335995 839.744,560.855995 L839.744,561.911995 C839.744,562.535995 839.432,562.871995 838.832,562.871995 C838.232,562.871995 837.584,562.847995 836.888,562.799995 L837.296,564.215995 L839.288,564.215995 C840.608,564.215995 841.28,563.615995 841.28,562.439995 L841.28,554.879995 Z M856.328,551.807995 L856.328,553.415995 L865.136,553.415995 L865.136,555.551995 L857.744,555.551995 L857.744,557.159995 L865.136,557.159995 L865.136,559.223995 L855.632,559.223995 L855.632,560.855995 L861.032,560.855995 C859.904,563.663995 857.864,565.727995 854.888,567.023995 L856.016,568.367995 C858.248,567.263995 860,565.751995 861.296,563.783995 L861.296,565.031995 L866.432,565.031995 L866.432,568.895995 L857.912,568.895995 L857.912,570.575995 L876.368,570.575995 L876.368,568.895995 L868.16,568.895995 L868.16,565.031995 L874.952,565.031995 L874.952,563.351995 L861.56,563.351995 C862.016,562.583995 862.4,561.767995 862.712,560.855995 L876.464,560.855995 L876.464,559.223995 L866.912,559.223995 L866.912,557.159995 L874.448,557.159995 L874.448,555.551995 L866.912,555.551995 L866.912,553.415995 L875.768,553.415995 L875.768,551.807995 L870.44,551.807995 C870.92,550.991995 871.28,550.127995 871.544,549.191995 L869.744,548.951995 C869.504,549.935995 869.168,550.895995 868.688,551.807995 L863.552,551.807995 C863.216,550.775995 862.856,549.863995 862.52,549.047995 L860.72,549.335995 C861.104,550.079995 861.464,550.895995 861.8,551.807995 L856.328,551.807995 Z M881.936,550.055995 L881.936,558.311995 L898.16,558.311995 L898.16,550.055995 L881.936,550.055995 Z M896.48,556.799995 L890.84,556.799995 L890.84,554.831995 L896.48,554.831995 L896.48,556.799995 Z M889.16,556.799995 L883.616,556.799995 L883.616,554.831995 L889.16,554.831995 L889.16,556.799995 Z M883.616,553.391995 L883.616,551.567995 L889.16,551.567995 L889.16,553.391995 L883.616,553.391995 Z M890.84,551.567995 L896.48,551.567995 L896.48,553.391995 L890.84,553.391995 L890.84,551.567995 Z M881.096,560.999995 L881.096,562.511995 L885.224,562.511995 L885.224,565.127995 L879.536,565.127995 L879.536,566.687995 L900.464,566.687995 L900.464,565.127995 L894.776,565.127995 L894.776,562.511995 L899.072,562.511995 L899.072,560.999995 L894.776,560.999995 L894.776,559.055995 L893.048,559.055995 L893.048,560.999995 L886.952,560.999995 L886.952,559.055995 L885.224,559.055995 L885.224,560.999995 L881.096,560.999995 Z M886.952,565.127995 L886.952,562.511995 L893.048,562.511995 L893.048,565.127995 L886.952,565.127995 Z M893.048,566.807995 L892.208,568.079995 C894.56,568.847995 896.864,569.903995 899.12,571.271995 L900.056,569.831995 C897.944,568.631995 895.592,567.623995 893.048,566.807995 Z M886.616,566.783995 C884.84,568.031995 882.584,569.015995 879.872,569.783995 L880.592,571.271995 C883.424,570.383995 885.776,569.279995 887.648,567.959995 L886.616,566.783995 Z M903.2,548.951995 C905.744,552.095995 907.04,555.839995 907.04,560.159995 C907.04,564.479995 905.744,568.199995 903.2,571.367995 L910.184,571.367995 L910.184,548.951995 L903.2,548.951995 Z" id="【特定仇恨詞彙的出現頻率】、-【重大事件-copy" fill="#1C1C1C"></path>
        </g>
    </g>
</svg>