<?xml version="1.0" encoding="UTF-8"?>
<svg width="1440px" height="730px" viewBox="0 0 1440 730" version="1.1" xmlns="http://www.w3.org/2000/svg" xmlns:xlink="http://www.w3.org/1999/xlink">
    <!-- Generator: Sketch 41.2 (35397) - http://www.bohemiancoding.com/sketch -->
    <title>Group 18 Copy</title>
    <desc>Created with Sketch.</desc>
    <defs>
        <linearGradient x1="50%" y1="50%" x2="50%" y2="100%" id="linearGradient-1">
            <stop stop-color="#FFBEBE" stop-opacity="0.813037817" offset="0%"></stop>
            <stop stop-color="#FFBEBE" stop-opacity="0" offset="100%"></stop>
        </linearGradient>
        <path d="M546.90355,76.6607604 L550.31475,76.6607604 L550.31475,73.2079606 L558.42675,73.2079606 L558.42675,77.1183604 L561.83795,77.1183604 L561.83795,73.2079606 L573.069949,73.2079606 L573.069949,71.3359607 L561.83795,71.3359607 L561.83795,67.508761 L558.42675,67.508761 L558.42675,71.3359607 L550.31475,71.3359607 L550.31475,67.425561 L546.90355,67.425561 L546.90355,71.3359607 L536.253951,71.3359607 L536.253951,73.2079606 L546.90355,73.2079606 L546.90355,76.6607604 Z M538.833151,86.1455599 L538.791551,96.5039592 L553.47635,96.5039592 L553.47635,84.52316 L547.69395,84.52316 C549.27475,83.39996 550.89715,81.8607601 551.77075,80.5295602 L548.44275,78.7823603 L547.73555,79.3647603 L544.116351,79.3647603 C544.657151,78.4911603 545.156351,77.4927604 545.697151,76.4527604 L542.077951,75.2879605 C541.079551,78.7823603 539.249151,82.9423601 536.212351,86.6863598 L537.210751,87.6431598 C537.793151,87.1439598 538.333951,86.6447598 538.833151,86.1455599 Z M573.153149,98.2095591 C570.740349,96.2959593 566.663549,92.6767595 565.082749,87.7263598 L571.322749,87.7679598 L571.322749,85.8959599 L564.333949,85.8959599 L564.333949,80.7791602 C566.663549,80.2383602 568.868349,79.6143602 570.573949,78.9903603 L567.245949,76.0783605 C563.876349,78.1583603 559.00915,79.9471602 553.97555,80.9039602 L554.18355,82.3599601 C556.05555,82.2351601 558.46835,81.9023601 561.00595,81.4447601 L561.00595,85.8959599 L554.59955,85.8959599 L554.59955,87.7679598 L559.54995,87.7679598 C558.71795,91.4287595 556.55475,96.2127593 553.89235,99.4991591 C553.35155,98.8335591 552.76915,98.2095591 552.14515,97.6271592 L551.06355,98.2511591 C552.14515,100.414359 552.89395,102.411159 553.51795,104.574359 L556.38835,103.159959 C555.88915,102.244759 555.34835,101.412759 554.76595,100.622359 C557.01235,98.6671591 559.84115,94.8399593 561.00595,91.5951595 L561.00595,106.071959 L564.333949,106.071959 L564.333949,90.0143596 C565.457149,94.5903594 567.786749,98.3343591 570.449149,101.246359 L573.153149,98.2095591 Z M543.117951,80.9871602 L547.44435,80.9871602 C546.98675,81.9855601 546.19635,83.48316 545.489151,84.52316 L540.372351,84.52316 C541.370751,83.44156 542.244351,82.2767601 543.117951,80.9871602 Z M544.698751,89.5567597 L542.161151,89.5567597 L542.161151,86.1871599 L544.740351,86.1871599 L544.698751,89.5567597 Z M547.77715,86.1871599 L550.27315,86.1871599 L550.27315,89.5567597 L547.77715,89.5567597 L547.77715,86.1871599 Z M544.698751,94.8399593 L542.161151,94.8399593 L542.161151,91.1375596 L544.698751,91.1375596 L544.698751,94.8399593 Z M547.77715,91.1375596 L550.27315,91.1375596 L550.27315,94.8399593 L547.77715,94.8399593 L547.77715,91.1375596 Z M546.82035,98.2511591 C547.40275,100.372759 547.98515,102.993559 548.31795,105.239959 L551.56275,104.366359 C550.48115,101.537559 549.23315,99.2079591 548.10995,97.7935592 L546.82035,98.2511591 Z M535.421951,104.865559 L538.541951,106.862359 C540.039551,104.407959 540.954751,101.371159 541.162751,98.1263591 L539.748351,97.8767592 C538.916351,100.955159 537.210751,103.201559 535.421951,104.865559 Z M542.743551,98.2927591 C543.076351,100.622359 543.242751,103.159959 543.242751,105.822359 L546.48755,105.406359 C545.988351,102.660759 545.156351,100.123159 544.074751,98.0431592 L542.743551,98.2927591 Z M614.004346,85.5215599 L597.988347,85.5215599 L597.988347,81.4447601 L609.927547,81.4447601 L609.927547,79.5727603 L597.988347,79.5727603 L597.988347,75.6207605 L612.506747,75.6207605 L612.506747,73.7487606 L600.900347,73.7487606 C602.730747,72.3343607 604.436347,70.6703608 605.933947,68.7567609 L601.815547,66.759961 C601.149947,68.9231609 599.901947,71.6687607 598.445947,73.7487606 L592.247548,73.7487606 L594.202748,71.5855607 C592.247548,70.0463608 588.295548,67.9247609 585.965948,67.009561 L585.175548,68.2991609 C586.714748,69.6719608 588.877948,71.9599607 590.375548,73.7487606 L580.058748,73.7487606 L580.058748,75.6207605 L594.077948,75.6207605 L594.077948,79.5727603 L582.679548,79.5727603 L582.679548,81.4447601 L594.077948,81.4447601 L594.077948,85.5215599 L578.602749,85.5215599 L578.602749,87.3935598 L614.004346,87.3935598 L614.004346,85.5215599 Z M598.612347,94.2991594 L613.505146,94.2991594 L613.505146,92.4271595 L597.447547,92.4271595 C597.780347,91.2207596 597.988347,89.8895596 598.071547,88.5167597 L593.828348,88.1839597 C593.745148,89.6815596 593.537148,91.0959596 593.204348,92.4271595 L578.977149,92.4271595 L578.977149,94.2991594 L592.621948,94.2991594 C590.749948,99.1247591 586.506748,102.743959 577.562749,104.990359 L578.020349,106.404759 C588.461948,104.823959 594.493948,100.955159 596.906747,94.2991594 C600.401147,102.868759 609.095547,105.531159 613.089147,106.155159 L615.252346,101.662359 C610.676347,101.246359 603.105147,100.331159 598.612347,94.2991594 Z M629.812346,80.5295602 L633.473145,80.5295602 L633.473145,75.0383605 L642.375545,74.9967605 L642.375545,80.5295602 L646.036345,80.5295602 L646.036345,74.9967605 L656.145144,74.9967605 L656.145144,73.1663606 L646.036345,73.1663606 L646.036345,67.675161 L642.375545,67.675161 L642.375545,73.1247606 L633.473145,73.1663606 L633.473145,67.675161 L629.812346,67.675161 L629.812346,73.1663606 L619.620346,73.1663606 L619.620346,75.0383605 L629.812346,75.0383605 L629.812346,80.5295602 Z M622.989946,105.988759 L626.817146,105.988759 L626.817146,102.702359 L648.823544,102.702359 L648.823544,105.697559 L652.650744,105.697559 L652.650744,82.4431601 L622.989946,82.4431601 L622.989946,105.988759 Z M626.817146,91.2207596 L626.817146,84.31516 L635.885945,84.31516 L635.885945,91.2207596 L626.817146,91.2207596 Z M639.546745,91.2207596 L639.546745,84.31516 L648.823544,84.31516 L648.823544,91.2207596 L639.546745,91.2207596 Z M626.817146,100.788759 L626.817146,93.0927594 L635.885945,93.0927594 L635.885945,100.788759 L626.817146,100.788759 Z M639.546745,100.788759 L639.546745,93.0927594 L648.823544,93.0927594 L648.823544,100.788759 L639.546745,100.788759 Z M692.669942,72.5423607 L694.625142,69.8383608 C692.628342,68.5903609 690.340342,67.716761 688.593142,67.259161 L687.844342,68.5487609 C689.217142,69.5887608 691.005942,71.1279608 692.378742,72.5423607 L686.887542,72.5423607 L686.887542,67.591961 L683.226742,67.591961 L683.226742,72.5423607 L672.369143,72.5423607 L672.369143,74.4143606 L683.226742,74.4143606 L683.226742,76.9519604 L674.698743,76.9519604 L674.698743,91.8031595 L678.193143,91.8031595 L678.193143,87.1439598 L683.226742,87.1439598 L683.226742,90.8879596 L686.887542,90.8879596 L686.887542,87.1439598 L691.962742,87.1439598 L691.962742,90.1391596 L695.457142,90.0975596 L695.457142,76.9519604 L686.887542,76.9519604 L686.887542,74.4143606 L697.786741,74.4143606 L697.786741,72.5423607 L692.669942,72.5423607 Z M673.658743,78.1167603 L669.165943,78.1167603 L669.165943,67.425561 L665.588343,67.425561 L665.588343,78.1167603 L660.845944,78.1167603 L660.845944,79.9887602 L665.588343,79.9887602 L665.588343,106.071959 L669.165943,106.071959 L669.165943,79.9887602 L673.658743,79.9887602 L673.658743,78.1167603 Z M683.226742,81.1119602 L678.193143,81.1119602 L678.193143,78.8239603 L683.226742,78.8239603 L683.226742,81.1119602 Z M691.962742,78.8239603 L691.962742,81.1119602 L686.887542,81.1119602 L686.887542,78.8239603 L691.962742,78.8239603 Z M683.226742,85.3551599 L678.193143,85.3551599 L678.193143,82.9007601 L683.226742,82.9007601 L683.226742,85.3551599 Z M691.962742,85.3551599 L686.887542,85.3551599 L686.887542,82.9007601 L691.962742,82.9007601 L691.962742,85.3551599 Z M691.546742,90.9295596 L687.885942,90.9295596 L687.885942,93.3839594 L670.954743,93.3839594 L670.954743,95.2559593 L687.885942,95.2559593 L687.885942,101.371159 C687.885942,103.159959 687.178742,103.534359 682.228342,102.119959 L681.645942,103.534359 C688.010742,108.068759 691.546742,105.905559 691.546742,102.327959 L691.546742,95.2559593 L697.745141,95.2559593 L697.745141,93.3839594 L691.546742,93.3839594 L691.546742,90.9295596 Z M676.695543,95.8383593 L675.780343,97.0447592 C677.485943,98.8335591 678.817143,100.331159 680.314743,102.369559 L682.810742,99.748759 C680.647542,97.9183592 678.484343,96.7119592 676.695543,95.8383593 Z M732.897139,100.663959 L732.897139,93.5919594 L738.346739,93.5919594 L738.346739,91.7199595 L732.897139,91.7199595 L732.897139,85.4383599 L738.305139,85.4383599 L738.305139,83.56636 L732.897139,83.56636 L732.897139,77.7839604 L739.220339,77.7839604 L739.220339,75.9119605 L724.45234,75.9119605 C725.40914,73.2911606 726.15794,70.5871608 726.61554,67.9663609 L722.58034,67.175961 C721.78994,73.2495606 720.41714,78.6575603 718.75314,82.8591601 L715.30034,82.8591601 L715.30034,70.9199608 L720.12594,70.9199608 L720.12594,69.0479609 L703.610741,69.0895609 L703.610741,70.9615608 L711.805941,70.9615608 L711.805941,82.8591601 L707.562741,82.8591601 C708.145141,79.9055602 708.727541,76.4111604 709.143541,73.4991606 L705.690741,72.9167606 C704.983541,78.3247603 704.401141,82.1103601 703.236341,86.9359598 L706.564341,87.3935598 C706.772341,86.6863598 706.980341,85.7711599 707.188341,84.7311599 L710.433141,84.7311599 C708.561141,91.1791596 704.525941,96.9615592 701.821941,99.748759 L702.737141,100.830359 C705.233141,98.9583591 709.434741,94.5903594 711.805941,89.2655597 L711.805941,101.287959 C711.805941,103.201559 711.306741,103.575959 706.106741,102.119959 L705.649141,103.534359 C712.804341,108.443159 715.30034,105.697559 715.30034,102.244759 L715.30034,84.7311599 L717.92114,84.7311599 C717.71314,85.2303599 717.46354,85.6879599 717.21394,86.1455599 L718.50354,87.0191598 C719.41874,85.8959599 720.25074,84.6479599 721.08274,83.23356 L721.04114,106.238359 L724.78514,106.238359 L724.78514,102.577559 L739.636339,102.577559 L739.636339,100.663959 L732.897139,100.663959 Z M733.687539,74.2479606 C732.938739,72.3343607 731.149939,69.0895609 729.44434,67.217561 L728.07154,67.9247609 C728.94514,70.2543608 729.90194,73.9983606 730.23474,75.5375605 L733.687539,74.2479606 Z M729.23634,83.56636 L724.78514,83.56636 L724.78514,77.7839604 L729.23634,77.7839604 L729.23634,83.56636 Z M729.23634,91.7199595 L724.78514,91.7199595 L724.78514,85.4383599 L729.23634,85.4383599 L729.23634,91.7199595 Z M729.23634,100.663959 L724.78514,100.663959 L724.78514,93.5919594 L729.23634,93.5919594 L729.23634,100.663959 Z M765.761137,75.5375605 C767.050737,72.7087607 767.841137,70.0879608 768.298737,68.2159609 L764.221937,67.217561 C763.223538,73.0415606 761.684338,78.2415603 758.522738,83.77436 L759.729138,84.7311599 C761.892338,82.4431601 763.556338,79.9055602 764.845937,77.4095604 L775.578737,77.4095604 C775.578737,90.9711596 774.996337,97.4191592 774.538737,99.831959 C773.914737,103.201559 772.125937,102.660759 765.553137,100.414359 L764.929137,101.787159 C772.375537,107.860759 777.367537,106.820759 778.282737,101.412759 C778.948337,97.4607592 779.364337,89.6815596 779.405937,75.5375605 L765.761137,75.5375605 Z M755.277938,84.39836 C755.777138,85.3551599 756.276338,86.4783598 756.775538,87.6847598 C754.445938,87.9759598 751.908338,88.2255597 749.453938,88.3919597 C753.031538,85.2719599 757.149938,80.5711602 760.228338,75.1631605 L756.609138,73.3743606 C755.652338,75.4127605 754.778738,77.2015604 753.905138,78.8239603 C752.407538,78.9487603 750.785138,79.0319603 749.121138,79.1151603 C751.242738,76.3695604 753.655538,72.4175607 755.444338,68.5903609 L751.617138,67.259161 C750.577138,71.2527607 748.871538,75.9119605 747.332339,79.1151603 C746.500339,79.1151603 745.626739,79.1151603 744.753139,79.0735603 L745.501939,82.6095601 C747.789938,82.2767601 750.369138,81.6527601 752.740338,80.9039602 C750.993138,83.89916 749.287538,86.2287599 747.290739,88.4751597 C746.209139,88.5167597 745.169139,88.5167597 744.170739,88.4751597 L745.002739,92.4687595 C748.705138,91.8863595 753.530738,90.5967596 757.441138,89.1823597 C757.981938,90.5551596 758.481138,91.9279595 758.855538,93.1343594 L762.183538,91.3455596 C760.977138,88.9743597 758.605938,85.8127599 756.567538,83.60796 L755.277938,84.39836 Z M772.375537,92.1775595 C770.461937,88.6831597 767.591537,84.9807599 764.679537,82.2351601 L763.473138,83.15036 C765.386737,86.6863598 767.217137,90.6799596 768.589937,94.2575594 L772.375537,92.1775595 Z M754.861938,92.3023595 C756.026738,94.9231593 757.233138,98.6255591 757.940338,101.371159 L761.351538,99.915159 C760.311538,97.5855592 757.981938,93.7167594 756.193138,91.6783595 L754.861938,92.3023595 Z M751.076338,93.2591594 C751.492338,96.5871592 751.866738,100.996759 751.866738,103.950359 L755.693938,103.367959 C755.194738,100.331159 753.905138,96.2127593 752.532338,92.9263595 L751.076338,93.2591594 Z M747.623538,93.3839594 C746.957939,97.8351592 745.543539,101.662359 744.004339,104.158359 L747.831538,105.780759 C748.871538,103.076759 749.329138,98.4591591 749.121138,93.5503594 L747.623538,93.3839594 Z M822.378734,94.8815593 L820.881134,94.8399593 C820.881134,100.414359 820.257134,103.201559 817.428334,98.8335591 C816.845934,97.9183592 816.263534,96.7535592 815.722734,95.2559593 C817.594734,92.6351595 819.341934,89.3071597 821.005934,84.9391599 L817.553134,83.15036 C816.596334,86.2287599 815.597934,88.8079597 814.516335,91.0127596 C813.975535,88.4751597 813.517935,85.3967599 813.226735,81.6527601 L822.378734,80.4047602 L822.170734,78.5327603 C819.133934,78.9903603 816.138734,79.3647603 813.101935,79.7807602 C812.893935,76.2863604 812.769135,72.2927607 812.852335,67.675161 L809.524335,67.675161 C809.482735,72.3343607 809.565935,76.4943604 809.773935,80.1967602 L806.737135,80.5711602 L806.861935,82.4431601 L809.898735,82.0687601 C810.314735,87.5183598 811.021935,91.8447595 812.020335,95.2975593 C809.399535,98.9583591 806.196335,101.329559 801.869935,103.867159 L802.618735,105.115159 C806.778735,103.284759 810.148335,101.412759 813.060335,98.4175591 C813.684335,99.915159 814.349935,101.163159 815.057134,102.203159 C820.257134,109.691158 824.833134,104.657559 822.378734,94.8815593 Z M796.129136,69.2975609 L787.185136,69.2975609 L787.185136,77.5759604 L796.129136,77.5759604 L796.129136,69.2975609 Z M807.153135,69.2975609 L798.250735,69.2975609 L798.250735,77.5759604 L807.153135,77.5759604 L807.153135,69.2975609 Z M821.421934,75.1631605 C819.466734,72.5839607 818.093934,71.1695608 815.681134,69.4639609 L814.557934,70.5039608 C815.930734,72.6255607 817.261934,75.1215605 818.218734,77.3679604 L821.421934,75.1631605 Z M792.967536,75.7039605 L790.429936,75.7039605 L790.429936,71.1695608 L792.967536,71.1695608 L792.967536,75.7039605 Z M803.991535,75.7039605 L801.412335,75.7039605 L801.412335,71.1695608 L803.991535,71.1695608 L803.991535,75.7039605 Z M807.860335,96.1295593 L798.708335,96.1295593 L798.708335,93.1759594 L805.738735,93.1759594 L805.738735,79.9055602 L788.183536,79.9055602 L788.183536,93.1759594 L795.130736,93.1759594 L795.130736,96.1295593 L786.061936,96.1295593 L786.061936,98.0015592 L795.130736,98.0015592 L795.130736,105.863959 L798.708335,105.863959 L798.708335,98.0015592 L807.860335,98.0015592 L807.860335,96.1295593 Z M795.130736,85.4799599 L791.594736,85.4799599 L791.594736,81.7775601 L795.130736,81.7775601 L795.130736,85.4799599 Z M798.708335,81.7775601 L802.327535,81.7775601 L802.327535,85.4799599 L798.708335,85.4799599 L798.708335,81.7775601 Z M795.130736,91.3039596 L791.594736,91.3039596 L791.594736,87.3519598 L795.130736,87.3519598 L795.130736,91.3039596 Z M798.708335,87.3519598 L802.327535,87.3519598 L802.327535,91.3039596 L798.708335,91.3039596 L798.708335,87.3519598 Z" id="path-2"></path>
        <filter x="-50%" y="-50%" width="200%" height="200%" filterUnits="objectBoundingBox" id="filter-3">
            <feOffset dx="0" dy="2" in="SourceAlpha" result="shadowOffsetOuter1"></feOffset>
            <feGaussianBlur stdDeviation="1.5" in="shadowOffsetOuter1" result="shadowBlurOuter1"></feGaussianBlur>
            <feColorMatrix values="0 0 0 0 0   0 0 0 0 0   0 0 0 0 0  0 0 0 0.5 0" type="matrix" in="shadowBlurOuter1"></feColorMatrix>
        </filter>
        <path d="M19.5583988,404.232617 C21.1199987,401.007017 21.6831987,397.423017 21.8111987,393.787818 L23.5775986,393.787818 L23.5775986,392.635818 L17.535999,392.635818 C18.1503989,390.741418 18.5599989,388.898218 18.7903989,387.387818 L16.332799,387.003818 C16.153599,390.639018 15.2319991,395.323818 13.7471992,398.472617 L13.7471992,396.808618 L9.44639944,396.808618 L9.44639944,395.477418 L13.3119992,395.477418 L13.3119992,392.891818 L15.1039991,392.891818 L15.1039991,391.739818 L13.3119992,391.739818 L13.3119992,389.179818 L9.44639944,389.179818 L9.44639944,387.234218 L7.24479957,387.234218 L7.24479957,389.179818 L3.45599979,389.179818 L3.45599979,391.739818 L1.7151999,391.739818 L1.7151999,392.891818 L3.45599979,392.891818 L3.45599979,395.477418 L7.24479957,395.477418 L7.24479957,396.808618 L2.94399982,396.808618 L2.94399982,400.853417 L6.93759959,400.853417 C6.7583996,401.339817 6.45119962,402.005417 6.09279964,402.696617 L2.07359988,402.696617 L2.04799988,403.848617 L5.47839967,403.848617 C4.60799973,405.410217 3.68639978,406.946217 3.2767998,407.483817 L5.0431997,408.431017 C5.29919968,408.047017 5.63199966,407.535017 5.99039964,406.920617 C6.7327996,407.202217 7.44959956,407.509417 8.14079951,407.867817 C6.6303996,409.147817 4.50559973,409.915817 1.97119988,410.197417 L2.22719987,410.991017 C5.17119969,410.863017 7.83359953,410.120617 9.75359942,408.738217 C10.6239994,409.250217 11.5199993,409.864617 12.4415993,410.581417 L13.7471992,408.610217 C12.9791992,408.175017 12.1087993,407.765417 11.1871993,407.407017 C12.0063993,406.434217 12.5695993,405.256617 12.7999992,403.848617 L15.4111991,403.848617 L15.4111991,402.696617 L8.3199995,402.696617 C8.60159949,402.159017 8.83199947,401.672617 8.98559946,401.339817 L7.55199955,400.853417 L13.7471992,400.853417 L13.7471992,398.728617 L14.4127991,399.138217 C15.0271991,398.267817 15.5903991,397.295018 16.076799,396.271018 C16.281599,399.650217 16.844799,402.261417 17.6383989,404.335017 C16.691199,406.434217 15.3343991,408.354217 13.4143992,410.146217 L13.9775992,410.786217 C15.8975991,409.378217 17.356799,407.816617 18.4575989,406.127017 C19.6351988,408.328617 21.1199987,409.787817 22.6303987,411.016617 L24.4223985,408.687017 C22.3743987,407.560617 20.7359988,406.075817 19.5583988,404.232617 Z M5.55519967,390.331818 L7.24479957,390.331818 L7.24479957,391.739818 L5.55519967,391.739818 L5.55519967,390.331818 Z M9.44639944,390.331818 L11.2127993,390.331818 L11.2127993,391.739818 L9.44639944,391.739818 L9.44639944,390.331818 Z M5.55519967,394.325418 L5.55519967,392.891818 L7.24479957,392.891818 L7.24479957,394.325418 L5.55519967,394.325418 Z M9.44639944,392.891818 L11.2127993,392.891818 L11.2127993,394.325418 L9.44639944,394.325418 L9.44639944,392.891818 Z M16.921599,394.376618 C16.972799,394.171818 17.049599,393.992618 17.126399,393.787818 L19.6607988,393.787818 C19.5839988,396.885418 19.2511989,399.675817 18.4575989,402.184617 C17.510399,399.983017 16.998399,397.397417 16.921599,394.376618 Z M5.0943997,397.960617 L7.24479957,397.960617 L7.24479957,399.701417 L5.0943997,399.701417 L5.0943997,397.960617 Z M11.5967993,399.701417 L9.44639944,399.701417 L9.44639944,397.960617 L11.5967993,397.960617 L11.5967993,399.701417 Z M10.5471994,403.848617 C10.2911994,404.975017 9.85599941,405.922217 9.24159945,406.741417 C8.3199995,406.459817 7.39839956,406.229417 6.50239961,406.024617 C6.91199959,405.307817 7.32159956,404.565417 7.70559954,403.848617 L10.5471994,403.848617 Z M34.303998,398.447017 C35.9423979,397.039018 37.1711978,395.323818 38.1439977,393.173418 L46.0799973,393.173418 C45.5679973,394.939818 45.0815973,396.168618 43.8527974,398.165417 L44.5183973,398.677417 C46.3871972,397.192618 48.4095971,394.683818 49.3311971,393.045418 L46.8479972,391.535018 L46.0543973,392.021418 L38.6303977,392.021418 C39.1679977,390.587818 39.6031976,389.000618 39.9871976,387.208618 L37.1967978,386.773418 C36.6591978,392.021418 35.6863979,395.067818 33.612798,397.807017 L34.303998,398.447017 Z M33.689598,394.197418 C32.3583981,392.789418 29.9519982,390.997418 28.0063983,389.922218 L27.4175984,390.639018 C28.9023983,392.328618 30.5919982,394.325418 31.7951981,396.066218 L33.689598,394.197418 Z M41.7791975,397.679017 C41.8303975,396.629418 41.8047975,395.579818 41.8303975,394.555818 L39.3215977,394.555818 L39.3215977,396.680618 C39.3215977,401.263017 37.7599977,406.946217 30.4127982,410.095017 L30.7967982,410.914217 C37.6575978,408.712617 40.5759976,404.360617 41.4975975,399.727017 C42.4703975,405.435817 45.2095973,409.019817 48.5887971,410.735017 L50.252797,408.098217 C46.3359972,406.383017 43.4175974,404.079017 41.7791975,397.679017 Z M35.7119979,399.931817 L35.0719979,399.266217 C32.6911981,401.467817 29.4655982,403.797417 26.9311984,405.231017 L28.6975983,407.509417 C31.1551981,405.461417 34.047998,402.440617 35.7119979,399.931817 Z M65.6639961,395.375018 L74.6751955,395.375018 L74.6751955,393.967018 L65.0239961,393.967018 L65.1007961,392.968618 C65.2031961,390.997418 65.2543961,389.154218 65.2543961,387.131818 L62.6431963,387.055018 C62.6175963,388.744618 62.5919963,390.587818 62.5151963,392.149418 C62.4895963,392.763818 62.4383963,393.378218 62.3871963,393.967018 L53.4015968,393.967018 L53.4015968,395.375018 L62.2079963,395.375018 C61.0047964,403.387817 57.0111966,407.586217 52.5567969,410.120617 L53.0175968,410.991017 C58.5471965,408.866217 63.4623962,403.643817 64.7935961,395.861418 C66.1247961,404.821417 71.5519957,409.685417 74.0095956,410.811817 L75.8783955,407.893417 C72.3967957,406.357417 67.558396,402.722217 65.6639961,395.375018 Z M94.5919944,398.139817 L100.812794,398.139817 L100.812794,396.987818 L98.0991942,396.987818 L98.6111941,387.899818 L93.3887944,387.899818 L93.3887944,388.975018 L96.4351943,388.975018 L96.3327943,390.971818 L93.6703944,390.971818 L93.6703944,392.047018 L96.2815943,392.047018 L96.2047943,394.120618 L93.5423944,394.120618 L93.5423944,395.195818 L96.1535943,395.195818 L96.0511943,396.987818 L92.0831945,396.987818 C92.2879945,395.400618 92.5695945,393.199018 92.7487945,391.586218 L88.9855947,391.586218 C89.0879947,391.048618 89.1903947,390.511018 89.2671947,389.973418 L92.7743945,389.973418 L92.7743945,388.898218 L89.4207947,388.898218 C89.5231947,388.258218 89.5999947,387.618218 89.6767947,387.080618 L87.7567948,386.927018 C87.5007948,388.770218 87.1423948,391.432618 86.7071948,393.301418 L88.6015947,393.480618 C88.6527947,393.224618 88.7295947,392.943018 88.7807947,392.661418 L90.7775946,392.661418 C90.5983946,394.069418 90.3935946,395.707818 90.2143946,396.987818 L88.3455947,396.987818 C88.5247947,396.168618 88.6271947,395.477418 88.8063947,394.248618 L86.9119948,394.069418 C86.8095948,395.067818 86.6815948,396.040618 86.4767948,396.987818 L82.9695951,396.987818 L82.8927951,395.093418 L86.0159949,395.093418 L86.0159949,394.018218 L82.8671951,394.018218 L82.7903951,392.047018 L85.8623949,392.047018 L85.8623949,390.971818 L82.7391951,390.971818 L82.6879951,389.589418 C84.070395,389.384618 85.8623949,388.923818 86.9375948,388.463018 L85.4783949,386.824618 C84.684795,387.515818 83.686395,388.130218 82.5599951,388.667818 L80.4863952,388.207018 C80.6655952,391.330218 80.7935952,394.043818 80.9215952,396.987818 L78.3359953,396.987818 L78.3359953,398.139817 L83.609595,398.139817 C82.6367951,400.315817 80.9471952,402.184617 77.9007954,403.951017 L78.3359953,404.744617 C81.8687951,403.387817 84.684795,401.263017 86.2719949,398.139817 L93.4655944,398.139817 C95.0527943,401.314217 97.6895942,403.029417 99.839994,404.002217 L101.478394,401.647017 C99.2511941,401.083817 96.7167942,400.418217 94.5919944,398.139817 Z M90.7007946,402.645417 L95.2063943,402.645417 L95.2063943,401.493417 L90.7007946,401.493417 L90.7007946,398.882217 L88.4991947,398.882217 L88.4991947,401.493417 L84.249595,401.493417 L84.249595,402.645417 L88.4991947,402.645417 L88.4991947,405.128617 L80.8703952,405.128617 L80.8703952,406.280617 L88.4991947,406.280617 L88.4991947,410.760617 L90.7007946,410.760617 L90.7007946,406.280617 L98.6367941,406.280617 L98.6367941,405.128617 L90.7007946,405.128617 L90.7007946,402.645417 Z M103.603194,409.967017 L104.115194,410.786217 C110.694393,407.688617 114.841593,401.442217 115.993593,396.219818 C117.324793,404.258217 120.934393,408.072617 124.851193,410.786217 L126.950392,407.944617 C120.422393,404.360617 116.275193,398.575017 116.275193,388.795818 L107.852794,388.795818 L107.852794,390.075818 L114.431993,390.075818 C113.817593,399.138217 109.747193,406.152617 103.603194,409.967017 Z M136.371192,387.823018 L133.887992,387.055018 C132.838392,392.405418 130.815992,397.346217 129.023992,400.008617 L129.715192,400.597417 C130.534392,399.829417 131.455992,398.651817 132.351992,397.192618 L132.351992,410.991017 L134.553592,410.991017 L134.553592,393.019818 C135.295992,391.381418 135.935992,389.589418 136.371192,387.823018 Z M146.943991,391.535018 L136.191992,391.535018 L136.191992,392.687018 L146.943991,392.687018 L146.943991,394.607018 L138.291192,394.607018 L138.291192,395.759018 L149.196791,395.759018 L149.196791,392.687018 L152.089591,392.687018 L152.089591,391.535018 L149.196791,391.535018 L149.196791,388.591018 L138.393592,388.591018 L138.393592,389.743018 L146.943991,389.743018 L146.943991,391.535018 Z M151.628791,401.800617 L151.628791,397.499817 L135.679992,397.499817 L135.679992,401.800617 L137.830392,401.800617 L137.830392,398.651817 L149.427191,398.651817 L149.427191,401.800617 L151.628791,401.800617 Z M152.473591,408.328617 C149.734391,408.021417 147.302391,407.611817 145.228791,406.639017 C146.815991,405.205417 147.993591,403.490217 148.889591,401.595817 L146.483191,400.443817 L145.894391,400.853417 L138.470392,400.853417 L138.470392,401.928617 L139.494392,401.928617 C140.236792,403.925417 141.209592,405.487017 142.387192,406.715817 C140.825592,407.970217 138.649592,409.122217 135.500792,410.146217 L135.807992,411.016617 C139.084792,410.351017 141.644792,409.275817 143.667191,407.893417 C145.868791,409.608617 148.505591,410.402217 151.244791,410.786217 L152.473591,408.328617 Z M145.971191,401.928617 C145.407991,403.183017 144.716791,404.437417 143.539191,405.666217 C142.310392,404.770217 141.286392,403.567017 140.441592,401.928617 L145.971191,401.928617 Z M172.62079,394.760618 L177.612789,394.760618 L177.587189,393.608618 L164.88959,393.608618 C165.55519,391.611818 166.19519,389.615018 166.70719,387.720618 L164.42879,387.106218 C163.83999,389.231018 163.14879,391.458218 162.40639,393.608618 L155.622391,393.608618 L155.622391,394.760618 L161.99679,394.760618 C160.66559,398.523817 159.231991,402.005417 158.105591,404.309417 L160.28159,405.103017 C160.66559,404.335017 161.04959,403.490217 161.45919,402.543017 C162.84159,403.157417 164.32639,403.899817 165.81119,404.719017 C163.45599,407.099817 160.02559,408.968617 155.289591,409.967017 L155.519991,410.863017 C161.12639,410.197417 165.06879,408.328617 167.73119,405.819817 C170.41919,407.432617 173.00479,409.173417 174.89919,410.658217 L176.665589,408.072617 C174.64319,406.818217 172.00639,405.461417 169.21599,404.232617 C171.46879,401.416617 172.46719,398.037417 172.62079,394.760618 Z M161.89439,401.519017 C162.76479,399.471017 163.66079,397.141418 164.50559,394.760618 L170.18879,394.760618 C169.90719,397.883817 168.93439,400.827817 167.01439,403.311017 C165.32479,402.645417 163.58399,402.031017 161.89439,401.519017 Z M198.476788,404.744617 C200.140788,402.210217 201.369588,398.959017 202.060788,394.735018 L199.807988,393.941418 L199.295988,394.351018 L193.459188,394.351018 L193.459188,390.203818 C196.505588,390.101418 199.577588,389.717418 202.470388,389.026218 L200.447988,386.927018 C198.348788,388.104618 195.814388,388.923818 193.331188,389.256618 L191.155189,388.642218 L191.155189,396.680618 C191.155189,403.746217 190.515189,407.202217 189.414389,409.019817 L189.414389,399.343017 L184.345589,399.343017 C184.371189,398.805417 184.371189,398.216617 184.371189,397.627817 L184.371189,395.989418 L190.463989,395.989418 L190.463989,394.837418 L188.927989,394.837418 L188.927989,387.515818 L186.828789,387.515818 L186.828789,394.837418 L184.371189,394.837418 L184.371189,387.234218 L182.118389,387.234218 L182.118389,396.578218 C182.118389,404.283817 181.836789,407.842217 180.454389,410.607017 L181.196789,411.144617 C182.451189,409.685417 183.961589,406.843817 184.294389,400.495017 L187.263989,400.495017 L187.263989,410.735017 L189.414389,410.735017 L189.414389,410.018217 L189.619189,410.197417 C192.716789,407.432617 193.459188,402.261417 193.459188,395.963818 L193.459188,395.503018 L199.423988,395.503018 C199.039988,398.191017 198.348788,400.751017 197.222388,403.029417 C196.095988,401.211817 195.199988,398.805417 194.841588,395.528618 L193.894388,395.503018 C194.201588,399.573417 195.097588,402.594217 196.198388,404.821417 C194.815988,406.946217 192.947188,408.789417 190.489589,410.197417 L190.950389,410.991017 C193.279988,409.967017 195.404788,408.533417 197.145588,406.511017 C198.835188,409.071017 200.755188,410.274217 201.932788,410.888617 L203.571188,408.379817 C202.265588,407.739817 200.243188,406.767017 198.476788,404.744617 Z M225.894387,387.208618 L225.894387,407.970217 C225.894387,409.071017 225.561587,409.173417 222.540787,408.456617 L222.259187,409.352617 C226.047987,411.912617 228.095986,410.811817 228.095986,408.456617 L228.095986,387.208618 L225.894387,387.208618 Z M207.129588,410.735017 L209.331188,410.735017 L209.331188,387.234218 L207.129588,387.234218 L207.129588,410.735017 Z M217.139187,393.839018 L214.655987,393.839018 L214.655987,391.765418 L216.729587,391.765418 L216.729587,390.690218 L214.655987,390.690218 L214.655987,388.821418 L217.190387,388.821418 L217.190387,387.746218 L210.073587,387.746218 L210.073587,388.821418 L212.505587,388.821418 L212.505587,390.690218 L210.559987,390.690218 L210.559987,391.765418 L212.505587,391.765418 L212.505587,393.839018 L209.996787,393.839018 L209.996787,394.991018 L217.139187,394.991018 L217.139187,393.839018 Z M220.492787,390.690218 L218.444787,390.690218 L218.444787,391.765418 L220.492787,391.765418 L220.492787,393.839018 L217.983987,393.839018 L217.983987,394.991018 L225.203187,394.991018 L225.203187,393.839018 L222.643187,393.839018 L222.643187,391.765418 L224.742387,391.765418 L224.742387,390.690218 L222.643187,390.690218 L222.643187,388.821418 L225.203187,388.821418 L225.203187,387.746218 L217.958387,387.746218 L217.958387,388.821418 L220.492787,388.821418 L220.492787,390.690218 Z M223.487987,406.075817 L223.487987,400.955817 L218.598387,400.955817 L218.598387,399.061417 L224.844787,399.061417 L224.844787,397.909417 L218.649587,397.909417 L219.494387,396.680618 C218.214387,395.989418 216.908787,395.579818 215.756787,395.298218 L215.423987,396.091818 C216.166387,396.603818 217.036787,397.243818 217.753587,397.909417 L210.303987,397.909417 L210.303987,399.061417 L216.550387,399.061417 L216.550387,400.955817 L211.763187,400.955817 L211.763187,408.328617 L213.836787,408.328617 L213.836787,402.031017 L216.550387,402.031017 L216.550387,410.043817 L218.598387,410.043817 L218.598387,402.031017 L221.516787,402.031017 L221.516787,405.640617 C221.516787,406.408617 221.107187,406.485417 219.417587,405.871017 L219.059187,406.639017 C221.747187,409.250217 223.487987,407.714217 223.487987,406.075817 Z M249.676785,404.744617 C251.340785,402.210217 252.569585,398.959017 253.260785,394.735018 L251.007985,393.941418 L250.495985,394.351018 L244.659185,394.351018 L244.659185,390.203818 C247.705585,390.101418 250.777585,389.717418 253.670385,389.026218 L251.647985,386.927018 C249.548785,388.104618 247.014385,388.923818 244.531185,389.256618 L242.355186,388.642218 L242.355186,396.680618 C242.355186,403.746217 241.715186,407.202217 240.614386,409.019817 L240.614386,399.343017 L235.545586,399.343017 C235.571186,398.805417 235.571186,398.216617 235.571186,397.627817 L235.571186,395.989418 L241.663986,395.989418 L241.663986,394.837418 L240.127986,394.837418 L240.127986,387.515818 L238.028786,387.515818 L238.028786,394.837418 L235.571186,394.837418 L235.571186,387.234218 L233.318386,387.234218 L233.318386,396.578218 C233.318386,404.283817 233.036786,407.842217 231.654386,410.607017 L232.396786,411.144617 C233.651186,409.685417 235.161586,406.843817 235.494386,400.495017 L238.463986,400.495017 L238.463986,410.735017 L240.614386,410.735017 L240.614386,410.018217 L240.819186,410.197417 C243.916785,407.432617 244.659185,402.261417 244.659185,395.963818 L244.659185,395.503018 L250.623985,395.503018 C250.239985,398.191017 249.548785,400.751017 248.422385,403.029417 C247.295985,401.211817 246.399985,398.805417 246.041585,395.528618 L245.094385,395.503018 C245.401585,399.573417 246.297585,402.594217 247.398385,404.821417 C246.015985,406.946217 244.147185,408.789417 241.689586,410.197417 L242.150386,410.991017 C244.479985,409.967017 246.604785,408.533417 248.345585,406.511017 C250.035185,409.071017 251.955185,410.274217 253.132785,410.888617 L254.771185,408.379817 C253.465585,407.739817 251.443185,406.767017 249.676785,404.744617 Z" id="path-4"></path>
        <filter x="-50%" y="-50%" width="200%" height="200%" filterUnits="objectBoundingBox" id="filter-5">
            <feOffset dx="0" dy="2" in="SourceAlpha" result="shadowOffsetOuter1"></feOffset>
            <feGaussianBlur stdDeviation="1.5" in="shadowOffsetOuter1" result="shadowBlurOuter1"></feGaussianBlur>
            <feColorMatrix values="0 0 0 0 0   0 0 0 0 0   0 0 0 0 0  0 0 0 0.5 0" type="matrix" in="shadowBlurOuter1"></feColorMatrix>
        </filter>
        <linearGradient x1="50%" y1="0%" x2="50%" y2="100%" id="linearGradient-6">
            <stop stop-color="#FFBEBE" stop-opacity="0.813037817" offset="0%"></stop>
            <stop stop-color="#FFBEBE" stop-opacity="0" offset="100%"></stop>
        </linearGradient>
        <linearGradient x1="50%" y1="0%" x2="50%" y2="103.751604%" id="linearGradient-7">
            <stop stop-color="#FFBEBE" stop-opacity="0.813037817" offset="0%"></stop>
            <stop stop-color="#FFBEBE" stop-opacity="0" offset="100%"></stop>
        </linearGradient>
        <linearGradient x1="50%" y1="0%" x2="50%" y2="117.805316%" id="linearGradient-8">
            <stop stop-color="#FFBEBE" stop-opacity="0.813037817" offset="0%"></stop>
            <stop stop-color="#FFBEBE" stop-opacity="0" offset="100%"></stop>
        </linearGradient>
    </defs>
    <g id="Page-1" stroke="none" stroke-width="1" fill="none" fill-rule="evenodd">
        <g id="Group-18-Copy">
            <rect id="Rectangle-14-Copy-3" fill="#000000" x="0" y="0" width="1440" height="730"></rect>
            <g id="Group-13" transform="translate(187.000000, 45.000000)">
                <ellipse id="Oval-3-Copy-4" fill="#FFBEBE" cx="850.718025" cy="4.80140187" rx="4.80179506" ry="4.80140187"></ellipse>
                <polyline id="Path-3" stroke="#FFBEBE" stroke-width="2.39999986" stroke-linecap="round" stroke-linejoin="round" points="1.60059835 592.573014 70.030858 592.573014 74.8279731 574.967874 80.4300673 558.162967 84.4315632 529.754673 91.6342558 538.157126 96.8362004 498.145444 101.637996 544.558995 107.640239 559.363318 114.042633 565.36507 119.244577 566.965537 125.246821 552.961449 128.448018 500.546145 134.850411 538.557243 139.252057 564.16472 144.454001 566.565421 151.656694 564.964953 157.658938 557.76285 163.261032 554.561916 168.462977 572.167056 173.264772 570.566589 179.667165 568.566005 184.068811 568.966121 189.670905 577.768692 194.87285 576.968458 201.675393 572.96729 206.477188 561.363902 212.079282 580.569509 219.281975 582.570093 223.68362 576.168224 227.284966 574.16764 235.287958 562.964369 238.489155 578.168808 244.891548 570.566589 249.293194 574.967874 257.296185 575.367991 262.097981 571.366822 268.500374 569.366238 272.50187 574.967874 278.504114 572.96729 284.106208 552.961449 289.308153 568.966121 294.510097 577.768692 300.112191 566.565421 306.114435 574.16764 311.71653 560.163551 316.918474 566.565421 323.320868 554.962033 327.722513 568.966121 333.324607 583.370327 339.326851 572.96729 344.928945 576.168224 350.931189 569.366238 355.332835 575.768107 362.135378 565.765187 366.537023 576.968458 371.738968 577.368575 377.741212 579.369159 381.342558 575.768107 388.545251 546.959696 395.347794 546.159463 399.749439 576.968458 405.751683 554.561916 410.953628 582.169977 418.15632 586.171145 422.557966 581.369743 425.759162 582.570093 432.961855 563.364486 437.76365 565.36507 442.965595 576.568341 449.768138 569.366238 454.970082 561.363902 460.972326 566.565421 466.57442 548.560164 471.376215 566.165304 477.378459 564.564836 482.180254 566.165304 486.18175 572.167056 492.984293 575.768107 500.186986 574.967874 504.188482 582.169977 510.590875 577.768692 515.39267 575.768107 517.393418 582.97021 526.196709 571.366822 532.599102 550.160631 537.801047 521.752336 543.002992 418.122079 548.605086 510.549065 554.20718 548.160047 560.609574 555.36215 565.011219 566.565421 569.012715 563.364486 576.215408 554.962033 579.816754 530.955023 588.219895 543.358645 592.621541 561.764019 599.023934 545.359229 603.42558 571.766939 619.431563 574.967874 638.238594 572.167056 643.040389 550.960864 648.242334 563.364486 659.446522 538.95736 665.448766 536.556659 670.250561 564.564836 681.0546 558.963201 686.656694 574.567757 691.858639 532.155374 697.860883 574.967874 715.067315 561.764019 720.26926 578.168808 727.471952 579.369159 729.87285 562.564252 741.877337 573.367407 757.483171 563.364486 773.889304 570.966706 781.492147 584.970794 786.293942 568.165888 791.495886 578.969042 801.099476 579.369159 815.504862 564.964953 817.905759 553.361565 823.507853 571.366822 829.510097 571.366822 836.31264 414.521028 840.714286 154.044977 846.31638 261.276285 850.718025 3.20093458 857.920718 129.63785 863.522812 378.910631 866.323859 521.35222 879.928945 543.758762 885.53104 519.751752 890.732984 564.964953 901.537023 573.767523 906.738968 512.54965 912.341062 574.967874 918.743455 546.959696 922.344802 568.966121 929.147345 555.762266 933.54899 506.547897 938.750935 550.160631 945.153328 560.963785 949.154824 557.76285 956.357517 571.366822 961.959611 581.369743 967.961855 568.566005 972.76365 526.553738 977.965595 557.362734 985.968586 559.763435 991.570681 579.369159 1001.17427 568.165888 1013.17876 552.161215 1017.5804 567.765771 1027.98429 574.567757 1040.38893 544.158879 1044.39043 564.564836 1053.99402 566.965537 1056.79506 573.767523 1066.39865 589.772196"></polyline>
                <polygon id="Path-3" fill="url(#linearGradient-1)" points="0.800299177 592.573014 70.030858 592.573014 74.8279731 574.967874 80.4300673 558.162967 84.4315632 529.754673 91.6342558 538.157126 96.8362004 498.145444 101.637996 544.558995 107.640239 559.363318 114.042633 565.36507 119.244577 566.965537 125.246821 552.961449 128.448018 500.546145 134.850411 538.557243 139.252057 564.16472 144.454001 566.565421 151.656694 564.964953 157.658938 557.76285 163.261032 554.561916 168.462977 572.167056 173.264772 570.566589 179.667165 568.566005 184.068811 568.966121 189.670905 577.768692 194.87285 576.968458 201.675393 572.96729 206.477188 561.363902 212.079282 580.569509 219.281975 582.570093 223.68362 576.168224 227.284966 574.16764 235.287958 562.964369 238.489155 578.168808 244.891548 570.566589 249.293194 574.967874 257.296185 575.367991 262.097981 571.366822 268.500374 569.366238 272.50187 574.967874 278.504114 572.96729 284.106208 552.961449 289.308153 568.966121 294.510097 577.768692 300.112191 566.565421 306.114435 574.16764 311.71653 560.163551 316.918474 566.565421 323.320868 554.962033 327.722513 568.966121 333.324607 583.370327 339.326851 572.96729 344.928945 576.168224 350.931189 569.366238 355.332835 575.768107 362.135378 565.765187 366.537023 576.968458 371.738968 577.368575 377.741212 579.369159 381.342558 575.768107 388.545251 546.959696 395.347794 546.159463 399.749439 576.968458 405.751683 554.561916 410.953628 582.169977 418.15632 586.171145 422.557966 581.369743 425.759162 582.570093 432.961855 563.364486 437.76365 565.36507 442.965595 576.568341 449.768138 569.366238 454.970082 561.363902 460.972326 566.565421 466.57442 548.560164 471.376215 566.165304 477.378459 564.564836 482.180254 566.165304 486.18175 572.167056 492.984293 575.768107 500.186986 574.967874 504.188482 582.169977 510.590875 577.768692 515.39267 575.768107 517.393418 582.97021 526.196709 571.366822 532.599102 550.160631 537.801047 521.752336 543.002992 418.122079 548.605086 510.549065 554.20718 548.160047 560.609574 555.36215 565.011219 566.565421 569.012715 563.364486 576.215408 554.962033 579.816754 530.955023 588.219895 543.358645 592.621541 561.764019 599.023934 545.359229 603.42558 571.766939 619.431563 574.967874 638.238594 572.167056 643.040389 550.960864 648.242334 563.364486 659.446522 538.95736 665.448766 536.556659 670.250561 564.564836 681.0546 558.963201 686.656694 574.567757 691.858639 532.155374 697.860883 574.967874 715.067315 561.764019 720.26926 578.168808 727.471952 579.369159 729.87285 562.564252 741.877337 573.367407 757.483171 563.364486 773.889304 570.966706 781.492147 584.970794 786.293942 568.165888 791.495886 578.969042 801.099476 579.369159 815.504862 564.964953 817.905759 553.361565 823.507853 571.366822 829.510097 571.366822 836.31264 414.521028 840.714286 154.044977 846.31638 261.276285 850.718025 3.20093458 857.920718 129.63785 863.522812 378.910631 866.323859 521.35222 879.928945 543.758762 885.53104 519.751752 890.732984 564.964953 901.537023 573.767523 906.738968 512.54965 912.341062 574.967874 918.743455 546.959696 922.344802 568.966121 929.147345 555.762266 933.54899 506.547897 938.750935 550.160631 945.153328 560.963785 949.154824 557.76285 956.357517 571.366822 961.959611 581.369743 967.961855 568.566005 972.76365 526.553738 977.965595 557.362734 985.968586 559.763435 991.570681 579.369159 1001.17427 568.165888 1013.17876 552.161215 1017.5804 567.765771 1027.98429 574.567757 1040.38893 544.158879 1044.39043 564.564836 1053.99402 566.965537 1056.79506 573.767523 1067.56677 587.231058 1069.59985 676.997664 0.800299177 677.797897"></polygon>
                <g id="蘇美苗博雅約戰">
                    <use fill="black" fill-opacity="1" filter="url(#filter-3)" xlink:href="#path-2"></use>
                    <use fill="#FFFFFF" fill-rule="evenodd" xlink:href="#path-2"></use>
                </g>
                <g id="數次大舉入侵女版鬧版">
                    <use fill="black" fill-opacity="1" filter="url(#filter-5)" xlink:href="#path-4"></use>
                    <use fill="#FFFFFF" fill-rule="evenodd" xlink:href="#path-4"></use>
                </g>
                <ellipse id="Oval-3" fill="#FFBEBE" cx="96.8362004" cy="500.146028" rx="4.80179506" ry="4.80140187"></ellipse>
                <ellipse id="Oval-3-Copy" fill="#FFBEBE" cx="128.848168" cy="500.146028" rx="4.80179506" ry="4.80140187"></ellipse>
                <ellipse id="Oval-3-Copy-2" fill="#FFBEBE" cx="543.403141" cy="418.522196" rx="4.80179506" ry="4.80140187"></ellipse>
                <ellipse id="Oval-3-Copy-3" fill="#FFBEBE" cx="841.114435" cy="156.845794" rx="4.80179506" ry="4.80140187"></ellipse>
                <ellipse id="Oval-3-Copy-5" fill="#FFBEBE" cx="845.91623" cy="261.676402" rx="4.80179506" ry="4.80140187"></ellipse>
                <rect id="Rectangle-13" fill="url(#linearGradient-6)" x="96.0359013" y="508.148364" width="1.60059835" height="152.044393" rx="0.800299177"></rect>
                <rect id="Rectangle-13-Copy" fill="url(#linearGradient-7)" x="128.848168" y="504.94743" width="1.60059835" height="152.044393" rx="0.800299177"></rect>
                <rect id="Rectangle-13-Copy-2" fill="url(#linearGradient-8)" x="542.602842" y="436.92757" width="1.60059835" height="220.064252" rx="0.800299177"></rect>
                <rect id="Rectangle-13-Copy-3" fill="url(#linearGradient-8)" x="841.114435" y="182.453271" width="1.60059835" height="502.546729" rx="0.800299177"></rect>
                <rect id="Rectangle-13-Copy-4" fill="url(#linearGradient-8)" x="850.718025" y="36.010514" width="1.60059835" height="648.989486" rx="0.800299177"></rect>
                <path d="M104.867901,449.790636 C104.867901,450.968242 104.522304,451.937832 103.831101,452.699436 C103.139897,453.461039 102.224707,453.841836 101.085501,453.841836 C99.9334953,453.841836 99.0119046,453.483439 98.3207011,452.766636 C97.6294977,452.049832 97.2839012,451.096242 97.2839012,449.905836 C97.2839012,449.022631 97.5718983,447.998642 98.1479011,446.833836 L101.507901,440.056236 L102.928701,440.056236 L99.875901,446.200236 C100.298303,446.008235 100.778298,445.912236 101.315901,445.912236 C102.378306,445.912236 103.235898,446.273832 103.888701,446.997036 C104.541504,447.720239 104.867901,448.65143 104.867901,449.790636 Z M103.485501,449.848236 C103.485501,449.054632 103.280703,448.401838 102.871101,447.889836 C102.423099,447.352233 101.821505,447.083436 101.066301,447.083436 C100.336697,447.083436 99.7543032,447.333033 99.3191011,447.832236 C98.8838989,448.331438 98.6663011,449.003432 98.6663011,449.848236 C98.6663011,450.68024 98.8838989,451.349033 99.3191011,451.854636 C99.7543032,452.360238 100.336697,452.613036 101.066301,452.613036 C101.795905,452.613036 102.381499,452.360238 102.823101,451.854636 C103.264703,451.349033 103.485501,450.68024 103.485501,449.848236 Z M116.8487,444.779436 L125.0471,444.779436 L125.0471,448.235436 L116.8487,448.235436 L116.8487,444.779436 Z M125.0471,443.493036 L116.8487,443.493036 L116.8487,440.133036 L125.0471,440.133036 L125.0471,443.493036 Z M116.7719,449.521836 L125.0471,449.521836 L125.0471,453.342636 C125.0471,453.899436 124.8167,454.187435 124.3751,454.187435 C123.6455,454.187435 122.8391,454.149035 121.9559,454.110635 L122.3399,455.473835 L124.8167,455.473835 C125.891899,455.473835 126.448699,454.917035 126.448699,453.822636 L126.448699,438.808236 L115.4471,438.808236 L115.4471,448.177836 C115.4087,450.827436 114.7751,453.016236 113.5079,454.744235 L114.5639,455.704235 C115.8119,454.072235 116.5415,452.017836 116.7719,449.521836 Z" id="6-月" fill="#FFFFFF"></path>
                <path d="M530.838263,385.144511 C530.838263,386.283716 530.454267,387.214907 529.686263,387.93811 C528.918259,388.661314 527.958269,389.02291 526.806263,389.02291 C525.654258,389.02291 524.694267,388.661314 523.926263,387.93811 C523.15826,387.214907 522.774264,386.283716 522.774264,385.144511 C522.774264,383.710903 523.459057,382.603715 524.828663,381.822911 C523.638258,381.144507 523.043064,380.133318 523.043064,378.789311 C523.043064,377.726906 523.39826,376.850114 524.108663,376.158911 C524.819067,375.467708 525.718258,375.122111 526.806263,375.122111 C527.894269,375.122111 528.79346,375.467708 529.503863,376.158911 C530.214267,376.850114 530.569463,377.726906 530.569463,378.789311 C530.569463,380.133318 529.980669,381.144507 528.803063,381.822911 C530.15987,382.590914 530.838263,383.698103 530.838263,385.144511 Z M529.187063,378.808511 C529.187063,378.091707 528.966265,377.502913 528.524663,377.042111 C528.083061,376.581309 527.510267,376.350911 526.806263,376.350911 C526.10226,376.350911 525.529466,376.581309 525.087863,377.042111 C524.646261,377.502913 524.425463,378.091707 524.425463,378.808511 C524.425463,379.525314 524.646261,380.110909 525.087863,380.565311 C525.529466,381.019713 526.10226,381.246911 526.806263,381.246911 C527.510267,381.246911 528.083061,381.019713 528.524663,380.565311 C528.966265,380.110909 529.187063,379.525314 529.187063,378.808511 Z M529.455863,385.125311 C529.455863,384.370107 529.203066,383.736513 528.697463,383.224511 C528.191861,382.712508 527.561467,382.456511 526.806263,382.456511 C526.05106,382.456511 525.420666,382.712508 524.915063,383.224511 C524.409461,383.736513 524.156663,384.370107 524.156663,385.125311 C524.156663,385.880514 524.409461,386.514108 524.915063,387.02611 C525.420666,387.538113 526.05106,387.79411 526.806263,387.79411 C527.561467,387.79411 528.191861,387.538113 528.697463,387.02611 C529.203066,386.514108 529.455863,385.880514 529.455863,385.125311 Z M542.607862,379.960511 L550.806262,379.960511 L550.806262,383.416511 L542.607862,383.416511 L542.607862,379.960511 Z M550.806262,378.674111 L542.607862,378.674111 L542.607862,375.314111 L550.806262,375.314111 L550.806262,378.674111 Z M542.531062,384.702911 L550.806262,384.702911 L550.806262,388.52371 C550.806262,389.08051 550.575862,389.36851 550.134262,389.36851 C549.404662,389.36851 548.598262,389.33011 547.715062,389.29171 L548.099062,390.65491 L550.575862,390.65491 C551.651062,390.65491 552.207862,390.09811 552.207862,389.00371 L552.207862,373.989311 L541.206262,373.989311 L541.206262,383.358911 C541.167862,386.00851 540.534262,388.19731 539.267063,389.92531 L540.323062,390.88531 C541.571062,389.25331 542.300662,387.19891 542.531062,384.702911 Z M563.094261,383.205311 L567.817461,383.205311 C567.913461,384.030911 568.047861,384.760511 568.239861,385.39411 C568.700661,387.04531 569.257461,388.31251 569.910261,389.17651 C570.543861,390.02131 571.196661,390.44371 571.849461,390.44371 C572.348661,390.44371 572.790261,390.07891 573.193461,389.34931 C573.51986,388.73491 573.82706,387.96691 574.09586,387.06451 L572.943861,386.31571 C572.540661,388.06291 572.156661,388.96531 571.772661,389.02291 C571.388661,389.00371 570.966261,388.61971 570.505461,387.87091 C570.063861,387.10291 569.679861,385.97011 569.372661,384.510911 C569.295861,384.107711 569.219061,383.666111 569.142261,383.205311 L573.174261,383.205311 L573.174261,381.899711 L569.007861,381.899711 C568.931061,381.035711 568.873461,380.075711 568.873461,379.000511 C570.255861,378.808511 571.561461,378.578111 572.828661,378.328511 L572.118261,377.195711 C568.854261,377.848511 565.379061,378.270911 561.731061,378.482111 L561.731061,386.16211 C561.731061,386.46931 561.577461,386.69971 561.270261,386.81491 L561.577461,388.06291 C563.785461,387.67891 565.705461,387.31411 567.318261,386.96851 L567.087861,385.68211 C565.782261,385.98931 564.438261,386.23891 563.094261,386.46931 L563.094261,383.205311 Z M567.663861,381.899711 L563.094261,381.899711 L563.094261,379.576511 C564.611061,379.461311 566.089461,379.326911 567.529461,379.173311 C567.529461,380.152511 567.587061,381.054911 567.663861,381.899711 Z M565.916661,373.163711 L564.476661,373.394111 C564.822261,373.854911 565.129461,374.373311 565.417461,374.949311 L558.313461,374.949311 L558.313461,380.651711 C558.275061,384.568511 557.718261,387.62131 556.662261,389.81011 L557.699061,390.73171 C558.966261,388.19731 559.619061,384.837311 559.695861,380.651711 L559.695861,376.293311 L573.90386,376.293311 L573.90386,374.949311 L566.838261,374.949311 C566.531061,374.296511 566.223861,373.701311 565.916661,373.163711 Z M561.404661,389.09971 L561.404661,390.38611 L568.374261,390.38611 L568.374261,389.09971 L561.404661,389.09971 Z" id="8-月底" fill="#FFFFFF"></path>
                <path d="M760.217825,137.634346 L758.835425,137.634346 L758.835425,125.499947 L756.281825,127.746346 L756.281825,126.171946 L758.835425,123.963947 L760.217825,123.963947 L760.217825,137.634346 Z M772.659424,133.986346 C772.659424,135.099952 772.304227,136.005542 771.593824,136.703146 C770.88342,137.400749 769.990629,137.749546 768.915424,137.749546 C767.840219,137.749546 766.947428,137.400749 766.237024,136.703146 C765.526621,136.005542 765.171424,135.099952 765.171424,133.986346 L765.171424,127.611946 C765.171424,126.498341 765.526621,125.59275 766.237024,124.895147 C766.947428,124.197543 767.840219,123.848747 768.915424,123.848747 C769.990629,123.848747 770.88342,124.197543 771.593824,124.895147 C772.304227,125.59275 772.659424,126.498341 772.659424,127.611946 L772.659424,133.986346 Z M771.277024,133.909546 L771.277024,127.688746 C771.277024,126.920743 771.069026,126.293549 770.653024,125.807146 C770.237022,125.320744 769.657828,125.077547 768.915424,125.077547 C768.17302,125.077547 767.593826,125.320744 767.177824,125.807146 C766.761822,126.293549 766.553824,126.920743 766.553824,127.688746 L766.553824,133.909546 C766.553824,134.67755 766.761822,135.304744 767.177824,135.791146 C767.593826,136.277548 768.17302,136.520746 768.915424,136.520746 C769.657828,136.520746 770.237022,136.277548 770.653024,135.791146 C771.069026,135.304744 771.277024,134.67755 771.277024,133.909546 Z M784.717023,128.687146 L792.915423,128.687146 L792.915423,132.143146 L784.717023,132.143146 L784.717023,128.687146 Z M792.915423,127.400746 L784.717023,127.400746 L784.717023,124.040747 L792.915423,124.040747 L792.915423,127.400746 Z M784.640223,133.429546 L792.915423,133.429546 L792.915423,137.250346 C792.915423,137.807146 792.685023,138.095146 792.243423,138.095146 C791.513823,138.095146 790.707423,138.056746 789.824223,138.018346 L790.208223,139.381546 L792.685023,139.381546 C793.760223,139.381546 794.317023,138.824746 794.317023,137.730346 L794.317023,122.715947 L783.315423,122.715947 L783.315423,132.085546 C783.277023,134.735146 782.643423,136.923946 781.376223,138.651946 L782.432223,139.611946 C783.680223,137.979946 784.409823,135.925546 784.640223,133.429546 Z M805.203422,131.931946 L809.926622,131.931946 C810.022622,132.757546 810.157022,133.487146 810.349022,134.120746 C810.809822,135.771946 811.366622,137.039146 812.019422,137.903146 C812.653021,138.747946 813.305821,139.170346 813.958621,139.170346 C814.457821,139.170346 814.899421,138.805546 815.302621,138.075946 C815.629021,137.461546 815.936221,136.693546 816.205021,135.791146 L815.053021,135.042346 C814.649821,136.789546 814.265821,137.691946 813.881821,137.749546 C813.497821,137.730346 813.075421,137.346346 812.614621,136.597546 C812.173022,135.829546 811.789022,134.696746 811.481822,133.237546 C811.405022,132.834346 811.328222,132.392746 811.251422,131.931946 L815.283421,131.931946 L815.283421,130.626346 L811.117022,130.626346 C811.040222,129.762346 810.982622,128.802346 810.982622,127.727146 C812.365021,127.535146 813.670621,127.304746 814.937821,127.055146 L814.227421,125.922346 C810.963422,126.575146 807.488222,126.997546 803.840222,127.208746 L803.840222,134.888746 C803.840222,135.195946 803.686622,135.426346 803.379422,135.541546 L803.686622,136.789546 C805.894622,136.405546 807.814622,136.040746 809.427422,135.695146 L809.197022,134.408746 C807.891422,134.715946 806.547422,134.965546 805.203422,135.195946 L805.203422,131.931946 Z M809.773022,130.626346 L805.203422,130.626346 L805.203422,128.303146 C806.720222,128.187946 808.198622,128.053546 809.638622,127.899946 C809.638622,128.879146 809.696222,129.781546 809.773022,130.626346 Z M808.025822,121.890347 L806.585822,122.120747 C806.931422,122.581547 807.238622,123.099947 807.526622,123.675947 L800.422622,123.675947 L800.422622,129.378346 C800.384222,133.295146 799.827422,136.347946 798.771422,138.536746 L799.808222,139.458346 C801.075422,136.923946 801.728222,133.563946 801.805022,129.378346 L801.805022,125.019947 L816.013021,125.019947 L816.013021,123.675947 L808.947422,123.675947 C808.640222,123.023147 808.333022,122.427947 808.025822,121.890347 Z M803.513822,137.826346 L803.513822,139.112746 L810.483422,139.112746 L810.483422,137.826346 L803.513822,137.826346 Z" id="10-月底" fill="#FFFFFF"></path>
            </g>
        </g>
    </g>
</svg>